<?xml version="1.0" standalone="no"?>
<!DOCTYPE svg PUBLIC "-//W3C//DTD SVG 1.1//EN" "http://www.w3.org/Graphics/SVG/1.1/DTD/svg11.dtd" >
<svg xmlns="http://www.w3.org/2000/svg" xmlns:xlink="http://www.w3.org/1999/xlink" version="1.1">
<metadata>
Created by FontForge 20170731 at Fri Jan  1 02:30:17 1904
 By Aleksey,,,
Converted by ALLTYPE
</metadata>
<defs>
<font id="Garamond-BoldItalic" horiz-adv-x="363" >
  <font-face 
    font-family="Garamond"
    font-weight="7"
    font-style="italic"
    font-stretch="normal"
    units-per-em="1000"
    panose-1="0 0 0 0 0 0 0 0 0 0"
    ascent="800"
    descent="-200"
    x-height="441"
    cap-height="625"
    bbox="-135.143 -246.5 1168.66 869"
    underline-thickness="50"
    underline-position="-155"
    slope="23853"
    unicode-range="U+0020-F002"
  />
<missing-glyph 
 />
    <glyph glyph-name=".notdef" 
 />
    <glyph glyph-name="glyph1" horiz-adv-x="0" 
 />
    <glyph glyph-name="glyph2" horiz-adv-x="323" 
 />
    <glyph glyph-name="space" unicode=" " 
 />
    <glyph glyph-name="space" unicode="&#xa0;" 
 />
    <glyph glyph-name="exclam" unicode="!" horiz-adv-x="260" 
d="M75 47q3 10 8.5 18.5t14.5 14.5q5 3 9 5.5t9 3.5q4 2 8.5 2.5t8.5 0.5l40 1q9 -1 16.5 -4t13.5 -9t7.5 -14.5t-1.5 -20.5q-4 -15 -10.5 -25.5t-16.5 -17.5q-9 -6 -17.5 -9.5t-16.5 -3.5h-40q-9 0 -16.5 3t-13.5 9q-5 8 -6 18.5t3 25.5v2v0zM142 181l79 410q3 10 8.5 18.5
t14.5 14.5q5 3 9 5.5t9 3.5q4 2 8.5 2.5t8.5 0.5l40 1q9 -1 16.5 -4t13.5 -9t7.5 -14.5t-1.5 -20.5l-149 -408q-1 -5 -3 -7.5t-4 -4.5t-4.5 -3.5t-4.5 -1.5l-40 1q-3 -2 -4.5 -1t-3.5 2q-1 2 -1 5.5t1 7.5v2v0z" />
    <glyph glyph-name="quotedbl" unicode="&#x22;" horiz-adv-x="379" 
d="M161 339l50 244q4 13 8.5 22.5t11.5 15.5q3 3 6.5 5.5t6.5 4.5q3 1 6.5 2t6.5 1l40 1h1h2q5 -2 10.5 -5.5t9.5 -10.5t4.5 -16.5t-3.5 -21.5l-89 -242q-2 -9 -5 -15t-6 -10q-4 -4 -7 -5.5t-5 -1.5l-40 1q-3 -1 -5 0.5t-4 5.5t-1.5 10t2.5 13v2v0zM303 339l48 236
q3 13 8.5 24t13.5 18q6 5 10.5 8.5t9.5 6.5q3 1 5.5 2t4.5 1l40 1h1h2q6 -1 11 -4t9 -9q3 -6 3 -15.5t-3 -22.5l-1 -2l-1 -3l-2 -3l-1 -3l-87 -235q-2 -9 -5 -15t-6 -10q-4 -4 -7 -5.5t-5 -1.5l-40 1q-3 -1 -5 0.5t-4 5.5t-1.5 10t2.5 13v2v0z" />
    <glyph glyph-name="numbersign" unicode="#" horiz-adv-x="544" 
d="M256 370h-38l-4 -1h-40h-3l-5 3q-1 0 -1.5 1.5t0.5 4.5q0 1 0.5 1.5l0.5 0.5q0 2 0.5 3.5t1.5 3.5q2 3 4.5 6t5.5 7q5 8 10.5 13.5t10.5 6.5q6 2 12 2.5t12 0.5l63 2q9 -2 15.5 -1t11.5 2q4 2 9 7t11 14l54 88l4 6t5 6t6 5.5t6 3.5l4 2l4 1h40q1 -1 1.5 -1h0.5
q1 -1 2.5 -1.5t1.5 -1.5q2 -1 2 -3v-4l-1 -2l-2 -4l-57 -93q-1 -4 -2.5 -6t-2.5 -4l-2 -5q-1 -5 -0.5 -7t2.5 -3h0.5h0.5h0.5h0.5l27 1h40l6 -1h-40h6q2 -1 4.5 -0.5t5.5 0.5q2 1 4.5 1.5t4.5 1.5q5 2 8 5t4 7l68 104q2 2 4 4.5t5 4.5q1 1 2.5 1.5t2.5 1.5t2.5 1.5t2.5 1.5
l40 1h6.5t4.5 -1q3 -1 4 -3.5t0 -5.5l-1 -3l-2 -4l-66 -101l-4 -6l-2 -4q-1 -4 -0.5 -5.5t3.5 -1.5h0.5h0.5l0.5 -0.5l0.5 -0.5l35 2h40q12 -2 21 -2.5t13 -0.5q5 -1 6.5 -2.5t0.5 -4.5l-3 -5q-1 -3 -2 -5.5t-3 -4.5q-6 -10 -11.5 -17t-10.5 -10q-2 -1 -3.5 -2t-3.5 -1
q-4 -1 -7.5 -1.5t-6.5 -0.5l-40 1h-3h-2h-30q-7 -1 -13.5 -1.5t-12.5 -1.5q-8 -1 -12.5 -4.5t-6.5 -9.5l-54 -84l2 -8q0 -1 0.5 -1h1.5q0 -1 1 -1h2l45 2h40q8 -2 13.5 -2.5t8.5 -0.5q2 -1 3.5 -2.5t0.5 -3.5l-0.5 -1l-0.5 -1q0 -1 -0.5 -2l-1.5 -3q0 -1 -0.5 -1.5
l-1.5 -1.5q-1 -2 -1.5 -3.5t-2.5 -3.5q-2 -3 -3.5 -6.5t-3.5 -5.5q-4 -6 -7.5 -9t-6.5 -5q-6 -3 -11 -4t-10 -1l-40 1h-3h-2h-30q-7 -1 -13.5 -1.5t-12.5 -1.5q-8 -1 -12.5 -4.5t-6.5 -9.5l-68 -108q-2 -4 -4.5 -6t-5.5 -4q-3 -1 -6 -2.5t-5 -1.5l-40 1h-2h-2q-2 -1 -4 -1
t-4 1q-1 1 -2 2.5t0 3.5v2l1 2v0l1 2l70 111q5 4 5.5 7.5t-1.5 4.5q-3 1 -15 1.5t-32 0.5l-6 1q-2 -1 -3.5 -1.5t-2.5 -0.5q-2 0 -3 -0.5t-2 -0.5q-4 -1 -7.5 -5t-8.5 -10l-2 -3l-2 -3l-69 -109q-1 -3 -3 -4.5t-4 -2.5t-4.5 -1h-5.5l-40 1q-3 -1 -6 -1t-5 1l-4 6l81 127v0
l2 1l-1 2q-1 0 -2 0.5t-4 1.5h-3t-4 1h-4.5h-5.5l-70 2q-6 -2 -10 -2t-6 1q-3 0 -3.5 2t0.5 5q0 1 0.5 1.5l0.5 0.5q0 1 0.5 2.5t1.5 3.5t2 3.5t2 3.5l2 4l2 4q6 9 11.5 14.5t10.5 6.5q6 2 12 2.5t12 0.5l63 2q9 -2 15.5 -1t11.5 2q4 2 9 6.5t10 13.5l52 81h-1l-1 3
q-1 0 -2.5 0.5t-3.5 1.5h-3t-3 1h-4h-4l1 2v0zM398 370h-7q-13 -2 -21 -2.5t-12 -1.5q-1 0 -2 -0.5t-2 -0.5q-3 -2 -5.5 -4.5t-4.5 -6.5l-4 -4l-3 -5l-41 -62q-1 -4 -2.5 -6t-1.5 -4l-3 -5l1 -8v-1h1v-0.5v-0.5l38 2q9 -2 15 -2t9 1q2 0 3.5 1t3.5 3q2 1 4 3t3 4l3 5
q1 1 2 2.5t2 3.5l41 65q2 1 3.5 3.5t2.5 4.5q0 1 0.5 2t0.5 2l0.5 1t0.5 2q1 2 0.5 3.5t-3.5 2.5h-3.5t-5.5 1h-6.5h-7.5l1 2v0z" />
    <glyph glyph-name="dollar" unicode="$" horiz-adv-x="544" 
d="M305 291q1 0 0.5 0.5t-0.5 1.5v1.5v1.5q0 2 -1 4.5t-3 4.5q-1 2 -3.5 4.5t-5.5 4.5l-4 2l-4 2q-2 0 -4 1t-5 2q-23 12 -39.5 26t-25.5 30q-10 16 -14 32.5t-3 32.5q-1 3 -0.5 6t1.5 7q0 2 0.5 3.5t1.5 3.5q0 1 0.5 3t0.5 3q8 26 23 50t40 46q23 21 49 35t54 21
q6 0 11.5 1t10.5 4q5 2 8.5 5t4.5 6l23 88l1 1t1 2q1 0 2 1l2 2q2 2 4.5 2.5t5.5 1.5l40 1v0h2h1h1q3 -2 5.5 -2.5t3.5 -2.5q2 -1 3 -3.5t0 -4.5l-23 -84q-1 -5 0 -8t3 -5q2 -3 6 -4t10 -1q3 -1 6 -1.5t6 -0.5h3.5h3.5q1 -1 3 -1h4q18 -3 33.5 -6t27.5 -8q13 -4 17.5 -13.5
t-0.5 -24.5l-14 -53q-4 -13 -8 -20.5t-10 -11.5l-40 1q-5 -5 -9 -3.5t-7 7.5q-1 2 -2.5 4.5t-2.5 5.5q0 2 -0.5 3.5t-0.5 3.5t-0.5 4t-0.5 4v3l1 3q-1 10 -3 20.5t-5 20.5q-3 11 -10 18.5t-16 13.5q-1 1 -2.5 1.5t-3.5 0.5q-1 -1 -1.5 -4t-2.5 -6l-46 -172q-3 -13 -2 -21
t7 -13l14 -8t15 -7q29 -13 47.5 -30.5t27.5 -40.5q9 -22 10.5 -45t-4.5 -47q-8 -30 -25.5 -57.5t-43.5 -53.5q-26 -25 -56 -41.5t-62 -22.5l-2 1h-1q-4 -1 -7.5 -2t-6.5 -2q-2 -1 -3.5 -1.5t-3.5 -1.5q-5 -2 -8 -4.5t-4 -5.5l-23 -85q-1 -5 -3 -8t-5 -5l-4 -2t-4 -1
q-1 -1 -2 -1h-2h-40q-3 0 -5.5 1t-4.5 3t-2.5 5t0.5 8l22 79q0 1 -1.5 3.5t-3.5 5.5q-3 2 -8.5 3.5t-13.5 1.5q-5 0 -10 1l-10 2q-2 0 -4.5 0.5t-4.5 1.5q-3 1 -5.5 1.5t-4.5 1.5q-17 5 -31.5 11t-26.5 13q-13 8 -17.5 17.5t-0.5 21.5l19 72q2 9 6 16.5t8 13.5q5 6 9 9t8 4
l40 1q3 -1 5.5 -3t3.5 -5q2 -4 2.5 -9t0.5 -13q-2 -6 -3.5 -13.5t-3.5 -15.5q-1 -4 -1 -8.5v-8.5v-9t1 -9q2 -9 6 -17.5t11 -16.5q6 -8 16.5 -14.5t23.5 -12.5q2 2 2.5 3.5t1.5 3.5l63 238v0v0zM314 55v-1.5v-0.5v-0.5v-0.5q4 2 8 4.5t8 4.5q2 2 4.5 4t5.5 4l6 4t5 4
q11 8 20.5 18t16.5 20q7 11 12.5 21.5t8.5 21.5q2 5 2.5 10.5t0.5 11.5q1 1 1 3v4q0 4 -0.5 8t-0.5 8q-1 3 -2 7t-3 8q-1 5 -3.5 10t-5.5 10q-2 2 -3.5 4.5t-3.5 5.5q-2 2 -3.5 4.5t-3.5 5.5l-2 2l-2 2l-1 1t-1 2q-1 1 -2 1.5t-1 1.5h-1v0q-1 1 -1 1.5t-1 0.5l-58 -215v0v0z
M340 419l45 170q-7 -4 -13.5 -8.5t-12.5 -9.5q-3 -3 -6.5 -6t-6.5 -6q-13 -12 -21.5 -25.5t-12.5 -28.5l-2 -12t-1 -12v-6t1 -6q1 -4 2 -7l2 -6q2 -7 5.5 -13t8.5 -12q2 -3 5 -6l7 -7v1z" />
    <glyph glyph-name="percent" unicode="%" horiz-adv-x="804" 
d="M520 181q14 46 34.5 82t48.5 61q27 26 53.5 39.5t51.5 16.5l40 1h4h5q26 -1 45 -13.5t33 -37.5t14.5 -62.5t-13.5 -88.5q-13 -50 -34 -87.5t-47 -62.5q-27 -24 -53 -36t-51 -13h-40h-5h-4q-23 2 -42 14.5t-33 37.5t-15.5 61.5t8.5 85.5v2v0zM616 181q-11 -47 -13.5 -80.5
t4.5 -53.5q5 -13 11 -22t14 -14q10 4 20.5 11.5t21.5 18.5q16 16 29 37t23 46q3 8 5.5 15.5t4.5 14.5q2 8 4.5 14.5t4.5 13.5q11 42 13.5 74t-4.5 54q-5 16 -12.5 26.5t-16.5 14.5q-11 -4 -22.5 -14t-24.5 -24q-19 -22 -34.5 -55.5t-27.5 -77.5v1zM729 606q4 3 7 6t5 6
l1.5 1.5l1.5 1.5q2 1 3.5 2t2.5 2l7 3q1 -1 2 -1t2 1h2.5h2.5l40 1q9 -1 14 -1.5t6 -1.5q0 -1 -1.5 -4.5t-6.5 -9.5l-589 -612l-5 -5l-3 -4q-2 -2 -4.5 -3.5t-5.5 -2.5h-3t-5 -1h-5h-6h-40h-3.5h-3.5q-1 1 -2 1h-2l-3 4q0 1 1 3l2 4q2 2 4.5 4t5.5 6l578 600v0v0zM134 441
q14 47 35 83t49 60t55 36.5t53 13.5l40 1q26 -1 45.5 -13t34.5 -36q14 -25 15 -61.5t-13 -85.5q-13 -51 -33.5 -89t-49.5 -64q-28 -25 -54 -38t-52 -13l-40 1q-25 -1 -46 11.5t-35 37.5q-15 26 -16 64t11 90l1 2v0zM229 441l-1.5 -6t-1.5 -4v-2t-1 -1q0 -1 -0.5 -2t-0.5 -2
q-10 -40 -12.5 -70t4.5 -51q5 -16 12.5 -26.5t16.5 -15.5q8 3 16.5 8.5t16.5 13.5q14 14 26 35.5t22 49.5q2 5 3.5 10t3.5 9q2 5 3.5 10t3.5 9q3 9 6 17.5t5 16.5q11 41 12.5 72t-5.5 50q-4 13 -11.5 22t-15.5 14q-10 -5 -22 -13.5t-24 -22.5q-16 -19 -29.5 -46t-23.5 -63
l-1 -3l-1 -3l-1 -4v-2v0z" />
    <glyph glyph-name="ampersand" unicode="&#x26;" horiz-adv-x="741" 
d="M309 362q1 1 -1.5 4t-7.5 8t-10.5 13t-10.5 18q-3 5 -5 11.5t-4 13.5l-2 16t-2 17q-1 4 -1 8.5v8.5q1 5 2.5 10t2.5 10q0 2 0.5 3l1.5 3q0 1 0.5 2.5t0.5 2.5q1 3 2.5 6t2.5 6q9 21 26.5 41t41.5 38q25 18 56 28.5t69 13.5l40 1h3h3h2h3q35 -1 62 -11t45 -31
q19 -21 25 -44t-1 -48l-2 -5l-3 -6q-4 -10 -9 -19t-13 -18q-7 -9 -17 -16.5t-21 -15.5q-6 -4 -12 -7t-13 -6t-13.5 -6t-13.5 -6q-17 -7 -32.5 -13t-29.5 -11t-21 -8.5t-8 -5.5q0 -1 0.5 -3.5t2.5 -5.5t4 -5.5t4 -4.5q1 -1 2 -2.5t2 -3.5q1 -1 2 -2.5t2 -3.5l3 -7l72 -110
l66 71q5 4 9.5 8.5t6.5 8.5q3 4 5 7.5t3 6.5q2 5 0 9t-7 5q-2 1 -4 1.5t-4 0.5q-4 1 -7.5 2t-8.5 2l-2 1v1q-7 0 -14 1.5t-12 3.5t-6.5 7t-0.5 12q2 4 4 6.5t6 3.5q5 2 10 2.5t12 0.5l40 1q2 -1 4 -1h4q3 -1 5 -1h5q4 -1 9 -1h11h6q1 -1 2 -1h2q0 -1 1 -1h2h3.5h2.5
q2 -1 3.5 -1h2.5h2h2t2 0.5t2 0.5l3 1h4q5 -1 9.5 -1h8.5h4t5 1h4h4l40 1q8 -1 15 -1.5t12 -1.5t7 -3t1 -5q-1 -7 -4 -11t-6 -6q-4 -1 -8 -2.5t-9 -1.5q-9 -1 -19.5 -3t-24.5 -6q-13 -4 -30 -16t-38 -33l-94 -84q-4 -5 -7 -8t-5 -6t-3.5 -6l-2.5 -5q-1 -4 -1 -7t1 -6
q0 -3 1.5 -6t3.5 -6l73 -108q2 -5 6 -8t8 -5q4 -1 8.5 -2t8.5 -1q2 -1 4.5 -1h5.5h4.5h4.5l3 1h3q6 -2 11.5 -2.5t9.5 -1.5t6.5 -4.5t3.5 -8.5q-1 -6 -4.5 -10t-10.5 -4q-7 -2 -16.5 -3t-20.5 -1h-40h-4h-4q-3 1 -5 1h-4h-8.5h-9.5l-5 1h-5q-4 0 -7.5 0.5t-6.5 1.5h-3.5
h-3.5h-7.5h-6.5h-5h-5q-5 -1 -10 -1.5t-10 -0.5h-7.5t-6.5 -1h-6h-6h-6t-6 -1h-5.5h-4.5h-40q-10 0 -16.5 1t-11.5 3q-5 0 -6.5 4t0.5 10q1 5 4 8t10 4q5 1 11 1.5t13 0.5v1h1v0h2q12 -1 22 1.5t17 8.5q6 5 1.5 19.5t-18.5 38.5q-3 -3 -6.5 -6t-8.5 -7q-17 -16 -51.5 -35.5
t-85.5 -42.5q-10 -4 -19.5 -7t-19.5 -6q-10 -2 -20.5 -3.5t-20.5 -1.5h-40h-7.5t-6.5 1q-3 0 -6.5 0.5t-7.5 1.5q-7 1 -13.5 2.5t-12.5 3.5q-7 2 -13.5 4t-13.5 5t-12.5 7.5t-10.5 8.5q-16 10 -25 24t-13 32t-3.5 37.5t5.5 39.5l1 4l1 3q5 19 13.5 37.5t21.5 36.5t28.5 31
t34.5 22q5 2 9 4l8 4q5 2 9.5 4.5t9.5 4.5q20 8 38 15.5t35 14.5t26 13t10 11v2v0zM442 150l-112 173l-1 1q-8 -4 -16.5 -8.5t-18.5 -10.5q-21 -12 -37.5 -25t-29.5 -27t-22 -28.5t-14 -28.5l-2 -5l-2 -5q-6 -24 -4 -45.5t12 -41.5q11 -20 28 -33.5t42 -20.5q2 -1 3.5 -1.5
t3.5 -0.5q7 1 14 2.5t15 3.5q5 1 10 2.5t10 3.5q4 1 7.5 2.5t6.5 2.5q8 3 16 7.5t15 9.5q18 11 33 21.5t26 19.5q12 9 16 16.5t0 13.5l1 2v0zM425 403q21 7 37.5 15t29.5 18q17 14 29 27.5t19 27.5q0 1 0.5 2t1.5 2t1.5 2.5t0.5 2.5q1 2 1.5 4.5t1.5 5.5q5 20 3 37t-12 33
q-9 15 -21.5 24.5t-28.5 13.5q-21 -4 -37.5 -10t-29.5 -16q-15 -11 -23.5 -24.5t-13.5 -28.5q-1 -7 -2.5 -13.5t-0.5 -13.5v-7.5v-6.5q0 -2 0.5 -4t0.5 -4q0 -1 0.5 -3t0.5 -4q3 -13 8 -25t12 -24q5 -9 10.5 -16.5t11.5 -15.5v1z" />
    <glyph glyph-name="quotesingle" unicode="'" horiz-adv-x="260" 
d="M273 551l-5 4q-1 -1 -2 -1t-3 1h-2h-3l-5 1h-6q-4 -1 -8 0l-8 2q-4 2 -5.5 5.5t-1.5 9.5v2.5v2.5v4.5v4.5q0 3 0.5 6t1.5 6q2 10 7 17.5t14 13.5q5 4 11 6.5t13 4.5q2 0 4 0.5t4 0.5l40 1q5 -1 9.5 -2t8.5 -3q4 -1 7 -4l6 -6q5 -7 7 -14t3 -15q1 -7 0 -15.5t-3 -16.5
q-1 -4 -2.5 -8t-3.5 -8l-2 -4t-1 -4q-1 -2 -2 -3.5t-2 -3.5q-6 -13 -14 -26.5t-18 -26.5t-19.5 -23.5t-18.5 -19.5l-2.5 -2.5l-2.5 -2.5t-2.5 -2t-2.5 -2q-2 -2 -4.5 -4t-4.5 -4q-1 -1 -2.5 -2t-2.5 -2q-4 -3 -8 -5.5t-7 -3.5q-5 -2 -8.5 -3t-6.5 -1l-40 1q-5 -2 -7 -0.5
t-2 5.5q1 4 4.5 8.5t10.5 10.5l3.5 3.5t3.5 2.5l3.5 3.5t3.5 2.5q3 2 5.5 4t4.5 4l2.5 2.5l2.5 2.5q6 5 11.5 10.5t10.5 11.5q5 5 9 10.5t8 10.5q8 11 13 19.5t7 15.5q1 2 0.5 3.5t-0.5 2.5v1.5v1.5l-1 7v1v0z" />
    <glyph glyph-name="parenleft" unicode="(" horiz-adv-x="402" 
d="M117 323q21 67 60 125.5t96 109.5q58 51 117.5 88t121.5 61h2t2 1h2h2h2t2 1h2h2l40 1q8 -1 11 -3t3 -6q-1 -4 -8 -8.5t-20 -9.5q-62 -22 -113.5 -59.5t-91.5 -90.5q-41 -52 -69 -108t-44 -115l-1 -1v-2q-18 -66 -19 -127t12 -118q14 -56 46 -93t81 -56q4 -1 6.5 -2
t3.5 -2l2 -4q0 -2 -1.5 -3.5t-5.5 -2.5q-3 -2 -7 -2.5t-9 -0.5h-40h-4h-4t-4.5 0.5t-4.5 1.5q-4 2 -8 4.5t-8 4.5t-8 4.5t-8 4.5q-2 1 -5 3t-5 3q-5 4 -10 7.5t-10 7.5q-33 25 -60 60t-48 80t-22 102.5t18 126.5v2t1 2l0.5 1t0.5 2q0 2 0.5 4t1.5 4v2v0z" />
    <glyph glyph-name="parenright" unicode=")" horiz-adv-x="402" 
d="M330 323q13 54 14 100.5t-8 83.5q-10 38 -23.5 67t-30.5 51q-10 11 -19.5 20.5t-19.5 16.5q-10 8 -19 13t-17 8q-3 1 -5.5 1.5t-4.5 2.5q-1 0 -1.5 0.5t-1.5 0.5t-1.5 0.5t-0.5 1.5q-2 1 -3.5 2t-2.5 2v5v3l1 3q2 0 4 0.5t5 0.5l40 1l10 -2.5t15 -3.5q8 -3 18 -7.5
t23 -10.5q38 -19 68 -51.5t52 -79.5q22 -46 30 -95t2 -100v-4.5v-4.5q-1 -2 -1 -4.5v-4.5q-1 -4 -2 -8.5t-2 -9.5q-1 -2 -1.5 -4t-0.5 -4l-1 -5q-1 -3 -1.5 -5t-0.5 -4q0 -1 -0.5 -2l-0.5 -1q0 -1 -0.5 -2t-0.5 -2q-16 -63 -49.5 -118.5t-83.5 -105.5q-16 -16 -32.5 -31
t-33.5 -29q-33 -26 -65.5 -47t-66.5 -37q-4 -2 -7.5 -3.5t-6.5 -2.5q-2 -1 -3.5 -1.5t-3.5 -1.5q-5 -2 -10.5 -4.5t-10.5 -4.5l-17.5 -7t-14.5 -4q-6 -2 -10.5 -2.5t-8.5 -0.5h-39l-9 2l-2 5l1 2l1 2l6 6q2 0 2.5 0.5l1.5 1.5q1 0 2.5 0.5t3.5 1.5q54 22 97.5 48t77.5 57
q32 32 58 64.5t45 66.5q12 23 22.5 45.5t17.5 44.5q8 22 14.5 42.5t11.5 39.5v2v0z" />
    <glyph glyph-name="asterisk" unicode="*" horiz-adv-x="379" 
d="M274 496q1 1 -1.5 2.5t-6.5 2.5q-2 1 -4.5 1.5t-4.5 1.5q-3 0 -6.5 0.5t-6.5 1.5h-5.5t-4.5 1h-2.5t-2.5 1q-2 0 -3 0.5t-3 0.5q-7 1 -13.5 2.5t-12.5 3.5q-7 2 -11 4.5t-6 6.5q-2 2 -3 5l-2 6t-1 6.5t1 7.5q2 6 5.5 12t8.5 10q6 5 12 7.5t13 2.5l40 1l8 -2t8 -3
t7.5 -5.5t7.5 -8.5q1 -1 1.5 -2t1.5 -1q1 -1 1.5 -2t0.5 -2v0v0q-1 2 -1 4.5v4.5q-1 2 -1.5 4.5t0.5 4.5q0 2 -0.5 4.5t-0.5 5.5v4.5v4.5v4t1 5q0 2 0.5 4t1.5 4q2 7 5 13t9 10q6 5 14 7t19 2l40 1q10 -1 16.5 -3t8.5 -6q3 -4 4 -8.5t0 -10.5q-1 -2 -1.5 -4.5t-1.5 -4.5
q-1 -3 -2 -5.5t-3 -4.5q-1 -2 -2 -3.5t-2 -3.5q-2 -3 -4 -6.5t-4 -6.5q-1 -2 -2.5 -4t-3.5 -4l-3 -5q0 -1 -0.5 -1.5l-0.5 -0.5q0 -1 -0.5 -1.5l-0.5 -0.5l3.5 3.5t3.5 2.5l7 7q2 0 3.5 1t3.5 2q1 1 3 1.5t3 1.5q2 0 3.5 0.5t3.5 0.5q1 1 3 1h3l40 1h1h2q8 -2 14.5 -5.5
t11.5 -9.5q5 -7 5 -13.5t-5 -14.5q-2 -3 -5 -6t-7 -6t-8 -5.5t-9 -4.5t-10 -3.5t-10 -2.5q-6 -1 -11 -2l-10 -2h-2.5h-3.5q-1 -1 -2.5 -1h-2.5h-2.5h-3.5q-1 -1 -2.5 -1h-3.5q-7 -1 -13.5 -1.5t-12.5 -2.5q-5 -1 -8 -3t-4 -5q-2 -3 -0.5 -5t5.5 -4l10 -2.5t13 -3.5
q3 -1 6 -1.5t7 -0.5q2 -1 5.5 -1.5t7.5 -1.5q11 -2 20.5 -5t17.5 -7t11 -10t1 -14q-1 -2 -2 -4.5t-3 -5.5q-1 -1 -2 -3t-3 -3q-1 -2 -2 -3.5t-3 -3.5l-3.5 -3.5l-3.5 -3.5q-2 -1 -3.5 -2t-3.5 -2q-4 -1 -7 -2t-6 -1l-40 1q-3 -1 -6 -0.5t-5 1.5t-3.5 2t-2.5 2l-1.5 1.5
l-1.5 1.5q-3 2 -5.5 4t-4.5 5q-1 1 -1.5 2t-1.5 2t-1.5 2t-1.5 2v-2.5v-3.5v-0.5v-1.5l1 -5q1 -6 1 -11v-10v-9.5t-2 -9.5q-1 -7 -4.5 -12t-8.5 -10q-5 -4 -12 -6t-17 -2l-40 1q-12 -1 -19 1.5t-11 6.5q-3 5 -3.5 10t0.5 12q0 1 0.5 2t0.5 2q1 3 2.5 6.5t3.5 6.5
q2 5 4.5 9.5t6.5 8.5q0 2 1.5 4.5t3.5 4.5v0.5t1 1.5l-1.5 -1.5l-0.5 -0.5q-7 -5 -13 -9t-11 -6q-1 0 -1.5 -0.5t-1.5 -0.5q-2 0 -3.5 -0.5t-2.5 -0.5h-6h-40q-4 -1 -7.5 0t-5.5 4q-4 2 -6 6.5t-4 10.5q-1 2 -1 4.5t1 4.5q-1 2 -0.5 4t1.5 4q2 8 8 14.5t16 10.5q11 5 21.5 8
t21.5 6q2 0 4.5 0.5t5.5 1.5q3 0 5.5 0.5t4.5 0.5q5 1 9.5 1.5t8.5 1.5q5 1 9 2l8 2l7 6v1v0z" />
    <glyph glyph-name="plus" unicode="+" horiz-adv-x="599" 
d="M327 283h-189l15 56h189l53 196h40h63l-53 -196h189l-15 -56h-189l-52 -196h-40h-63l52 196v0v0z" />
    <glyph glyph-name="comma" unicode="," horiz-adv-x="300" 
d="M135 -24q2 7 1.5 10.5t-3.5 5.5q-2 1 -5.5 1.5t-8.5 0.5h-1v0h-5.5h-4.5h-2h-2q-2 1 -3 1h-2q-4 1 -7.5 3t-6.5 4q-4 3 -5.5 8t-2.5 12q-1 2 -1.5 4.5t0.5 4.5v2t1 3v2v2q3 10 9.5 19t16.5 16q5 4 10 6.5t11 4.5q5 2 10 3t10 1l40 1h3h3q7 -2 13 -5t10 -8q5 -6 8 -14
t4 -19v-10.5v-11.5q0 -3 -0.5 -6t-1.5 -5q0 -3 -0.5 -6t-1.5 -6t-2.5 -7t-3.5 -9q-1 -2 -1.5 -4.5t-1.5 -4.5q-2 -3 -3.5 -6.5t-3.5 -7.5q-2 -3 -3.5 -6.5t-3.5 -7.5q-5 -8 -10.5 -16t-11.5 -17q-6 -8 -12.5 -16t-14.5 -16q-16 -16 -33 -29.5t-36 -25.5l-6 -2l-6 -1h-40
l-6 2l-1 5q1 1 2 3.5t2 4.5q2 2 5.5 5t7.5 6q20 16 35.5 31t28.5 30q12 15 20 28t12 24v3v3v4l1 3v0v0z" />
    <glyph glyph-name="hyphen" unicode="-" 
d="M150 268h260l-33 -63h-40h-259l32 63h40v0v0z" />
    <glyph glyph-name="period" unicode="." horiz-adv-x="300" 
d="M97 39q3 11 9 20.5t15 16.5q7 5 12.5 8t11.5 4q3 1 6 1.5t6 0.5l40 1q9 -1 16.5 -4t12.5 -10q6 -7 7.5 -16.5t-2.5 -23.5q-4 -15 -10.5 -25.5t-16.5 -16.5q-9 -7 -18 -10.5t-17 -3.5h-40q-9 0 -16.5 3t-12.5 11q-5 6 -6 16.5t3 25.5v2v0z" />
    <glyph glyph-name="slash" unicode="/" horiz-adv-x="442" 
d="M541 701q2 1 3.5 3.5t2.5 4.5l4 7l8 6q1 -1 2 -1t3 1h3h4l40 1l13.5 -1.5t5.5 -2.5q1 -1 -1.5 -6.5t-7.5 -13.5l-553 -738q-2 -3 -3.5 -5.5t-3.5 -4.5l-4 -7l-2 -2l-2 -2t-2 -1.5t-2 -0.5h-2t-2 -1h-3h-3h-39q-8 0 -12.5 0.5t-5.5 2.5q0 1 2 6.5t7 14.5l550 740v0v0z" />
    <glyph glyph-name="zero" unicode="0" horiz-adv-x="544" 
d="M121 339q28 79 63.5 138.5t79.5 99.5q44 39 86 59t81 20l40 1q39 -1 70 -21t53 -61q22 -40 24 -99.5t-16 -138.5q-1 -3 -1.5 -6t-1.5 -6t-1.5 -5.5t-1.5 -4.5q-22 -84 -56 -147.5t-79 -105.5q-46 -43 -88.5 -63.5t-83.5 -20.5h-40q-42 0 -75 21.5t-56 66.5
q-23 44 -22.5 112t25.5 159v2v0zM240 338q-22 -83 -27.5 -144.5t5.5 -103.5q9 -34 23 -55t33 -27q23 6 47.5 25.5t51.5 52.5q32 41 59.5 101.5t49.5 141.5q20 74 23.5 128.5t-7.5 91.5q-10 29 -24.5 46.5t-32.5 23.5q-24 -6 -48 -23.5t-50 -47.5q-31 -36 -57 -88.5
t-46 -122.5v1z" />
    <glyph glyph-name="one" unicode="1" horiz-adv-x="544" 
d="M371 567q-6 -4 -12.5 -7t-13.5 -6l-4 -1l-4 -2q-4 -3 -8.5 -5t-8.5 -4t-8.5 -3.5t-8.5 -3.5q-8 -3 -14 -4.5t-11 -1.5l-40 1q-4 -1 -6.5 0t-4.5 3q-3 2 -2.5 6t1.5 10q1 4 10 9.5t27 12.5q17 7 36.5 14.5t40.5 15.5q2 1 3.5 1.5t3.5 1.5t4 1.5t3 1.5q4 2 8 3.5t8 2.5
q3 2 6.5 3t7.5 3q3 1 6.5 2.5t6.5 2.5q7 3 13 6l12 6q5 2 9.5 4t8.5 3q2 0 3.5 0.5t3.5 0.5q1 1 3 1h3l40 1q5 -1 8 -2.5t4 -3.5q2 -2 2.5 -5t-0.5 -7l-147 -549q-4 -16 -2.5 -25.5t9.5 -12.5q7 -4 16 -5.5t19 -1.5h4.5h5.5h3h3h2.5h2.5q8 0 14 -0.5t10 -2.5q5 -1 6.5 -5.5
t-0.5 -11.5q-1 -5 -5.5 -8t-11.5 -5q-7 -1 -17 -1.5t-24 -0.5h-40h-9.5h-11.5h-6h-5h-6h-6q-6 1 -12.5 1h-14.5h-9.5h-9.5h-13t-12 -1h-40h-12h-11h-9.5h-9.5q-14 0 -24 0.5t-18 0.5q-7 2 -9.5 5t-0.5 9t4.5 10.5t7.5 6.5t10 3t11 1l40 1q1 -1 2 -1h3q1 -1 2.5 -1h2.5h3.5
h3.5q3 1 6.5 1.5t7.5 2.5q2 0 3.5 1t3.5 2q8 4 13.5 13t9.5 23l131 490v0z" />
    <glyph glyph-name="two" unicode="2" horiz-adv-x="544" 
d="M495 24q-1 -6 -2.5 -9.5t-2.5 -6.5l-3 -4.5t-3 -2.5q-3 -1 -11.5 -1h-23.5h-40h-338q-12 0 -17.5 1.5t-4.5 5.5q1 5 9.5 14t24.5 24l5 5l6 6q10 8 20 17.5t20 19.5q10 9 20.5 18.5t21.5 19.5q33 30 65 58.5t63 56.5q30 27 56 51.5t47 46.5q17 17 30.5 34.5t23.5 33.5
q11 17 18 32.5t11 29.5q7 27 4 49t-16 39q-10 14 -26.5 22.5t-37.5 10.5q-21 -2 -39.5 -7.5t-35.5 -15.5q-21 -12 -40.5 -29.5t-37.5 -40.5l-6 -5q-2 -2 -4 -2.5t-4 -0.5l-40 1q-4 -2 -6.5 -0.5t-4.5 4.5q-1 3 0.5 8t5.5 11q22 27 46 48t49 34q6 3 12.5 6.5t12.5 5.5
q19 9 37.5 14.5t35.5 7.5h4t4 1h4h4h4t4 1h4h4l40 1q26 -1 49 -6t43 -16q20 -10 32.5 -22.5t16.5 -27.5q4 -13 5.5 -25t1.5 -23q0 -12 -1 -22.5t-3 -20.5q-4 -16 -11 -30.5t-17 -27.5t-19 -24.5t-17 -22.5l-8.5 -8.5l-8.5 -8.5t-7.5 -8t-6.5 -7q-14 -14 -31 -28.5t-37 -29.5
q-10 -7 -21 -15t-21 -15q-11 -8 -21.5 -15.5t-21.5 -15.5l-22 -16t-21 -16q-6 -4 -11 -8t-11 -7l-10 -8l-10 -8q-30 -24 -48.5 -39.5t-26.5 -23.5q-7 -7 -4.5 -10.5t12.5 -4.5l164 2q17 -2 30 0t22 6q8 4 17 17.5t18 37.5q2 5 3.5 8t4.5 5q1 1 2.5 2t3.5 1q1 1 1.5 1h1.5
l40 1l4 -2t3 -3t1.5 -5t-1.5 -8l-31 -116v0v0z" />
    <glyph glyph-name="three" unicode="3" horiz-adv-x="544" 
d="M369 376q1 -1 1.5 -1h1.5h0.5h1.5l40 1q41 -1 70.5 -13.5t48.5 -36.5q20 -24 24.5 -54.5t-6.5 -68.5q-13 -49 -45 -95t-82 -89q-17 -14 -33.5 -26t-33.5 -23q-34 -21 -67.5 -36t-66.5 -23q-4 -1 -8 -1.5t-8 -1.5t-8 -1.5t-8 -1.5q-7 -1 -14 -1.5t-14 -0.5h-40
q-8 0 -16 0.5t-16 2.5q-7 1 -14.5 3t-13.5 4q-9 4 -15.5 9.5t-10.5 11.5l-4 6t-3 6q-1 4 -1 7v6v6l2 6q2 8 6 15t11 13q7 5 14.5 8t15.5 3l40 1l6 -1l6 -1l3 -1l2 -1l3 -3t3 -2q3 -2 5 -3.5t3 -3.5q2 -3 4.5 -7t3.5 -8l1 -4l2 -5q2 -5 5 -10.5t6 -9.5q2 -2 5 -4t7 -3h2h2
q0 1 1 1h2q3 1 6.5 2t7.5 2q2 1 3.5 1t3.5 1q5 1 11 3.5t13 4.5q29 12 57 31t56 46q29 27 47.5 58t27.5 65q2 5 2.5 9.5t1.5 8.5q1 3 1.5 6t0.5 6q0 2 0.5 3.5t0.5 2.5q1 37 -6.5 63t-24.5 41q-14 13 -30.5 20.5t-36.5 10.5q-4 -1 -8.5 -1.5t-9.5 -1.5q-13 -3 -25.5 -6.5
t-26.5 -8.5q-13 -5 -26 -11t-25 -12l-8 -3l-6 -1h-40l-7 3q-1 1 -1 2.5t1 4.5v1.5t1 0.5q0 2 0.5 3.5t2.5 3.5t4 4.5t5 4.5q11 8 25 16t30 17q16 8 32.5 17t32.5 18q30 17 58 34t53 35q26 18 42 37t21 38l2 5l1 4v4v4q0 16 -5.5 29t-14.5 22q-6 6 -14 10t-16 6q-1 0 -3 -0.5
t-4 -0.5q-2 -1 -4.5 -1.5t-4.5 -0.5q-13 -4 -27.5 -10.5t-28.5 -15.5t-27 -21t-26 -26l-8 -5q-2 -2 -4 -3t-4 -1l-40 1q-3 -2 -5.5 -1.5t-4.5 1.5q-1 2 -1.5 4t0.5 6q0 2 1.5 5l3.5 7q3 4 6.5 8.5t8.5 9.5q3 3 6.5 6t7.5 7q4 3 8 6.5t8 7.5q14 9 29 18t34 17t40 12.5t45 4.5
l40 1q31 -1 56.5 -8.5t44.5 -22.5q20 -15 27 -34.5t2 -42.5q-4 -13 -13 -27.5t-24 -29.5q-7 -7 -16 -15t-19 -15q-11 -8 -22.5 -15.5t-25.5 -15.5q-12 -7 -25 -13.5t-27 -12.5q-10 -4 -21.5 -8.5t-23.5 -9.5v1z" />
    <glyph glyph-name="four" unicode="4" horiz-adv-x="544" 
d="M417 441q1 2 1.5 4.5t1.5 5.5q0 2 0.5 4t1.5 3q1 2 3 4.5t6 3.5l4 3l6 2l51 17h40l3 -1.5t2 -1.5t2.5 -2t2.5 -2q2 -3 1 -11.5t-5 -22.5l-47 -171q-4 -17 -6 -26t-1 -11q0 -1 1.5 -2.5t3.5 -1.5l23 1h40q5 -2 9 -2.5t7 -2.5q2 -1 2 -6.5t-2 -13.5q-1 -6 -3.5 -9.5
t-5.5 -4.5q-4 -1 -8 -1.5t-10 -0.5l-40 1h-19l-7 -3.5t-5 -3.5q-2 -3 -5 -13.5t-8 -27.5l-25 -93q-3 -13 -2.5 -20.5t5.5 -10.5t11 -4.5t13 -1.5l4 1h6h4h5q5 -1 8 -1.5t6 -1.5t4.5 -3.5t1.5 -6.5l1 -2l-1 -2q-1 -4 -4 -7t-8 -4q-4 -2 -10 -2.5t-13 -0.5h-40h-4.5h-4.5
q-2 1 -4.5 1h-5.5h-5.5h-5.5q-2 1 -5 1h-6q-6 1 -12.5 1.5t-13.5 0.5h-1.5h-1.5h-4t-4 -1h-4h-4h-5l-6 -1h-6t-5 -1h-5.5h-4.5h-5.5t-4.5 -1h-5.5h-4.5h-40q-8 0 -14.5 0.5t-11.5 2.5q-4 1 -6 4t-1 6v2l2 2v0v2q2 3 5 5.5t6 3.5t8 1.5t10 0.5h4.5h5.5h4.5h5.5h7t8 1
q3 0 7 1.5t7 2.5q7 3 12.5 10.5t8.5 19.5l26 97q4 13 5.5 22.5t2.5 13.5q-1 5 -3.5 7t-8.5 2l-244 2q-5 -2 -8 -0.5t-5 4.5t-2.5 6.5t0.5 7.5l1 5l3 6l3 4l3 5l479 466l4 4t5 3q2 2 4 3l4 2q3 1 7.5 1.5t10.5 0.5l40 1l12 -3q-1 -2 -5.5 -7.5t-12.5 -14.5l-436 -423
q-3 -5 -5.5 -8.5t-4.5 -6.5q-3 -3 -4.5 -5t-2.5 -4q-1 -3 0.5 -4.5l3.5 -3.5q2 -1 3.5 -1.5t4.5 -0.5l146 2q8 -2 13.5 -0.5t7.5 4.5t6 13t8 28l43 160v0v0z" />
    <glyph glyph-name="five" unicode="5" horiz-adv-x="544" 
d="M280 606q1 0 1.5 1l1.5 3q0 1 0.5 2t1.5 2t1.5 2t1.5 2q1 0 1.5 1t0.5 2l8 7q1 -1 2 -1t3 1h3h4l245 33h40q3 -2 6 -2h6l-40 1q2 -1 3 -1t3 1h2.5h2.5l6 1l5 1h40l3 -2v-4t-1 -4l-27 -46l-3 -5l-2 -3q-4 -8 -9 -12.5t-11 -7.5q-7 -3 -20.5 -4t-34.5 -1l-154 -14
q-18 -2 -30 -4t-18 -6q-6 -3 -10.5 -8.5t-8.5 -12.5q-2 -2 -3 -4.5t-3 -5.5l-31 -53l-2 -5l-1 -4l-1 -2v-2q-3 -7 -1.5 -10.5t5.5 -5.5q4 -1 11 -1.5t17 -0.5l3 1h3q8 -2 18.5 -2.5t22.5 -1.5t26 -3t30 -5q50 -9 83 -27t49 -44t21 -54t0 -57q-1 -3 -1 -5.5v-4.5
q-1 -2 -1.5 -4.5t-1.5 -4.5q-4 -16 -10 -31t-14 -30t-17 -28.5t-19 -24.5q-20 -23 -44 -43t-53 -37q-28 -16 -56.5 -29.5t-57.5 -24.5q-24 -9 -45.5 -16t-42.5 -13q-21 -5 -39 -9t-34 -7q-4 -1 -7 -1.5t-6 -0.5h-2.5t-3.5 -1h-2.5h-2.5h-40q-7 0 -12 1.5t-6 4.5v2.5v2.5
q1 2 2 3t2 3q4 4 8.5 7t11.5 6q6 3 13 4t14 1q57 5 107 21.5t93 44.5q44 29 75.5 59.5t50.5 64.5q2 3 3.5 6l3.5 7q1 3 3 6t3 6l2 6t3 7l2 6l2 6q5 19 5 36t-5 33t-17 28.5t-29 22.5q-26 14 -51.5 22.5t-49.5 11.5t-44.5 5t-36.5 3q-12 0 -21 1.5t-16 2.5q-7 2 -9.5 5.5
t-1.5 9.5l1 5l4 6l120 213v0v0z" />
    <glyph glyph-name="six" unicode="6" horiz-adv-x="544" 
d="M211 228q-5 -54 -1.5 -93t14.5 -65q11 -25 26.5 -39.5t34.5 -19.5v0v0q14 3 28 9.5t28 16.5l14 12t14 13q28 27 47.5 60t29.5 73q13 49 14 85t-10 58q-10 22 -24.5 35.5t-32.5 17.5q-4 -1 -7.5 -1.5t-8.5 -2.5q-7 -3 -13.5 -6t-12.5 -7q-2 -2 -4 -3t-4 -3
q-11 -9 -18.5 -10.5t-10.5 5.5l-40 1q-4 5 4 14.5t26 21.5q14 9 27.5 15.5t26.5 10.5q14 5 26.5 7t25.5 2l40 1q32 -1 58 -14t45 -39q20 -26 25.5 -61.5t-1.5 -79.5l-2 -4v-4l-1 -5l-1 -4q-2 -8 -4.5 -14.5t-4.5 -13.5q-1 -3 -2.5 -6.5t-2.5 -6.5q-2 -4 -3 -7.5t-3 -6.5
q-17 -36 -41.5 -68t-57.5 -61q-34 -29 -73 -43t-86 -14h-40q-54 0 -90 21.5t-54 65.5q-19 44 -20.5 94.5t13.5 108.5q2 6 3.5 12t3.5 12l4 12l4 12q4 11 9 22t10 23l12 22t13 22q14 22 29 43t34 40q38 42 75 75t74 58q36 24 78.5 47t89.5 45l10 4t10 5l10 4l10 4
q11 5 21.5 9.5t22.5 8.5l6 2q1 -1 2 -1t2 1h2h2l40 1h1h2q4 -1 7.5 -1.5t7.5 -2.5q2 -1 3.5 -3.5t0.5 -4.5q0 -2 -2 -4.5t-6 -5.5q-2 -1 -5 -3t-7 -3q-4 -2 -8 -3.5t-9 -3.5q-88 -35 -160.5 -81t-129.5 -102t-95.5 -120.5t-58.5 -137.5q0 -2 -1 -4.5t-1 -4.5q-1 -4 -2 -8.5
t-2 -9.5t-2 -9.5t-2 -9.5q-1 -2 -1 -4.5t-1 -4.5l-40 1l1 1h40v0z" />
    <glyph glyph-name="seven" unicode="7" horiz-adv-x="544" 
d="M535 528q8 10 11.5 16.5t1.5 8.5q-3 2 -14 3t-31 1l-206 2q-3 -1 -6 -1.5t-6 -0.5q-3 -1 -6.5 -1.5t-6.5 -0.5q-6 -1 -10.5 -2t-9.5 -2l-8 -2l-8 -2q-3 -1 -5.5 -1.5t-4.5 -0.5l-40 1l-6 4q-1 1 0 5t2 10l8 57q2 4 4 7.5t6 4.5q3 1 9.5 1.5t15.5 0.5l370 2h40
q26 -2 38.5 -4t11.5 -7q-1 -4 -6.5 -13.5t-14.5 -23.5h-1v0l-443 -621l-5 -6l-4 -5q-1 -1 -2 -1.5t-2 -1.5q-1 0 -2 -0.5t-2 -0.5h-2t-2 -1h-3.5h-3.5h-40q-9 0 -13.5 0.5t-5.5 1.5t1.5 4.5t6.5 9.5l394 559v0v0z" />
    <glyph glyph-name="eight" unicode="8" horiz-adv-x="544" 
d="M275 323q-31 10 -52.5 25.5t-32.5 36.5t-13.5 43.5t2.5 46.5l1 3v3q9 31 30.5 60.5t56.5 56.5t76.5 40.5t90.5 13.5l40 1q49 -1 84 -12t57 -32q21 -22 28.5 -46.5t0.5 -51.5l-2 -5l-2 -5q-8 -22 -24 -42t-39 -39t-54.5 -34t-71.5 -26q37 -11 62.5 -29t38.5 -43
q14 -25 18 -51t-2 -53l-1 -4l-1 -4q-10 -38 -34.5 -71t-63.5 -63q-40 -30 -89 -44t-108 -14h-40q-41 0 -74 12.5t-59 39.5q-25 27 -33 57t1 64q0 1 0.5 1.5t0.5 1.5q0 2 0.5 3.5t1.5 3.5q1 3 2.5 6t2.5 6q8 20 24.5 39t40.5 38q25 19 59 35.5t77 29.5v2v0zM324 306
q-21 -12 -38.5 -24t-32.5 -24q-19 -16 -32.5 -31.5t-24.5 -31.5q-4 -6 -7 -12l-6 -12q-4 -6 -5.5 -12t-3.5 -11q-2 -10 -3.5 -19.5t-0.5 -18.5t2.5 -17t5.5 -16q7 -16 17 -28.5t23 -20.5t27.5 -13t29.5 -7q23 3 46 12t46 24q28 19 46.5 44.5t27.5 58.5l1 3v2l1 2v2
q6 30 2 53t-19 38q-16 15 -33 26.5t-36 20.5q-7 2 -14 4.5t-13 4.5q-1 0 -1.5 0.5t-1.5 0.5t-1.5 0.5t-1.5 0.5v1zM397 378q20 2 39 11.5t38 25.5q22 20 36.5 41.5t21.5 45.5l1 2v2q2 6 3 12.5t1 13.5v6v7q0 3 -0.5 6t-1.5 6q-6 17 -15.5 30t-23.5 22q-11 8 -24 12.5
t-27 6.5q-17 -3 -34.5 -9t-34.5 -15q-23 -13 -39.5 -30.5t-27.5 -40.5l-3 -5l-1 -5l-3 -6l-1 -5q-8 -27 -3.5 -49.5t20.5 -42.5q14 -17 34 -28t45 -15v1z" />
    <glyph glyph-name="nine" unicode="9" horiz-adv-x="544" 
d="M501 402q10 52 8 92t-16 65q-14 24 -32 38.5t-39 18.5q-21 -4 -40.5 -13.5t-39.5 -25.5q-25 -20 -42 -48t-27 -64l-1 -4v-4l-1 -5l-1 -4q-10 -43 -10 -75t9 -54t22.5 -36t30.5 -19q1 -1 2 -1.5t2 -0.5h1.5t1.5 1h0.5h1.5q7 2 13 4.5t12 6.5q5 2 8.5 4t6.5 3q1 0 2.5 0.5
t2.5 1.5q1 0 2.5 0.5t2.5 0.5l40 1l6 -3l1 -6l-2 -4l-2 -4l-4 -5l-4 -4q-12 -8 -24.5 -14t-26.5 -10q-10 -3 -19.5 -4.5t-18.5 -2.5q-5 -1 -9.5 -1h-9.5l-40 1q-3 -1 -6 -1h-6t-6 0.5t-6 1.5q-28 3 -50.5 16t-40.5 35t-20.5 55.5t9.5 79.5l1 3v2v1l1 2q14 52 41.5 93.5
t67.5 70.5q41 29 82 44t81 15l40 1q2 -1 4 -1h4h2h3q1 -1 2 -1h2q31 -2 58 -15t50 -36t34 -57.5t12 -81.5q-1 -8 -1.5 -16.5t-2.5 -16.5q-1 -8 -2.5 -16.5t-3.5 -17.5q-6 -20 -14 -41t-19 -43t-24 -43.5t-30 -43.5q-34 -45 -79.5 -88.5t-101.5 -85.5q-55 -41 -123.5 -75
t-148.5 -62h-40q-5 -2 -9 -2t-7 2q-2 1 -3 3t0 5q1 1 2 3.5t3 4.5l4.5 4.5t6.5 4.5l5 3l7 3l1 1h2q46 18 91.5 43t90.5 59q23 17 45.5 36t45.5 40q68 62 113 133.5t66 150.5v2v0z" />
    <glyph glyph-name="colon" unicode=":" horiz-adv-x="300" 
d="M99 47q3 11 9 20.5t15 16.5q7 5 12.5 8t11.5 4q3 1 6 1.5t6 0.5l40 1q9 -1 16.5 -4t13.5 -10q5 -7 6.5 -16.5t-2.5 -23.5q-4 -15 -10.5 -25.5t-16.5 -17.5q-9 -6 -17.5 -9.5t-16.5 -3.5h-40q-9 0 -16.5 3t-13.5 9q-5 8 -6 18.5t3 25.5v2v0zM177 339q4 11 9.5 20.5
t15.5 16.5q5 3 9 5.5t9 4.5q4 1 8.5 2t8.5 1l40 1q9 -1 16.5 -4t13.5 -10q5 -7 6.5 -16.5t-2.5 -22.5q-4 -15 -10.5 -25.5t-16.5 -18.5q-9 -7 -18 -11t-17 -4l-40 1q-9 -2 -16.5 2t-12.5 11q-5 8 -6 19t3 26v2v0z" />
    <glyph glyph-name="semicolon" unicode=";" horiz-adv-x="300" 
d="M141 -31q2 6 1.5 9.5t-3.5 5.5q-2 1 -5 2t-8 1h-2h-2h-4.5h-4.5q-3 0 -5 0.5t-4 1.5q-4 1 -7.5 3t-6.5 5q-3 2 -5 6t-2 11q-1 2 -1.5 4.5t0.5 4.5v2t1 3v2v2q3 10 9.5 19t16.5 16q10 8 20.5 11.5t20.5 3.5l40 1h3h3q6 -2 12 -5t11 -8q4 -6 7 -14t5 -19v-10.5v-11.5
q-1 -6 -1.5 -11t-2.5 -10q-1 -4 -2.5 -8.5t-3.5 -8.5q-1 -3 -1.5 -5.5t-1.5 -4.5q-2 -3 -3.5 -6.5t-3.5 -7.5q-2 -3 -3.5 -6.5t-3.5 -7.5q-5 -8 -10.5 -16t-11.5 -17q-6 -8 -12.5 -16t-14.5 -16q-16 -16 -33 -29.5t-37 -25.5h-2v-1q-4 -2 -7.5 -2t-5.5 1h-40q-2 1 -3 2.5
t0 3.5v0.5t1 1.5q0 1 0.5 2.5t2.5 3.5q2 3 5.5 6t7.5 6q20 16 35.5 31t28.5 30q12 15 20 28t11 24l2 7v6v0v0zM167 331q3 11 9 20.5t15 16.5q7 5 12.5 8t11.5 4q3 1 6 1.5t6 0.5l40 1q9 -1 16.5 -4t13.5 -10q5 -7 6.5 -16.5t-2.5 -23.5q-4 -15 -10.5 -25.5t-16.5 -18.5
q-10 -7 -18.5 -11t-16.5 -4l-40 1q-9 -2 -16.5 2t-12.5 11q-5 8 -6 19t3 26v2v0z" />
    <glyph glyph-name="less" unicode="&#x3c;" horiz-adv-x="599" 
d="M242 315l353 -181l-16 -63h-40l-415 220l15 55l538 213h40l-17 -63l-458 -181v0v0z" />
    <glyph glyph-name="equal" unicode="=" horiz-adv-x="599" 
d="M178 283h449l-17 -63h-40h-449l17 63h40v0v0zM214 417h449l-17 -63h-40h-449l17 63h40v0v0z" />
    <glyph glyph-name="greater" unicode="&#x3e;" horiz-adv-x="599" 
d="M523 307l-360 189l17 63h40l422 -220l-15 -56l-537 -212h-40l16 63l457 173v0v0z" />
    <glyph glyph-name="question" unicode="?" horiz-adv-x="339" 
d="M51 47q3 11 9 20.5t15 16.5q10 7 19 10.5t18 3.5l40 1q9 -1 16.5 -4t13.5 -10q5 -7 6.5 -16.5t-2.5 -23.5q-4 -15 -10.5 -25.5t-16.5 -17.5q-4 -2 -8.5 -5t-8.5 -4q-5 -2 -9 -3t-9 -1h-40q-9 0 -16.5 3t-13.5 9q-5 8 -6 18.5t3 25.5v2v0zM129 189l1 94q1 2 2 5l2 6
q0 2 1.5 4.5t3.5 4.5q2 3 5.5 6t8.5 7q5 3 12.5 8.5t18.5 12.5q7 5 14 9.5t15 8.5l16 10t17 11q18 12 36 25.5t35 28.5t28.5 33t16.5 39q7 23 5.5 42.5t-10.5 35.5q-5 11 -12.5 17.5t-16.5 10.5q-4 -1 -8 -4l-8 -6l-14 -14t-14 -15l-4 -3l-3 -3q-6 -8 -12 -14.5t-12 -11.5
q-3 -3 -6 -5t-6 -3q-4 -2 -7 -2.5t-6 -0.5l-40 1q-4 -1 -7.5 3t-4.5 12t-1 17.5t3 19.5l1 5l1 4q2 8 5.5 16t8.5 15t10.5 11.5t12.5 5.5q3 0 6 0.5t7 1.5q3 0 6.5 0.5t7.5 1.5h3.5h3.5h3h3h3.5t3.5 1h4h3l40 1q23 -1 44 -5.5t40 -15.5q18 -10 31.5 -28t20.5 -44
q1 -5 1.5 -10t1.5 -10q0 -6 0.5 -11t0.5 -10v-10t-1 -10q-1 -6 -1.5 -11t-2.5 -10q-3 -10 -7 -20t-9 -19q-6 -10 -13 -20t-15 -20q-18 -20 -42.5 -41t-57.5 -42q-10 -7 -19.5 -12t-16.5 -9q-8 -4 -14.5 -7.5t-11.5 -6.5q-9 -6 -16 -12.5t-12 -14.5q-3 -4 -5.5 -9.5
t-4.5 -12.5t-4.5 -15.5t-5.5 -18.5q-1 -4 -3.5 -8t-4.5 -6t-4 -3t-4 -1l-40 1q-3 -1 -5 0t-3 3t-0.5 6t1.5 8v2v0z" />
    <glyph glyph-name="at" unicode="@" horiz-adv-x="780" 
d="M432 149q-2 -3 -4.5 -4.5t-5.5 -3.5q-1 0 -2 -0.5t-2 -1.5q-11 -6 -22 -10t-21 -6q-4 -1 -7 -1.5t-6 -0.5q-1 0 -2.5 -0.5t-2.5 -0.5h-3h-3l-40 1q-21 -1 -37 7t-28 24q-11 17 -12 41t7 55q1 3 2 6.5t2 7.5q1 3 2 6.5t2 6.5q2 3 3.5 7t3.5 7q1 4 3 8t3 8q21 43 45 76
t51 57q26 23 52 38.5t50 22.5q6 2 12 3l12 2q3 0 6 0.5t6 0.5q2 1 5 1h6l40 1q14 -1 27 -4t24 -9l3 -1.5t1 -1.5l2 5h40h79l-182 -299q-1 -4 -2.5 -6.5t-1.5 -4.5l-3 -6q-1 -6 -1 -10t2 -6q2 1 4 1.5t4 1.5q11 4 22 10t24 14q20 13 40.5 30.5t41.5 39.5q20 22 34 46.5
t21 52.5q13 56 4 99.5t-41 74.5q-29 29 -64.5 45t-78.5 19q-16 -2 -31.5 -5t-30.5 -8q-17 -5 -34 -12t-33 -16q-39 -22 -70.5 -48.5t-55.5 -57.5q-25 -31 -42 -62.5t-26 -64.5l-1 -3l-2 -4q-13 -51 -9.5 -97t25.5 -88q21 -42 59.5 -66t93.5 -29q1 0 2 -0.5t3 -0.5
q1 0 2.5 -0.5t2.5 -0.5q40 2 77 12.5t71 29.5q39 21 67.5 46.5t47.5 55.5l47 2h40q-31 -50 -70 -86t-85 -59q-45 -23 -89.5 -34t-88.5 -11h-40h-6h-5q-52 2 -96.5 19t-80.5 51q-37 34 -52.5 83.5t-11.5 113.5q0 6 0.5 12t1.5 12q1 4 2 8.5t2 8.5q0 2 1 4.5t1 4.5l4 12l4 12
l4 12t5 12q22 53 59.5 101.5t91.5 92.5t114.5 67.5t127.5 26.5l40 1h1h2q55 -2 100 -21t82 -57q35 -38 45 -88.5t-7 -113.5q-3 -11 -6.5 -22.5t-8.5 -22.5t-11 -22.5t-12 -23.5q-1 -1 -2 -3t-2 -3q-1 -2 -2 -3.5t-2 -3.5q-1 -1 -2.5 -3t-2.5 -3q-1 -2 -2.5 -3.5t-2.5 -3.5
q-15 -19 -34 -38t-44 -36q-24 -17 -46.5 -29t-45.5 -19q-7 -2 -13 -3.5t-11 -2.5q-6 -1 -11 -1.5t-10 -0.5l-40 1q-13 -1 -24 2t-19 9q-5 3 -10 7.5t-9 10.5v1zM550 409q2 1 2.5 3t1.5 4q0 1 0.5 2l1.5 3q1 1 1.5 2t0.5 2q2 10 1.5 18.5t-5.5 15.5q-3 4 -6.5 6.5t-8.5 3.5
q-2 -1 -4.5 -1.5t-4.5 -1.5q-9 -4 -18.5 -10t-20.5 -14q-9 -7 -19 -17t-21 -22t-21.5 -27t-21.5 -32q-13 -21 -23.5 -39t-17.5 -33q-7 -16 -12.5 -29.5t-8.5 -24.5q-4 -17 -4.5 -29t3.5 -20q2 -4 4.5 -6.5t5.5 -4.5q1 0 1.5 0.5t1.5 0.5t2 0.5t2 0.5q11 5 23 13t25 18
q12 11 22 23.5t19 27.5l99 167v0v0z" />
    <glyph glyph-name="A" unicode="A" horiz-adv-x="678" 
d="M309 220q-3 -1 -5.5 -1.5t-5.5 -1.5t-5.5 -1.5t-5.5 -1.5q-4 -1 -8 -4.5t-8 -9.5l-4 -6t-4 -7l-66 -100q-3 -5 -4.5 -9t-3.5 -7q-2 -4 -3 -7t-1 -5q-3 -10 -1 -17t9 -9q7 -3 15 -4.5t17 -1.5l3 1h3q8 -2 15 -2.5t14 -2.5q6 -1 8.5 -5t0.5 -12q-1 -4 -4 -5.5t-8 -2.5
q-5 -2 -11 -2.5t-14 -0.5h-40h-5.5h-5.5q-2 1 -5 1h-6q-5 1 -11 1h-12l-1 1h-1q-1 0 -2.5 0.5t-2.5 0.5h-1.5h-1.5q-2 0 -3.5 0.5t-3.5 0.5h-2t-1 -1h-2h-2q-5 0 -10.5 -0.5t-10.5 -1.5h-2h-2h-4.5t-5.5 -1h-5.5h-4.5h-4.5t-4.5 -1h-4h-4h-40q-7 0 -12 0.5t-9 2.5
q-2 1 -3.5 2.5t-0.5 5.5q2 6 4 9.5t5 4.5q2 1 7 1.5t10 1.5h7t8 1q5 0 10 1.5t10 3.5t11 5.5t13 9.5q5 5 12 13.5t14 19.5l346 529q11 16 18.5 24.5t13.5 7.5l40 1q5 -2 7.5 -8.5t2.5 -18.5l77 -533q0 -13 2.5 -21.5t6.5 -13.5q2 -6 6.5 -9.5t9.5 -5.5q1 -1 2.5 -1.5
t2.5 -1.5q2 -1 4.5 -1.5t5.5 -0.5q5 -1 8.5 -1h7.5q5 -1 8.5 -1.5t7.5 -1.5q3 -1 4 -4.5t-1 -9.5q-1 -4 -4 -5.5t-8 -2.5q-5 -2 -11.5 -2.5t-14.5 -0.5h-40h-5.5h-5.5q-3 1 -6 1h-6t-7.5 0.5t-8.5 0.5h-4h-4l-6 1h-6q-1 0 -2 0.5t-2 0.5h-1.5h-0.5q-2 0 -3.5 0.5t-2.5 0.5
h-2t-2 -1h-2h-2q-6 0 -12 -0.5t-12 -1.5h-5.5h-4.5h-5.5t-4.5 -1h-8.5h-9.5h-4t-4 -1h-4h-4h-40q-10 0 -18 0.5t-13 2.5q-5 1 -8 2.5t-2 5.5q2 7 6 11t11 5q6 2 13 2.5t14 0.5l2 1h3q8 -1 16.5 0t16.5 3q7 2 12 7.5t8 15.5q1 3 1.5 7.5t0.5 9.5v10.5t-2 12.5l-19 105l-1 4v5
q-1 4 -3.5 6.5t-5.5 3.5q-4 1 -12 1.5t-20 0.5l-103 2v0zM322 260h109q6 -2 9 -1t4 4q1 2 0 10.5t-3 23.5l-20 134l-91 -140q-5 -10 -8.5 -16.5t-4.5 -9.5q-1 -2 0 -3.5t5 -2.5v1z" />
    <glyph glyph-name="B" unicode="B" horiz-adv-x="678" 
d="M559 346q36 -12 61 -26.5t39 -33.5t20.5 -39t6.5 -40q-1 -5 -1.5 -10t-0.5 -10q-1 -2 -1.5 -4.5t-0.5 -4.5t-0.5 -4.5t-1.5 -4.5q-1 -5 -2.5 -9.5t-3.5 -9.5q-1 -2 -2 -4.5t-2 -4.5t-2 -4.5t-2 -4.5q-25 -45 -54.5 -73.5t-64.5 -41.5q-34 -13 -71.5 -18.5t-78.5 -5.5h-40
h-12.5h-13.5q-6 1 -12.5 1h-13.5t-14 0.5t-13 0.5q-7 1 -14 1h-14q-12 1 -24.5 2t-25.5 1q-6 1 -12 1h-13h-2.5h-2.5h-1.5t-1.5 -1h-3.5h-3.5q-7 0 -13 -0.5t-12 -1.5h-12t-11 -1h-5t-5 -1h-4h-4h-40q-6 0 -11 0.5t-7 2.5q-2 1 -3.5 2.5t-0.5 5.5q2 6 5.5 10t8.5 5
q5 2 11 2.5t13 1.5l5 1l6 1q8 -1 16.5 1t15.5 6q8 4 13.5 13t9.5 22l127 474q5 16 5 26.5t-3 15.5q-1 2 -3 4t-4 3q-4 -1 -7 -2t-6 -1q-4 -1 -7 -1h-6l-40 1q-3 -1 -5.5 -0.5t-4.5 1.5t-3.5 2t-2.5 2l-0.5 0.5t-0.5 1.5l-1 3l1 2l-1 2l1 2q2 8 18 14t47 9t64.5 5t69.5 3h4h4
h4h4h6.5t6.5 1h7h6l40 1q3 -1 6 -1h7h6h6q72 0 122.5 -9t78.5 -27t39 -48.5t6 -74.5q-6 -21 -19.5 -40.5t-33.5 -38.5q-21 -19 -49.5 -32t-65.5 -22v1zM264 102q-6 -22 -0.5 -38t21.5 -27q13 -9 29.5 -14t35.5 -7h2t2 1h1h2q16 2 32 6t33 11q17 6 32 15t29 20q11 8 20 18.5
t17 23.5q8 12 13.5 25.5t9.5 26.5q0 1 0.5 2t0.5 3q0 1 0.5 2.5t0.5 2.5q1 2 1.5 4.5t1.5 5.5q4 27 -1.5 52.5t-20.5 47.5q-16 23 -44.5 34.5t-70.5 11.5l-54 2q-11 -2 -18.5 -3.5t-9.5 -3.5l-2.5 -2.5t-2.5 -3.5q-2 -5 -4.5 -12t-5.5 -17l-50 -187v0v0zM386 558l-42 -156
q-4 -17 -5 -26t2 -11q2 -2 7 -3t15 -2l64 2q25 -2 49.5 6.5t48.5 25.5q25 17 40.5 39t22.5 48q2 8 2.5 16t1.5 17q0 8 -1 17t-3 18q-3 12 -12 22.5t-25 18.5t-33.5 13.5t-37.5 7.5h-4t-4 1q-13 -1 -24.5 -4.5t-22.5 -8.5q-16 -7 -25.5 -17.5t-13.5 -24.5v1z" />
    <glyph glyph-name="C" unicode="C" horiz-adv-x="662" 
d="M655 150l-34 -95q-1 -4 -2 -6.5t-3 -4.5t-5 -4.5t-7 -4.5q-12 -7 -28.5 -14.5t-39.5 -13.5q-22 -6 -46 -10.5t-49 -8.5q-7 -1 -15 -1.5t-16 -1.5h-7.5t-7.5 -1h-7.5h-6.5h-40q-12 0 -24 1.5t-25 4.5t-25 6.5t-24 7.5q-37 17 -67.5 44t-53.5 66q-24 39 -28 86t11 102
q3 11 7 23t9 25q5 12 11 24.5t14 25.5q28 51 63 89.5t78 63.5q21 13 42.5 23.5t42.5 19.5q21 8 42.5 14.5t42.5 10.5q13 2 25.5 4t24.5 3q9 1 16.5 1.5t15.5 1.5h8h8l40 1q36 -1 65.5 -5t51.5 -13q23 -9 33 -19.5t7 -21.5l-15 -85q-1 -5 -3 -8.5t-4 -5.5t-4.5 -3t-4.5 -1
l-40 1q-1 -1 -2 -1h-1q-1 0 -2 0.5t-2 0.5l-5 5l-1 0.5l-1 0.5q-1 1 -2 2.5t-2 3.5t-1.5 5t-1.5 6q-4 27 -15.5 47t-29.5 32q-15 10 -32 16.5t-37 8.5q-1 0 -2.5 -0.5t-2.5 -0.5q-2 0 -3.5 -0.5t-3.5 -0.5q-15 -2 -31.5 -6.5t-32.5 -10.5q-8 -3 -16 -6.5t-16 -7.5
q-25 -12 -48 -27.5t-43 -35.5q-19 -18 -35 -38.5t-29 -43.5t-23 -47t-16 -49q-1 -4 -2 -7.5t-2 -6.5q-1 -2 -1.5 -4.5t-0.5 -5.5q0 -1 -0.5 -2t-0.5 -2q-9 -46 -6 -88.5t19 -81.5q14 -40 44 -66t75 -38q2 -1 5 -2l6 -2q2 -1 5 -1h7q1 0 2 -0.5t2 -0.5t2 -0.5t2 -0.5
q21 3 43 12t44 22q26 16 49.5 40.5t45.5 58.5q2 5 4.5 8t5.5 6q3 2 6 4.5t6 3.5l40 1q4 1 6.5 1t4.5 -2q3 -1 4 -4t-1 -8l-1 -4l-3 -5h-40l1 1h40v0z" />
    <glyph glyph-name="D" unicode="D" horiz-adv-x="780" 
d="M257 551v1l1 2v2l1 2q2 6 1.5 10.5t-2.5 7.5l-0.5 0.5l-0.5 0.5v0.5v0.5h-2h-4q-4 -2 -8 -3l-8 -2q-3 -1 -6 -1h-5l-40 1q-3 -1 -5.5 -0.5t-3.5 1.5l-2.5 2.5t-1.5 4.5q0 8 16.5 16t49.5 15q32 7 68 12t75 8q6 0 12.5 0.5t12.5 1.5q6 0 12.5 0.5t12.5 0.5h12t12 1h11.5
h11.5l40 1q3 -1 6 -1h6h3.5h3.5q1 -1 3 -1h3q61 -4 113 -24t95 -56q44 -36 62.5 -81t13.5 -98q-1 -4 -1.5 -8.5t-0.5 -9.5q-1 -4 -1.5 -8.5t-1.5 -9.5q-1 -9 -3.5 -18t-4.5 -17q-10 -39 -30.5 -77t-49.5 -74t-72.5 -67.5t-100.5 -57.5q-3 -1 -5.5 -2t-5.5 -2t-5.5 -2
t-5.5 -2q-2 -1 -4.5 -2t-4.5 -2q-3 -1 -5.5 -1.5t-4.5 -1.5q-21 -6 -40.5 -10t-39.5 -5q-19 -2 -38 -3t-39 -1h-40h-11.5h-10.5q-6 1 -11.5 1h-11.5q-10 1 -21.5 1h-22.5q-6 0 -12 0.5t-12 0.5q-7 1 -13 1h-12h-5.5h-4.5q-2 1 -4.5 1h-5.5h-2t-2 -1h-2h-2q-4 0 -9.5 -0.5
t-10.5 -1.5h-4h-4h-3.5t-4.5 -1h-7.5h-7.5h-4t-3 -1h-3.5h-3.5h-40q-8 0 -14.5 0.5t-11.5 2.5q-4 1 -6.5 2.5t-1.5 5.5q2 5 5 8.5t8 4.5q5 2 11 2.5t13 0.5v1h2h5h6q5 -1 9 -0.5t9 1.5q4 1 8.5 2.5t8.5 3.5q8 4 15 13.5t11 25.5l129 482v0v0zM390 574l-132 -495
q-4 -18 -0.5 -30t16.5 -20q9 -6 21.5 -9t27.5 -4h6t6 1q5 0 9.5 0.5t9.5 1.5q4 1 8.5 1.5t9.5 1.5q11 2 22.5 5t23.5 6q11 4 22.5 8t22.5 8q22 9 40.5 20t32.5 23q24 22 46 47t43 53q21 29 36 59t25 63q7 25 8.5 50.5t-1.5 52.5q-4 27 -13.5 54t-26.5 55q-9 15 -21.5 27
t-28.5 21q-17 9 -35 16t-36 11q-10 2 -19.5 4t-18.5 3h-4.5t-4.5 1h-4.5h-4.5q-14 -1 -27 -3.5t-24 -5.5q-15 -5 -24 -12t-11 -15v1z" />
    <glyph glyph-name="E" unicode="E" horiz-adv-x="599" 
d="M265 551q3 11 1.5 19t-8.5 11q-6 3 -13.5 5t-16.5 2h-5.5h-4.5h-5.5h-4.5q-6 0 -10 1l-8 2q-4 2 -4.5 5t0.5 8q2 6 7.5 10t15.5 6q9 2 22.5 3t29.5 1l40 1q4 -1 8 -1h8q5 -1 9.5 -1h9.5h9.5h9.5q5 -1 10 -1h11q11 -1 21.5 -1.5t21.5 -0.5h2h2h1h2h35h32h15t14 1h12.5
h12.5l40 1q36 -1 60 -1h37t19 -2t5 -7l-32 -116q-1 -7 -3.5 -11t-4.5 -6q-1 -1 -2.5 -2t-2.5 -2q-2 -1 -3 -1h-3l-40 1h-4l-4 2q-2 1 -3.5 3t-3.5 5t-3 7.5t0 9.5q-1 26 -9 43.5t-21 26.5q-13 8 -31 12.5t-41 4.5l-48 2q-17 -2 -28.5 -3.5t-16.5 -4.5q-7 -3 -12 -13.5
t-10 -28.5l-36 -132q-5 -22 -7 -34.5t2 -15.5q2 -3 7 -4.5t12 -2.5l57 2q20 -2 34.5 2t23.5 11q9 8 15.5 16t10.5 17q0 2 0.5 3.5t1.5 3.5q0 1 0.5 2.5t1.5 2.5q0 1 0.5 1.5t0.5 1.5q2 6 5 12t6 10q2 5 7.5 7.5t12.5 2.5l40 1q4 -1 5 -3.5t2 -7.5q0 -4 -0.5 -10t-2.5 -13
l-2 -6t-3 -6q-1 -3 -1.5 -6t-1.5 -6q0 -1 -0.5 -2l-0.5 -1q0 -1 -0.5 -1t-0.5 -1l-0.5 -0.5t-0.5 -1.5q0 -2 -0.5 -4t-1.5 -4t-2 -4.5t-1 -4.5q-1 -2 -2 -4.5t-2 -4.5q-1 -4 -2 -7.5t-2 -5.5q-1 -6 -2.5 -12t-3.5 -11q-1 -6 -2 -11.5t-2 -10.5l-2 -10l-2 -10q-1 -4 -2 -8.5
t-2 -8.5q-2 -8 -5 -14.5t-6 -11.5q-4 -5 -8.5 -7.5t-10.5 -2.5l-40 1l-4 4q-1 1 -1 4t1 7v7t1 8v5.5v5.5v3.5v2.5q-1 8 -2.5 16.5t-4.5 15.5q-4 8 -10 11.5t-17 3.5l-81 2q-7 -2 -13 -3.5t-10 -4.5t-8.5 -13.5t-9.5 -27.5l-48 -180l-1 -3v-1q-3 -12 -1.5 -22.5t8.5 -19.5
q5 -8 14.5 -12.5t23.5 -6.5l56 2q23 -2 43.5 1t37.5 9t32.5 20.5t31.5 38.5q8 14 16 23.5t14 15.5t11 9.5t9 3.5l40 1l4 -2t3 -4t1 -6.5t-2 -8.5l-57 -124q-1 -5 -16 -7t-42 -2h-40h-65.5h-88.5h-17.5h-17.5q-9 1 -18 1h-18h-20h-21h-14.5h-13.5h-4h-4q-4 -1 -8 -1.5
t-8 -0.5h-5.5t-5.5 -1h-4.5h-4.5h-3h-3h-2t-1 -1h-5h-4h-40q-7 0 -12.5 1t-8.5 3q-4 0 -4.5 4t1.5 10q1 5 3 7.5t5 3.5q4 2 8 2.5t9 1.5l40 1h3q4 0 8 1.5t8 3.5q9 5 15.5 15.5t10.5 26.5l127 474v0v0z" />
    <glyph glyph-name="F" unicode="F" horiz-adv-x="560" 
d="M257 551q3 11 1.5 19t-8.5 11q-6 3 -13.5 5t-16.5 2h-5.5h-4.5h-5.5h-4.5q-6 0 -10 1l-8 2q-4 2 -4.5 5t0.5 8q2 6 7.5 10t15.5 6q9 2 22.5 3t29.5 1l40 1q4 -1 8 -1h8q5 -1 9.5 -1h9.5h9.5h9.5q5 -1 10 -1h11q11 -1 21.5 -1.5t21.5 -0.5h2h2h1h2h35h32h15t14 1h12.5
h12.5l40 1q36 -1 60 -1h37t19 -2t5 -7l-32 -116q-1 -7 -3.5 -11t-4.5 -6q-3 -3 -5.5 -4t-4.5 -1l-40 1h-2l-2 1q-4 -1 -6.5 1t-4.5 6q-2 3 -3 8t-1 11q-1 26 -9 43.5t-21 26.5q-13 8 -31 12.5t-41 4.5l-48 2q-17 -2 -28.5 -3.5t-16.5 -4.5q-7 -3 -12 -13.5t-10 -28.5
l-36 -132q-5 -22 -7 -34.5t2 -15.5q2 -3 7 -4.5t12 -2.5l57 2q20 -2 34.5 2t23.5 11q9 8 15.5 16t10.5 17q0 2 0.5 3.5t1.5 3.5q0 1 0.5 2.5t1.5 2.5q0 1 0.5 1.5t0.5 1.5q2 6 5 12t6 10q2 5 7.5 7.5t12.5 2.5l40 1q4 -1 5 -3.5t2 -7.5q0 -4 -0.5 -10t-2.5 -13l-2 -6t-3 -6
q-1 -3 -1.5 -6t-1.5 -6q0 -1 -0.5 -2l-0.5 -1q0 -1 -0.5 -1t-0.5 -1l-0.5 -0.5t-0.5 -1.5q0 -2 -0.5 -4t-1.5 -4t-2 -4.5t-1 -4.5q-1 -2 -2 -4.5t-2 -4.5q-1 -4 -2 -7.5t-2 -5.5q-1 -6 -2.5 -12t-3.5 -12t-3 -11t-1 -10q-1 -3 -1.5 -6t-0.5 -5q-1 -3 -1.5 -5.5t-1.5 -4.5
q-1 -4 -1.5 -8.5t-1.5 -8.5t-2.5 -8t-2.5 -7q-2 -3 -3.5 -6l-2.5 -5q-4 -4 -8.5 -6.5t-9.5 -2.5l-40 1q-1 -1 -2 0t-2 4q-1 2 -1 4v5v2v2v6.5t1 7.5v5.5v4.5v3.5v2.5q-1 8 -2.5 16.5t-3.5 15.5q-4 8 -10 11.5t-17 3.5l-82 2q-7 -2 -13 -3.5t-10 -4.5t-8.5 -13.5t-9.5 -27.5
l-52 -195q-4 -17 -3 -26.5t8 -13.5t15 -6.5t18 -2.5h5h5q8 -2 15 -3t12 -3q6 -1 7.5 -5.5t-0.5 -12.5q-1 -4 -3.5 -5.5t-7.5 -2.5q-5 -2 -11.5 -2.5t-14.5 -0.5h-40h-6h-6q-3 1 -6.5 1h-6.5q-6 1 -13 1h-15q-8 1 -16.5 1.5t-17.5 0.5q-6 1 -12 1h-12h-4.5h-4.5
q-4 -1 -7 -1.5t-6 -0.5h-5.5t-5.5 -1h-4.5h-4.5h-3h-3h-2t-1 -1h-5h-4h-40q-7 0 -12.5 1t-8.5 3q-4 0 -4.5 4t1.5 10q1 5 3 7.5t5 3.5q4 2 8 2.5t9 1.5l40 1h3q4 0 8 1.5t8 3.5q9 5 15.5 15.5t10.5 26.5l127 474v0v0z" />
    <glyph glyph-name="G" unicode="G" horiz-adv-x="780" 
d="M606 236q3 11 2 19.5t-6 12.5q-6 4 -12.5 6t-14.5 3l-6 1h-5h-2h-2q-6 -1 -11 -1t-10 1q-4 1 -5 4t0 7q2 6 5.5 10t9.5 6q7 2 15 3t18 1l40 1q2 -1 3 -1h3h1h2q2 -1 4 -1h5h5.5h5.5q2 -1 5 -1h6h1.5h1.5q1 -1 2 -1h2h2h2h1h2h3.5h3.5q2 -1 3.5 -1h3.5h3.5h2.5q8 0 15 0.5
t13 1.5h6t5 1h5.5h4.5h3.5h2.5h2t1 1h5h4l40 1q8 -1 13 -2t7 -3q3 -2 4 -6t-1 -10q-1 -5 -4.5 -8t-8.5 -4t-10.5 -1.5t-11.5 -0.5l-4 1h-4q-7 -2 -14.5 -3.5t-14.5 -4.5t-12 -9t-7 -17l-44 -163q-1 -5 -3.5 -8t-4.5 -6t-5.5 -6t-7.5 -6q-16 -12 -40.5 -22.5t-57.5 -19.5
q-34 -9 -69 -13t-73 -4h-40h-8.5t-8.5 1q-5 0 -9 0.5t-9 0.5q-8 1 -17 1.5t-18 1.5q-26 3 -51 11t-48 20q-24 12 -43 29.5t-33 40.5q-14 22 -22 46.5t-10 52.5q-3 27 0 55.5t10 57.5q8 29 20.5 57t30.5 56t41.5 53.5t51.5 47.5q18 14 35.5 25.5t34.5 21.5q18 10 35.5 18.5
t33.5 15.5q26 10 50 17t48 11q23 5 44.5 7t41.5 2l40 1q23 -1 44.5 -3t39.5 -6q19 -4 33.5 -8.5t24.5 -9.5q7 -4 11.5 -7t8.5 -6q3 -3 4.5 -5t0.5 -4l-19 -100q0 -4 -1.5 -6.5t-2.5 -4.5q0 -1 -0.5 -2t-1.5 -2t-2.5 -2t-2.5 -2t-2.5 -1h-2.5l-40 1q-4 -1 -7 1.5t-6 6.5
q-4 5 -6.5 13t-4.5 20q-4 22 -15 38.5t-30 28.5q-16 9 -34.5 15t-40.5 7h-1.5h-0.5h-1.5h-1.5q-6 -1 -12 -1.5t-12 -1.5q-44 -7 -87.5 -28t-86.5 -54q-43 -34 -73.5 -82t-47.5 -111q-19 -69 -16.5 -120.5t26.5 -85.5q23 -34 53 -56t66 -33q11 -3 21.5 -5t20.5 -4
q6 -1 12 -1.5t11 -0.5q19 1 35.5 4t32.5 9q20 7 31.5 15t13.5 18l45 167v0v0z" />
    <glyph glyph-name="H" unicode="H" horiz-adv-x="780" 
d="M257 551q4 13 2 21.5t-8 12.5q-7 3 -15.5 5t-17.5 2h-4.5h-4.5h-4.5h-4.5q-6 0 -10.5 0.5t-7.5 1.5q-4 2 -4.5 5t0.5 8l1 3l1 3q1 3 4 5.5t9 3.5q6 2 13 2.5t15 0.5l40 1q3 -1 5.5 -1h5.5q3 -1 6.5 -1h6.5q6 -1 13 -1h14h1h3q6 -2 12 -2.5t12 -0.5h2h2h2h2h6t6 1h6h6
h11.5h10.5h4.5t4.5 1h4.5h4.5l40 1q8 -1 15 -1.5t12 -1.5q4 -1 6.5 -3t1.5 -5q-2 -7 -6.5 -12t-9.5 -7q-3 -1 -6.5 -1.5t-6.5 -0.5q-3 -1 -6.5 -1h-6.5l-3 1h-3h-2h-1q-10 -1 -18.5 -2.5t-16.5 -3.5t-14 -9t-9 -19l-42 -155q-4 -20 -7 -30.5t-2 -13.5q0 -2 2.5 -3.5
t6.5 -2.5l262 2q11 -2 18 -1t10 3q2 2 5 9t7 19l44 167q4 12 2.5 20t-7.5 11t-12.5 5t-14.5 3l-4 1h-3q-7 -1 -13 0t-11 2q-6 2 -7 6.5t1 12.5q1 4 4 6.5t8 3.5q6 2 13 2.5t15 0.5l40 1q2 -1 4 -1h4q2 -1 4.5 -1h4.5h4.5h5.5q2 -1 4.5 -1h5.5l4 1h5q5 -2 10.5 -2.5
t11.5 -0.5h1.5h1.5h3.5h2.5h7.5t7.5 1q3 0 6.5 0.5t7.5 0.5h6h7q3 0 6 0.5t6 0.5h6t5 1h5.5h4.5l40 1q7 -1 12 -1.5t9 -2.5q5 -1 6.5 -3.5t0.5 -6.5q-2 -8 -6 -13t-9 -7q-4 -2 -10.5 -3t-13.5 -1l-5 1h-5h-3h-2q-4 -1 -8.5 -1.5t-8.5 -1.5q-5 0 -9 -1.5t-9 -3.5
q-8 -4 -14 -13.5t-11 -26.5l-124 -462q-4 -17 -3 -26.5t8 -14.5q6 -4 14.5 -7t18.5 -3q2 -1 4 -1h4h4.5h4.5q7 -1 12.5 -1.5t10.5 -1.5t7 -3t1 -7q-2 -6 -5.5 -10t-8.5 -4q-6 -2 -13.5 -3t-16.5 -1h-40h-4.5h-4.5q-3 1 -5.5 1h-5.5h-6h-6q-3 1 -6 1h-6q-2 0 -4.5 0.5
t-4.5 0.5q-4 0 -8.5 0.5t-9.5 0.5v0h-9.5h-9.5h-4.5t-4.5 -1q-3 0 -5.5 -0.5t-4.5 -0.5h-6t-5 -1h-5.5h-4.5h-5.5t-4.5 -1h-5.5h-4.5h-40q-9 0 -15.5 1t-11.5 3q-6 0 -7.5 4t0.5 10q1 5 3 7.5t5 3.5q1 1 2.5 1t2.5 1q2 0 4.5 0.5t5.5 0.5l40 1h6q2 -1 3.5 -1h3.5h6h-40h6
q3 -1 5.5 -1t4.5 1q5 0 10.5 2t9.5 4q7 3 12.5 11.5t9.5 21.5l1 5l1 6l53 198q5 16 5.5 26t-2.5 13q-4 3 -17 4.5t-36 1.5l-157 2q-31 -2 -50 -3.5t-26 -3.5q-7 -3 -12 -11.5t-9 -23.5l-54 -202q-4 -16 -3 -25.5t7 -14.5q7 -4 14 -7t15 -4q2 -1 4.5 -1h5.5h4.5h5.5
q6 -1 11 -1.5t9 -1.5t5 -3t-1 -7q-1 -2 -2.5 -4t-2.5 -3q-2 -3 -4.5 -5t-5.5 -2q-5 -2 -12.5 -3t-15.5 -1h-40h-4.5h-4.5q-2 1 -4.5 1h-5.5h-5.5h-5.5q-3 1 -6 1h-6q-2 0 -4.5 0.5t-4.5 0.5q-4 0 -8.5 0.5t-9.5 0.5h-12h-11q-7 0 -14 -0.5t-13 -1.5h-6t-6 -1h-5.5h-4.5h-3
h-3h-2t-1 -1h-5h-4h-40q-8 0 -13.5 1t-8.5 3q-4 0 -4.5 4t1.5 10q1 5 3 8t6 4q3 2 7.5 2h9.5l4 1h5h4h4h2h3q5 -1 9.5 -0.5t9.5 2.5q4 1 9 3t9 5q9 5 16 16.5t12 29.5l124 466v0v0z" />
    <glyph glyph-name="I" unicode="I" 
d="M257 551v1l1 2v1l2 2q2 10 0.5 16.5t-7.5 10.5q-6 3 -13 5t-15 3l-6 1h-6h-2h-2q-7 -1 -13.5 -1t-10.5 1q-5 1 -6.5 4t-0.5 7q2 6 6 10t12 6q7 2 16 3t19 1l40 1q2 -1 4 -1h4q2 -1 4 -1h4h4h5h4h4h5h6q5 -2 10.5 -2.5t10.5 -0.5h2h2h2h2h6.5t6.5 1h7h6h11.5h10.5h4.5
t5.5 1h4.5h4.5l40 1q9 -1 16 -1.5t12 -1.5q4 -1 6.5 -3t1.5 -5q-1 -5 -3.5 -9t-4.5 -6q-1 -2 -2 -2.5t-2 -1.5q-4 -2 -9 -3t-10 -1l-40 1h-6l-6 1h40h-6h-6q-7 -1 -14 -3t-14 -5q-7 -4 -11.5 -12t-8.5 -22l-131 -486q-3 -14 -2 -21.5t8 -10.5t14.5 -4.5t16.5 -1.5h4h5
q8 -1 14 -1.5t11 -2.5q6 -1 8 -5t0 -10q-1 -4 -3 -5.5t-7 -2.5q-5 -2 -10.5 -2.5t-12.5 -0.5h-40h-4.5h-5.5q-2 1 -5 1h-6t-7.5 0.5t-8.5 0.5h-4h-4q-7 1 -13.5 1.5t-14.5 0.5h-2.5h-2.5q-1 1 -2 1h-3h-2.5t-3.5 -1h-2.5h-3.5q-7 0 -14.5 -0.5t-13.5 -1.5h-6.5h-6.5
t-6.5 -0.5t-6.5 -0.5h-5.5t-5.5 -1h-4.5h-4.5h-40q-7 0 -12 0.5t-8 2.5q-3 1 -4.5 2.5t-0.5 5.5q2 6 5.5 10t8.5 5q6 2 12.5 2.5t13.5 0.5l4 1h4q4 -1 8 -0.5t8 1.5q3 1 7 2.5t8 2.5q8 3 13.5 10.5t8.5 19.5l131 490v0v0z" />
    <glyph glyph-name="J" unicode="J" 
d="M-2 -189q-4 -2 -9 -2.5t-9 -1.5h-4t-5 -1h-4h-4h-41q-16 0 -28.5 4.5t-19.5 12.5q-7 9 -8.5 18t0.5 19q2 7 6.5 14.5t11.5 13.5q7 7 17 11.5t21 6.5h39h2v0h2h1q9 0 15 -2t9 -6q4 -5 6.5 -9.5t3.5 -10.5v-2l1 -1q2 -5 3.5 -9t3.5 -8l0.5 -0.5l0.5 -0.5l0.5 -0.5l0.5 -0.5
q7 3 16 7.5t19 10.5q11 7 21.5 18.5t20.5 27.5q9 16 17 32.5t14 34.5q2 6 4.5 11.5t4.5 12.5l4 12t3 12l2 8t2 7q2 8 4.5 14.5t3.5 12.5l125 466q4 13 2.5 22t-7.5 13q-7 5 -14 7t-15 3l-6 1h-5h-2h-1q-7 -1 -13 -0.5t-11 1.5t-6.5 4.5t0.5 9.5q1 5 5 9t10 5q7 2 16 2.5
t20 0.5l40 1q4 -1 8.5 -1h8.5h9.5h8.5q5 -1 10 -1h11h3h3h2.5h2.5h13.5t12.5 1l40 1q5 -1 10.5 -1h10.5h4.5h5.5h4.5h4.5q13 0 22 -0.5t14 -2.5q5 -1 7 -5t1 -9q-2 -6 -5 -9.5t-8 -4.5t-10.5 -1.5t-11.5 -0.5l-1 1h-1h-5h-5q-9 -2 -17 -4t-16 -6t-13.5 -13.5t-9.5 -24.5
l-124 -462q-12 -44 -31 -79t-46 -63q-14 -14 -27.5 -26.5t-26.5 -24.5q-14 -11 -27.5 -20.5t-27.5 -17.5q-13 -8 -25.5 -14t-24.5 -10q-11 -5 -21.5 -8l-17.5 -5h-1v0z" />
    <glyph glyph-name="K" unicode="K" horiz-adv-x="701" 
d="M259 559q4 11 2.5 19t-6.5 11q-6 3 -13.5 5t-15.5 2h-4.5h-4.5h-4.5h-4.5q-5 0 -9 1l-8 2q-3 2 -3.5 5t0.5 8q2 5 5.5 9t10.5 5q6 2 15 2.5t21 0.5l40 1q4 -1 8.5 -1h8.5h10h11q5 -1 10.5 -1h11.5h3h3h2.5h2.5h6h6q2 0 5 0.5t6 0.5l40 1q2 -1 4.5 -1h5.5h4.5h4.5h9h8
q11 0 19.5 -0.5t12.5 -2.5q4 -1 5.5 -5t-0.5 -9q-1 -4 -3.5 -6t-6.5 -3t-8.5 -1.5t-9.5 -0.5l-2 1v0q-1 -1 -2.5 -1h-2.5q-2 -1 -3 -1h-2h-5.5h-4.5q-10 -1 -19 -5.5t-18 -10.5t-16 -18.5t-12 -32.5l-49 -179l259 205q2 1 4.5 2.5t4.5 3.5q2 1 3.5 3t2.5 3q2 3 4 5.5t2 4.5
q2 5 0 8t-7 4q-6 2 -13 2.5t-15 0.5q-6 0 -10.5 1t-6.5 3q-3 2 -4 4.5t0 5.5v2l1 1q1 2 4.5 5t10.5 6q6 2 14.5 3.5t19.5 1.5l40 1q2 -1 4.5 -1h5.5h2h3q1 -1 2.5 -1h2.5q5 -1 9.5 -1.5t8.5 -0.5h1.5h1.5h0.5h1.5h6t7 1q3 0 6 0.5t6 0.5h6h6h5h6h6t5 1h5.5h5.5l40 1
q11 -1 19 -1.5t15 -2.5q6 -1 9 -5t1 -9q-1 -6 -4.5 -9.5t-8.5 -4.5t-11 -1.5t-14 -0.5q-12 0 -26.5 -1.5t-31.5 -4.5t-37 -13.5t-42 -27.5l-179 -140q-6 -5 -10.5 -9t-7.5 -6q-3 -3 -4.5 -5.5t-1.5 -4.5q-1 -2 -0.5 -4.5t1.5 -5.5q2 -3 4.5 -6t5.5 -8l164 -297q1 -5 2.5 -8
l2.5 -5l2 -2l2 -2q0 -1 1 -2l2 -2q5 -5 10.5 -8t11.5 -4t11.5 -1.5t10.5 -0.5t8.5 -0.5t6.5 -1.5q2 -1 3 -4t0 -8q-2 -6 -5 -10t-7 -4q-4 -2 -11 -3t-15 -1h-40h-2.5h-3.5h-1h-2q-2 1 -4 1h-5h-6h-6q-3 1 -6.5 1h-6.5q-7 1 -14 1.5t-15 0.5h-14h-14h-5h-5q-5 -1 -10 -1.5
t-10 -0.5h-6.5t-6.5 -1h-5.5h-5.5h-6t-5 -1h-5.5h-4.5h-40q-9 0 -15 1t-10 3q-4 0 -5.5 4t0.5 10q1 5 5 8t11 4t14.5 1.5t15.5 0.5q11 0 21 1.5t18 3.5t9.5 9t-3.5 19l-107 222q-2 4 -4 7.5t-4 7.5t-4 7.5t-4 6.5l-28 -21l-4 -4q-1 -2 -3 -4.5t-4 -4.5q-2 -3 -4.5 -6.5
t-5.5 -8.5q-2 -4 -3.5 -9.5t-3.5 -11.5l-42 -155q-5 -20 -4.5 -32t6.5 -17q6 -4 14.5 -6.5t18.5 -2.5l1 1h2h4h4h4h4q5 -1 9 -1.5t8 -2.5q2 -1 3.5 -4t0.5 -8q-2 -6 -5 -10t-8 -4q-5 -2 -12 -3t-15 -1h-40h-2.5h-3.5h-1h-2q-2 1 -4 1h-5h-5.5h-5.5q-3 1 -6 1h-6
q-6 1 -12 1.5t-14 0.5h-4h-4h-4h-4h-6t-6 -1q-4 0 -7 -0.5t-6 -0.5h-6t-6 -1h-5.5h-5.5h-6t-5 -1h-5.5h-4.5h-40q-10 0 -16.5 1t-11.5 3q-6 0 -7.5 4t0.5 10q1 5 4 7t7 3q5 1 10.5 1.5t12.5 1.5h4h4h4t4 1q5 0 9 0.5t9 2.5q4 1 8.5 3t8.5 4q9 5 15 14.5t10 24.5l129 482v0v0
z" />
    <glyph glyph-name="L" unicode="L" horiz-adv-x="520" 
d="M243 559q2 8 0.5 14t-7.5 9q-4 2 -8.5 3.5t-9.5 2.5q-2 0 -4.5 1t-4.5 1l-4 1l-5 1q-7 -1 -12.5 0t-10.5 2q-5 2 -6.5 5t-0.5 8l1 2v2v0v0v1l1 1q2 5 4.5 9t7.5 6t11.5 3t14.5 1l40 1q2 -1 4 -1h4q3 -1 5 -1h5h4.5h5.5q3 -1 6 -1h6q5 -1 10.5 -1.5t12.5 -0.5h1.5h1.5h0.5
h1.5h8t8 1h4h4h4h4h6h6h5h6h6t6 1h5.5h5.5l40 1q11 -1 19 -1.5t15 -1.5t10 -3t2 -5l-1 -1v0v-2v-1q-2 -8 -6.5 -12.5t-9.5 -6.5q-6 -1 -12 -2.5t-14 -1.5h-7h-5q-9 -2 -18 -4.5t-18 -7.5q-8 -4 -14.5 -14.5t-10.5 -25.5l-120 -447q-5 -19 -2 -31t13 -18q7 -4 16 -6.5
t19 -4.5h1v0q2 0 4 0.5t4 0.5q4 1 8 1.5t8 0.5q21 3 38.5 9t30.5 15q14 9 25.5 18.5t20.5 19.5q2 2 3.5 4t3.5 4l2 2t2 3q3 3 5.5 6t4.5 6l4 6t5 6q2 3 4 5.5t4 5.5t5 6t6 5q2 2 5 3.5t6 1.5l40 1l4 -4q1 -3 0.5 -6t-1.5 -6q-1 -4 -2 -7.5t-3 -8.5q-1 -2 -2 -4.5t-1 -4.5
q-1 -3 -2 -5.5t-2 -4.5l-1 -1l-1 -1q-1 -3 -2 -5.5t-1 -4.5q-1 -2 -2 -4.5t-2 -4.5q-1 -4 -2.5 -8t-2.5 -7q-1 -4 -2.5 -7.5t-2.5 -6.5q-2 -4 -3 -7l-2 -6q-2 -6 -4.5 -12t-5.5 -10q-3 -5 -5.5 -9.5t-4.5 -7.5q-5 -7 -14 -9.5t-22 -2.5h-40h-3h-3h-6l-5 1h-8h-8h-8h-8h-8
t-8 1h-8h-8l-4 1h-4q-1 -1 -3 -1t-4 1q-7 -1 -14 -1h-14h-12.5h-12.5q-6 -1 -12 -1h-12h-22.5h-21.5h-19h-17h-7.5h-8.5q-4 0 -8.5 -0.5t-9.5 -1.5h-3h-2h-4t-4 -1h-4h-4h-2.5h-2.5h-1.5t-1.5 -1h-3.5h-3.5h-40q-7 0 -13 0.5t-11 2.5q-4 1 -6 3.5t-1 6.5v2l2 2v0l1 2
q2 4 6 7.5t10 4.5q5 2 11 2.5t13 1.5l3 1l4 1q8 0 16 2t15 5q8 3 13.5 10.5t8.5 18.5l131 490v0v0z" />
    <glyph glyph-name="M" unicode="M" horiz-adv-x="843" 
d="M475 197l270 378q1 1 2.5 3.5t2.5 4.5t2.5 4t2.5 4t2.5 3.5t2.5 3.5q1 1 2.5 3t2.5 3q5 6 9 9.5t8 4.5q5 1 10 1.5t12 0.5l86 2h40q12 -2 22 -2.5t17 -1.5q8 -1 11.5 -4.5t1.5 -9.5q-2 -7 -5 -12t-6 -7q-2 -1 -5.5 -2t-6.5 -2h-2.5h-3.5l-40 1v-1h-1t-1.5 -0.5t-1.5 -0.5
q-1 -1 -2.5 -1.5t-3.5 -1.5q-5 -3 -8.5 -10t-6.5 -18l-126 -470q-4 -17 -3.5 -26.5t4.5 -14.5q5 -4 11.5 -7t13.5 -3h6q1 -1 2 -1h2h1h2q5 -1 9 -1.5t8 -1.5t5.5 -3t0.5 -7q-2 -6 -6.5 -10t-11.5 -4q-8 -2 -17 -3t-20 -1h-40h-4h-4q-2 1 -4 1h-4h-4.5h-4.5h-5.5h-4.5l-4 1
h-4q-4 0 -7.5 0.5t-6.5 1.5h-3.5h-3.5h-1.5h-0.5h-1.5h-1.5h-4h-4q-4 -1 -8 -1.5t-8 -0.5h-6t-6 -1h-5.5h-4.5h-5.5t-4.5 -1h-5h-4h-40q-9 0 -15 1t-10 3q-5 0 -6.5 4t0.5 10q1 5 3.5 7t6.5 3q5 1 10.5 1.5t12.5 0.5v1h2q2 -1 4 -1h4h4h4q8 0 16.5 2.5t16.5 6.5t14 12.5
t10 21.5l104 390l-290 -412q-10 -16 -17.5 -22.5t-12.5 -5.5l-40 1q-6 1 -8 7t-2 18l-53 412l-122 -363q-6 -23 -6 -37t7 -20t15.5 -9t18.5 -3l5 1h6q8 -1 14 -1.5t12 -2.5q5 -1 6.5 -5t-0.5 -11q-1 -4 -4 -5.5t-8 -2.5q-5 -2 -11 -2.5t-14 -0.5h-40h-5.5h-5.5q-2 1 -5 1h-6
q-5 1 -11 1h-12l-1 1h-1q-2 0 -4.5 0.5t-4.5 0.5t-4 0.5t-4 0.5h-2.5t-2.5 -1h-2.5h-2.5q-6 0 -11 -0.5t-10 -1.5h-5.5h-4.5t-4.5 -0.5t-5.5 -0.5h-4.5t-4.5 -1h-3.5h-3.5h-40q-5 0 -9.5 0.5t-6.5 2.5q-2 1 -3.5 2.5t-0.5 5.5q2 6 5.5 10t8.5 5q6 2 13 2.5t14 0.5l4 1h3
q8 -1 16.5 1t15.5 5q8 3 13.5 10.5t8.5 19.5l172 498q2 7 1 12t-5 8q-4 2 -9.5 3.5t-11.5 1.5l40 1q-1 -1 -2 -1h-1h-2h-2l-6 1q-2 -2 -4 -2h-4l-40 1h-6q-6 -1 -10.5 0t-8.5 3t-4.5 6t1.5 11q2 6 6.5 9.5t11.5 4.5q8 1 16.5 1.5t17.5 0.5l94 2h40q6 -2 11.5 -3.5t10.5 -4.5
t8 -13.5t4 -27.5l54 -376v0z" />
    <glyph glyph-name="N" unicode="N" horiz-adv-x="741" 
d="M618 192l94 351q4 12 2 20t-7 12q-7 4 -14 6t-15 3l-5 1h-4h-2h-2q-6 -1 -11 -1t-9 1t-5.5 4t-0.5 7q2 6 5 10t7 6t9.5 3t12.5 1l40 1q2 -1 3.5 -1h3.5q2 -1 4 -1h4h4h4q2 -1 4 -1h5q5 -1 9.5 -1.5t9.5 -0.5h4.5h4.5q6 0 12 0.5t11 1.5h5.5t4.5 1h5.5h4.5h4t4 1h4h3l40 1
q7 -1 11.5 -2t7.5 -3q2 -2 3 -6t-1 -10q-1 -4 -3.5 -7t-7.5 -4t-10.5 -1h-11.5l-1 1h-1q-2 -1 -4 -1h-4h-2h-1h-2h-2q-9 -1 -18 -3t-17 -6q-9 -4 -14.5 -12t-9.5 -22l-139 -517q-4 -19 -8.5 -27t-7.5 -8h-40q-3 1 -8 5.5t-12 11.5l-245 493l-114 -428q-4 -15 -3 -24t8 -13
t14.5 -6t17.5 -2l4 1h5h2h2q6 -1 11.5 -1.5t9.5 -1.5q5 -1 7 -3t1 -7q-2 -6 -5 -10t-7 -4q-5 -2 -11 -3t-14 -1h-40h-4h-4q-3 1 -5 1h-4h-4.5h-5.5q-2 1 -4.5 1h-5.5t-5.5 0.5t-5.5 0.5q-3 1 -5.5 1h-5.5h-2.5h-3.5h-4.5t-4.5 -1q-3 0 -5.5 -0.5t-4.5 -0.5h-4.5t-4.5 -1
h-4.5h-4.5h-4.5t-4.5 -1h-3.5h-3.5h-40q-7 0 -12 1t-9 3q-4 0 -5 4t1 10q1 5 3.5 7t6.5 3q5 1 10.5 1.5t12.5 0.5v1h2q2 -1 4 -1h4h4h4q8 0 16.5 2.5t16.5 6.5t14 12.5t10 21.5l127 474q4 12 2 20t-8 12q-7 4 -15 6t-17 3l-5 1h-4h-2h-2q-7 -1 -12.5 -1t-9.5 1t-6 4t-1 7
q3 9 7 14.5t8 6.5q5 2 11 2.5t12 0.5l95 2h40q6 -2 11 -2.5t9 -0.5q3 0 6 -0.5t6 -2.5q1 -1 2.5 -3.5t4.5 -4.5q2 -2 4 -5t5 -7l214 -404v0z" />
    <glyph glyph-name="O" unicode="O" horiz-adv-x="820" 
d="M131 346q27 71 71.5 125t106.5 90t124.5 54t124.5 18l40 1q62 -1 115 -19t96 -54t59 -90.5t4 -126.5q-1 -2 -1.5 -4t-0.5 -4q0 -3 -0.5 -5t-1.5 -4q0 -2 -0.5 -4t-1.5 -4t-1.5 -4t-0.5 -4q-21 -78 -64 -136.5t-108 -99.5q-33 -20 -66 -35.5t-65 -25.5q-33 -10 -66 -14.5
t-66 -4.5h-40q-67 0 -122 20.5t-99 63.5t-53 109t16 156v2v0zM258 345l-1 -5l-1 -4q-21 -79 -16.5 -137.5t34.5 -96.5q28 -35 62.5 -54t76.5 -22q44 3 88.5 22.5t90.5 53.5q51 38 86.5 94.5t54.5 130.5q1 2 1.5 4t1.5 4q0 2 0.5 4.5t1.5 4.5q15 62 7 110t-39 81
q-28 29 -62.5 45.5t-75.5 19.5q-42 -3 -84 -19t-85 -45q-46 -31 -81.5 -79t-59.5 -113v1z" />
    <glyph glyph-name="P" unicode="P" horiz-adv-x="599" 
d="M264 575q2 7 -0.5 12t-7.5 7q-7 2 -13.5 3t-14.5 1l-6 1h-5q-7 -1 -13 -0.5t-10 1.5t-5.5 4t-0.5 8t3.5 8.5t6.5 4.5q5 2 10 3t11 1l40 1q5 -1 9.5 -1.5t9.5 -1.5t10.5 -1.5t11.5 -0.5q3 -1 5.5 -1.5t4.5 -0.5q2 -1 4.5 -1.5t5.5 -0.5h3t2 -1q2 1 4.5 1h4.5q7 1 14.5 1.5
t15.5 1.5q3 0 5.5 0.5t5.5 0.5q10 0 21 0.5t22 1.5t22 1.5t22 0.5l40 1q15 -1 29.5 -2t28.5 -3q12 -1 22.5 -3.5t20.5 -6.5q2 0 4.5 -1t5.5 -2q23 -13 39 -30t24 -37q8 -19 10.5 -39.5t-2.5 -40.5l-1 -3l-1 -4q-6 -24 -18.5 -46.5t-32.5 -43.5q-19 -22 -43 -39.5t-52 -31.5
l-8 -4t-8 -3q-8 -3 -15.5 -5.5t-16.5 -4.5q-13 -3 -25 -4.5t-24 -1.5l-40 1q-3 -1 -6 -1h-6q-4 0 -7 0.5t-6 0.5t-5.5 0.5t-5.5 1.5t-5.5 1.5t-5.5 1.5q-6 1 -12 2.5t-12 3.5q-3 2 -6 3.5t-6 2.5q-1 -3 -2 -5.5t-2 -5.5q-1 -4 -2 -7.5t-2 -7.5l-52 -195q-4 -14 -4 -23t5 -13
t10.5 -5.5t12.5 -1.5l-40 1h6l7 1h40h6h6q5 -1 9 -2t7 -3q4 -2 4.5 -6.5t-1.5 -12.5q-1 -4 -4 -5.5t-8 -2.5q-5 -2 -11.5 -2.5t-14.5 -0.5h-40h-6h-6q-3 1 -6 1h-6t-6 0.5t-6 0.5h-7h-6q-3 1 -6 1.5t-6 0.5h-6h-5h-6t-5 1h-2.5t-2.5 -1h-3.5h-2.5q-7 0 -14 -0.5t-13 -1.5
h-13t-12 -1h-5.5t-4.5 -1h-4.5h-4.5h-40q-7 0 -12 0.5t-7 2.5q-3 1 -4.5 2.5t-0.5 5.5q2 8 7 13.5t13 6.5q7 2 15 2.5t16 0.5l2 1h4q8 -1 16 0.5t15 2.5q7 2 12 6.5t7 13.5l140 522v0v0zM388 566l-57 -212q-2 -11 2.5 -19t16.5 -14q8 -4 18 -6.5t22 -4.5v0v0q14 1 27.5 4.5
t29.5 9.5q14 6 27 15t24 21q10 10 18 21t15 23q6 12 11.5 24.5t8.5 25.5q7 24 7 47t-8 45q-7 21 -23.5 36t-41.5 22q-2 1 -4.5 1.5t-4.5 1.5q-3 0 -5.5 0.5t-4.5 1.5q-4 1 -8.5 1.5t-8.5 1.5q-9 -1 -16.5 -3.5t-15.5 -6.5q-11 -5 -18 -14t-11 -23v1z" />
    <glyph glyph-name="Q" unicode="Q" horiz-adv-x="820" 
d="M336 -8q-6 1 -12.5 1.5t-13.5 2.5q-3 1 -6.5 1.5t-6.5 0.5q-4 1 -7 1.5t-6 0.5q-31 10 -57.5 27t-49.5 42t-37 54.5t-19 63.5q-1 5 -1.5 10.5t-0.5 10.5q-1 5 -1.5 10.5t-0.5 10.5q0 11 0.5 21.5t1.5 20.5q2 11 4 21.5t5 20.5q14 52 42.5 100t73.5 91q44 44 96 75t111 49
q17 5 33.5 9t32.5 7q5 1 10.5 1.5t10.5 1.5q11 1 21.5 1.5t20.5 0.5l40 1q71 -1 124 -25t89 -72q35 -48 44 -106t-9 -126q-4 -13 -9 -26.5t-11 -27.5q-6 -13 -13 -27.5t-15 -28.5q-16 -30 -40.5 -58.5t-56.5 -54.5t-64.5 -46.5t-64.5 -34.5q-13 -6 -25 -10.5t-23 -6.5
t-22 -4.5t-22 -3.5q-10 -2 -17 -4t-12 -5t-8 -7.5t-4 -8.5q-1 -5 -1 -10.5t2 -12.5q2 -6 6 -12.5t10 -13.5q4 -5 8.5 -10t9.5 -11l10.5 -10.5t12.5 -9.5q8 -7 16.5 -13t16.5 -10q9 -5 16 -7.5t12 -3.5q2 -1 4 -1t4 -1q4 0 8.5 -1t7.5 -1h2t2 -1h1h2q2 0 3.5 0.5t3.5 0.5
t3.5 0.5t3.5 0.5q8 1 16.5 2.5t15.5 3.5t13.5 3.5t11.5 3.5q5 1 9 2t7 1h40l4 -3q0 -2 -1 -4t-4 -6q-7 -10 -19.5 -17.5t-32.5 -13.5q-19 -5 -40.5 -8t-45.5 -3h-40q-9 0 -18 0.5t-17 1.5q-3 0 -6 0.5t-6 0.5q-6 1 -12 1.5t-12 1.5q-36 7 -67 20.5t-57 33.5t-34.5 48.5
t1.5 64.5q0 2 0.5 4.5t1.5 4.5t1.5 4.5t1.5 4.5v0v0zM262 331q-18 -82 -12.5 -140.5t34.5 -95.5q26 -33 58.5 -51t72.5 -21q43 3 87 22.5t90 53.5q50 38 84.5 91t53.5 122l2 7l0.5 0.5t0.5 1.5t0.5 2t0.5 2v7l2 6q14 67 5.5 117t-38.5 83q-27 30 -60.5 46t-72.5 20
q-43 -4 -86 -21t-87 -48q-49 -35 -83 -86.5t-52 -118.5v1z" />
    <glyph glyph-name="R" unicode="R" horiz-adv-x="623" 
d="M474 322q5 -3 8 -5.5t6 -5.5q2 -1 3 -3t3 -3q1 -2 2.5 -3.5t2.5 -3.5q0 -2 0.5 -4t1.5 -4t1.5 -3.5t0.5 -3.5q0 -1 0.5 -2.5t1.5 -2.5t1.5 -2t0.5 -2l53 -211q2 -8 4.5 -13.5t6.5 -8.5q2 -1 3.5 -2.5t3.5 -2.5t3.5 -2t3.5 -2q4 -1 7.5 -2t7.5 -1q3 -1 6.5 -1h7.5
q5 0 9 -0.5t8 -1.5q2 -1 3.5 -4t0.5 -8q-2 -6 -6 -9.5t-9 -4.5h-13h-16h-40h-86q-6 0 -11.5 1.5t-10.5 5.5q-5 5 -8.5 14t-5.5 24l-53 246q-1 4 -5.5 7.5t-9.5 4.5q-2 0 -4 0.5t-4 0.5q-3 0 -5.5 0.5t-5.5 0.5q-4 0 -7 -0.5t-5 -0.5t-3.5 -0.5t-2.5 -0.5q-4 -1 -6 -4.5
t-4 -9.5l-61 -226q-2 -11 -0.5 -17t7.5 -8q6 -3 13 -4.5t15 -1.5h4h3q7 -2 13 -2.5t11 -2.5q5 -1 7 -4.5t1 -8.5q-2 -6 -6.5 -10t-12.5 -4q-8 -2 -18 -3t-21 -1h-40h-3.5h-3.5q-2 1 -3.5 1h-3.5h-7.5h-6.5h-2.5h-2.5q-1 1 -2 1h-2h-4.5h-4.5q-4 0 -7.5 0.5t-6.5 1.5h-3.5
h-3.5v0v0h-1v0q-6 0 -12 -0.5t-12 -1.5h-1l-1 -1h-12t-13 -1h-6t-5 -1h-5.5h-4.5h-40q-8 0 -14.5 0.5t-10.5 2.5q-4 1 -6 2.5t-1 5.5q2 8 6 12.5t10 5.5q6 2 12.5 3t13.5 1l2 1h4h1h2q2 -1 4.5 -1h4.5q7 1 13.5 1.5t12.5 2.5q8 2 14 9.5t9 19.5l133 498q4 11 2.5 19t-6.5 11
q-6 3 -13.5 5t-15.5 2h-4.5h-4.5h-4.5h-4.5q-5 0 -9 1l-8 2q-3 2 -3.5 5t0.5 8q2 5 6 9t12 5q8 2 16 2.5t18 0.5l40 1q2 -1 4.5 -1h4.5h4.5h4.5l5 1h5q2 -1 3.5 -1.5t3.5 -0.5h3h3h3.5h3.5h3h3q3 0 6 -0.5t7 -0.5h6h6h10.5h10.5h9h9h8.5h8.5h5.5t5.5 1h5h6l40 1
q5 -1 10.5 -1h10.5q32 0 59.5 -3t49.5 -10t37 -23.5t23 -42.5q0 -2 0.5 -4.5t1.5 -4.5q0 -3 0.5 -5.5t1.5 -4.5q0 -2 0.5 -4.5t0.5 -4.5t0.5 -4.5t0.5 -4.5t-0.5 -4.5t-0.5 -4.5q-1 -3 -1 -5.5v-4.5q0 -1 -0.5 -2.5t-0.5 -3.5q0 -3 -0.5 -6t-1.5 -6q-7 -27 -24 -51t-43 -46
t-57.5 -36.5t-69.5 -20.5v1zM390 574l-57 -212q-2 -10 -1 -15t5 -7q3 -1 11 -1.5t22 -1.5q34 2 60.5 11.5t46.5 27.5q21 20 35.5 41t21.5 44l1 4l1 3q5 15 6 30t-1 30q-2 14 -6.5 25.5t-11.5 19.5q-4 5 -11.5 9t-18.5 8q-10 3 -21.5 6t-22.5 5h-4.5t-4.5 1q-7 -1 -13.5 -2.5
t-12.5 -3.5q-10 -4 -16 -9.5t-8 -13.5v1z" />
    <glyph glyph-name="S" unicode="S" horiz-adv-x="520" 
d="M58 102l6 24q5 16 10 28.5t11 20.5q2 4 4.5 7t5.5 5q2 2 4.5 3.5t4.5 2.5l40 1h1h2q3 -1 5.5 -2.5t3.5 -4.5q2 -3 2 -7t-1 -9q-8 -41 -4 -70.5t20 -46.5q13 -14 28.5 -22t33.5 -11q26 3 51.5 13t50.5 26q28 18 46 40.5t26 48.5q2 8 2.5 15.5t0.5 14.5q-1 8 -2.5 16
t-3.5 16q-1 3 -2.5 5.5t-3.5 4.5q-1 1 -1.5 2.5t-1.5 2.5q-1 3 -2.5 5.5t-3.5 4.5q-1 2 -1.5 3.5t-1.5 2.5q-10 10 -20.5 19t-21.5 16q-12 8 -24.5 14.5t-26.5 13.5l-2 2l-3 1q-20 10 -39.5 22t-36.5 25q-19 13 -29.5 32t-14.5 44q-1 7 -1 14t1 14q0 7 1.5 13.5t2.5 13.5
q10 35 33 63.5t60 50.5t74.5 33t74.5 11l40 1q2 -1 4.5 -1h5.5h4.5h5.5q24 -1 45.5 -4.5t40.5 -8.5q19 -6 27.5 -12.5t6.5 -14.5l-15 -84l-5 -7q-2 -2 -4.5 -2.5t-4.5 -0.5l-40 1h-4l-4 1q-4 0 -7 1.5t-5 4.5t-2.5 7t0.5 8q0 19 -6.5 32.5t-20.5 22.5q-11 6 -22.5 10.5
t-25.5 5.5q-7 -1 -14.5 -2.5t-14.5 -2.5q-15 -4 -29.5 -9t-28.5 -13q-23 -12 -37 -27t-19 -33q-4 -16 1 -33t19 -36t43 -37.5t73 -38.5q3 -1 6.5 -2.5t7.5 -3.5q3 -1 6.5 -2.5t7.5 -3.5q26 -11 43.5 -28.5t26.5 -40.5q8 -24 9 -48.5t-6 -50.5l-1 -2v-3q-11 -36 -33.5 -68.5
t-57.5 -61.5q-34 -29 -78.5 -43t-97.5 -14h-40h-3h-2h-3h-3q-59 0 -94 7t-44 22q-10 15 -12.5 32.5t3.5 38.5v2v0z" />
    <glyph glyph-name="T" unicode="T" horiz-adv-x="623" 
d="M408 583q1 4 -0.5 7t-4.5 4q-1 0 -4 0.5t-6 0.5q-4 0 -8.5 0.5t-10.5 0.5q-31 -1 -54.5 -8t-40.5 -18q-18 -13 -34 -28t-30 -32q-2 -4 -4.5 -7.5t-6.5 -6.5q-4 -4 -7.5 -6.5t-6.5 -4.5q-5 -3 -9 -4t-6 0l-40 1q-3 -1 -3.5 2t0.5 9l1 5l1 5l88 151q2 1 3.5 3.5t3.5 3.5
q2 2 4 3.5t4 2.5l40 1q4 1 6.5 1t4.5 -2q2 -1 1.5 -5t-4.5 -10v-1l-1 -2q-2 -7 1 -11t11 -6q6 -1 12.5 -2.5t13.5 -2.5q1 1 1.5 1h1.5h4.5h4.5h2h2h1h2l276 2q26 -2 45 -1t30 2q11 2 19.5 7t13.5 14q2 3 4.5 6t4.5 5t4.5 3.5t6.5 2.5l40 1q3 0 5.5 -1t4.5 -3t3 -5.5t-1 -8.5
l-47 -148q-1 -4 -2.5 -7t-3.5 -5q-1 -1 -1.5 -2t-1.5 -2q-4 -2 -7 -3t-6 -1l-40 1q-3 -1 -5 0t-4 3q-3 2 -3 6t1 8q1 3 1.5 6.5t1.5 7.5v6.5v7.5q-1 12 -4.5 23.5t-10.5 21.5q-7 11 -17 16t-24 5l-60 2q-10 -2 -15 -2.5t-7 -2.5q-3 -1 -5.5 -6.5t-4.5 -13.5l-134 -502
q-4 -15 -3 -24t8 -13t14.5 -6t17.5 -2l4 1h5h2h2q6 -1 11.5 -1.5t9.5 -1.5q5 -1 7 -3t1 -7q-2 -6 -5 -10t-7 -4q-4 -2 -10.5 -3t-14.5 -1h-40h-2.5h-3.5h-1h-2q-2 1 -4 1h-5h-5.5h-5.5q-2 1 -5 1h-6q-7 1 -13.5 1.5t-14.5 0.5h-9.5h-9.5h-6t-6 -1q-4 0 -7 -0.5t-6 -0.5h-6
t-6 -1h-5.5h-5.5h-6t-5 -1h-5.5h-4.5h-40q-10 0 -16.5 1t-11.5 3q-6 0 -7.5 4t0.5 10q1 5 3.5 7t6.5 3t9.5 1.5t11.5 0.5v1h2q2 -1 3.5 -1h3.5h2h2h1h2q4 0 8 0.5t8 1.5q3 1 7 3l8 4q8 4 13.5 12.5t9.5 21.5l138 514v0v0z" />
    <glyph glyph-name="U" unicode="U" horiz-adv-x="741" 
d="M264 575q2 7 -0.5 12.5t-8.5 7.5q-4 1 -8.5 2t-9.5 2q-2 0 -4.5 0.5t-4.5 0.5l-2 1h-1q-7 -1 -14.5 0t-13.5 2q-5 2 -7 6t0 11q1 4 4 6.5t8 3.5q5 2 10.5 2.5t12.5 0.5l40 1q2 -1 4.5 -1h4.5q3 -1 5.5 -1h5.5q6 -1 12 -1h12q1 0 1.5 -0.5t1.5 -0.5t2.5 -0.5t3.5 -0.5h3h3
h2.5h2.5h4.5t4.5 -1h3.5t2.5 1h3.5h2.5h8t8 1q3 0 7 0.5t8 0.5h13.5t12.5 1h6t5 1h5.5h5.5l40 1q7 -1 12.5 -1.5t9.5 -2.5q4 -1 5.5 -3.5t0.5 -6.5q-2 -7 -6.5 -12t-9.5 -7q-3 -1 -6.5 -1.5t-6.5 -0.5q-3 -1 -6.5 -1h-6.5l-3 1h-3h-2h-1q-10 -1 -18.5 -2.5t-16.5 -3.5
t-14 -9t-9 -19l-111 -415q-9 -34 -1 -59t33 -42q22 -14 47.5 -22.5t54.5 -10.5q31 2 60.5 10t58.5 22q33 17 54 41.5t30 58.5l102 380q6 21 5.5 35t-7.5 21q-6 7 -14 10.5t-18 4.5l-4 1h-4q-3 -1 -5.5 -1h-4.5h-5.5h-4.5q-5 -1 -9 -0.5t-6 1.5q-3 2 -3.5 5t0.5 7q2 6 4.5 10
t7.5 6t11.5 3t13.5 1l40 1q2 -1 4 -1h4q2 -1 4.5 -1h4.5h4.5h5.5q2 -1 5 -1h6q4 -1 8.5 -1.5t9.5 -0.5h6t7 1h5.5t5.5 1q3 0 5.5 0.5t5.5 0.5h4.5h5.5q2 0 4.5 0.5t4.5 0.5h4t4 1h4h4l40 1q5 -1 9.5 -1.5t7.5 -2.5q2 -1 3 -3.5t0 -6.5q-2 -7 -5.5 -11t-8.5 -6
q-4 -1 -10 -1.5t-12 -0.5h-6h-6q-10 -2 -18.5 -5.5t-16.5 -8.5t-14.5 -17t-11.5 -30l-1 -3v-3l-1 -4l-1 -3l-99 -370q-13 -46 -41 -79t-72 -54t-89 -31.5t-92 -10.5h-40h-2h-1q-46 1 -85.5 11t-72.5 30q-34 21 -44.5 52t0.5 73l115 427v0v0z" />
    <glyph glyph-name="V" unicode="V" horiz-adv-x="678" 
d="M419 174l246 369q2 1 3 3.5t3 4.5q1 2 2.5 4.5t2.5 4.5q2 4 3.5 7.5t2.5 6.5q2 8 0.5 13t-5.5 7t-9.5 3t-11.5 2l40 1h-6h-5l-6 -1h-40h-6q-7 -1 -12.5 0t-9.5 3t-5 6.5t1 11.5q1 4 3.5 6.5t6.5 3.5q4 2 9 2.5t12 0.5l40 1q2 -1 4.5 -1h4.5q2 -1 4.5 -1h5.5q5 -1 11 -1
h12q1 0 2.5 -0.5t2.5 -0.5q2 0 4.5 -0.5t5.5 -0.5h2.5h2.5h1h1q2 -1 4 -1h4q5 0 9.5 0.5t9.5 1.5h4t4 1h4h4h3.5t3.5 1h3h3l40 1q6 -1 11 -2t7 -3t3 -6t-1 -10q-1 -4 -4 -7t-6 -4q-4 -1 -9 -1.5t-10 -0.5h-3h-3q-2 -1 -3.5 -1h-3.5q-3 0 -6.5 -0.5t-7.5 -1.5
q-7 -1 -13.5 -4.5t-14.5 -8.5q-7 -5 -14.5 -13.5t-13.5 -20.5l-356 -533q-5 -10 -11 -16t-12 -10h-40q-7 -5 -10.5 1.5t-5.5 22.5l-77 537q-1 10 -3 17.5t-5 13.5q-2 4 -4.5 7t-5.5 5q-1 1 -2.5 2t-2.5 2q-2 2 -5 2.5t-6 1.5h-2.5t-2.5 1h-3h-2l40 1h-6h-4l-5 -1h-40h-4
q-4 -1 -7 0t-4 2q-2 2 -2 5.5t1 9.5q1 4 4 6.5t7 3.5q5 2 10.5 2.5t12.5 0.5l40 1q2 -1 4.5 -1h5.5q2 -1 5 -1h6q6 -1 12 -1h12q1 0 1.5 -0.5t1.5 -0.5t2.5 -0.5t3.5 -0.5h3h3h2.5h2.5h2.5h2.5q1 -1 2.5 -1h2.5q4 0 8.5 0.5t8.5 1.5l3 1l3 1q5 -1 10.5 -1t11.5 1h5.5t4.5 1
h5.5h4.5l40 1q7 -1 13 -1.5t10 -2.5q4 -1 5.5 -3.5t0.5 -6.5q-2 -7 -6 -11t-10 -6q-5 -1 -11 -2t-12 -1l-2 1h-1h-1h-1q-7 -2 -13 -2.5t-11 -2.5q-5 -1 -9 -5t-6 -10q-1 -3 -1.5 -6t0.5 -7q0 -4 0.5 -9t1.5 -10l59 -375v0z" />
    <glyph glyph-name="W" unicode="W" horiz-adv-x="961" 
d="M558 223l-154 -215l-3 -4l-2 -2q-4 -5 -9.5 -8.5t-10.5 -6.5h-40q-5 -2 -9 3t-6 16l-107 569q-1 5 -4.5 9t-7.5 7q-2 1 -4.5 2t-4.5 2q-3 1 -5.5 1.5t-4.5 0.5h-2h-1h-2h-2l-6 1h-2h-1q-3 -1 -6 -1t-6 1q-2 0 -3 0.5t-3 0.5q-3 1 -4 4t0 9v3l1 2l1 2l1 2q1 3 4 5.5t7 3.5
q4 2 8.5 2.5t10.5 0.5l40 1q2 -1 4 -1h4q3 -1 5 -1h5q5 -1 10 -1h11h6q1 -1 1.5 -1h1.5q1 -1 1.5 -1h1.5h4.5t4.5 -1h2.5t2.5 1h2.5h2.5h6.5t7.5 1q4 0 7.5 0.5t6.5 0.5h12t11 1h5.5t4.5 1h5.5h4.5l40 1q6 -1 11 -1.5t9 -2.5q2 -1 3.5 -3.5t0.5 -6.5q-2 -8 -5.5 -13t-8.5 -7
q-3 -1 -5.5 -2t-5.5 -1q-3 -1 -5.5 -1h-5.5l-6 1h-6q-4 -1 -8.5 -1.5t-7.5 -1.5q-4 -1 -6.5 -4.5t-4.5 -8.5q-1 -3 -1.5 -6t0.5 -7q-1 -4 0 -9l2 -10l77 -403l93 130q2 1 3 2.5t2 3.5q1 1 1.5 3t1.5 3q2 3 3 6t2 5v6l2 6l-1 5l-1 6l-50 253q-1 7 -3.5 11.5t-7.5 6.5
q-4 1 -7.5 2t-6.5 1q-2 1 -3.5 1h-3.5l-3 1h-2h-2v0q-6 -1 -10.5 -0.5t-8.5 1.5t-4.5 4t0.5 9v3l2 2v2l1 2q1 3 3.5 5.5t7.5 3.5q5 2 10 2.5t12 0.5l40 1q2 -1 4.5 -1h4.5q2 -1 4.5 -1h4.5h4.5h5.5q2 -1 4.5 -1h5.5l1 1h1q3 -1 5.5 -1.5t4.5 -0.5q2 -1 4.5 -1h5.5h1.5h0.5
h1.5h1.5h6.5t6.5 1q3 0 6.5 0.5t6.5 0.5h10.5t10.5 1h5.5t4.5 1h4.5h4.5l40 1q6 -1 11 -1.5t9 -2.5q2 -1 3.5 -3.5t0.5 -6.5q-2 -7 -6 -12t-9 -7q-5 -1 -10.5 -2t-11.5 -1l-2 1h-1q-5 -2 -10 -2.5t-10 -1.5q-4 -1 -7 -4.5t-5 -8.5q-1 -2 -1.5 -5t-0.5 -6t0.5 -6.5t1.5 -7.5
l21 -113l89 115q2 2 4.5 5t3.5 6q2 3 3 5.5t2 4.5q2 5 0.5 8t-4.5 4q-2 1 -6 1.5t-9 0.5l-2 1h-1h-4h-3q-6 -1 -10.5 0t-8.5 3t-4.5 7.5t1.5 14.5q1 3 4 5t7 3q5 1 11 1.5t13 0.5l40 1q1 -1 2.5 -1h2.5h1h1q2 -1 4 -1h4h9.5h8.5h1.5h1.5q1 -1 1.5 -1h1.5h6t5 1h4.5t5.5 1
q3 0 5.5 0.5t4.5 0.5h7.5t6.5 1h3t3 1h2.5h2.5l40 1q4 -1 7 -1.5t4 -2.5q1 -1 1 -3.5t-1 -6.5q-2 -7 -5 -12t-6 -7q-4 -1 -7.5 -2t-8.5 -1l-2 1h-2q-5 -1 -10.5 -1.5t-12.5 -1.5q-6 -1 -12.5 -4t-14.5 -8q-3 -2 -5.5 -4.5l-4.5 -4.5q-3 -2 -6 -4.5t-5 -5.5l-135 -179
q-2 -5 -3.5 -8t-3.5 -5q-1 -2 -2 -4.5t-2 -4.5q-1 -3 -1.5 -6t-0.5 -6v-4.5v-4.5v-3v-3l27 -178l268 400q2 1 3.5 3.5t2.5 5.5q0 1 0.5 1.5t0.5 1.5q1 2 1.5 3.5t0.5 2.5q2 8 0.5 12.5t-6.5 5.5q-4 2 -9.5 2.5t-11.5 0.5q-7 0 -12.5 1.5t-10.5 2.5q-4 2 -5.5 6.5t0.5 11.5
q1 4 2.5 6.5t5.5 3.5q2 2 6 2.5t8 0.5l40 1q2 -1 3.5 -1h2.5q2 -1 4 -1h4q5 -1 9.5 -1h8.5q5 -1 9.5 -1.5t10.5 -0.5h2h2q1 -1 2 -1h2q2 0 3.5 0.5t2.5 0.5q2 0 3.5 0.5t3.5 0.5h4t4 1h3h4h4t3 1h4h3l40 1q5 -1 8.5 -1.5t6.5 -1.5q2 -1 3 -3.5t0 -6.5l-1 -3l-2 -4
q-3 -6 -6.5 -9t-7.5 -4q-5 -1 -9.5 -1.5t-9.5 -0.5h-6h-6q-7 -2 -13 -3.5t-12 -4.5t-11.5 -9.5t-10.5 -15.5l-367 -549q-4 -7 -7.5 -11.5t-6.5 -6.5q-4 -4 -7.5 -6t-6.5 -2h-40q-2 0 -4 1t-4 3l-2.5 5l-3.5 7l-34 217v0z" />
    <glyph glyph-name="X" unicode="X" horiz-adv-x="678" 
d="M395 255l-179 -184q-13 -15 -15.5 -23.5t5.5 -11.5t17.5 -5t21.5 -2l2 1h2q8 -2 15 -2.5t13 -2.5q6 -1 9 -3.5t2 -7.5q-2 -6 -6 -10t-9 -4q-7 -2 -14.5 -3t-16.5 -1h-40h-4.5h-4.5q-2 1 -4.5 1h-5.5h-5.5h-5.5q-2 1 -5 1h-6q-6 1 -12 1.5t-12 0.5h-6h-6h-4h-4
q-4 -1 -8 -1.5t-8 -0.5h-5.5t-4.5 -1h-5.5h-4.5h-3h-3h-2t-1 -1h-5h-4h-40q-8 0 -13.5 1t-8.5 3q-2 0 -3 4t1 10q1 5 2 8.5t4 4.5q3 2 7 2.5t9 0.5h4h4h4.5h4.5q8 -1 15.5 0t17.5 3q9 2 19.5 7.5t22.5 14.5l7 7q1 0 2 1l2 2l2 2l2 2l215 214l5 3l4 5q2 1 4 3.5t3 4.5
q2 2 2.5 4.5t1.5 4.5q0 1 0.5 2t0.5 2l-0.5 1t-0.5 2l-1 7l-93 213q-10 20 -19.5 34t-20.5 20q-12 6 -22.5 9t-19.5 3l40 1q-4 -2 -7.5 -2.5t-6.5 -0.5l-40 1q-3 -1 -6 -1h-5q-4 0 -6.5 1t-4.5 3q-1 2 -1.5 6t1.5 11q1 4 4 6.5t7 3.5q4 2 9.5 2.5t13.5 0.5l40 1q2 -1 4.5 -1
h5.5q3 -1 6.5 -1h6.5q7 -1 14.5 -1h15.5q8 -1 15.5 -1.5t16.5 -0.5h4.5h4.5q2 -1 4.5 -1h5.5h4.5t4.5 1h4.5h4.5q9 0 17.5 0.5t15.5 1.5h13t12 1h6t5 1h5.5h4.5l40 1q6 -1 11 -1.5t8 -2.5q2 -1 3.5 -3.5t0.5 -6.5q-2 -7 -6.5 -11.5t-12.5 -6.5q-7 -1 -15.5 -2t-16.5 -1l-2 1
h-2q-8 -1 -15 -1.5t-13 -1.5q-7 -1 -10 -3t-5 -7q-1 -2 -1 -4.5t1 -4.5l2 -6t3 -7l71 -159l125 129q8 7 13.5 14t9.5 13t6.5 10.5t3.5 8.5q2 5 0.5 9t-6.5 5q-4 2 -9.5 2.5t-11.5 0.5l-4 1h-3h-1h-1q-7 -1 -12.5 -0.5t-10.5 1.5q-6 1 -7.5 4.5t0.5 10.5v2v2v0l1 2q1 2 4.5 4
t9.5 3t14.5 1.5t17.5 0.5l40 1q3 -1 6 -1h6h3.5h2.5q2 -1 3.5 -1h3.5l6 1q1 -1 2 -1h2h1h2h4.5h5.5q2 -1 4.5 -1h4.5h2h2h1h2h7.5t6.5 1h7h6h11.5h10.5h3.5h3.5h2t2 1h5.5h4.5l40 1q8 -1 14.5 -1.5t10.5 -1.5q5 -1 6.5 -3t0.5 -5l-1 -2v-2q-2 -7 -5 -10t-8 -4
q-4 -1 -10.5 -2t-14.5 -1q-7 0 -15 -0.5t-17 -1.5l-10 -2l-10 -2l-10 -4l-10 -4t-10 -4.5t-10 -5.5q-3 -2 -5 -3.5t-5 -3.5q-2 -2 -5 -4t-5 -4q-5 -5 -10 -9.5t-10 -9.5l-172 -171q-3 -5 -5 -8t-4 -5q-1 -2 -1.5 -4t-1.5 -4t-1 -4.5v-4.5v-2.5t1 -2.5q0 -2 0.5 -3t0.5 -3
l123 -274q2 -7 4.5 -11t6.5 -7q3 -3 6.5 -4.5t7.5 -2.5q2 -1 4 -1.5t4 -0.5h2h2h3.5h3.5h3h3l2 1h3q5 -1 8.5 -1.5t6.5 -2.5q3 -1 4.5 -3.5t2.5 -7.5l-1 -1l1 -1q-1 -5 -5.5 -7.5t-10.5 -4.5q-7 0 -16.5 -0.5t-20.5 -0.5h-40h-9.5h-10.5h-10.5h-11.5q-3 0 -7.5 0.5t-8.5 0.5
h-4h-4h-2.5h-2.5h-2.5h-2.5h-10.5t-10.5 -1h-40h-8.5h-9.5h-8.5h-8.5q-12 0 -20.5 0.5t-14.5 0.5q-6 2 -8 5t0 9q1 4 4 6.5t7 3.5q5 1 10.5 1.5t11.5 1.5l2 1h2h1h2h2h2q8 -1 14.5 -1t12.5 1q7 1 11.5 4.5t6.5 9.5q1 2 1 5t-1 6v1.5t-1 1.5q0 3 -0.5 6.5t-2.5 6.5l-80 186v0
z" />
    <glyph glyph-name="Y" unicode="Y" horiz-adv-x="701" 
d="M464 337l195 214q2 1 3 2.5t3 3.5q1 1 2.5 3t2.5 3q2 3 3.5 6l2.5 5q2 6 -1 10t-9 5q-4 1 -7.5 1.5t-6.5 1.5q-4 0 -7.5 0.5t-7.5 0.5l-2 1l-1 1q-8 -1 -15.5 -0.5t-13.5 1.5q-6 2 -8 5t-1 8v2l1 2q2 4 5.5 7.5t7.5 4.5q5 2 9.5 3t10.5 1l40 1q5 -1 9.5 -1.5t10.5 -1.5
q5 -1 10.5 -1.5t11.5 -0.5l12 -2t13 -2h3.5t2.5 -1q2 1 4 1h3h4h4q4 1 8 1.5t8 0.5h9.5t8.5 1h4t4 1h4h4l40 1q5 -1 8.5 -1.5t5.5 -2.5q2 -1 3 -3.5t0 -6.5l-1 -1h1v-2l-1 -1q-1 -5 -3 -7.5t-5 -3.5q-4 -1 -8 -1.5t-9 -0.5q-6 -1 -14 -2t-17 -3q-10 -1 -21 -6.5t-22 -13.5
q-3 -1 -5.5 -3t-4.5 -4l-4.5 -4.5t-5.5 -4.5l-4.5 -4.5t-4.5 -5.5q-3 -2 -5.5 -5t-4.5 -6l-233 -250q-4 -4 -6.5 -8.5t-4.5 -9.5l-2 -6t-2 -5q-1 -3 -1.5 -6t-1.5 -6l-49 -179q-3 -14 -2 -21.5t7 -10.5t13 -4.5t16 -1.5h3h4q8 -1 14 -1.5t10 -2.5q5 -1 7 -5t0 -10
q-1 -4 -3 -5.5t-7 -2.5q-5 -2 -10.5 -2.5t-13.5 -0.5h-40h-5.5h-5.5q-2 1 -5 1h-6q-5 1 -11.5 1h-13.5q-4 0 -8 0.5t-7 0.5q-4 1 -8 1h-8q-4 1 -9.5 1h-11.5h-4t-4 -1q-3 0 -5 -0.5t-4 -0.5h-6t-5 -1h-5.5h-4.5h-5.5t-4.5 -1h-5.5h-4.5h-40q-9 0 -15.5 1t-11.5 3
q-6 0 -7.5 4t0.5 10q1 5 3.5 7t6.5 3q5 1 10.5 1.5t12.5 0.5v1h2q2 -1 4 -1h4h4h4q8 0 16.5 2.5t16.5 6.5t14 12.5t10 21.5l40 151q5 13 7 24.5t3 18.5q1 8 -0.5 14t-5.5 12l-109 270q-2 6 -6 11t-9 8t-11 6t-12 4h-3.5t-3.5 1h-2.5h-3.5h-3t-3 1q-2 0 -3.5 0.5t-3.5 0.5
q-7 0 -11.5 1t-8.5 2q-4 2 -5 5t-1 7v2l1 2l1 1l1 2q1 3 3 6t5 4q0 1 0.5 1.5t1.5 0.5q4 2 8 3t9 1l40 1q4 -1 8.5 -1.5t10.5 -1.5q5 -1 10.5 -1.5t12.5 -0.5q6 -1 13 -2l14 -2h3h2q2 -1 3 -1h2q2 0 3.5 0.5t2.5 0.5q2 0 3.5 0.5t2.5 0.5h7t8 1h3.5t3.5 1q1 0 3 0.5t3 0.5
q8 0 15 0.5t14 1.5q6 1 12 1.5t12 0.5l40 1q7 -1 12.5 -2t9.5 -3q5 -1 6 -4.5t0 -8.5h-1v-1v-2v0q-1 -6 -4 -9t-8 -5q-4 -1 -9 -1.5t-11 -0.5l-4 1h-4h-5h-4q-6 -1 -11 -1.5t-10 -2.5q-5 -1 -8 -4t-4 -8q-1 -2 -1.5 -5t0.5 -6q0 -4 1.5 -8.5t2.5 -9.5l88 -212v0z" />
    <glyph glyph-name="Z" unicode="Z" horiz-adv-x="638" 
d="M424 598q-17 -2 -33 -7t-32 -13q-17 -9 -31.5 -22t-28.5 -30q-8 -10 -14.5 -16.5t-12.5 -11.5q-5 -4 -9 -6.5t-7 -2.5l-40 1l-5 4q-1 1 -0.5 3.5t1.5 6.5l1 7q1 1 2.5 3t2.5 4l67 136l2.5 5t4.5 6q1 1 2 1.5t2 1.5l4 2l4 2l5 3l6 1h40q4 -1 5.5 -2.5t2.5 -3.5v-6t-1 -6
v-1h1q-1 -5 -1.5 -8.5t0.5 -6.5q1 -2 3.5 -3.5t6.5 -2.5l326 2h40q7 -2 11.5 -2.5t7.5 -0.5t4 -1.5t2 -3.5q-1 -2 -2.5 -4.5t-3.5 -5.5q-1 -2 -3.5 -4.5t-4.5 -5.5q-1 -2 -2 -3t-2 -3l-534 -549q-4 -8 -5.5 -11.5t1.5 -4.5q2 -1 6.5 -1.5t11.5 -0.5l179 2h40l3 -1q1 -1 2 -1
t2 1h1h2q10 1 20 4t20 7q5 3 10 5.5t10 5.5q15 9 27 27t22 45q3 11 6 18.5t7 11.5q4 5 7.5 7.5t6.5 3.5l40 1q2 0 4.5 -1t4.5 -4t2.5 -6t-1.5 -8l-35 -131q-3 -11 -7.5 -16t-11.5 -7q-6 -1 -28.5 -1h-60.5h-40h-410q-4 0 -6.5 0.5t-4.5 1.5q-1 2 -2 3.5t0 4.5l3 7q1 1 2 3
t3 4l7 7q1 0 2 1l2 2q1 0 2 1l2 2l522 538q8 7 11 12t1 6q-3 2 -14.5 2.5t-31.5 0.5l-121 2v0z" />
    <glyph glyph-name="bracketleft" unicode="[" horiz-adv-x="276" 
d="M232 693q2 4 4 8.5t6 7.5q3 3 12 4.5t24 1.5l119 2h40q5 -2 9 -3.5t6 -3.5q1 -1 2 -2.5t1 -2.5v-3v-3q-1 -3 -3 -6t-6 -5q-4 -3 -8 -4t-10 -1l-40 1h-28q-7 -2 -11.5 -4t-6.5 -5q-3 -4 -7.5 -18t-10.5 -37l-169 -628q-4 -14 -5 -22.5t0 -11.5q1 -2 8 -3.5t19 -1.5h55
q6 0 10 -1t6 -4q2 -2 3 -5t0 -6q0 -2 -1 -3t-2 -3l-2.5 -2.5t-3.5 -2.5q-4 -2 -8.5 -3.5t-10.5 -1.5h-40h-126q-6 0 -11 1.5t-9 4.5t-3.5 13.5t4.5 28.5l194 724v0v0z" />
    <glyph glyph-name="backslash" unicode="\" horiz-adv-x="560" 
d="M331 0l-79 709h40h63l79 -709h-40h-63v0v0z" />
    <glyph glyph-name="bracketright" unicode="]" horiz-adv-x="276" 
d="M291 646q2 7 2.5 12.5t0.5 9.5q-1 3 -5.5 5t-13.5 2l-55 2q-7 -2 -13 -1t-8 4q-3 2 -4 5t0 6q0 2 1 3t2 3q1 1 3 2.5t4 2.5q4 2 10 3.5t13 1.5l95 2h40q17 -2 27 -4.5t12 -7.5t2 -10.5t-2 -11.5l-186 -691q-4 -17 -8 -28.5t-7 -16.5q-2 -5 -8.5 -7.5t-15.5 -2.5h-40h-118
q-7 0 -12 1.5t-7 3.5q-1 1 -1.5 2.5t-1.5 2.5v3v3q1 3 2.5 6t5.5 5q4 3 10 4t13 1h55q9 0 15 3.5t10 10.5q3 7 8.5 24t13.5 46l161 601v0v0z" />
    <glyph glyph-name="asciicircum" unicode="^" horiz-adv-x="599" 
d="M431 507l-259 -365h-40h-55l341 480h40h55l85 -480h-40h-55l-72 365v0z" />
    <glyph glyph-name="underscore" unicode="_" horiz-adv-x="544" 
d="M10 -79h512l-14 -55h-40h-511l14 55h39v0v0z" />
    <glyph glyph-name="grave" unicode="`" horiz-adv-x="402" 
d="M407 520l-164 94q-4 1 -7.5 3t-4.5 6t-1.5 8t0.5 8q2 5 5 10.5t7 9.5q5 5 11 7t13 2l40 1l8 -2t9 -3q4 -2 8.5 -5t8.5 -7l126 -117l2 -4l3 -2l2 -6l1 -4l-4 -5q-1 -2 -3 -2.5t-4 -0.5l-40 1q-2 -1 -4.5 -1t-4.5 1t-3.5 2.5l-3.5 3.5v2v0z" />
    <glyph glyph-name="a" unicode="a" horiz-adv-x="520" 
d="M385 323l10 39q5 19 4.5 33t-7.5 23q-4 5 -10 9t-13 6q-11 -2 -21.5 -6t-20.5 -10q-5 -2 -10.5 -5t-10.5 -7q-16 -10 -26.5 -21.5t-17.5 -23.5q-4 -10 -10.5 -18t-15.5 -15q-8 -7 -17 -12t-18 -8q-4 -1 -8 -2.5t-7 -2.5q-4 -1 -7.5 -1h-6.5l-40 1q-4 -1 -7.5 0t-6.5 3
q-2 2 -2.5 5t0.5 7v3l1 2q11 16 26.5 33.5t36.5 33.5q21 17 49 31.5t64 26.5q13 4 25 7t24 5t23 3.5t21 1.5l40 1q24 -1 42 -7t30 -17q12 -12 15 -28t-2 -37l-72 -266q-6 -22 -7.5 -35.5t-0.5 -20.5q0 -1 0.5 -1.5t0.5 -1.5t0.5 -1.5l0.5 -0.5l7 5q6 2 12 5t11 5l40 1
q5 1 7 0.5t3 -4.5q-1 -3 -2.5 -6.5t-4.5 -7.5q-2 -4 -5.5 -7.5t-8.5 -7.5q-7 -6 -15.5 -12t-19.5 -11q-10 -5 -20 -8t-20 -5h-2h-1h-2h-2l-6 -1h-40q-10 0 -18 2.5t-14 7.5q-7 5 -10.5 15t-2.5 25q-5 -4 -9.5 -7t-9.5 -6q-3 -2 -6.5 -4.5t-7.5 -4.5t-7.5 -4t-6.5 -4
q-9 -5 -18 -8.5t-18 -6.5q-5 -1 -9 -2t-9 -2q-13 -3 -24 -5t-22 -2h-40q-22 0 -38.5 5.5t-28.5 15.5q-11 11 -13.5 26.5t2.5 34.5q1 3 2 6.5t3 7.5q1 4 2.5 7.5t4.5 7.5q5 10 13 19t19 18q4 3 7.5 6t7.5 5q7 6 14.5 11t15.5 10q11 6 21.5 12t20.5 10q10 5 16.5 8t9.5 4
l134 57q9 1 15 5t9 10q3 5 7 16.5t9 29.5v2v0zM357 220q1 0 1 0.5v1.5l-97 -41q-5 -4 -10 -7l-10 -6q-6 -4 -11 -7.5t-10 -8.5q-10 -9 -18 -18.5t-14 -20.5q-1 -1 -2 -2.5t-2 -2.5q0 -2 -1 -3t-1 -3l-2 -6t-2 -5q-2 -7 -2 -14t3 -13t8.5 -11t14.5 -8q1 0 1.5 -0.5t1.5 -0.5
l0.5 -0.5l0.5 -0.5q1 -1 2.5 -1.5t2.5 -0.5t1.5 0.5t1.5 0.5l0.5 0.5t1.5 0.5q18 4 36 12t36 21q17 12 28.5 25.5t16.5 27.5l1 2v2l23 87v0v0z" />
    <glyph glyph-name="b" unicode="b" horiz-adv-x="599" 
d="M235 614q2 7 1 12.5t-5 8.5q-2 1 -4.5 2t-4.5 2q-3 1 -5.5 1.5t-4.5 0.5l-5 1h-4q-4 -1 -8.5 -0.5t-7.5 1.5q-4 1 -5 3t0 6q2 4 4 7t6 4q2 1 4.5 2t5.5 2q3 0 6 1l6 2q8 2 18.5 4t22.5 5q11 3 23.5 8t26.5 12q11 6 17.5 8.5t9.5 0.5l40 1q3 -2 3 -10.5t-4 -23.5l-67 -247
q1 -1 2 -0.5t2 1.5t2 1.5t2 0.5q14 5 27.5 9.5t27.5 8.5q14 3 27.5 5.5t26.5 3.5h2.5t2.5 1h3.5h2.5l40 1q2 -1 3 -1h3h2.5h2.5q40 0 72.5 -12.5t58.5 -37.5q27 -25 33.5 -64.5t-5.5 -94.5l-2 -5l-1 -6q-13 -50 -40 -90.5t-67 -71.5q-20 -15 -39.5 -28t-39.5 -22
q-20 -10 -39.5 -17t-39.5 -11q-4 -1 -8 -1.5t-7 -1.5q-4 0 -8 -0.5t-8 -1.5q-2 0 -5 -0.5t-5 -0.5q-5 0 -10 -0.5t-10 -0.5h-40q-21 0 -37 1.5t-27 4.5q-11 2 -20.5 5t-16.5 7l-7 3.5t-6 3.5q-1 0 -1.5 0.5l-1.5 1.5t-2 1.5t-2 0.5v0v0q-4 -4 -7.5 -8t-6.5 -9l-3 -1v-2
l-4 -4l-4 -4q-3 -2 -5 -4l-4 -4q-4 -3 -7 -3.5t-5 2.5h-40l-2 4l-2 4q0 2 0.5 4t1.5 4q0 1 1 3.5t2 5.5l2.5 5l3.5 7l2 4t2 5q0 1 1 2.5t1 2.5q1 3 2 5.5t2 5.5q0 2 1 3.5t1 3.5l150 561v0v0zM286 361l-71 -267q-4 -17 -1.5 -32t14.5 -28q8 -10 21 -16t30 -8q8 1 15.5 2.5
t15.5 2.5q14 3 29.5 9t32.5 13q24 11 45.5 29.5t40.5 43.5q19 26 32.5 53.5t21.5 55.5l1 3l1 3q8 31 9 61t-5 58q-7 28 -24 46t-44 25q-3 1 -6 1.5t-6 1.5q-4 1 -7 1.5t-6 0.5h-2t-2 1h-3h-2q-19 -1 -38.5 -5.5t-37.5 -12.5q-24 -10 -37 -20.5t-17 -22.5v1z" />
    <glyph glyph-name="c" unicode="c" horiz-adv-x="497" 
d="M574 408l-13 -46q-2 -9 -4.5 -15.5t-5.5 -11.5q-1 -2 -2.5 -4t-2.5 -3q-4 -4 -8 -5t-7 0l-40 1q-1 -1 -1.5 -0.5l-1.5 1.5q-2 1 -3.5 2.5t-2.5 3.5l-2 6t-2 7q-4 23 -11.5 40t-18.5 27q-8 7 -16.5 12t-18.5 7q-2 0 -4.5 -0.5t-4.5 -1.5q-3 -1 -5.5 -1.5t-4.5 -1.5
q-11 -4 -21 -8.5t-19 -9.5q-19 -12 -36 -25.5t-33 -29.5t-28 -31.5t-22 -32.5q-4 -7 -7.5 -13.5t-6.5 -13.5q-4 -7 -5.5 -13.5t-3.5 -12.5q-1 -2 -1.5 -4.5t-1.5 -4.5v-2v-2q-1 -1 -1 -2v-2q-4 -46 2 -80t22 -55q16 -22 36 -34.5t44 -17.5q1 0 2 -0.5t2 -0.5q1 -1 2 -1h2
q7 0 14 1t14 3q6 1 13 3.5t14 5.5q17 7 30.5 16t23.5 19l2 2l2 2q2 2 4.5 3.5t3.5 2.5q3 2 5.5 3t4.5 1l40 1l5 -3q1 -2 1 -4.5t-1 -4.5l-1 -4l-4 -6q-9 -15 -25.5 -27.5t-41.5 -23.5t-49.5 -17t-50.5 -9h-2.5h-2.5h-1.5t-1.5 -1h-3.5h-3.5h-4t-3 -1h-3.5h-3.5h-40h-6h-6
h-2.5h-2.5q-2 1 -3 1h-2q-49 4 -81 22.5t-49 52.5q-16 33 -19 69.5t7 75.5v2v2q8 26 20 52t31 51q18 25 40.5 45t50.5 36q5 2 9.5 4.5t9.5 5.5q4 2 8.5 4.5t9.5 4.5q20 9 40 15t39 10t36.5 6t33.5 2l40 1q21 -1 39 -3.5t33 -7.5q14 -5 24 -10.5t15 -11.5l3 -6l1 -6v0z" />
    <glyph glyph-name="d" unicode="d" horiz-adv-x="599" 
d="M571 606q2 8 1 13.5t-5 8.5t-8.5 4.5t-10.5 1.5l-3 1h-2h-2h-1q-4 -1 -8.5 -1t-8.5 1t-4.5 4t0.5 7v3l1 2v1v1l2.5 2.5t4.5 2.5q2 1 6.5 2t8.5 2q7 2 14 3.5t17 2.5q8 2 18 5t20 7l5 2.5t6 2.5q1 1 2 1t2 1l4 2l4 2q10 6 16.5 9t10.5 3l40 1q3 -1 4.5 -4t-0.5 -9
l-164 -612q-1 -5 -2 -9t-1 -7v1q7 4 13.5 8t11.5 7l40 1q5 2 6.5 -0.5t-0.5 -10.5l-4 -14q-1 -7 -6 -11.5t-12 -7.5t-15 -6t-16 -5q-2 0 -3.5 -0.5t-3.5 -1.5q-4 -1 -7.5 -1.5t-6.5 -1.5q-2 -1 -4.5 -1.5t-4.5 -0.5q-2 -1 -3.5 -1.5t-3.5 -1.5h-2h-1q-24 -13 -37.5 -16.5
t-16.5 1.5h-40q-4 3 -4.5 9.5t1.5 15.5v1l1 1l1 4v0q-2 -2 -4 -3l-4 -2l-4 -2l-4 -2q-12 -6 -26 -11.5t-29 -10.5q-16 -3 -33 -5.5t-36 -2.5h-40q-48 0 -81.5 17t-53.5 53q-19 36 -23 76t8 83q5 21 14.5 41.5t22.5 40.5t29.5 38.5t37.5 34.5q20 15 43 28.5t49 25.5
q26 11 53.5 17t56.5 6l40 1q10 -1 20.5 -1.5t20.5 -2.5q11 -1 21 -4t20 -7q2 -1 3.5 -1.5t2.5 -0.5q1 2 2 4.5t2 6.5q0 1 1 3t1 4l40 151v0v0zM508 370v3t-1 5t-1.5 6t-2.5 6q-5 8 -13.5 15t-20.5 13q-9 5 -19.5 8t-21.5 4q-1 0 -2.5 -0.5t-2.5 -0.5q-2 0 -3 -0.5t-3 -0.5
q-5 -1 -10.5 -2t-11.5 -3q-3 0 -5.5 -1t-5.5 -2q-10 -4 -21 -9t-21 -11q-11 -6 -21.5 -13.5t-21.5 -16.5q-22 -18 -39 -44t-31 -60q0 -1 -1 -2.5t-1 -2.5q-1 -2 -2 -4.5t-2 -5.5q0 -2 -0.5 -4t-1.5 -3q-1 -2 -1.5 -4t-0.5 -4t-1 -4.5t-1 -4.5q-1 -5 -2 -9.5t-2 -9.5
q-1 -4 -1.5 -7.5t-0.5 -6.5q-1 -4 -1 -7.5v-7.5q-1 -17 1.5 -33.5t6.5 -32.5q5 -16 13.5 -28.5t21.5 -23.5q9 -8 19 -14t20 -9q5 -1 11 -2.5t12 -2.5q11 2 22.5 4.5t21.5 6.5q15 6 28 13.5t23 14.5q5 4 9.5 7.5t7.5 7.5q2 2 3 3.5t2 3.5q1 1 2 3t2 3l72 270v0v0z" />
    <glyph glyph-name="e" unicode="e" horiz-adv-x="544" 
d="M244 268q-9 -2 -14.5 -4t-7.5 -6q-1 -1 -2 -3l-2 -4q-2 -5 -3.5 -11t-4.5 -14v-1l-1 -2q-7 -30 -3.5 -57t16.5 -53q13 -25 31.5 -42t42.5 -26q7 -2 14 -3.5t14 -3.5q1 0 2 -0.5t2 -0.5h2h2q13 1 25.5 4t25.5 7q17 6 30.5 13t23.5 16q12 11 22 17t17 6l40 1q6 -1 9 -3
t1 -7q0 -1 -0.5 -2l-0.5 -1q-1 -1 -1.5 -2t-1.5 -2q0 -1 -0.5 -2t-1.5 -1q-1 -1 -1.5 -2t-1.5 -2q-21 -21 -46 -37t-54 -27q-9 -3 -19 -6t-19 -6q-19 -4 -38 -7t-38 -3h-40h-2h-1q-43 1 -79.5 15t-64.5 43t-33.5 75t10.5 110q13 47 43 87t77 71q47 32 97 47.5t103 15.5l40 1
q35 -1 60 -8.5t41 -22.5q14 -15 23.5 -31t11.5 -34q2 -8 2.5 -16.5t-0.5 -16.5t-1.5 -15.5t-2.5 -13.5q-2 -7 -4.5 -12.5t-5.5 -10.5q-2 -4 -4.5 -6.5t-4.5 -2.5l-40 1l-284 1v0zM253 299h103q29 -2 52 2t36 11q14 8 23 16.5t12 18.5v4t1 4v2v3q-1 1 -1 2v2q-1 11 -6 20.5
t-13 18.5t-18.5 15t-21.5 10h-1.5h-1.5h-0.5t-0.5 1h-2h-3q-17 -1 -33.5 -6t-30.5 -13q-21 -10 -38 -22t-30 -25q-7 -6 -12 -12t-9 -12q-5 -6 -7.5 -11.5t-3.5 -10.5q-1 -4 -1 -8t2 -7q0 -1 1.5 -2t3.5 -2v1z" />
    <glyph glyph-name="f" unicode="f" horiz-adv-x="339" 
d="M190 386q2 7 2.5 12t-0.5 6q-1 2 -6 2.5t-14 0.5l-24 2q-4 -2 -6.5 -1t-3.5 3t-1.5 4t0.5 5l1 2v1l2.5 5t4.5 6q2 1 3 2t3 2q1 0 2.5 0.5t2.5 0.5q18 0 30.5 6t18.5 19q7 13 12.5 28.5t10.5 33.5q12 40 31.5 70t45.5 49q9 7 17.5 12.5t17.5 10.5q17 10 34.5 17t35.5 11
q5 1 8.5 1.5t7.5 1.5q2 0 4 0.5t4 0.5h6t6 1h6h6l40 1q14 -1 26.5 -3t22.5 -5q10 -4 17 -8.5t11 -10.5v-3.5v-4.5v-4.5t-1 -5.5q0 -1 -0.5 -1.5t-0.5 -1.5q-1 -1 -1.5 -2.5t-0.5 -2.5t-0.5 -1.5t-0.5 -1.5q-1 -1 -1.5 -2.5t-0.5 -2.5q-4 -7 -8 -13t-9 -11q-5 -6 -10.5 -9
t-10.5 -3l-40 1q-4 -1 -8 0.5t-7 5.5q-4 3 -7.5 9t-6.5 15l-1 2v2q-3 4 -7.5 9.5t-12.5 9.5q-1 1 -2 1.5t-2 0.5q-2 1 -3.5 2.5t-4.5 1.5q-9 -3 -18.5 -9.5t-19.5 -16.5q-15 -15 -27.5 -41.5t-22.5 -64.5l-15 -53q-3 -13 -4 -20t1 -9q0 -1 4 -2t10 -2l60 2h40q5 -2 7.5 -3.5
t3.5 -4.5t1.5 -6.5t-1.5 -7.5q-1 -4 -3 -7.5t-5 -6.5t-6 -4.5t-8 -1.5l-40 1l-46 1q-4 -1 -7.5 -1.5t-6.5 -1.5q-6 -1 -10 -1.5t-6 -2.5q-2 -1 -3.5 -4l-3.5 -7q-2 -5 -3.5 -10.5t-3.5 -12.5l-79 -297q-4 -14 -3.5 -22t5.5 -11q5 -4 10.5 -6t12.5 -2h4h5q5 -2 9 -2.5t7 -2.5
q4 -1 5.5 -3.5t0.5 -7.5q-2 -6 -4.5 -10t-4.5 -4q-4 -2 -8.5 -3t-10.5 -1h-40h-3h-3q-2 1 -4 1h-4h-4.5h-4.5q-2 1 -4.5 1h-4.5t-4 0.5t-4 0.5q-4 0 -7.5 0.5t-8.5 0.5h-3h-3h-3.5h-3.5q-5 0 -10 -0.5t-10 -1.5h-4.5t-4.5 -1h-4h-4h-4.5t-4.5 -1h-3.5h-3.5h-40q-7 0 -11.5 1
t-7.5 3q-4 0 -4.5 4t1.5 10t4 9.5t6 4.5q5 1 9.5 1.5t9.5 0.5v1h1h5h6q3 -1 6 -0.5t7 1.5q3 1 6 3l6 4q7 5 12 14t9 24l83 309v0v0z" />
    <glyph glyph-name="g" unicode="g" horiz-adv-x="560" 
d="M211 142q0 1 -3.5 4.5t-10.5 7.5q-7 5 -14 11t-15 14t-14.5 19t-11.5 24q-4 13 -3.5 29.5t5.5 35.5q2 7 4 14.5t6 15.5q3 8 8 16.5t11 18.5q13 23 32 40t45 30q25 12 50.5 19.5t51.5 10.5h3.5t3.5 1h3h4h3.5t3.5 1h3h4l40 1q14 -1 27 -2.5t25 -4.5q11 -3 20.5 -7
t16.5 -10q1 -1 2.5 -2t2.5 -2t2.5 -1.5t2.5 -1.5l3 -1.5t2 -1.5t2.5 -1.5t2.5 -0.5l8 -2l8 -2l54 2h40q5 -2 7.5 -4t4.5 -5q2 -4 2.5 -7.5t0.5 -8.5v-2l-1 -3q-1 -5 -2.5 -8t-3.5 -6t-5.5 -4t-7.5 -1l-40 1h-18q-1 -1 -2.5 -1h-2.5q-1 -1 -1.5 -1h-1.5l-5 -2
q-1 -3 -0.5 -6.5t1.5 -8.5q0 -4 1 -11.5t2 -17.5v-7.5v-7.5q0 -1 -0.5 -2.5t-0.5 -3.5v-1v-1q0 -3 -0.5 -5t-1.5 -4q-1 -3 -2 -5.5t-1 -4.5q-1 -3 -2 -5.5t-2 -5.5q-2 -3 -3.5 -6l-2.5 -5q-2 -3 -3.5 -6t-3.5 -6q-10 -17 -24.5 -33t-32.5 -31t-38 -25.5t-41 -15.5
q-19 -4 -33.5 -6t-25.5 -3t-20 -2t-17 -1h-2h-1h-2h-2l-6 1q-4 -2 -7.5 -2.5t-6.5 -0.5q-2 0 -4.5 -0.5t-5.5 -0.5q-1 0 -2.5 -0.5t-2.5 -0.5q-15 -5 -25 -9.5t-18 -9.5q-7 -4 -11 -8.5t-6 -8.5q-2 -6 1 -11t12 -9q8 -3 16.5 -4.5t19.5 -2.5l103 2h40q6 -2 13.5 -2.5
t15.5 -1.5q7 -1 15 -3l16 -4q15 -4 28.5 -12.5t24.5 -20.5t14 -28.5t-4 -39.5q0 -2 -0.5 -3.5t-1.5 -3.5q-1 -1 -1.5 -3t-0.5 -4q-1 -4 -3 -8l-4 -8q-14 -31 -41 -56t-68 -44t-82.5 -30t-83.5 -15h-4.5t-4.5 -1h-5.5h-4.5h-4.5t-4.5 -1h-4.5h-4.5h-40q-31 0 -59 5t-53 15
q-24 10 -37.5 26t-18.5 38q0 2 -0.5 4.5t-0.5 4.5t-0.5 4.5t-0.5 4.5q0 4 0.5 8t2.5 8q3 13 9.5 24.5t19.5 20.5q11 9 23.5 17t25.5 14q13 7 25 12.5t22 10.5q11 4 16.5 7.5t6.5 7.5q1 2 -1.5 5t-7.5 7l-10.5 10.5t-10.5 11.5q-1 2 -2.5 3.5t-3.5 2.5l-5 7q-3 1 -5 3t-3 5
q-2 2 -3.5 4t-2.5 4q-2 5 -2.5 8.5t0.5 7.5q1 5 6 8.5t15 7.5l19.5 6.5l22.5 7.5q6 2 11 3.5t10 3.5q5 1 10 3t10 3q9 3 14 6t6 6l1 2v0zM229 0q-2 0 -3.5 -0.5t-2.5 -1.5q-2 0 -3.5 -0.5t-3.5 -1.5q-3 -2 -6 -3.5l-5 -2.5q-16 -7 -31 -16t-29 -20q-15 -11 -23.5 -23.5
t-12.5 -27.5q-1 -5 -2 -10.5t-1 -11.5q0 -5 1.5 -11t3.5 -12q5 -14 14.5 -25t23.5 -18q11 -6 24.5 -9.5t29.5 -4.5q5 0 10.5 0.5t11.5 1.5q11 1 22.5 3.5t24.5 4.5q3 1 7.5 2t8.5 2q2 1 4.5 1.5t4.5 0.5q2 1 4.5 1.5t4.5 1.5q14 5 27 12.5t26 16.5t22.5 21.5t15.5 27.5
q2 3 3 5.5t2 4.5q0 1 0.5 2.5t1.5 2.5l1.5 3t0.5 2q4 16 0.5 28t-12.5 21q-10 9 -22 15t-26 9q-4 1 -8.5 2.5t-8.5 2.5q-5 0 -9 1t-9 1q-8 1 -15.5 1.5t-12.5 0.5h-54v0v0zM261 298q-10 -39 -8.5 -66.5t14.5 -45.5q10 -14 22.5 -22.5t26.5 -11.5q7 1 13.5 3t13.5 5
q10 4 20 10t21 15q23 18 38.5 43.5t24.5 58.5v3l1 3l1 2v3q8 31 4.5 55.5t-15.5 40.5q-10 14 -22.5 22t-28.5 12q-15 -4 -30.5 -11.5t-31.5 -19.5q-22 -16 -37.5 -41t-26.5 -59v1z" />
    <glyph glyph-name="h" unicode="h" horiz-adv-x="599" 
d="M243 614q2 7 1 12t-6 7q-4 2 -8.5 3.5t-9.5 1.5l-2 1h-1h-2h-2q-6 -1 -10.5 -1t-8.5 1t-4.5 4t0.5 9q0 1 1 2l2 2q1 0 2.5 1t2.5 2q4 2 8.5 3.5t10.5 2.5q3 1 7 2t9 2t9.5 2t8.5 2l6 2l6 2q2 1 5 2l6 2q5 2 10.5 4.5t10.5 5.5q14 9 24 14t16 6l40 1q7 1 8.5 -4.5
t-1.5 -16.5l-72 -268q12 8 25.5 15t27.5 12q6 2 11.5 4t11.5 3q12 3 23.5 5t22.5 3l40 1h4h5q29 -1 52 -9t42 -25q17 -17 22 -42.5t-4 -60.5l-67 -250q-4 -18 -4 -28.5t6 -13.5q5 -4 12 -5.5t15 -1.5l1 1h2q5 -1 10.5 -1.5t9.5 -1.5q5 -1 7 -4.5t2 -9.5q-2 -6 -5.5 -10
t-8.5 -4q-6 -2 -12.5 -3t-14.5 -1h-40h-3.5h-3.5q-2 1 -3.5 1h-3.5h-4h-4q-2 1 -4 1h-4h-1h-2q-2 0 -4 0.5t-4 1.5h-2h-2h-4t-4 -1q-2 0 -4 -0.5t-4 -0.5h-5l-6 -1h-7.5h-6.5h-4t-3 -1h-3.5h-3.5h-40q-10 0 -17.5 1t-12.5 3q-7 0 -9 4t0 10q1 5 3 7.5t6 3.5q5 2 9.5 2.5
t11.5 1.5l4 1h6q6 0 12.5 2t13.5 6q6 3 11 11t8 20l66 246q8 28 5 48t-16 33q-10 9 -21.5 15t-25.5 8q-21 -2 -41.5 -9.5t-40.5 -20.5q-22 -13 -36 -30.5t-19 -37.5l-63 -234q-5 -19 -5 -30.5t4 -16.5q5 -5 11.5 -8t13.5 -3l2 1h3q1 -1 2 -1h2h1h2h2h2h1h2q5 0 8 -0.5
t6 -2.5q2 -1 3 -4t0 -8q-2 -6 -5.5 -10t-8.5 -4q-5 -2 -12 -3t-15 -1h-40h-4h-4q-3 1 -5 1h-4h-4.5h-5.5q-2 1 -4.5 1h-5.5q-4 1 -9 1.5t-10 0.5q-4 0 -7.5 -0.5t-8.5 -1.5h-2h-1h-2h-2l-6 -1h-6h-6h-2.5t-3.5 -1h-2.5h-2.5h-40q-9 0 -15.5 1t-11.5 3q-6 0 -7 4t3 10
q1 3 2 5t5 3q3 1 6.5 1.5t7.5 1.5l6 1q2 -1 4 -0.5t4 1.5q5 1 11 3.5t13 6.5q5 4 10 12t8 20l146 545v0v0z" />
    <glyph glyph-name="i" unicode="i" horiz-adv-x="300" 
d="M184 339q2 6 0.5 10.5t-5.5 6.5q-2 1 -4.5 2t-4.5 2q-3 1 -5.5 1.5t-4.5 0.5l-4 1l-3 1q-5 -1 -9.5 0t-7.5 2q-4 1 -4.5 3.5t0.5 6.5q1 3 2 5.5t5 4.5t8.5 4.5t9.5 4.5l4 2t5 2q2 0 4.5 1t5.5 2q6 2 12 4.5t12 5.5q2 1 4.5 2t4.5 2q4 2 8.5 4.5t9.5 5.5t9.5 6.5t8.5 6.5
q2 2 4.5 4t4.5 4q8 8 14 11.5t10 1.5l40 1q4 -2 5.5 -7.5t-1.5 -14.5l-101 -376q-3 -12 -1.5 -19t6.5 -10t12.5 -4t14.5 -1h3h4q6 -1 11.5 -1.5t9.5 -1.5t6 -4t1 -8q-2 -6 -6.5 -10t-10.5 -4q-7 -2 -15.5 -3t-17.5 -1h-40h-2.5h-2.5q-2 1 -3 1h-3h-6h-6h-2h-2q-1 1 -2 1h-2
h-2h-1h-2h-2h-2h-2q-2 1 -3 1h-2h-0.5h-0.5h-0.5h-0.5q-4 0 -8.5 -0.5t-9.5 -1.5h-5h-4h-4.5t-4.5 -1h-3.5h-3.5h-4t-3 -1h-3.5h-3.5h-40q-7 0 -12 0.5t-9 2.5q-4 1 -5.5 2.5t-0.5 5.5q2 8 5.5 12.5t7.5 5.5q5 2 9.5 3t10.5 1l2 1h2h1h2q7 -1 13.5 0t12.5 3t11 9.5t8 19.5
l74 278v0v0zM237 591q3 11 9 20.5t15 16.5q9 6 18 9.5t18 3.5l40 1q9 -1 16 -4t13 -10t7 -16.5t-2 -22.5q-4 -15 -11 -25.5t-16 -18.5q-10 -7 -18.5 -11t-16.5 -4l-40 1q-9 -2 -16.5 2t-12.5 11q-6 8 -6.5 19t3.5 26v2v0z" />
    <glyph glyph-name="j" unicode="j" horiz-adv-x="260" 
d="M175 330q2 8 1.5 13.5t-4.5 8.5t-9 4t-10 1l40 1q-1 -1 -2 -1h-1h-2h-2l-6 1l-7 -1h-40h-6q-4 -1 -6.5 -0.5t-4.5 1.5q-2 2 -2.5 4t0.5 6q2 5 4 8.5t6 6.5q4 2 8.5 4.5t11.5 4.5q6 2 15 4.5t20 6.5q10 4 21.5 11t24.5 17q19 14 30.5 21.5t15.5 8.5l40 1q5 -1 5.5 -6
t-1.5 -16l-133 -495q-7 -29 -19 -50.5t-29 -37.5q-16 -16 -34.5 -30.5t-38.5 -27.5q-3 -2 -5.5 -3.5t-5.5 -3.5q-3 -1 -5.5 -3t-5.5 -3q-5 -3 -10.5 -6.5t-11.5 -7.5q-13 -8 -22 -12.5t-13 -5.5h-41q-4 -1 -6.5 0t-2.5 4q0 2 1.5 4.5t3.5 4.5q1 1 2 2.5t3 2.5q1 2 2.5 3
t3.5 3l4 5l7 4q3 1 5.5 2.5t4.5 3.5q2 1 4.5 2.5t5.5 3.5q14 10 26 21.5t24 24.5q11 13 20 31.5t16 44.5l110 409v0zM229 591q3 11 9 20.5t15 16.5q9 6 18 9.5t18 3.5l40 1q9 -1 16 -4t13 -10t7 -16.5t-2 -22.5q-4 -15 -11 -25.5t-16 -18.5q-10 -7 -18.5 -11t-16.5 -4l-40 1
q-9 -2 -16.5 2t-12.5 11q-6 8 -6.5 19t3.5 26v2v0z" />
    <glyph glyph-name="k" unicode="k" horiz-adv-x="583" 
d="M243 614q2 6 0.5 10.5t-5.5 5.5q-4 2 -9 3t-11 1l-3 1h-3q-5 -1 -9.5 -1t-8.5 1q-4 0 -5.5 2.5t-0.5 6.5q2 5 5 9t7 5q5 2 10.5 3.5t12.5 2.5q6 1 12.5 2t14.5 2q7 2 15 4.5t17 6.5q2 1 4.5 2.5t5.5 2.5l3 1.5l3 1.5q1 1 2.5 2t2.5 2q11 6 18.5 10t13.5 6l40 1
q6 1 7.5 -5t-2.5 -20l-113 -419l163 106q23 15 32.5 24.5t4.5 12.5t-13.5 5.5t-19.5 3.5l-1 1h-1q-6 -1 -10.5 -0.5t-8.5 1.5q-2 0 -3 0.5t-3 0.5q-5 2 -7.5 5t-1.5 7q2 6 6.5 9.5t12.5 4.5t16.5 1.5t17.5 0.5l118 2h40q14 -2 25 -2.5t20 -1.5q8 -1 11.5 -4.5t1.5 -9.5
q-1 -5 -3.5 -8t-5.5 -4t-6.5 -1.5t-8.5 -0.5q-8 -1 -17.5 -2t-21.5 -3t-26.5 -9t-32.5 -19l-152 -93l-2 -3l-3 -2q-2 -3 -2.5 -6t0.5 -6t4 -9t8 -15l107 -187q7 -14 14 -21t14 -9t12.5 -3.5t9.5 -1.5t7 -0.5t5 -1.5t3 -4t2 -8l-1 -1l-1 -2q-1 -6 -4 -8.5t-8 -3.5
q-4 -2 -10.5 -2.5t-14.5 -0.5h-40h-4.5h-4.5q-2 1 -4.5 1h-4.5h-5.5h-4.5q-3 1 -5.5 1h-5.5t-5.5 0.5t-4.5 0.5q-3 1 -5.5 1h-5.5h-2.5h-2.5q-3 -1 -5.5 -1.5t-4.5 -0.5h-4h-3h-4.5t-4.5 -1h-4.5h-4.5h-3h-3h-2t-1 -1h-5h-4h-40q-8 0 -14 1t-11 3q-6 0 -7.5 4t0.5 10
q1 5 4 7t7 3q5 1 10 1.5t11 1.5q5 0 10 0.5t10 1.5t7.5 4t3.5 7q1 2 1 5v6v2v2q-1 5 -3 10t-5 12l-57 112q-5 8 -10.5 15t-10.5 13l-22 -12q-4 -5 -7 -9.5t-4 -9.5q-1 -3 -2.5 -6t-1.5 -5q-1 -1 -1 -1.5v-1.5q-1 -2 -1.5 -4.5t-1.5 -4.5l-27 -100q-2 -11 -0.5 -17t6.5 -9
t12 -5t14 -3l5 -1h6q5 -2 9.5 -3t8.5 -2q3 -1 5 -3.5t1 -5.5q-2 -6 -5 -10t-8 -4q-5 -2 -11.5 -3t-14.5 -1h-40h-4h-4q-2 1 -4 1h-4h-4.5h-4.5q-3 1 -5.5 1h-4.5q-5 1 -9.5 1.5t-9.5 0.5v0v0h-1v0h-3.5h-3.5q-4 -1 -7.5 -1.5t-6.5 -0.5h-4.5t-4.5 -1h-4.5h-4.5h-3h-3h-2
t-1 -1h-5h-4h-40q-8 0 -14 1t-10 3q-4 0 -5.5 4t0.5 10q1 5 3 7.5t5 3.5q4 2 8 2.5t8 0.5l3 1h3h1h2q6 -1 12 0t11 2q6 2 10 7t7 15l150 561v0v0z" />
    <glyph glyph-name="l" unicode="l" horiz-adv-x="300" 
d="M247 598q3 10 2 17t-5 10t-9 4.5t-11 1.5l-3 1h-3h-4h-3q-4 -1 -7 -0.5t-6 1.5q-2 2 -2.5 4.5t0.5 6.5q2 4 5 7t7 4q3 1 5.5 2t5.5 2q3 0 6.5 1t6.5 2t6.5 1.5t7.5 1.5l8 2l8 2q3 1 6.5 1.5t6.5 1.5t6 2.5t6 2.5q5 2 8.5 4t7.5 5q2 1 4 2.5t4 2.5t3.5 2t3.5 2q1 1 3 2
t3 2q4 2 7 2.5t6 0.5l40 1q3 -1 5.5 -2.5t4.5 -3.5t2 -5.5t-1 -8.5l-164 -612q-4 -17 -4.5 -26.5t4.5 -13.5q4 -4 10 -6.5t13 -2.5l3 1h4h1h1q5 -1 9 -1.5t8 -1.5t5 -4.5t-1 -9.5q-1 -4 -2.5 -5.5t-4.5 -2.5q-4 -2 -7.5 -2.5t-8.5 -0.5h-40h-4h-4q-2 1 -4 1h-4q-4 1 -9 1
h-11q-6 1 -12 1.5t-13 0.5h-2h-2q-1 1 -2 1h-2h-2t-1 -1h-2h-2q-5 0 -9.5 -0.5t-9.5 -1.5h-11.5t-10.5 -1h-4.5t-4.5 -1h-4h-4h-40q-6 0 -11 0.5t-7 2.5q-3 1 -4.5 2.5t-0.5 5.5q2 6 5 10t7 5q5 2 9.5 2.5t10.5 1.5l4 1l5 1q7 -1 13.5 1t13.5 6q6 4 11 13t9 22l142 529v0v0z
" />
    <glyph glyph-name="m" unicode="m" horiz-adv-x="859" 
d="M564 392q5 4 11.5 9t13.5 11q11 8 25 15t29 14t33 10.5t37 3.5l40 1q35 -1 58 -12.5t35 -34.5q11 -22 13 -48.5t-6 -55.5l-62 -234q-4 -15 -3.5 -24t5.5 -13t12 -6t14 -2h3h5q6 -2 11 -2.5t9 -2.5q5 -1 6 -5t-1 -10q-1 -4 -3 -5.5t-7 -2.5q-4 -2 -9 -2.5t-11 -0.5h-40
h-4.5h-4.5q-2 1 -4.5 1h-4.5t-5.5 0.5t-6.5 0.5h-2.5h-3.5l-2 1h-1q-4 1 -7.5 1.5t-7.5 0.5h-4h-4q-3 -1 -6 -1.5t-5 -0.5h-3l-2 -1h-12t-12 -1h-5.5t-5.5 -1h-4.5h-4.5h-40q-7 0 -12 0.5t-9 2.5q-4 1 -6 2.5t-1 5.5q2 6 5 10t7 5q5 2 9.5 2.5t9.5 0.5l2 1h4q5 -1 11 1t12 5
q5 3 10 10.5t8 19.5l70 262q6 21 2.5 37t-14.5 26q-8 8 -18.5 13t-22.5 6q-16 -2 -32.5 -8.5t-31.5 -15.5q-19 -11 -31 -26t-17 -34l-70 -258q-3 -14 -2.5 -21.5t5.5 -9.5q5 -3 11 -4t13 -1l1 1h2v0h1q6 -1 11 -1.5t9 -2.5q5 -1 6 -5.5t-1 -12.5q-1 -4 -3 -5.5t-6 -2.5
q-4 -2 -9 -2.5t-10 -0.5h-40h-4.5h-4.5q-2 1 -4.5 1h-4.5q-4 1 -9.5 1h-10.5q-3 0 -6 0.5t-5 0.5q-3 1 -6 1h-6h-1.5h-0.5h-1.5h-1.5h-4.5t-4.5 -1h-4h-4h-2t-2 -1h-2h-2h-2.5t-3.5 -1h-2.5h-2.5h-40h-5.5h-4.5q-9 0 -16.5 1t-12.5 3q-7 0 -9 4t0 10q1 5 3.5 8t7.5 4
t9.5 1.5t10.5 0.5l4 1l5 1q6 -1 12 0t13 4q6 3 10.5 10t7.5 17l70 262q6 22 3.5 39.5t-13.5 27.5q-7 8 -17 13t-21 7q-19 -3 -38.5 -10t-37.5 -20q-20 -13 -33 -30t-18 -37l-68 -250q-3 -12 -2 -19t6 -10t11 -4t13 -1h2h4q5 -1 10 -1.5t9 -1.5t5.5 -4t0.5 -8q-2 -6 -4.5 -10
t-5.5 -4q-4 -2 -9.5 -3t-11.5 -1h-40h-2.5h-2.5h-1h-1q-2 1 -4 1h-4h-4.5h-4.5q-2 1 -4.5 1h-4.5q-3 0 -6 0.5t-5 0.5q-3 1 -6 1h-6h-1.5h-0.5h-1.5h-1.5h-8.5t-9.5 -1h-40h-8h-8h-7.5h-6.5q-10 0 -18 0.5t-14 0.5q-6 2 -8 5t0 9q1 5 3.5 8t7.5 4t9.5 1.5t10.5 0.5l4 1l5 1
q6 -1 12 0t13 4q6 3 10.5 10t7.5 17l74 278q2 7 1 12.5t-5 7.5q-2 1 -4.5 2t-4.5 2q-3 1 -5.5 1.5t-4.5 0.5l-5 1h-3q-5 -1 -9.5 -0.5t-7.5 1.5q-4 1 -4.5 3t0.5 6q1 5 2.5 8t5.5 5q2 1 3.5 2t3.5 2q2 0 4 1t5 2q7 2 17 5.5t22 7.5q12 5 26.5 14t31.5 24q0 1 1 2l2 2
q1 0 2 1l2 2q2 2 4.5 3.5t5.5 2.5l3 2l4 1h40q2 -1 3.5 -2t2.5 -3q2 -1 2.5 -4t-0.5 -7l-10 -36q1 0 2.5 1t2.5 2q2 0 3.5 1t2.5 2q11 8 23.5 14t27.5 12q16 6 32.5 9t34.5 3l40 1q22 -1 37.5 -4.5t25.5 -10.5t16 -14t10 -15q2 -6 3.5 -11t2.5 -10v1z" />
    <glyph glyph-name="n" unicode="n" horiz-adv-x="599" 
d="M180 323q4 13 3 21t-6 12q-5 3 -10.5 5t-12.5 2l-3 1h-2h-2h-1q-5 -1 -9.5 -1t-8.5 1q-3 1 -3.5 4t0.5 8l3 6q1 0 2.5 1t4.5 2q7 3 18.5 7.5t27.5 10.5t34 17t39 27q1 2 3 4t4 3q2 2 4.5 2.5t4.5 1.5l40 1h6.5t4.5 -2q3 -1 4 -4t0 -6l-11 -38q4 2 8.5 5t8.5 6q12 8 26 15
t29 14t32.5 10.5t36.5 3.5l40 1q24 -1 43 -8.5t34 -22.5q14 -15 22.5 -31t9.5 -34q1 -3 0.5 -5.5t-0.5 -5.5v-2.5v-2.5q0 -4 -0.5 -7.5t-1.5 -7.5l-74 -274q-3 -12 -2 -19.5t6 -10.5t10.5 -5t12.5 -2h5h5q5 -2 9 -2.5t8 -1.5q2 -1 4 -3t1 -5l-1 -1h1l-1 -2v-1q-1 -5 -4 -7.5
t-8 -3.5q-4 -2 -10.5 -2.5t-13.5 -0.5h-40h-4h-4q-3 1 -5 1h-4h-4.5h-4.5q-3 1 -5.5 1h-4.5q-1 0 -2.5 0.5t-3.5 0.5q-1 0 -2.5 0.5t-2.5 0.5h-2t-2 -1h-3h-2h-4.5t-4.5 -1q-3 0 -5.5 -0.5t-4.5 -0.5h-10.5t-10.5 -1h-4.5t-4.5 -1h-4h-4h-40q-6 0 -11 0.5t-8 2.5
q-4 1 -5.5 2.5t-0.5 5.5q2 6 4.5 10.5t6.5 5.5q3 2 7.5 3t9.5 1l6 1q2 -1 3.5 -1h3.5q6 -1 12.5 0.5t13.5 5.5q6 3 11.5 12.5t9.5 24.5l62 230q7 26 4 46.5t-14 33.5q-9 10 -20 16t-25 8q-7 -1 -14.5 -2.5t-14.5 -4.5q-15 -4 -29.5 -11.5t-28.5 -18.5q-23 -16 -38 -37.5
t-22 -47.5l-59 -218q-3 -14 -3 -22t4 -11t8.5 -4.5t10.5 -1.5l-40 1h5l6 1h40h4h6q4 -1 7.5 -1.5t6.5 -2.5q2 -1 2.5 -5.5t-1.5 -10.5q-1 -4 -3.5 -5.5t-7.5 -2.5q-5 -2 -10.5 -2.5t-12.5 -0.5h-40h-4.5h-5.5q-2 1 -4.5 1h-5.5q-5 1 -10.5 1h-11.5l-3 1h-2q-1 0 -2.5 0.5
t-3.5 0.5q-1 0 -2.5 0.5t-2.5 0.5q-1 -1 -2 -1h-2q-4 0 -8.5 -0.5t-9.5 -1.5h-5h-5h-2.5h-2.5h-1.5t-1.5 -1h-3.5h-3.5h-3.5t-3.5 -1h-2.5h-3.5h-40q-7 0 -12 0.5t-9 2.5q-4 1 -6 2.5t-1 5.5q2 6 4.5 10t5.5 5q4 2 8 2.5t9 0.5l3 1h3h2h3h3h4q7 -1 14.5 2t14.5 9
q8 5 14.5 17.5t11.5 31.5l63 238v0v0z" />
    <glyph glyph-name="o" unicode="o" horiz-adv-x="599" 
d="M94 236q16 54 47.5 95.5t77.5 69.5q47 28 93.5 42t92.5 14l40 1q47 -1 87 -15.5t71 -43.5q31 -28 39.5 -71.5t-7.5 -101.5q-16 -60 -47.5 -105t-78.5 -75t-93.5 -44t-93.5 -15h-40h-2h-1q-47 1 -86 15.5t-70 45.5t-38.5 77.5t8.5 108.5l1 2v0zM212 235q-13 -57 -10.5 -99
t22.5 -69q16 -24 37 -37t46 -17q27 4 54.5 17t55.5 35q35 27 59.5 67.5t40.5 93.5l1 5l1 4q14 47 10 83t-24 61q-16 20 -37 32t-47 16q-27 -4 -54.5 -15.5t-56.5 -32.5q-33 -24 -57 -60.5t-41 -84.5v1z" />
    <glyph glyph-name="p" unicode="p" horiz-adv-x="623" 
d="M182 331q3 9 2 15t-5 8q-2 1 -3.5 1.5t-3.5 0.5q-3 1 -6.5 1.5t-7.5 0.5l-3 1h-2h-2v0q-5 -1 -9.5 0t-7.5 2q-3 2 -3.5 5.5t1.5 9.5l3 6q1 0 2 0.5t2 1.5q1 0 2.5 0.5t2.5 1.5q7 2 17.5 6t24.5 8q14 5 30 14.5t35 24.5q11 9 18 13t11 3l40 1l4 -4t1 -5l-8 -28
q1 -1 1 -0.5t1 0.5t2 1t2 1q11 6 23 12t26 11t30.5 8t34.5 3l40 1h4h4q53 -1 89.5 -18.5t55.5 -52.5q19 -36 23 -75t-7 -82q-7 -28 -21.5 -56t-34.5 -55t-45 -49t-56 -39q-13 -7 -26 -13t-27 -11q-6 -2 -12.5 -3.5t-13.5 -2.5q-7 -2 -13.5 -3t-12.5 -2q-7 -2 -14 -2.5
t-14 -1.5h-6.5t-6.5 -1h-7h-6h-40h-5.5h-4.5q-3 1 -5.5 1h-5.5q-5 0 -10 0.5t-10 1.5q-2 1 -4.5 1.5t-4.5 0.5q-2 1 -4 1.5t-4 1.5t-4 1.5t-4 0.5q-3 1 -5 1h-4q-1 0 -1.5 0.5t-1.5 0.5q-2 1 -3.5 1.5t-2.5 0.5l-0.5 -0.5t-0.5 -1.5v-1v0l-43 -157q-3 -14 -2 -22t5 -12
q5 -4 12 -6.5t14 -3.5h4h5q6 0 11 -1.5t9 -2.5q4 -2 5.5 -5.5t-0.5 -9.5q-1 -4 -4 -6.5t-6 -3.5q-4 -2 -9 -2.5t-11 -0.5h-40h-4.5h-4.5q-2 1 -4.5 1h-5.5q-4 1 -9.5 1h-11.5q-3 0 -6 0.5t-6 0.5q-4 1 -7 1h-6h-0.5h-0.5h-0.5h-0.5h-0.5h-0.5h-0.5h-0.5q-5 0 -10.5 -0.5
t-10.5 -1.5h-2h-2h-4.5t-5.5 -1h-5.5h-4.5h-4.5t-4.5 -1h-4h-4h-39q-6 0 -11 0.5t-9 2.5q-5 1 -6.5 3.5t0.5 6.5q1 6 4.5 9.5t8.5 5.5l10 2.5t12 1.5h3h4q8 1 15 3.5t14 6.5q8 4 13 12t8 22l131 488v0v0zM291 322l-55 -204q-7 -28 -4 -47.5t16 -33.5q11 -11 25 -17.5
t31 -8.5h1.5t1.5 1h1.5h1.5q8 2 16.5 4t16.5 5q11 3 22 8t23 11q13 6 24.5 13t22.5 16q16 12 29 27t23 32q11 17 19.5 35t14.5 36l1 5l2 5v1v2q9 34 7 66t-14 62t-37 46.5t-62 20.5q-21 -2 -39.5 -8.5t-35.5 -17.5q-22 -13 -34.5 -28t-17.5 -32v1z" />
    <glyph glyph-name="q" unicode="q" horiz-adv-x="599" 
d="M404 10v-1v0q-8 -4 -18 -6.5t-21 -5.5t-24 -4.5t-27 -1.5h-40h-4h-4l-5 1h-4q-4 0 -8.5 0.5t-8.5 0.5q-5 1 -9 1.5t-9 1.5q-9 1 -18 3t-17 5q-25 9 -45 26.5t-37 42.5q-16 26 -20.5 60.5t2.5 77.5l2 7l1 5q14 52 45 95.5t79 77.5q48 33 96 50t97 17l40 1q23 -1 39.5 -3
t29.5 -6q12 -4 22 -7.5t17 -8.5q4 -4 7.5 -7t6.5 -5q1 2 2 3.5t2 2.5q0 2 1 3.5t2 2.5l2 3l1 2q2 3 4.5 6.5t4.5 6.5t4.5 4.5t5.5 1.5l40 1l5 -2l3.5 -3.5l3.5 -3.5l1 -2l-1 -3q-1 -4 -2.5 -7t-3.5 -8q-1 -4 -3.5 -10t-5.5 -13t-6 -15t-6 -17q-4 -9 -7 -20t-6 -23l-135 -502
q-2 -10 -1 -16t5 -9q5 -2 10 -3.5t12 -1.5h1h2h1h1q6 0 12 -0.5t10 -1.5t5.5 -5t-0.5 -11q-1 -5 -4 -9t-7 -6q-3 -2 -8.5 -3t-12.5 -1h-40h-2.5h-2.5h-1h-1q-2 1 -4 1h-4h-4.5h-4.5q-2 1 -4.5 1h-4.5q-3 0 -6 0.5t-5 0.5q-3 1 -6 1h-6h-7.5h-6.5q-6 0 -11.5 -0.5t-10.5 -1.5
h-5.5t-5.5 -1h-4.5h-4.5h-4.5t-4.5 -1h-3.5h-3.5h-40q-7 0 -11 1t-7 3q-2 1 -2.5 5t0.5 10q2 5 4.5 8t7.5 5q5 1 9.5 1.5t10.5 0.5h4h4q3 0 6.5 1t6.5 1q3 1 6.5 2t6.5 3q6 3 11 9t7 17l47 175v0zM501 370q3 13 -2 24t-18 19q-9 6 -20.5 10.5t-25.5 5.5q-6 -1 -10.5 -1.5
t-9.5 -1.5q-19 -3 -37.5 -9.5t-37.5 -16.5t-35.5 -24t-30.5 -32q-12 -15 -22 -29.5t-18 -28.5q-7 -15 -12.5 -28.5t-9.5 -27.5q-8 -31 -8.5 -58.5t7.5 -52.5t19 -43.5t27 -30.5q6 -6 13 -10.5t15 -7.5q7 -2 14.5 -4t14.5 -3q17 2 32.5 7.5t31.5 13.5q20 11 33 26t18 33
l72 270v0v0z" />
    <glyph glyph-name="r" unicode="r" horiz-adv-x="379" 
d="M177 339q2 7 1 12t-5 7t-9 3t-10 1l-3 1h-2h-3h-3q-4 -1 -8.5 -0.5t-7.5 1.5q-2 1 -2.5 4t0.5 8l2 5l6 4q5 2 11.5 5t16.5 6t20.5 7.5t22.5 10.5q6 3 12 6.5t12 7.5q3 2 6.5 4t6.5 4q3 3 6.5 5.5t6.5 5.5q0 1 1 2l2 2q1 0 2 1l2 2q2 2 4.5 3.5t5.5 2.5l3 2l4 1h40
q2 -1 3.5 -2t2.5 -3q2 -1 2 -4t-1 -7l-9 -30v-1v0q9 8 19.5 15t21.5 14q11 6 22 9.5t23 3.5l40 1q1 -1 2 -1h3q1 -1 2 -1h2q2 0 4.5 -0.5t5.5 -1.5q9 -4 16 -8.5t11 -10.5l2 -6l2 -6q0 -4 0.5 -7t0.5 -6v-3l-1 -2q-2 -10 -7.5 -17.5t-13.5 -14.5t-17 -10.5t-19 -3.5l-40 1
q-6 -1 -10.5 0.5t-8.5 4.5t-7 6.5t-5 7.5q-3 3 -4.5 5.5t-3.5 4.5q0 1 -0.5 1.5l-1.5 1.5q-4 -2 -8 -4.5t-8 -6.5q-10 -9 -18.5 -18.5t-14.5 -20.5q-4 -5 -7 -10t-5 -10q-2 -4 -3.5 -7.5t-2.5 -6.5q0 -1 -0.5 -2t-0.5 -2l-65 -242q-3 -14 -2.5 -21.5t5.5 -9.5q5 -3 11 -4
t13 -1l1 1h2v0h1q6 -1 11 -1.5t9 -2.5q5 -1 6 -5.5t-1 -12.5q-1 -4 -3.5 -5.5t-7.5 -2.5q-5 -2 -10.5 -2.5t-11.5 -0.5h-40h-4.5h-4.5q-3 1 -5.5 1h-4.5h-4.5h-4.5q-2 1 -4.5 1h-4.5h-2v0q-6 1 -11 1.5t-10 0.5h-1.5h-1.5h-1.5h-1.5q-5 0 -9.5 -0.5t-9.5 -1.5h-11.5
t-10.5 -1h-4.5t-4.5 -1h-4h-4h-40q-6 0 -11 0.5t-7 2.5q-3 1 -4.5 2.5t-0.5 5.5q2 8 5.5 12.5t7.5 5.5q3 1 5.5 1.5t4.5 1.5q2 0 4.5 0.5t5.5 0.5l2 1h2h2h3q6 -1 12.5 0t13.5 4q5 2 10 9t8 19l74 278v0v0z" />
    <glyph glyph-name="s" unicode="s" horiz-adv-x="442" 
d="M77 142q2 3 4.5 6t6.5 5t7 3t5 -1l40 1q2 -2 3.5 -5t2.5 -6q0 -2 0.5 -3t0.5 -3q2 -6 1.5 -15.5t-2.5 -23.5q-4 -22 -0.5 -38t16.5 -27q9 -8 20.5 -12.5t24.5 -6.5q18 2 36 9t37 17q20 12 34.5 28.5t21.5 37.5l1 4v3q6 20 0.5 36t-20.5 26q-16 11 -34.5 20t-38.5 18l-4 1
l-2 2q-16 5 -31.5 12.5t-29.5 15.5q-15 8 -24 19t-13 24q-1 7 -2.5 13.5t-1.5 13.5q0 3 0.5 6t1.5 7q0 3 0.5 6t1.5 6q5 20 17.5 37.5t31.5 32.5q13 10 26 17.5t26 13.5q6 3 13 6t13 5q4 1 7.5 2t7.5 2q3 1 6.5 1.5t7.5 1.5q7 2 13 2.5t12 0.5l40 1q4 -1 8 -1h8h4h4
q2 -1 4.5 -1h4.5q20 -1 38 -3.5t34 -5.5q16 -4 23 -9t5 -13l-14 -53q-3 -11 -6 -17.5t-8 -11.5q-4 -4 -7 -5.5t-5 -0.5l-40 1q-3 -1 -5 1t-2 5q-1 3 -2 7.5t0 10.5q2 20 -2.5 34.5t-15.5 23.5q-7 6 -15 10.5t-19 5.5q-6 -1 -11.5 -2.5t-11.5 -3.5t-11.5 -4.5t-11.5 -5.5
q-16 -9 -28 -19.5t-18 -22.5q-1 -2 -2.5 -4t-1.5 -4q-1 -2 -1.5 -4t-1.5 -4q-4 -17 0.5 -30.5t19.5 -22.5t32.5 -17.5t36.5 -16.5l4 -1l5 -1q6 -4 12.5 -7t12.5 -5q7 -3 13 -6l12 -6q12 -6 21 -13.5t16 -15.5q5 -7 8 -16t4 -19t0.5 -20.5t-3.5 -21.5q0 -1 -1 -3t-1 -3
q-1 -2 -2 -3.5t-1 -3.5q0 -1 -0.5 -3t-1.5 -3q-1 -2 -1.5 -3.5t-0.5 -3.5q-11 -25 -30.5 -48t-48.5 -43q-28 -21 -62 -30.5t-75 -9.5h-40h-7h-6q-6 0 -12.5 0.5t-14.5 2.5q-4 1 -8.5 1.5t-8.5 1.5t-8.5 1.5t-8.5 0.5q-14 3 -26 8t-23 11q-10 6 -14.5 12.5t-2.5 13.5l34 97v0
v0z" />
    <glyph glyph-name="t" unicode="t" horiz-adv-x="323" 
d="M174 385q2 8 2.5 13.5t-1.5 6.5q-1 2 -3 2h-4l-2 1l-2 1h40l-31 -1h-40q-4 -1 -6.5 0t-4.5 2q-2 2 -2.5 3.5t0.5 3.5q1 3 3 6.5t6 7.5q5 5 11.5 9.5t15.5 8.5l6 4l7 3q13 4 23.5 11t19.5 15q8 8 16.5 18t17.5 21l2 3l3 3q9 10 16 16t12 7l40 1q5 -1 6.5 -5t-0.5 -12
l-19 -70q-1 -7 -1 -10.5t4 -4.5q3 -1 15 -1.5t33 0.5h39q9 -1 14.5 -1.5t9.5 -1.5q2 -1 3.5 -4.5t-0.5 -9.5q-1 -6 -3.5 -10.5t-4.5 -6.5q-1 -2 -2 -2.5t-2 -1.5q-4 -1 -10.5 -2t-15.5 0h-55q-15 -1 -23.5 -1.5t-11.5 -1.5t-4.5 -4t-3.5 -8l-78 -292q-5 -18 -5 -30.5
t4 -20.5q3 -6 7.5 -10.5t10.5 -6.5h0.5t1.5 1h0.5h0.5q6 3 11.5 6t10.5 7q8 4 14 7.5t11 6.5l40 1q5 2 9 2t7 -3l1 -2l-1 -4q-1 -4 -3 -7t-4 -7q-4 -4 -8 -7.5t-9 -6.5q-10 -7 -21.5 -13.5t-25.5 -11.5q-14 -4 -29 -7t-30 -3h-40q-32 0 -49.5 7.5t-20.5 23.5t-1 37.5t9 48.5
l74 276v0z" />
    <glyph glyph-name="u" unicode="u" horiz-adv-x="599" 
d="M184 394q2 7 0.5 12t-6.5 7t-10.5 3t-12.5 1l-2 1h-1h-2h-1q-7 -1 -13 -1t-11 1t-7.5 4t-2.5 9q2 6 3.5 9.5t3.5 4.5t7.5 1.5t14.5 0.5l102 2h40q9 -2 14 -2.5t6 -1.5t1 -4.5t-2 -9.5l-73 -274q-9 -35 -7 -58t15 -37q11 -10 24 -17t28 -9q19 2 37 8t36 16
q21 11 34.5 25.5t17.5 30.5l72 270q3 10 2 16.5t-6 9.5t-10.5 4.5t-12.5 2.5l-4 2h-3q-5 -1 -9 -0.5t-8 1.5t-6 3t-2 6q2 6 3.5 9.5t3.5 4.5t7.5 1.5t14.5 0.5l86 2h40q15 -2 23 -2.5t11 -2.5q2 -1 1.5 -6.5t-2.5 -14.5l-84 -313q-4 -16 -4.5 -25.5t3.5 -13.5q3 -4 8.5 -6
t11.5 -2l-40 1h5l5 1h40h4h5q3 -1 5 -1.5t3 -1.5q2 -1 2.5 -3.5t-0.5 -5.5q-1 -6 -6.5 -10t-13.5 -7t-16.5 -5t-18.5 -4l-8 -2l-8 -2q-2 0 -4 -0.5t-4 -1.5q-3 -1 -5.5 -2t-4.5 -1l-4 -2l-4 -2q-9 -5 -16 -8.5t-12 -5.5q-5 -1 -9 -2l-8 -2h-40q-4 0 -6 2l-3 3q-1 3 0.5 7.5
t2.5 9.5q0 2 0.5 4.5t1.5 5.5q1 2 1.5 4.5t0.5 3.5q-1 -1 -3 -2.5t-4 -2.5t-4.5 -2.5t-4.5 -2.5q-13 -7 -26.5 -13.5t-28.5 -11.5q-16 -4 -33 -6.5t-37 -2.5h-40q-32 0 -54 12.5t-34 39.5q-13 26 -13 60t11 75l57 215v0v0z" />
    <glyph glyph-name="v" unicode="v" horiz-adv-x="544" 
d="M312 142l165 228q1 1 2 2.5t2 3.5q1 1 1.5 3t1.5 3q2 3 3 5.5t2 4.5q2 7 0.5 11.5t-6.5 6.5t-10.5 3t-11.5 1l-4 1h-3q-6 -1 -10.5 -1t-9.5 1q-4 0 -5.5 2t-0.5 6q2 6 4.5 9.5t6.5 4.5q3 1 9 1.5t15 0.5l120 2h40q8 -2 14.5 -2.5t12.5 -0.5q5 -1 7.5 -2.5t1.5 -4.5
q-1 -6 -3.5 -9.5t-5.5 -4.5l-8 -2t-9 -1q-4 0 -10 -0.5t-12 -2.5q-3 -1 -6.5 -2t-7.5 -2q-4 -2 -7.5 -4t-6.5 -4q-2 -1 -4.5 -3t-4.5 -4q-3 -2 -5.5 -4.5l-4.5 -4.5q-4 -4 -9 -10t-10 -13l-247 -336q-10 -16 -17 -24t-11 -9h-40q-4 -2 -6.5 0.5t-3.5 8.5l-62 386
q-1 6 -3.5 10.5t-6.5 6.5q-2 1 -4.5 2t-4.5 2q-3 1 -5.5 1.5t-4.5 0.5l-6 1h-5h-3h-2q-1 -1 -2 -1h-2q-2 0 -4 0.5t-4 1.5q-3 2 -3.5 5t0.5 7q2 6 6 9.5t11 4.5q5 1 15.5 1.5t25.5 0.5l119 2h40q14 -2 24 -2.5t14 -1.5t5.5 -4.5t-0.5 -9.5q-1 -4 -3 -6t-4 -3t-3.5 -1.5
t-3.5 -0.5h-3.5h-3.5l-40 1q-1 -1 -2 -1t-2 1h-2h-2l40 1q-1 -1 -3.5 -1h-4.5q-4 0 -7.5 -0.5t-6.5 -1.5q-2 -1 -3.5 -1t-3.5 -1q-4 -2 -7 -6.5t-5 -11.5l-2 -6t-1 -7v-8.5t1 -9.5l26 -218v0z" />
    <glyph glyph-name="w" unicode="w" horiz-adv-x="820" 
d="M476 238l-166 -230q-3 -5 -6 -8l-5 -5q-3 -2 -5.5 -3.5t-4.5 -1.5h-40q-2 0 -4 1.5t-4 3.5q-1 2 -2 4.5t-2 6.5l-67 364q-1 1 -1.5 2.5t-1.5 3.5q-1 1 -1.5 3t-0.5 3l-1.5 3l-1.5 3q-1 1 -1.5 2.5t-0.5 2.5q-5 9 -11 14.5t-12 6.5q-7 2 -12.5 3t-10.5 1q-3 0 -6 0.5
t-6 1.5q-1 1 -2 4t0 7q2 6 6 9.5t11 4.5q5 1 16 1.5t26 0.5l402 2h40q9 -2 15.5 -2.5t11.5 -1.5t7 -4.5t0 -9.5q-1 -5 -4 -8t-6 -5q-4 -1 -7.5 -1.5t-7.5 -0.5l-3 1h-3h-4h-3q-3 -1 -5.5 -1.5t-4.5 -0.5q-1 -1 -2.5 -1t-2.5 -1q-3 -1 -5 -3.5t-3 -6.5q-1 -2 -1.5 -5t-0.5 -6
q-1 -4 0 -7.5t2 -8.5l38 -219l150 221q1 1 2.5 3t2.5 4q0 1 0.5 1.5t0.5 1.5q1 2 1.5 3.5t0.5 2.5q2 7 0.5 11.5t-6.5 5.5q-2 1 -3.5 1t-3.5 1q-3 1 -6.5 2t-7.5 1l-2 1l-1 1q-6 -1 -11 -0.5t-10 1.5q-4 2 -5.5 5t-0.5 7q2 6 4.5 9.5t6.5 4.5q3 1 10 1.5t16 0.5l94 2h40
q15 -2 25 -2.5t17 -1.5q5 -1 8 -4.5t1 -9.5q-1 -4 -3.5 -7t-6.5 -5q-2 -1 -5.5 -2t-6.5 -2q-2 0 -3 -0.5t-2 -0.5q-4 -1 -7.5 -1.5t-6.5 -1.5q-1 0 -3 -0.5t-3 -0.5q-2 -1 -3.5 -1.5t-3.5 -0.5q-7 -2 -13 -5t-12 -8q-7 -4 -13 -11t-12 -16l-246 -360q-3 -5 -6 -8l-5 -5
q-3 -2 -5 -3.5t-4 -1.5h-40q-3 0 -5 1.5t-3 3.5t-2 4.5t-2 6.5l-37 232v0zM335 146l104 145q5 4 8 8.5t4 8.5q0 2 1 3.5t2 3.5q0 1 1 3t1 3l-18 81q-1 4 -4 7t-8 4q-4 1 -12 1.5t-20 0.5l-66 2q-7 -2 -13 -3.5t-11 -4.5t-8 -7t-5 -10q0 -1 -0.5 -1.5t-0.5 -1.5
q-1 -3 -1.5 -5.5t0.5 -5.5q0 -4 1.5 -8.5t2.5 -9.5l42 -214v0z" />
    <glyph glyph-name="x" unicode="x" horiz-adv-x="560" 
d="M301 171l-88 -84q-7 -8 -12.5 -14.5t-9.5 -11.5t-5.5 -9t-2.5 -7q-1 -6 0.5 -9t5.5 -5q5 -1 10 -2.5t12 -1.5l1 1h2q5 -2 10 -2.5t9 -1.5q5 -1 7 -3.5t1 -6.5q-1 -5 -4 -8t-7 -5q-4 -1 -11 -1.5t-16 -0.5h-40h-6.5h-7.5h-8.5h-9.5q-4 1 -9 1h-11h-0.5h-0.5h-0.5h-0.5h-4
h-4q-3 0 -5 -0.5t-4 -0.5h-40h-7.5h-6.5h-6h-6q-9 0 -14.5 0.5t-10.5 1.5l-2.5 5t0.5 8q1 4 2.5 6.5t4.5 3.5q4 1 9 1.5t11 0.5h3.5t3.5 1h3h4q3 0 7 0.5t8 1.5t8 2.5t9 2.5q5 2 9.5 4.5t9.5 6.5l179 168l3 2l3 4v3l-3 5l-81 167l-6 6t-5 6q-1 2 -3 3t-3 2q-2 1 -3.5 1.5
t-3.5 1.5q-1 0 -3 0.5t-3 0.5q-2 1 -3.5 1h-3.5h-2.5t-2.5 1h-3h-3l-3 1h-2q-6 -1 -11 -1t-9 1t-4.5 4t0.5 9q2 6 6.5 9.5t13.5 4.5q8 1 18 1.5t22 0.5l142 2h40q11 -2 19.5 -2.5t14.5 -1.5q5 -1 7.5 -4.5t0.5 -9.5q-1 -5 -4 -8t-8 -5q-5 -1 -10.5 -1.5t-10.5 -0.5h-4.5
h-4.5h-4.5h-4.5q-5 0 -9.5 -0.5t-7.5 -1.5q-4 -1 -5.5 -3t-2.5 -5q-1 -2 -1.5 -5t0.5 -7t2.5 -8.5t5.5 -9.5l37 -74l92 92l4 5l3 5q1 3 -0.5 5t-6.5 3q-4 1 -9 1.5t-11 1.5l-2 1h-1q-7 -1 -12.5 0t-10.5 2q-5 2 -6.5 5t-0.5 8q2 5 4.5 8t6.5 4q2 1 3.5 1t3.5 1q3 0 6.5 1
t7.5 1l6 1q1 -1 2 -1h2h1h2l134 2h40l1 -1h2q4 -1 7.5 -1t7.5 -1q3 0 6.5 -0.5t7.5 -0.5q6 -1 9 -4.5t1 -9.5q-1 -4 -4 -7t-8 -5q-4 -1 -10.5 -2t-13.5 -1q-5 0 -11 -0.5t-12 -1.5q-7 -1 -13.5 -2t-13.5 -3q-4 -1 -8.5 -3t-9.5 -4q-2 -1 -4.5 -2.5t-4.5 -2.5t-4.5 -2.5
t-4.5 -3.5q-5 -3 -9.5 -6.5t-8.5 -8.5l-127 -116l-6 -6l-2 -3v-3l4 -5l97 -196q2 -5 4 -8.5t6 -5.5q3 -1 6.5 -2.5t7.5 -2.5q2 -1 4.5 -1h4.5h2h3q1 -1 2.5 -1h2.5q5 0 8.5 -0.5t6.5 -1.5t4.5 -3.5t0.5 -6.5q-1 -5 -4.5 -8t-8.5 -5q-4 -1 -12 -1.5t-18 -0.5h-40h-7.5h-8.5
h-8.5h-9.5q-4 1 -9.5 1h-11.5h-1.5h-0.5h-1.5h-1.5h-5.5h-4.5t-4.5 -0.5t-5.5 -0.5h-40h-8.5h-9.5h-8h-8q-12 0 -21 0.5t-16 0.5q-7 2 -9.5 5t-0.5 9q1 4 3.5 6.5t6.5 3.5t9 1.5t10 0.5h6h6h3h3h2.5h2.5q6 0 11.5 0.5t9.5 1.5q5 1 8 4t4 7q1 2 1.5 4t0.5 5q-1 3 -1.5 6
t-2.5 7l-54 110v0z" />
    <glyph glyph-name="y" unicode="y" horiz-adv-x="544" 
d="M325 140l160 230l0.5 1t1.5 2t1.5 2.5t0.5 2.5t0.5 1.5t0.5 1.5q1 2 1.5 3.5t0.5 2.5q2 8 1 13.5t-6 6.5q-6 2 -12 3t-13 1l-2 1h-1h-2h-1q-6 -1 -11.5 -1t-10.5 1q-4 1 -5.5 4t-0.5 7q2 6 5.5 9.5t10.5 4.5q6 1 14.5 1.5t20.5 0.5l104 2h40q8 -2 14.5 -2.5t12.5 -1.5
q5 -1 7 -4.5t0 -9.5l-5 -8q-3 -2 -6 -2.5t-8 -0.5h-3h-3q-2 -1 -3.5 -1h-3.5q-4 0 -7.5 -0.5t-8.5 -2.5q-3 -1 -5.5 -2t-5.5 -2q-3 -2 -6 -3t-6 -3q-5 -4 -10 -9t-10 -13l-396 -565q-3 -6 -6 -10.5t-6 -7.5q-4 -3 -7 -5.5t-6 -3.5q-7 -2 -14.5 -3t-15.5 -1h-5l-5 -1h-40h-5
h-5q-7 0 -12.5 2t-10.5 5q-5 4 -5.5 12t3.5 21t9 21.5t12 11.5t14 4.5t15 1.5h4.5h5.5h4.5h4.5h5.5t5.5 1q3 0 5.5 0.5t5.5 1.5q5 1 9.5 4.5t8.5 8.5l78 118l4 6l2 5l1 4l1 5l-2 6l-0.5 1t-0.5 2t-0.5 2t-0.5 2l-1 3l1 2l-61 364q0 4 -2.5 7.5t-6.5 4.5q-5 2 -10.5 2.5
t-10.5 1.5l-4 1l-3 1q-6 -1 -10.5 -0.5t-9.5 1.5q-3 1 -4.5 3.5t-0.5 6.5q2 6 5.5 9.5t9.5 4.5q5 1 12 1.5t16 0.5l158 2h40q8 -2 15 -2.5t12 -1.5t7 -4.5t0 -9.5q-1 -4 -3 -6t-6 -4q-3 -1 -6.5 -1.5t-8.5 -0.5l-6 1h-4h-5h-5q-5 -1 -9.5 -1.5t-8.5 -1.5q-2 0 -4.5 -0.5
t-4.5 -1.5q-7 -2 -11.5 -8t-6.5 -15l-1 -1l1 -2l-1 -2v-2l42 -237v0z" />
    <glyph glyph-name="z" unicode="z" horiz-adv-x="497" 
d="M317 449h237q14 -2 21 -4t7 -6t-6 -12t-18 -20l-364 -360q-4 -8 -5.5 -11.5t1.5 -4.5q2 -1 7 -1.5t13 -0.5l97 2q23 -2 41.5 2.5t32.5 14.5q13 9 25.5 24t24.5 36l4 6t5 5q2 2 4.5 3.5t5.5 2.5l40 1q2 -1 3.5 -1h3.5q1 0 2 -0.5t2 -1.5q2 -2 2.5 -6t-1.5 -9l-33 -92
q-1 -7 -4 -10t-7 -5q-4 -1 -11 -1.5t-16 -0.5h-40h-6.5h-7.5h-8.5h-9.5q-4 1 -9 1h-11h-12h-12h-244h-16.5t-11.5 1q-4 1 -6.5 3t-1.5 6q2 3 4.5 7t6.5 9q5 5 10.5 12t12.5 15l353 349q5 4 6 7t-1 4q-1 1 -9.5 1.5t-23.5 0.5l-81 2q-7 -2 -16 -4t-19 -6q-2 -1 -4.5 -2
t-5.5 -2q-9 -4 -19 -11.5t-21 -18.5l-7 -5l-1.5 -3t-1.5 -1q-1 -1 -1.5 -2t-1.5 -2q-4 -4 -7 -6.5t-6 -4.5q-4 -2 -6.5 -3t-4.5 -1l-40 1q-3 -1 -5 0t-3 3t-1 4.5t1 6.5l70 112q2 4 4.5 7.5t5.5 6.5q2 3 5 4.5t6 2.5l40 1q3 1 5.5 0t4.5 -4t2 -8t-2 -12t-1.5 -11.5t4.5 -6.5
q3 -2 7.5 -3.5t8.5 -1.5l-40 1q1 -1 2 -1h2h1h2h2h2h1h2v2h40v0z" />
    <glyph glyph-name="braceleft" unicode="{" horiz-adv-x="300" 
d="M219 315q17 -5 26.5 -13t12.5 -21q4 -13 4 -26.5t-5 -28.5l-50 -187q-6 -22 -6.5 -38.5t3.5 -29.5q4 -14 15.5 -22.5t31.5 -11.5l-3 -8q-4 -1 -8 -1.5t-8 -0.5h-4t-3 -1h-3.5h-3.5h-40q-28 0 -45.5 9t-25.5 26q-7 17 -7.5 38t6.5 46l49 183q4 13 4.5 26.5t-1.5 26.5
q-1 13 -12 21t-31 11l2 10q17 1 30 6t23 14q8 9 14.5 19t10.5 20l2 4t2 5q0 2 0.5 4.5t1.5 4.5l42 159q15 55 34 87.5t41 41.5q23 9 47.5 14t51.5 5l40 1l-2 -7q-19 -5 -34 -12.5t-27 -18.5q-12 -12 -20 -26.5t-13 -31.5l-55 -203q-4 -19 -13 -34t-20 -27t-24 -20t-30 -14v1
z" />
    <glyph glyph-name="bar" unicode="|" horiz-adv-x="599" 
d="M252 0l189 709h40h63l-189 -709h-40h-63v0v0z" />
    <glyph glyph-name="braceright" unicode="}" horiz-adv-x="300" 
d="M241 315q-13 4 -23 11.5t-15 17.5q-7 10 -6.5 24t4.5 32l55 206q5 19 5 34.5t-5 25.5q-4 11 -17.5 19t-35.5 14l2 10h40q44 -2 70.5 -10t35.5 -25q8 -16 8 -43.5t-11 -65.5l-44 -163q-4 -20 -5 -34t3 -23t13.5 -15t23.5 -9l-2 -6q-7 -5 -12 -8.5t-10 -5.5l-8 -4l-8 -4
q-8 -4 -15 -11t-12 -16q-4 -9 -9.5 -26.5t-13.5 -44.5l-46 -171q-6 -24 -17.5 -42.5t-28.5 -33.5q-18 -14 -38.5 -21.5t-45.5 -8.5h-40h-4h-3q-2 1 -4 1h-4q-4 0 -8 0.5t-8 1.5l2 8h2h2l1 1h1h1.5h1.5h2h2q1 1 2 1h2q11 3 21.5 9.5t22.5 16.5q11 10 19.5 24.5t13.5 32.5
l54 206q5 16 12.5 30.5t17.5 26.5t24.5 21t34.5 15v2v0z" />
    <glyph glyph-name="asciitilde" unicode="~" horiz-adv-x="599" 
d="M112 276q19 22 39.5 39.5t41.5 30.5q22 13 44.5 19.5t46.5 7.5l40 1q9 -1 18.5 -2.5t19.5 -3.5q5 -1 10 -3l10 -4l10 -4t10 -5q16 -7 30.5 -14t27.5 -13q8 -4 15.5 -6t14.5 -3q3 0 6 0.5t5 1.5q8 2 15.5 6t15.5 10q6 4 12 8.5t12 9.5t12 11l13 13l40 1l31 -31
q-10 -11 -19.5 -20t-17.5 -17q-9 -7 -17 -14t-15 -12q-11 -8 -21.5 -14t-21.5 -10q-10 -4 -19.5 -5.5t-20.5 -1.5l-40 1q-10 -1 -21 0.5t-22 5.5q-12 3 -24.5 9t-26.5 13q-16 8 -30.5 15t-26.5 11q-7 2 -13 4t-12 3q-1 0 -2.5 -0.5t-2.5 -0.5q-1 -1 -2.5 -1.5t-2.5 -0.5
q-7 -3 -14.5 -7t-15.5 -9q-7 -4 -14 -10l-14 -12q-7 -7 -15.5 -14.5t-16.5 -16.5l-40 1l-32 33v0v0z" />
    <glyph glyph-name="exclamdown" unicode="&#xa1;" horiz-adv-x="260" 
d="M169 252q1 3 2.5 6t4.5 5q1 1 2.5 2t2.5 2q1 0 2.5 0.5t2.5 0.5l40 1q2 -1 3.5 -2.5t2.5 -3.5t1.5 -5t-0.5 -8l-77 -400q-3 -13 -9 -22.5t-14 -16.5q-3 -2 -5.5 -3.5t-5.5 -3.5q-6 -3 -11.5 -4.5t-10.5 -1.5h-40q-8 0 -14.5 3t-11.5 10q-6 7 -6.5 16.5t2.5 22.5l139 402
v0v0zM176 394q3 11 9 20.5t15 16.5q7 5 12.5 8t11.5 4q3 1 6 1.5t6 0.5l40 1q9 -1 16.5 -4t13.5 -10q5 -7 6.5 -16.5t-2.5 -23.5q-4 -15 -10.5 -25.5t-16.5 -18.5q-10 -7 -18.5 -11t-16.5 -4l-40 1q-9 -2 -16.5 2t-12.5 11q-6 8 -6.5 19t3.5 26v2v0z" />
    <glyph glyph-name="cent" unicode="&#xa2;" horiz-adv-x="544" 
d="M303 102q1 2 0 4t-3 3t-5 1.5t-8 1.5h-7.5t-8.5 1q-4 0 -9.5 1t-10.5 2h-2.5t-2.5 1q-2 0 -3 0.5t-3 0.5q-1 0 -1.5 0.5t-1.5 0.5q-2 1 -3.5 2t-2.5 2q-23 9 -41.5 27t-32.5 45q-13 27 -16.5 57t5.5 63l1 4l2 4l1 3l1 4q9 26 22 49t30 42q17 20 34.5 35.5t35.5 28.5
q4 3 7.5 5.5t6.5 4.5q11 7 21.5 13.5t20.5 10.5q12 6 20.5 9.5t13.5 4.5q8 2 14.5 4t11.5 3q3 1 5.5 1.5t5.5 1.5q2 0 4 0.5t4 1.5q5 1 8 2.5t4 3.5q2 2 4 5.5t3 8.5l22 81l4 7q2 1 4.5 1.5t5.5 0.5l40 1q1 -1 1.5 -1h0.5q1 -1 2.5 -1.5t1.5 -1.5q2 -1 2.5 -3t-0.5 -5
l-21 -77q-1 -8 -1.5 -11.5t0.5 -5.5q2 -1 4.5 -2.5t6.5 -2.5h2.5h2.5q2 -1 3.5 -1h2.5q2 -1 5.5 -1.5t7.5 -1.5q2 0 5.5 -0.5t9.5 -1.5q2 0 3 -0.5t3 -0.5q4 -2 8.5 -3t10.5 -2q3 -1 6.5 -3t6.5 -3q3 -2 6.5 -3.5t6.5 -3.5q5 -4 8 -8.5t1 -9.5l-14 -53q-1 -5 -2.5 -8.5
t-3.5 -6.5q-1 -1 -1.5 -2.5t-1.5 -2.5q-4 -4 -6.5 -6t-4.5 -2l-40 1q-2 -1 -4 0t-4 3q-1 1 -2 3t-2 5q-1 1 -1 2.5t-1 3.5q-2 8 -4.5 15t-5.5 14t-6.5 13t-7.5 11q-1 2 -3 4l-3 3q-2 2 -3.5 4t-3.5 3l-91 -341q-1 -5 -1 -8.5t2 -5.5v0v0q6 2 12.5 4.5t13.5 5.5q5 2 10.5 5
t10.5 6q2 1 3.5 2t3.5 2q3 3 6.5 5.5t7.5 5.5q5 4 9 7t8 4q3 2 6 3t5 1l40 1l5 -2l1 -6q-1 -4 -2.5 -7t-4.5 -8l-4 -4l-4 -4q-3 -3 -5.5 -5t-5.5 -4q-22 -17 -39.5 -27.5t-32.5 -14.5q-14 -4 -24.5 -6t-18.5 -4q-5 -1 -8 -1.5t-5 -1.5q-3 -1 -4 -3t-2 -5l-23 -84
q-1 -5 -3 -7l-4 -4q-1 -1 -2 -1.5t-2 -0.5q-1 -1 -2 -1h-2l-40 1q-3 -1 -4.5 0t-3.5 2q-1 2 -1 4t1 5l23 88v0v0zM411 504v3.5v3.5l-8 -4t-7 -4q-4 -2 -8 -4.5t-8 -5.5q-3 -2 -6 -4.5t-5 -4.5q-3 -2 -6 -4.5t-6 -4.5q-6 -4 -11.5 -9.5l-10.5 -10.5q-4 -4 -8.5 -9t-7.5 -9
q-4 -5 -7.5 -9.5t-6.5 -9.5q-3 -4 -6 -9t-6 -9q-3 -5 -5 -9.5t-4 -9.5q-1 -2 -2.5 -4.5t-2.5 -4.5q-1 -3 -2 -5.5t-1 -4.5l-2 -6l-2 -6q-1 -1 -1 -2.5t-1 -3.5q-7 -26 -7.5 -50t5.5 -47q6 -22 16 -39.5t24 -28.5q1 -1 2 -1.5t2 -1.5q2 -2 4 -3.5t3 -2.5q2 3 4 7.5t3 9.5
l85 317v0v0z" />
    <glyph glyph-name="sterling" unicode="&#xa3;" horiz-adv-x="544" 
d="M258 28l-4 -4t-4 -3q-2 -2 -4.5 -3.5t-5.5 -3.5q-2 -1 -4 -2.5t-4 -2.5q-7 -4 -15 -7.5t-18 -7.5q-12 -5 -25.5 -7.5t-28.5 -2.5h-40q-27 0 -45 4t-27 12q-10 7 -14.5 17t-4.5 20q-1 4 -0.5 8t1.5 8q1 5 1.5 8.5t1.5 7.5q5 20 18 35.5t32 27.5q20 11 41.5 17t44.5 6l40 1
q5 -1 10.5 -1.5t11.5 -1.5q5 -1 10 -1.5t11 -1.5q8 -3 16.5 -6t15.5 -7q2 -1 4.5 -2.5t4.5 -2.5t4 -2.5t4 -2.5v0.5t1 1.5v1.5v1.5q5 17 8 30.5t4 23.5q1 11 1.5 20.5t-0.5 18.5v4v4t-0.5 4t-0.5 4t-0.5 4t-0.5 4t-0.5 4.5t-0.5 4.5l-1 2l1 2q-2 4 -5 6.5t-6 3.5
q-4 1 -10 1.5t-14 0.5l-118 2l-3 1q-1 1 -0.5 2.5t1.5 3.5v4l2 4q2 1 4 3.5t5 5.5q3 2 7 3.5t8 1.5l95 2q5 -2 8.5 -1.5t4.5 1.5v0.5v0.5v5.5t-1 7.5q-5 19 -7 37t-2 35t2 32.5t6 30.5q8 32 23 59t37 49q20 21 41.5 36t43.5 24q7 3 13.5 5.5t12.5 3.5q5 1 8.5 1.5t7.5 1.5h4
h4l40 1q27 -1 45 -5.5t28 -12.5q9 -9 12.5 -19t0.5 -21q-1 -3 -2.5 -6.5t-3.5 -7.5q-1 -1 -1.5 -2.5t-1.5 -3.5q-2 -3 -4.5 -6t-5.5 -6l-2.5 -2.5t-2.5 -3.5l-9 -5l-6 -1h-40q-2 -1 -4 0t-3 2q-2 2 -3.5 4t-2.5 5q-1 2 -2 4.5t-2 5.5q-1 2 -1 3.5t-1 2.5q-1 2 -1.5 4.5
t-0.5 5.5q-1 2 -1.5 4.5t-1.5 5.5l-2 4l-1 4q-3 4 -6.5 8.5t-8.5 7.5q-1 0 -1.5 0.5l-0.5 0.5q0 1 -0.5 1h-1.5q-3 -1 -6.5 -3t-7.5 -4t-7.5 -4t-6.5 -5q-8 -6 -16.5 -15t-16.5 -20q-4 -5 -7.5 -11t-6.5 -13q-3 -5 -4.5 -10t-3.5 -11q0 -1 -0.5 -3t-1.5 -4q-4 -18 -7 -38
t-3 -43q0 -11 1 -22.5t3 -22.5q2 -12 4.5 -23.5t6.5 -22.5l1 -5l3 -6l1 -7l2 -5l4 -4l90 1h40l2 -4v-6l-1 -4l-2 -3q-1 -4 -3.5 -6.5l-4.5 -4.5q-1 -1 -2.5 -2t-2.5 -1q-2 -1 -4.5 -1.5t-5.5 -0.5l-40 1l-50 1q-3 -2 -6 -2.5t-5 -2.5q-1 -1 -2.5 -3t-1.5 -4q-1 -2 -1.5 -4.5
t-0.5 -5.5v-6v-6q0 -2 -0.5 -4t-0.5 -4t-0.5 -4t-0.5 -4q-1 -4 -1.5 -9t-2.5 -10q-2 -10 -6.5 -21t-11.5 -23q-6 -12 -16 -26t-23 -29q-3 -4 -4.5 -7.5t-1.5 -5.5q1 -1 2 -2.5t4 -3.5l2 -2t2 -1q1 -1 3 -2l4 -2q4 -2 8.5 -5t8.5 -8q10 -10 20 -16.5t20 -10.5q5 -2 10.5 -3.5
t9.5 -2.5q9 2 16 4.5t14 6.5q11 7 19.5 14.5t14.5 15.5q0 1 0.5 2t1.5 2q1 0 1.5 1t0.5 2t0.5 1.5l0.5 0.5q1 2 1.5 3.5t0.5 2.5l1 2l1 2v1l1 2q2 7 1.5 12t-4.5 8l-8 6t-9 6l-1 2l-2 1q-4 1 -8 3t-7 5q-3 2 -3.5 6t0.5 9v2l2 2v1v2q5 10 10.5 18t12.5 13l6 4t7 3q3 2 6 2.5
t6 0.5l40 1h3l3 -1q8 -2 13 -8t8 -16q4 -10 4 -22.5t-4 -27.5q-2 -7 -4.5 -14t-6.5 -15t-8.5 -16.5t-9.5 -16.5q-11 -17 -24.5 -30.5t-28.5 -23.5q-16 -10 -31 -15.5t-29 -9.5q-7 -2 -12.5 -2.5t-10.5 -1.5q-6 -1 -11 -1.5t-10 -0.5h-40q-12 0 -23 2.5t-20 7.5q-9 4 -17.5 9
t-14.5 11q-2 2 -4.5 3.5t-4.5 3.5q-2 1 -3.5 3t-3.5 3v1zM229 63q0 -1 -1.5 2t-3.5 8q-3 5 -7 10.5t-9 11.5q-5 5 -11 10.5t-13 10.5q-2 1 -3.5 2t-3.5 2q-3 1 -6.5 2.5t-7.5 2.5h-0.5h-0.5q-1 -1 -1.5 -1h-0.5q-5 -1 -9.5 -3.5t-8.5 -5.5q-2 -2 -4.5 -4t-4.5 -4
q-6 -7 -10 -15t-6 -16v-2t-1 -1q0 -1 -0.5 -2t-0.5 -2v-5q-1 -7 0 -12.5t3 -10.5q2 -6 5.5 -10.5t9.5 -8.5q3 -4 6.5 -6t7.5 -4q2 1 3 1t3 1h1t2 1q2 0 4 1l4 2q9 4 18 8.5t16 9.5q7 4 12 7.5t9 7.5q5 4 7.5 6.5t2.5 3.5v2v0z" />
    <glyph glyph-name="currency" unicode="&#xa4;" horiz-adv-x="544" 
d="M135 181q-2 2 -4 6l-4 8q-1 5 -2.5 9.5t-1.5 8.5q-4 12 -6 24.5t-3 25.5q0 13 1.5 26t5.5 26q5 17 12.5 33.5t17.5 34.5q11 17 25 35t33 37l-35 49l40 31h40l23 -32q12 4 24 8.5t24 8.5q10 3 20 5.5t20 4.5q9 1 19 2t20 1l40 1q17 -1 33.5 -3.5t31.5 -8.5q5 -2 9 -4t9 -5
q4 -2 8.5 -5t8.5 -6l40 33h40l23 -31l-60 -47q4 -12 7 -23.5t4 -22.5q2 -11 2 -22v-22q-1 -6 -1.5 -11.5t-1.5 -10.5q-1 -3 -1.5 -6t-0.5 -5q-1 -3 -1.5 -5.5t-1.5 -5.5q-5 -20 -14 -39.5t-20 -38.5t-24.5 -35.5t-28.5 -30.5l35 -45l-40 -32h-40l-22 31q-6 -5 -12 -8t-11 -6
q-6 -3 -12 -5l-12 -4q-18 -6 -35 -9t-34 -3l-40 1q-3 -1 -6 -1h-5q-3 0 -6 0.5t-6 0.5q-2 0 -3.5 0.5t-3.5 0.5q-4 1 -7.5 2t-6.5 2q-11 3 -21.5 7t-20.5 10q-2 1 -4.5 2.5t-4.5 2.5q-3 2 -5.5 3.5t-4.5 2.5l-39 -30h-40l-24 32l61 47v0v0zM220 323q-10 -41 -6 -71.5
t23 -50.5q15 -17 35 -27t43 -13q12 1 24.5 4t24.5 7q12 5 24.5 11.5t24.5 14.5q29 20 49.5 48.5t30.5 66.5v3l1 2v2l1 2q11 38 6.5 67t-23.5 48q-16 16 -35 25.5t-42 12.5q-12 -1 -25 -4.5t-25 -8.5q-13 -5 -26 -11.5t-25 -14.5q-30 -19 -50 -48t-30 -66v1z" />
    <glyph glyph-name="yen" unicode="&#xa5;" horiz-adv-x="544" 
d="M332 63q-3 -12 -2 -19.5t6 -10.5t10 -5t12 -2h5h6q5 -2 8.5 -2.5t7.5 -1.5q2 -1 4 -3t1 -5q-2 -6 -5 -10t-6 -4q-4 -2 -9.5 -3t-11.5 -1h-40h-3h-3q-2 1 -3.5 1h-3.5h-4h-3q-2 1 -4 1h-4q-4 1 -8.5 1.5t-9.5 0.5h-1.5h-0.5h-1.5h-1.5q-6 0 -11 -0.5t-10 -1.5h-5t-5 -1h-4
h-4h-4t-4 -1h-3.5h-3.5h-40q-7 0 -11 1t-6 3q-3 0 -3.5 4t1.5 10q1 4 2.5 6.5t4.5 3.5t6.5 1.5t7.5 0.5h4h4h4h4q6 -1 12.5 0.5t13.5 4.5q6 3 11 10.5t8 19.5l36 136q3 10 4 16.5t0 8.5t-6 3t-13 1l-117 2q-5 -2 -8 -1t-5 4q-2 2 -2 5t1 6q0 2 0.5 3l1.5 3q1 1 2 2.5t3 2.5
q2 2 6.5 3.5t8.5 1.5l134 2h6l4 3q1 0 0.5 1t-0.5 3v1v2t-0.5 2.5t-0.5 2.5q0 2 -0.5 3.5t-0.5 3.5v4v4l-7 33l-1 3l-1 4q-1 2 -3.5 3.5t-5.5 2.5h-3.5t-5.5 1h-7.5h-8.5l-78 2q-4 -2 -7.5 -1t-5.5 4q-1 2 -1.5 5t0.5 6q1 2 2.5 4.5t4.5 5.5q3 2 7 3.5t8 1.5l87 2
q2 -2 4 -0.5t3 4.5t1 7.5t-2 10.5l-40 175q-1 7 -3.5 12.5t-5.5 9.5q-4 5 -7 8t-6 5q-2 1 -4 1.5t-4 1.5t-4 1.5t-4 0.5q-4 1 -7.5 1.5t-6.5 0.5q-5 0 -9 1.5t-6 2.5q-2 2 -2.5 5.5t0.5 9.5q1 4 3.5 6.5t6.5 3.5q2 2 7 2.5t11 0.5l40 1q2 -1 4 -1h4q2 -1 4 -1h4q5 -1 10 -1
h11q5 -1 10.5 -1.5t11.5 -0.5h2h3q1 -1 2 -1h2q2 0 3.5 0.5t3.5 0.5h3h3h7.5h7.5h2.5h2.5h1.5t1.5 1h4h3l40 1q7 -1 11.5 -1.5t8.5 -1.5q3 -1 4.5 -3t0.5 -5q-2 -7 -5.5 -12t-8.5 -7q-3 -1 -5.5 -1.5t-4.5 -0.5q-2 -1 -4.5 -1h-5.5l-3 1h-2q-5 -1 -9.5 -1.5t-8.5 -1.5
q-5 -1 -8 -4t-5 -8v-2v-2q-1 -1 -1 -2v-2v-2.5v-2.5q0 -2 0.5 -3t0.5 -3l47 -215l158 217q1 1 2.5 3t2.5 4t1.5 4.5t1.5 4.5q2 6 0 10t-7 5q-4 2 -9.5 2.5t-11.5 1.5q-7 0 -12.5 0.5t-10.5 1.5q-5 2 -6 5.5t0 10.5q1 4 3.5 6.5t6.5 3.5q3 2 8 2.5t11 0.5l40 1q2 -1 4 -1h4
q2 -1 4 -1h4q5 -1 9.5 -1h9.5q1 0 1.5 -0.5t1.5 -0.5t2.5 -0.5t3.5 -0.5h2h2h2h2v0v0q4 0 8.5 0.5t8.5 1.5h7.5t6.5 1h3.5t3.5 1h4h3l40 1q3 -1 5.5 -1.5t4.5 -1.5q1 0 1.5 -0.5t1.5 -0.5q2 -1 2.5 -3.5t-0.5 -6.5q-1 -7 -4 -10.5t-6 -5.5q-4 -1 -8 -1.5t-9 -0.5
q-4 -1 -7.5 -1.5t-7.5 -0.5q-3 0 -5 -0.5t-4 -1.5q-3 -1 -5 -2t-5 -2q-2 -1 -4 -2.5t-4 -2.5q-2 -2 -4 -3t-4 -3q-4 -4 -8 -8.5t-9 -9.5l-132 -171l-2 -5l-2 -3q-2 -5 -4 -8t-4 -5l-4 -7l1 -4v-1v0h0.5t-0.5 -1l45 2h40l7 -3.5t4 -3.5q2 -3 2.5 -5.5t-0.5 -4.5q-1 -3 -3 -6
t-5 -5q-3 -3 -6 -4t-8 -1l-40 1l-44 1q-7 -2 -12.5 -2.5t-7.5 -0.5q-1 0 -2 -0.5t-2 -0.5q-2 -1 -4 -2.5t-4 -3.5l-3 -3l-3 -4l-25 -31q-2 -5 -3.5 -8.5t-2.5 -5.5q-1 -3 -2.5 -5t-1.5 -4v-7q0 -1 0.5 -1.5t1.5 -0.5l0.5 -0.5t1.5 -0.5l92 2h40q5 -2 7.5 -3.5t4.5 -3.5
q0 -1 0.5 -1.5t0.5 -1.5t0.5 -1.5l0.5 -0.5v-3v-3q-1 -2 -2.5 -4.5t-3.5 -4.5l-0.5 -0.5l-1.5 -1.5q-3 -3 -6.5 -4t-8.5 -1l-40 1l-80 1q-8 -2 -12.5 -3.5t-6.5 -4.5t-5.5 -13.5t-8.5 -27.5l-32 -116v0v0z" />
    <glyph glyph-name="brokenbar" unicode="&#xa6;" 
 />
    <glyph glyph-name="section" unicode="&#xa7;" horiz-adv-x="402" 
d="M254 598q11 9 24.5 17t29.5 14q8 3 15.5 5.5t15.5 4.5q7 2 15 3t15 2h4.5h4.5h2.5t2.5 1h2.5h2.5l40 1q12 -1 23.5 -3t21.5 -5t18 -7.5t14 -10.5q2 -2 4 -4.5t3 -4.5q1 -1 1.5 -2t0.5 -2l2.5 -2.5t1.5 -3.5q1 -4 1.5 -7.5t1.5 -6.5q1 -4 1 -7t-1 -6q-2 -8 -7 -15t-13 -13
q-7 -6 -15.5 -8.5t-17.5 -2.5l-40 1q-1 -1 -3 -1h-3q-3 1 -6 1.5t-6 1.5q-4 2 -8.5 4t-7.5 6q-2 1 -3.5 2t-2.5 2l-1.5 1.5l-1.5 1.5q-1 2 -2.5 4.5t-3.5 5.5t-3.5 5.5t-3.5 4.5q-4 5 -7.5 8.5t-6.5 5.5h-0.5t-0.5 1h-0.5h-0.5l-1.5 -1.5t-1.5 -0.5l-1.5 -1.5t-0.5 -1.5
q-7 -6 -11 -14t-6 -17q-1 -4 -1.5 -7.5t-1.5 -8.5v-4v-4v-2v-1v-3v-3l1 -4l1 -6q3 -13 7.5 -35.5t11.5 -55.5t17.5 -71.5t24.5 -82.5q5 -16 7.5 -36.5t1.5 -46.5t-5 -53t-12 -56l-1 -3l-1 -2q-12 -43 -31.5 -81t-45.5 -74t-60.5 -55.5t-78.5 -23.5h-40h-6h-6q-3 1 -6.5 1
h-6.5q-7 1 -13.5 1.5t-12.5 2.5q-10 2 -19.5 5t-17.5 7q-9 4 -15.5 9.5t-11.5 12.5q-3 5 -5.5 10.5t-3.5 10.5t-0.5 9.5t1.5 9.5q3 9 8 16t13 13t16.5 8.5t18.5 2.5h40h6t7 -1q3 -1 6 -2.5t7 -2.5q2 -1 3.5 -2t3.5 -2l3.5 -3.5t3.5 -2.5q4 -3 6.5 -7.5t4.5 -9.5l1.5 -3
l1.5 -3q1 -1 2 -2.5t2 -2.5q2 -2 4 -4.5t3 -4.5q3 -3 6.5 -6t7.5 -4l3 1.5l3 1.5q1 1 2.5 2t2.5 2q8 6 13 13.5t8 17.5q1 2 1.5 4.5t0.5 4.5q1 3 1 5.5v4.5q-1 5 -1.5 10.5t-2.5 10.5q-1 4 -2 8.5t-2 8.5l-2 8t-2 6q-2 5 -3.5 10.5t-2.5 10.5q-1 3 -1.5 5.5t-1.5 5.5
q-3 11 -5.5 21t-5.5 20q-6 20 -11.5 39.5t-10.5 38.5q-8 28 -14 52.5t-9 46.5q-4 26 -6 50t-1 46q2 22 5 42t8 39q8 28 19 52t25 45q14 20 30.5 38t34.5 34l1 2v0zM248 456q-1 -2 -1 -2.5v-1.5q-11 -43 -15 -81t0 -72t10 -65t14 -60q3 -10 5.5 -19.5t5.5 -18.5
q3 -10 5.5 -19t5.5 -18q5 -16 8.5 -31.5t4.5 -30.5q2 4 3 8t3 8q0 2 1 4t1 4q11 39 14 72t-1 60q-3 27 -8.5 53t-14.5 51q-1 3 -2 5.5t-1 5.5q-1 2 -2 4.5t-2 5.5q0 2 -1 3.5t-1 2.5q-1 4 -2 7.5t-2 7.5q-5 15 -9.5 31t-9.5 33q-4 12 -5.5 25t-3.5 27v1z" />
    <glyph glyph-name="dieresis" unicode="&#xa8;" horiz-adv-x="442" 
d="M219 583q2 9 7.5 16.5t14.5 13.5q5 3 9 5.5t9 3.5q4 2 8.5 2.5t8.5 0.5l40 1q8 -1 14.5 -4t10.5 -8q5 -5 6 -13.5t-2 -19.5q-3 -13 -9 -23t-14 -17q-9 -7 -17.5 -10t-16.5 -3l-40 1q-8 -2 -15 1t-12 10t-5.5 17.5t2.5 23.5l1 2v0zM400 583q2 9 7.5 16.5t14.5 13.5
q5 3 9 5.5t9 3.5q4 2 8.5 2.5t8.5 0.5l40 1q8 -1 14.5 -4t10.5 -8q5 -5 6 -13.5t-2 -19.5q-3 -13 -9 -23t-14 -17q-9 -7 -17.5 -10t-16.5 -3l-40 1q-8 -2 -15 1t-12 10t-5.5 17.5t2.5 23.5l1 2v0z" />
    <glyph glyph-name="copyright" unicode="&#xa9;" horiz-adv-x="804" 
d="M580 638q1 -1 2 -1.5t2 -0.5h1h2h4h4l6 1h5q56 -3 103 -25t84 -64q36 -42 44.5 -99t-10.5 -129q-1 -2 -1.5 -4t-1.5 -4v-2t-1 -1q0 -1 -0.5 -2t-0.5 -2q-23 -76 -65 -135.5t-103 -101.5t-120 -62.5t-118 -21.5h-40h-2h-1h-5.5h-4.5h-2.5h-2.5q-2 1 -3 1h-2
q-55 4 -101.5 26.5t-83.5 65.5q-36 44 -46 101t6 127q1 3 1.5 6t1.5 6t1.5 6t1.5 6q15 59 48 109t82 90q25 20 50 36t50 29t50 22t50 14q4 1 8 1.5t8 1.5q4 0 8 0.5t8 1.5q4 0 8 0.5t8 0.5q3 1 7 1h8l3 1h4h3h3v1h40v0zM550 605q-52 -5 -101 -25.5t-97 -58.5
q-52 -41 -86 -86.5t-49 -95.5l-2 -4l-1 -6q0 -2 -0.5 -3.5t-0.5 -2.5l-1.5 -3t-0.5 -3q-1 -3 -1.5 -6t-1.5 -6q-9 -65 3.5 -117t46.5 -90q30 -34 68.5 -53t84.5 -22h3h2q45 4 91.5 23t92.5 53q47 34 82.5 85.5t59.5 120.5l2 7l2 6q15 57 8 107t-37 93q-30 42 -72 63.5
t-95 22.5v1zM605 228l28 -8q-10 -22 -30 -40.5t-48 -34.5t-57.5 -24t-58.5 -8l-40 1q-4 -1 -8 -1h-8t-8 1t-7 2q-16 3 -31 10t-28 17q-13 11 -23.5 26t-18.5 34q-5 14 -7.5 27.5t-3.5 28.5q0 15 2 30t6 30q5 20 13.5 39.5t21.5 38.5t28 35.5t33 30.5q14 11 29 20t30 15l10 4
t10 3q10 3 20.5 5.5t19.5 3.5q5 1 10 1.5t9 0.5h4.5t5.5 1h4.5h4.5l40 1q15 -1 29.5 -2.5t27.5 -4.5q6 -1 12 -2.5t12 -2.5q6 -2 11 -3t10 -3l10 -4t9 -4q4 -1 7 -2.5t5 -3.5l-27 -100h-40h-32q4 23 1.5 39.5t-10.5 26.5q-9 10 -19 16t-22 8h-0.5h-1.5h-1.5h-0.5h-0.5h-1.5
h-1.5h-0.5q-20 -3 -40.5 -12.5t-41.5 -25.5t-36 -43t-26 -65q-2 -8 -4 -16.5t-4 -17.5q-1 -9 -2.5 -18.5t-1.5 -19.5l-1 -3l1 -4q-1 -19 7 -35t24 -30q12 -11 25 -18.5t29 -9.5l10 2t11 3l10 4t10 5q8 4 15.5 9t15.5 12q7 7 14.5 15t15.5 18l1 2h40v0z" />
    <glyph glyph-name="ordfeminine" unicode="&#xaa;" horiz-adv-x="379" 
d="M148 315h283l-11 -39h-40h-283l11 39h40v0v0zM315 373q-5 -4 -11 -7t-13 -5q-11 -4 -25 -6.5t-30 -2.5l-40 1q-13 -1 -23 2.5t-15 10.5q-7 7 -8.5 15.5t1.5 18.5l4 10t6 11l4 6t5 6q3 2 6 5l6 6q6 6 15 12.5t20 13.5q11 6 23 12t26 12l80 34l17 63q2 7 1 13t-6 10
q0 1 -0.5 1.5l-1.5 1.5q-1 0 -1.5 0.5l-1.5 1.5q-7 -3 -14.5 -6.5t-15.5 -8.5q-10 -6 -16.5 -14t-11.5 -17q-4 -6 -8.5 -11t-9.5 -8q-5 -4 -9.5 -6t-9.5 -3l-7 -1h-40h-5q-2 -1 -4 -0.5t-4 0.5q-1 1 -2 1.5t-2 0.5q-2 2 -3 4.5t0 6.5q0 1 0.5 1.5l0.5 0.5q0 1 0.5 2.5
t1.5 2.5q1 2 2.5 4.5t3.5 4.5q12 12 25 22.5t27 17.5q14 8 28 14t27 10q3 1 6.5 1.5t6.5 1.5q3 0 6 0.5t6 1.5q3 0 6 0.5t6 0.5q2 1 5 1h6l40 1q16 -1 28.5 -4.5t22.5 -9.5t13 -15t0 -20l-46 -171q-4 -17 -4.5 -24.5t3.5 -7.5l-40 1q4 -1 9 0.5t10 4.5l1 1l1 1q1 0 2 0.5
t2 1.5q1 0 2 0.5t2 1.5q2 2 4.5 2.5t3.5 0.5l40 1l4 -2v-1.5t1 -1.5v-2v-2v0l-1 -1v-2h1l-2 -4l-1 -3q-4 -7 -10 -11.5t-14 -9.5q-9 -4 -17 -7t-16 -4h-4h-40h-4q-8 -1 -14.5 1.5t-11.5 6.5q0 1 -0.5 1t-1.5 1v0v1q-1 0 -1.5 1t-1.5 2v1zM334 484q-14 -8 -27.5 -14.5
t-25.5 -14.5q-7 -4 -13 -9t-10 -9q-5 -5 -7.5 -9.5t-3.5 -9.5q-1 -2 -1.5 -4.5t-0.5 -4.5q1 -2 2 -4.5t2 -4.5q1 -3 3.5 -4.5t6.5 -3.5v0h1v0v0q10 2 19 6.5t18 9.5q10 6 16.5 13.5t8.5 17.5l12 45v0z" />
    <glyph glyph-name="guillemotleft" unicode="&#xab;" horiz-adv-x="300" 
d="M190 331l6 3h40q2 -1 4 -1h4q2 -1 4.5 -3t3.5 -5q2 -3 2 -6.5t-1 -7.5v-2t-1 -1q0 -1 -0.5 -2t-1.5 -2q0 -1 -0.5 -2t-1.5 -1q-1 -1 -1.5 -2t-1.5 -2l-4 -3l-4 -4l-4 -4l-4 -4q-7 -8 -13.5 -14.5l-12.5 -12.5t-9 -11t-5 -10q-1 -6 -1 -15t2 -20t6.5 -24t8.5 -27
q1 -2 1 -4v-4v-2.5v-3.5v-0.5v-1.5q-1 -4 -3.5 -8t-5.5 -6q-4 -3 -7 -4.5t-6 -1.5l-40 1q-3 -1 -5 0l-4 2q-3 2 -4.5 4t-3.5 5l-34 81l-1 4v6l-1 5l2 6l2 6q0 1 1.5 2.5t2.5 3.5l2 7l5 6l84 80v0v0zM295 339l6 3h40q2 -1 4 -1h4q3 -1 5 -3.5t3 -5.5q2 -3 2.5 -6t-1.5 -7
q0 -1 -0.5 -2l-0.5 -1q-1 -1 -1.5 -2t-1.5 -2q0 -1 -0.5 -2t-1.5 -1q-1 -1 -1.5 -2t-1.5 -2q-2 -3 -4.5 -5.5l-4.5 -4.5l-2.5 -2.5l-2.5 -2.5t-2.5 -2t-2.5 -2q-6 -7 -12 -13l-11 -11q-6 -6 -9 -10.5t-4 -9.5q-2 -6 -2 -15t3 -20q2 -11 6 -24t8 -28v-2t1 -2v-2v-2v-1.5v-1.5
t0.5 -2.5t-0.5 -2.5q-1 -4 -3.5 -7.5t-4.5 -5.5q-4 -3 -7.5 -4.5t-6.5 -1.5l-40 1l-5 1l-3 2l-5 4l-3 5l-33 80l-2 4v6v5l1 6l2 6q0 1 1.5 2.5t2.5 3.5l2 7l5 6l84 80v0v0z" />
    <glyph glyph-name="logicalnot" unicode="&#xac;" 
 />
    <glyph glyph-name="sfthyphen" unicode="&#xad;" horiz-adv-x="540" 
 />
    <glyph glyph-name="registered" unicode="&#xae;" horiz-adv-x="804" 
d="M609 654q66 -5 116 -30t83 -72q32 -46 41.5 -102t-4.5 -121l-1 -2v-2l-1 -3l-1 -3q-17 -65 -51 -118t-86 -97q-52 -43 -104 -70t-102 -36q-7 -2 -14 -2.5t-14 -1.5t-14.5 -1.5t-13.5 -0.5h-40h-6h-6q-73 3 -126.5 27.5t-86.5 71.5t-40.5 104.5t11.5 125.5
q17 65 53.5 122.5t92.5 107.5t124.5 75.5t148.5 25.5l1 2h40v0zM569 612q-24 -3 -48.5 -9t-48.5 -15q-24 -10 -48.5 -23.5t-48.5 -30.5q-55 -39 -92 -92t-55 -121q-16 -59 -8 -110t40 -95q29 -40 69.5 -61.5t92.5 -24.5q47 3 94.5 22t95.5 54q53 38 88.5 91.5t54.5 122.5
l1 5l1 5l1 4l1 4q11 49 6 90t-25 74t-45.5 56.5t-56.5 36.5q-10 4 -20 7t-21 5q-7 2 -13.5 3t-14.5 1v1zM266 142l6 23q1 -1 2 -1t3 1h2.5h2.5h4.5h4.5l1 1h2q6 -1 11 0t9 4q3 2 6 7t6 14q1 4 3 9t3 11l64 238q5 16 5.5 28t-1.5 19q-3 7 -12 10.5t-24 3.5l7 25h40h166
q37 -2 61 -10t36 -24t15.5 -33.5t-1.5 -36.5v-1l-1 -1q-5 -19 -16 -35t-27 -31t-34.5 -23.5t-40.5 -10.5q11 -6 19 -14t12 -19q5 -11 8 -23t4 -24q1 -2 1 -4.5v-4.5t0.5 -4t1.5 -4q1 -13 4 -24.5t7 -21.5t12 -15.5t20 -7.5l-5 -21q-5 -2 -9.5 -3t-8.5 -1q-5 -1 -9 -1h-8
l-40 1q-22 -1 -36 4.5t-19 17.5q-6 11 -10 26.5t-6 34.5q-1 2 -1 4.5v5.5v3.5v3.5v2v2q-1 3 -1.5 6t-1.5 6q0 2 -0.5 3.5t-0.5 2.5q0 2 -0.5 3.5t-0.5 2.5q-4 14 -9 24t-13 17q-3 3 -7 5.5t-9 3.5l-27 -103q-4 -16 -6 -25t-1 -12q1 -4 5 -6t12 -3q2 -1 4.5 -1.5t5.5 -0.5
q1 0 1.5 -0.5t1.5 -0.5q2 0 4.5 -0.5t5.5 -0.5l-5 -21h-40h-158v0v0zM471 346q3 -2 5 -2.5t4 -0.5q1 0 1.5 -0.5t1.5 -0.5q15 2 27.5 6t21.5 11q13 9 22 19.5t15 22.5q2 2 3 5l2 6q0 2 0.5 3l1.5 3q1 1 1.5 2.5t0.5 2.5q5 18 3.5 31.5t-8.5 22.5t-16.5 15.5t-20.5 9.5h-1.5
t-0.5 1q-3 -1 -5.5 -1.5t-4.5 -1.5q-7 -3 -10 -6t-5 -8l-38 -140v0v0z" />
    <glyph glyph-name="overstore" unicode="&#xaf;" 
 />
    <glyph glyph-name="glyph113" unicode="&#xb0;" 
 />
    <glyph glyph-name="plusminus" unicode="&#xb1;" horiz-adv-x="599" 
 />
    <glyph glyph-name="twosuperior" unicode="&#xb2;" 
 />
    <glyph glyph-name="threesuperior" unicode="&#xb3;" 
 />
    <glyph glyph-name="acute" unicode="&#xb4;" horiz-adv-x="402" 
d="M212 528l189 118q6 2 12 5t12 5q2 1 4.5 1.5t5.5 1.5q2 0 4.5 0.5t4.5 0.5l40 1q8 -1 13 -3t8 -7q2 -2 3 -4.5t2 -4.5v-5.5v-4.5v-1l-1 -1q-1 -5 -3 -8.5t-5 -6.5q-4 -4 -7.5 -6.5t-8.5 -4.5l-214 -92q-4 -4 -8.5 -5.5t-7.5 -3.5q-4 -1 -7 -1.5t-5 -0.5l-40 1l-7 1l-1 5
q0 1 1.5 2.5t3.5 4.5l5 5t7 6v2v0z" />
    <glyph glyph-name="mu" unicode="&#xb5;" horiz-adv-x="599" 
 />
    <glyph glyph-name="paragraph" unicode="&#xb6;" horiz-adv-x="662" 
d="M679 566l-187 -700q-2 -7 -5.5 -12t-8.5 -9t-10.5 -6t-10.5 -2h-40q-5 0 -9.5 1.5t-7.5 5.5q-4 4 -4.5 9t1.5 13l190 709h-23l-190 -709q-2 -7 -5.5 -12t-8.5 -9t-10.5 -6t-10.5 -2h-40q-5 0 -9.5 1.5t-7.5 5.5q-4 4 -4.5 9t1.5 13l93 347q-74 4 -124.5 22t-78.5 49
t-39 64.5t-6 70.5q0 1 0.5 2t0.5 3q0 1 0.5 2.5t0.5 2.5q0 2 0.5 3l1.5 3q0 1 0.5 2.5t0.5 2.5q10 36 32 69t58 61q36 29 78 43.5t91 14.5l347 2h40q7 -2 11.5 -4.5t6.5 -7.5q3 -4 4 -9.5t-1 -11.5q-1 -6 -4.5 -11.5t-8.5 -10.5t-11 -7.5t-14 -2.5l-40 1h-39v0zM386 265
l83 310q-46 -2 -81.5 -12t-62.5 -29q-28 -19 -45.5 -42.5t-25.5 -49.5q-1 -4 -1.5 -7.5t-1.5 -7.5q0 -2 -0.5 -4t-0.5 -3q0 -2 -0.5 -3.5t-0.5 -3.5q-1 -27 9 -51.5t32 -47.5q17 -17 40.5 -29.5t55.5 -20.5v1z" />
    <glyph glyph-name="middot" unicode="&#xb7;" 
 />
    <glyph glyph-name="cedilla" unicode="&#xb8;" 
d="M151 -55h2h2h1h2h2h2h1h2q29 1 48 -4t29 -15q9 -10 13 -21t2 -24l-1 -2l-1 -3q-2 -9 -7 -17.5t-12 -16.5t-15 -13.5t-17 -9.5q-2 -1 -3.5 -1.5t-3.5 -1.5q-1 0 -2.5 -0.5t-3.5 -1.5t-3.5 -1.5t-3.5 -1.5q-2 0 -3.5 -0.5t-3.5 -1.5q-3 -1 -6 -1.5t-6 -1.5q-4 -1 -7 -1.5
t-6 -1.5q-7 -1 -13 -1.5t-12 -0.5h-40q-16 0 -29.5 2.5t-24.5 8.5q-10 6 -16 12t-6 13v3v2l2 4l2 4q2 2 4.5 4t4.5 4q3 2 6 3.5t4 2.5q1 0 2 0.5t2 0.5h1h2h40h2h2l1 -0.5t2 -0.5l5 -5q0 -1 0.5 -1.5l1.5 -1.5t1.5 -2t0.5 -2q1 -1 2 -2.5t2 -2.5q0 -1 1 -1.5t1 -1.5
q2 -4 6 -7.5t9 -6.5q2 -2 4 -2.5t5 -1.5h2h2q0 1 1 1h2q9 2 16 6t12 9q5 6 9 12t6 12l1 4v3q2 9 -1 17t-11 16q-4 5 -11.5 8.5t-16.5 5.5l-2 -1l-5 -1h-7.5t-7.5 -1h-2.5t-3.5 -1h-2.5h-2.5h-40q-4 0 -6.5 0.5t-3.5 2.5q-1 1 -0.5 3.5t4.5 6.5l77 79h40h31l-56 -63v0v0z" />
    <glyph glyph-name="onesuperior" unicode="&#xb9;" 
 />
    <glyph glyph-name="ordmasculine" unicode="&#xba;" horiz-adv-x="379" 
d="M142 323h307l-11 -40h-40h-307l11 40h40v0v0zM153 512q8 32 26.5 57.5t46.5 41.5q29 17 58 25.5t58 9.5l40 1q29 -1 53.5 -9.5t43.5 -25.5q20 -17 24.5 -42.5t-4.5 -59.5q-9 -35 -28.5 -62t-48.5 -46q-28 -19 -56.5 -29t-57.5 -11l-40 1h-4h-2q-28 -1 -51.5 8t-42.5 27
q-18 18 -22 46.5t6 65.5l1 2v0zM248 512q-9 -33 -7.5 -57t12.5 -39q8 -11 19 -18.5t22 -11.5q7 2 14 4.5t14 5.5q6 4 13 8.5t14 9.5q19 15 32.5 37t20.5 51l1 5l2 5q8 28 5 49t-14 34q-8 10 -18.5 16.5t-23.5 10.5q-4 -1 -8.5 -2.5t-9.5 -3.5q-9 -3 -17.5 -8t-18.5 -12
q-18 -13 -30.5 -32t-19.5 -45l-2 -4v-3v0z" />
    <glyph glyph-name="guillemotright" unicode="&#xbb;" horiz-adv-x="300" 
d="M197 323l36 -71q2 -8 2.5 -13.5t1.5 -9.5t-0.5 -7.5t-3.5 -6.5l-5 -5l-8 -6l-74 -70l-5 -6l-5 -4q-3 -2 -5.5 -3.5t-4.5 -2.5t-4 -1h-4l-40 1q-4 -2 -6.5 -1t-4.5 4q-1 2 -1 5.5t1 7.5q0 2 1 4.5t3 5.5q2 2 4 5t5 6q13 12 22.5 22.5t18.5 19.5q8 9 12.5 16t5.5 13
q1 3 1 7t-1 8q-1 5 -1.5 10t-2.5 11q0 1 -0.5 2l-1.5 3q-1 1 -1.5 2.5t-0.5 2.5q-1 2 -2 4.5t-2 4.5t-2 4.5t-3 4.5q0 1 -0.5 2t-1.5 2l-0.5 1t-1.5 2q-1 2 -2 4.5t-1 4.5v4.5t1 4.5l3.5 7t4.5 5q4 2 7.5 3.5t7.5 1.5l40 1q2 -1 3 -1t2 -1q1 0 2.5 -0.5t2.5 -1.5
q2 -1 4.5 -3t3.5 -5l-40 1v1h40v0zM307 323l36 -71q2 -8 2.5 -13.5t1.5 -9.5t-0.5 -7.5t-3.5 -6.5l-5 -5l-8 -6l-74 -70l-5 -6l-5 -4q-3 -2 -5.5 -3.5t-4.5 -2.5t-4 -1h-4l-40 1q-4 -2 -6.5 -1t-3.5 4q-1 2 -2 5t0 7q1 2 2 4.5t3 5.5t4.5 6t5.5 6q12 12 21.5 22.5t18.5 19.5
q8 9 12.5 16t5.5 13q1 3 1 7t-1 8q-1 5 -1.5 10t-2.5 11q0 1 -0.5 2t-1.5 2t-1.5 2t-0.5 2t-0.5 2t-0.5 3q0 1 -0.5 2.5t-0.5 2.5t-1 1.5t-1 1.5q-1 2 -2 3.5t-2 2.5q-1 2 -1.5 4.5t-2.5 3.5q-1 2 -2 4.5t-1 4.5q-1 2 -1 4.5t1 4.5l3.5 7t4.5 5q4 2 7.5 3.5t7.5 1.5l40 1
q2 -1 3 -1t2 -1q1 0 2.5 -0.5t2.5 -1.5q2 -1 4.5 -3t3.5 -5l-40 1v1h40v0z" />
    <glyph glyph-name="onequarter" unicode="&#xbc;" 
 />
    <glyph glyph-name="onehalf" unicode="&#xbd;" horiz-adv-x="788" 
 />
    <glyph glyph-name="threequarters" unicode="&#xbe;" 
 />
    <glyph glyph-name="questiondown" unicode="&#xbf;" horiz-adv-x="339" 
d="M324 268v0l-2 -96l-1 -1v-1v-2v0q-1 -5 -3.5 -9t-5.5 -8q-2 -3 -4.5 -5.5l-5.5 -5.5l-2.5 -2.5l-2.5 -2.5q-7 -7 -17 -13.5t-21 -13.5q-6 -4 -12 -7.5t-11 -6.5q-6 -4 -12 -7.5t-12 -7.5q-16 -10 -31 -21t-29 -23t-26 -24.5t-20 -26.5q-1 -2 -2 -3.5t-2 -3.5q-1 -1 -2 -3
l-2 -4t-1.5 -4t-0.5 -4q-1 -2 -1.5 -4t-1.5 -4q0 -2 -0.5 -4t-1.5 -4t-1 -4.5v-5.5q-2 -14 1 -27.5t11 -25.5q5 -8 12.5 -13.5t17.5 -8.5q4 2 7.5 4.5t7.5 5.5q8 7 15.5 14t14.5 15q6 7 11.5 13t10.5 12l7.5 7.5t6.5 5.5q2 1 3.5 1.5t3.5 1.5h40q3 1 6 0.5t5 -2.5
q3 -2 4.5 -6.5t2.5 -11.5q2 -8 2.5 -15t0.5 -13v-12t-2 -11q-4 -12 -10.5 -20.5t-16.5 -12.5q-10 -5 -23.5 -7.5t-30.5 -2.5h-5l-4 -1h-40h-6h-4q-38 0 -65.5 12t-44.5 35q-16 24 -20 52t4 60l2 6t2 5q1 3 2 5.5t2 5.5q2 5 5 11t7 12q3 7 7 13.5t9 13.5q5 6 10.5 12.5
t11.5 13.5q12 13 26.5 25t31.5 24l10 6l10 6q3 2 5.5 3.5t5.5 3.5q3 1 6 3t6 3q14 8 26.5 16.5t24.5 17.5q11 9 19 20t11 23q1 2 1.5 4t1.5 4v4v4l-1 2l1 2v3l1 3l3.5 7t4.5 6q2 2 4.5 3.5t6.5 2.5l40 1q1 -1 2 -1h2l1 -0.5t2 -1.5t1.5 -4t-0.5 -6v1zM264 402q4 11 9.5 20.5
t14.5 16.5q10 6 19 9.5t18 3.5l40 1q9 -1 16.5 -4t12.5 -10q6 -7 7.5 -16.5t-2.5 -22.5q-4 -15 -10.5 -25.5t-16.5 -18.5q-6 -5 -12 -8.5t-12 -4.5q-3 -1 -6 -1.5t-6 -0.5l-40 1q-9 -2 -16.5 2t-12.5 11q-5 8 -6 19t3 26v2v0z" />
    <glyph glyph-name="Agrave" unicode="&#xc0;" horiz-adv-x="678" 
d="M309 220q-3 -1 -5.5 -1.5t-5.5 -1.5t-5.5 -1.5t-5.5 -1.5q-4 -1 -8 -4.5t-8 -9.5l-4 -6t-4 -7l-66 -100q-3 -5 -4.5 -9t-3.5 -7q-2 -4 -3 -7t-1 -5q-3 -10 -1 -17t9 -9q7 -3 15 -4.5t17 -1.5l3 1h3q8 -2 15 -2.5t14 -2.5q6 -1 8.5 -5t0.5 -12q-1 -4 -4 -5.5t-8 -2.5
q-5 -2 -11 -2.5t-14 -0.5h-40h-5.5h-5.5q-2 1 -5 1h-6q-5 1 -11 1h-12l-1 1h-1q-1 0 -2.5 0.5t-2.5 0.5h-1.5h-1.5q-2 0 -3.5 0.5t-3.5 0.5h-2t-1 -1h-2h-2q-5 0 -10.5 -0.5t-10.5 -1.5h-2h-2h-4.5t-5.5 -1h-5.5h-4.5h-4.5t-4.5 -1h-4h-4h-40q-7 0 -12 0.5t-9 2.5
q-2 1 -3.5 2.5t-0.5 5.5q2 6 4 9.5t5 4.5q2 1 7 1.5t10 1.5h7t8 1q5 0 10 1.5t10 3.5t11 5.5t13 9.5q5 5 12 13.5t14 19.5l346 529q11 16 18.5 24.5t13.5 7.5l40 1q5 -2 7.5 -8.5t2.5 -18.5l77 -533q0 -13 2.5 -21.5t6.5 -13.5q2 -6 6.5 -9.5t9.5 -5.5q1 -1 2.5 -1.5
t2.5 -1.5q2 -1 4.5 -1.5t5.5 -0.5q5 -1 8.5 -1h7.5q5 -1 8.5 -1.5t7.5 -1.5q3 -1 4 -4.5t-1 -9.5q-1 -4 -4 -5.5t-8 -2.5q-5 -2 -11.5 -2.5t-14.5 -0.5h-40h-5.5h-5.5q-3 1 -6 1h-6t-7.5 0.5t-8.5 0.5h-4h-4l-6 1h-6q-1 0 -2 0.5t-2 0.5h-1.5h-0.5q-2 0 -3.5 0.5t-2.5 0.5
h-2t-2 -1h-2h-2q-6 0 -12 -0.5t-12 -1.5h-5.5h-4.5h-5.5t-4.5 -1h-8.5h-9.5h-4t-4 -1h-4h-4h-40q-10 0 -18 0.5t-13 2.5q-5 1 -8 2.5t-2 5.5q2 7 6 11t11 5q6 2 13 2.5t14 0.5l2 1h3q8 -1 16.5 0t16.5 3q7 2 12 7.5t8 15.5q1 3 1.5 7.5t0.5 9.5v10.5t-2 12.5l-19 105l-1 4v5
q-1 4 -3.5 6.5t-5.5 3.5q-4 1 -12 1.5t-20 0.5l-103 2v0zM322 260h109q6 -2 9 -1t4 4q1 2 0 10.5t-3 23.5l-20 134l-91 -140q-5 -10 -8.5 -16.5t-4.5 -9.5q-1 -2 0 -3.5t5 -2.5v1zM587 693l-164 94q-4 1 -7 3t-5 6q-1 4 -1.5 8t0.5 8q2 5 5 10.5t8 9.5q5 5 10.5 7t12.5 2
l40 1q4 -1 8.5 -2t8.5 -3t8.5 -5t9.5 -7l125 -116l2 -4l4 -2l1 -6l1 -4l-3 -6q-1 -2 -2 -2.5t-2 -0.5h-2h-2l-40 1q-2 -1 -4.5 -1t-4.5 1q-1 0 -2 1l-1 1l-2 2l-2 2v2v0z" />
    <glyph glyph-name="Aacute" unicode="&#xc1;" horiz-adv-x="678" 
d="M309 220q-3 -1 -5.5 -1.5t-5.5 -1.5t-5.5 -1.5t-5.5 -1.5q-4 -1 -8 -4.5t-8 -9.5l-4 -6t-4 -7l-66 -100q-3 -5 -4.5 -9t-3.5 -7q-2 -4 -3 -7t-1 -5q-3 -10 -1 -17t9 -9q7 -3 15 -4.5t17 -1.5l3 1h3q8 -2 15 -2.5t14 -2.5q6 -1 8.5 -5t0.5 -12q-1 -4 -4 -5.5t-8 -2.5
q-5 -2 -11 -2.5t-14 -0.5h-40h-5.5h-5.5q-2 1 -5 1h-6q-5 1 -11 1h-12l-1 1h-1q-1 0 -2.5 0.5t-2.5 0.5h-1.5h-1.5q-2 0 -3.5 0.5t-3.5 0.5h-2t-1 -1h-2h-2q-5 0 -10.5 -0.5t-10.5 -1.5h-2h-2h-4.5t-5.5 -1h-5.5h-4.5h-4.5t-4.5 -1h-4h-4h-40q-7 0 -12 0.5t-9 2.5
q-2 1 -3.5 2.5t-0.5 5.5q2 6 4 9.5t5 4.5q2 1 7 1.5t10 1.5h7t8 1q5 0 10 1.5t10 3.5t11 5.5t13 9.5q5 5 12 13.5t14 19.5l346 529q11 16 18.5 24.5t13.5 7.5l40 1q5 -2 7.5 -8.5t2.5 -18.5l77 -533q0 -13 2.5 -21.5t6.5 -13.5q2 -6 6.5 -9.5t9.5 -5.5q1 -1 2.5 -1.5
t2.5 -1.5q2 -1 4.5 -1.5t5.5 -0.5q5 -1 8.5 -1h7.5q5 -1 8.5 -1.5t7.5 -1.5q3 -1 4 -4.5t-1 -9.5q-1 -4 -4 -5.5t-8 -2.5q-5 -2 -11.5 -2.5t-14.5 -0.5h-40h-5.5h-5.5q-3 1 -6 1h-6t-7.5 0.5t-8.5 0.5h-4h-4l-6 1h-6q-1 0 -2 0.5t-2 0.5h-1.5h-0.5q-2 0 -3.5 0.5t-2.5 0.5
h-2t-2 -1h-2h-2q-6 0 -12 -0.5t-12 -1.5h-5.5h-4.5h-5.5t-4.5 -1h-8.5h-9.5h-4t-4 -1h-4h-4h-40q-10 0 -18 0.5t-13 2.5q-5 1 -8 2.5t-2 5.5q2 7 6 11t11 5q6 2 13 2.5t14 0.5l2 1h3q8 -1 16.5 0t16.5 3q7 2 12 7.5t8 15.5q1 3 1.5 7.5t0.5 9.5v10.5t-2 12.5l-19 105l-1 4v5
q-1 4 -3.5 6.5t-5.5 3.5q-4 1 -12 1.5t-20 0.5l-103 2v0zM322 260h109q6 -2 9 -1t4 4q1 2 0 10.5t-3 23.5l-20 134l-91 -140q-5 -10 -8.5 -16.5t-4.5 -9.5q-1 -2 0 -3.5t5 -2.5v1zM425 709l190 118q6 2 12 5t12 5q5 2 10 3t9 1l40 1q8 -1 12.5 -3t8.5 -7q2 -2 2.5 -4.5
t1.5 -4.5q1 -3 1 -5.5v-4.5l-1 -1v-1q-1 -5 -3.5 -8.5t-4.5 -6.5q-3 -4 -7 -6.5t-9 -4.5l-214 -92q-5 -4 -9 -5.5t-8 -3.5q-3 -1 -6 -1.5t-5 -0.5l-40 1l-7 1l-1 5q0 -1 0 -0.5t1 1.5q0 1 0.5 2.5t2.5 3.5l5 5t7 6v2v0z" />
    <glyph glyph-name="Acircumflex" unicode="&#xc2;" horiz-adv-x="678" 
d="M309 220q-3 -1 -5.5 -1.5t-5.5 -1.5t-5.5 -1.5t-5.5 -1.5q-4 -1 -8 -4.5t-8 -9.5l-4 -6t-4 -7l-66 -100q-3 -5 -4.5 -9t-3.5 -7q-2 -4 -3 -7t-1 -5q-3 -10 -1 -17t9 -9q7 -3 15 -4.5t17 -1.5l3 1h3q8 -2 15 -2.5t14 -2.5q6 -1 8.5 -5t0.5 -12q-1 -4 -4 -5.5t-8 -2.5
q-5 -2 -11 -2.5t-14 -0.5h-40h-5.5h-5.5q-2 1 -5 1h-6q-5 1 -11 1h-12l-1 1h-1q-1 0 -2.5 0.5t-2.5 0.5h-1.5h-1.5q-2 0 -3.5 0.5t-3.5 0.5h-2t-1 -1h-2h-2q-5 0 -10.5 -0.5t-10.5 -1.5h-2h-2h-4.5t-5.5 -1h-5.5h-4.5h-4.5t-4.5 -1h-4h-4h-40q-7 0 -12 0.5t-9 2.5
q-2 1 -3.5 2.5t-0.5 5.5q2 6 4 9.5t5 4.5q2 1 7 1.5t10 1.5h7t8 1q5 0 10 1.5t10 3.5t11 5.5t13 9.5q5 5 12 13.5t14 19.5l346 529q11 16 18.5 24.5t13.5 7.5l40 1q5 -2 7.5 -8.5t2.5 -18.5l77 -533q0 -13 2.5 -21.5t6.5 -13.5q2 -6 6.5 -9.5t9.5 -5.5q1 -1 2.5 -1.5
t2.5 -1.5q2 -1 4.5 -1.5t5.5 -0.5q5 -1 8.5 -1h7.5q5 -1 8.5 -1.5t7.5 -1.5q3 -1 4 -4.5t-1 -9.5q-1 -4 -4 -5.5t-8 -2.5q-5 -2 -11.5 -2.5t-14.5 -0.5h-40h-5.5h-5.5q-3 1 -6 1h-6t-7.5 0.5t-8.5 0.5h-4h-4l-6 1h-6q-1 0 -2 0.5t-2 0.5h-1.5h-0.5q-2 0 -3.5 0.5t-2.5 0.5
h-2t-2 -1h-2h-2q-6 0 -12 -0.5t-12 -1.5h-5.5h-4.5h-5.5t-4.5 -1h-8.5h-9.5h-4t-4 -1h-4h-4h-40q-10 0 -18 0.5t-13 2.5q-5 1 -8 2.5t-2 5.5q2 7 6 11t11 5q6 2 13 2.5t14 0.5l2 1h3q8 -1 16.5 0t16.5 3q7 2 12 7.5t8 15.5q1 3 1.5 7.5t0.5 9.5v10.5t-2 12.5l-19 105l-1 4v5
q-1 4 -3.5 6.5t-5.5 3.5q-4 1 -12 1.5t-20 0.5l-103 2v0zM322 260h109q6 -2 9 -1t4 4q1 2 0 10.5t-3 23.5l-20 134l-91 -140q-5 -10 -8.5 -16.5t-4.5 -9.5q-1 -2 0 -3.5t5 -2.5v1zM516 843q3 0 5.5 1t4.5 2q2 0 4 1l4 2q4 2 7.5 2.5t7.5 0.5l40 1q1 -1 2 -1h2q2 -1 4.5 -1.5
t3.5 -1.5q3 -1 5.5 -3t4.5 -5l71 -117q5 -11 6.5 -18.5t-1.5 -12.5q-2 -4 -5 -7t-8 -3l-40 1h-3l-3 1l-5 3l-5 4l-73 79v-1v0l-113 -69q-6 -5 -11 -7t-9 -4q-4 -1 -7.5 -2t-5.5 -1l-40 1l-7 2q-1 0 -1.5 1.5t0.5 3.5v0.5t1 1.5q0 1 0.5 3t2.5 4t4 5t5 6l152 128v0v0z" />
    <glyph glyph-name="Atilde" unicode="&#xc3;" horiz-adv-x="678" 
d="M309 220q-3 -1 -5.5 -1.5t-5.5 -1.5t-5.5 -1.5t-5.5 -1.5q-4 -1 -8 -4.5t-8 -9.5l-4 -6t-4 -7l-66 -100q-3 -5 -4.5 -9t-3.5 -7q-2 -4 -3 -7t-1 -5q-3 -10 -1 -17t9 -9q7 -3 15 -4.5t17 -1.5l3 1h3q8 -2 15 -2.5t14 -2.5q6 -1 8.5 -5t0.5 -12q-1 -4 -4 -5.5t-8 -2.5
q-5 -2 -11 -2.5t-14 -0.5h-40h-5.5h-5.5q-2 1 -5 1h-6q-5 1 -11 1h-12l-1 1h-1q-1 0 -2.5 0.5t-2.5 0.5h-1.5h-1.5q-2 0 -3.5 0.5t-3.5 0.5h-2t-1 -1h-2h-2q-5 0 -10.5 -0.5t-10.5 -1.5h-2h-2h-4.5t-5.5 -1h-5.5h-4.5h-4.5t-4.5 -1h-4h-4h-40q-7 0 -12 0.5t-9 2.5
q-2 1 -3.5 2.5t-0.5 5.5q2 6 4 9.5t5 4.5q2 1 7 1.5t10 1.5h7t8 1q5 0 10 1.5t10 3.5t11 5.5t13 9.5q5 5 12 13.5t14 19.5l346 529q11 16 18.5 24.5t13.5 7.5l40 1q5 -2 7.5 -8.5t2.5 -18.5l77 -533q0 -13 2.5 -21.5t6.5 -13.5q2 -6 6.5 -9.5t9.5 -5.5q1 -1 2.5 -1.5
t2.5 -1.5q2 -1 4.5 -1.5t5.5 -0.5q5 -1 8.5 -1h7.5q5 -1 8.5 -1.5t7.5 -1.5q3 -1 4 -4.5t-1 -9.5q-1 -4 -4 -5.5t-8 -2.5q-5 -2 -11.5 -2.5t-14.5 -0.5h-40h-5.5h-5.5q-3 1 -6 1h-6t-7.5 0.5t-8.5 0.5h-4h-4l-6 1h-6q-1 0 -2 0.5t-2 0.5h-1.5h-0.5q-2 0 -3.5 0.5t-2.5 0.5
h-2t-2 -1h-2h-2q-6 0 -12 -0.5t-12 -1.5h-5.5h-4.5h-5.5t-4.5 -1h-8.5h-9.5h-4t-4 -1h-4h-4h-40q-10 0 -18 0.5t-13 2.5q-5 1 -8 2.5t-2 5.5q2 7 6 11t11 5q6 2 13 2.5t14 0.5l2 1h3q8 -1 16.5 0t16.5 3q7 2 12 7.5t8 15.5q1 3 1.5 7.5t0.5 9.5v10.5t-2 12.5l-19 105l-1 4v5
q-1 4 -3.5 6.5t-5.5 3.5q-4 1 -12 1.5t-20 0.5l-103 2v0zM322 260h109q6 -2 9 -1t4 4q1 2 0 10.5t-3 23.5l-20 134l-91 -140q-5 -10 -8.5 -16.5t-4.5 -9.5q-1 -2 0 -3.5t5 -2.5v1zM371 740q11 14 21.5 26t21.5 21t20.5 15t18.5 10q4 1 7.5 1.5t6.5 1.5q2 0 3.5 0.5t3.5 0.5
q2 1 4 1h3l40 1q8 -1 15.5 -3t14.5 -5t13 -7.5t11 -9.5q13 -12 24 -20.5t20 -13.5q3 -1 4.5 -2t3.5 -2q1 0 2 -0.5t2 -0.5l0.5 0.5l0.5 0.5l0.5 0.5l0.5 0.5q2 2 4.5 3.5t5.5 3.5l4.5 4.5l4.5 4.5l1 3l1 1l2 1l1 2q7 6 12.5 10t9.5 5l40 1q4 1 6 -0.5t0 -5.5l-1 -4l-4 -6
l-1.5 -3t-0.5 -2l-1.5 -3t-1.5 -2q-1 -3 -3 -5.5t-4 -4.5q-7 -9 -16.5 -17t-21.5 -16q-11 -7 -23.5 -11t-26.5 -4l-40 1q-7 -1 -14.5 0.5t-15.5 4.5t-15 8.5t-14 12.5q-11 11 -20 18.5t-17 11.5q-1 1 -2.5 1.5t-3.5 1.5q-1 0 -2 0.5t-2 1.5q-1 -1 -2.5 -1.5t-2.5 -1.5
q-2 -1 -3 -2t-3 -2q-7 -6 -14.5 -13t-13.5 -15q-8 -10 -14 -15.5t-11 -7.5l-40 1q-4 -2 -5 0t0 8v1t1 1v2v2q1 2 2.5 4t2.5 4v2v0z" />
    <glyph glyph-name="Adieresis" unicode="&#xc4;" horiz-adv-x="678" 
d="M309 220q-3 -1 -5.5 -1.5t-5.5 -1.5t-5.5 -1.5t-5.5 -1.5q-4 -1 -8 -4.5t-8 -9.5l-4 -6t-4 -7l-66 -100q-3 -5 -4.5 -9t-3.5 -7q-2 -4 -3 -7t-1 -5q-3 -10 -1 -17t9 -9q7 -3 15 -4.5t17 -1.5l3 1h3q8 -2 15 -2.5t14 -2.5q6 -1 8.5 -5t0.5 -12q-1 -4 -4 -5.5t-8 -2.5
q-5 -2 -11 -2.5t-14 -0.5h-40h-5.5h-5.5q-2 1 -5 1h-6q-5 1 -11 1h-12l-1 1h-1q-1 0 -2.5 0.5t-2.5 0.5h-1.5h-1.5q-2 0 -3.5 0.5t-3.5 0.5h-2t-1 -1h-2h-2q-5 0 -10.5 -0.5t-10.5 -1.5h-2h-2h-4.5t-5.5 -1h-5.5h-4.5h-4.5t-4.5 -1h-4h-4h-40q-7 0 -12 0.5t-9 2.5
q-2 1 -3.5 2.5t-0.5 5.5q2 6 4 9.5t5 4.5q2 1 7 1.5t10 1.5h7t8 1q5 0 10 1.5t10 3.5t11 5.5t13 9.5q5 5 12 13.5t14 19.5l346 529q11 16 18.5 24.5t13.5 7.5l40 1q5 -2 7.5 -8.5t2.5 -18.5l77 -533q0 -13 2.5 -21.5t6.5 -13.5q2 -6 6.5 -9.5t9.5 -5.5q1 -1 2.5 -1.5
t2.5 -1.5q2 -1 4.5 -1.5t5.5 -0.5q5 -1 8.5 -1h7.5q5 -1 8.5 -1.5t7.5 -1.5q3 -1 4 -4.5t-1 -9.5q-1 -4 -4 -5.5t-8 -2.5q-5 -2 -11.5 -2.5t-14.5 -0.5h-40h-5.5h-5.5q-3 1 -6 1h-6t-7.5 0.5t-8.5 0.5h-4h-4l-6 1h-6q-1 0 -2 0.5t-2 0.5h-1.5h-0.5q-2 0 -3.5 0.5t-2.5 0.5
h-2t-2 -1h-2h-2q-6 0 -12 -0.5t-12 -1.5h-5.5h-4.5h-5.5t-4.5 -1h-8.5h-9.5h-4t-4 -1h-4h-4h-40q-10 0 -18 0.5t-13 2.5q-5 1 -8 2.5t-2 5.5q2 7 6 11t11 5q6 2 13 2.5t14 0.5l2 1h3q8 -1 16.5 0t16.5 3q7 2 12 7.5t8 15.5q1 3 1.5 7.5t0.5 9.5v10.5t-2 12.5l-19 105l-1 4v5
q-1 4 -3.5 6.5t-5.5 3.5q-4 1 -12 1.5t-20 0.5l-103 2v0zM322 260h109q6 -2 9 -1t4 4q1 2 0 10.5t-3 23.5l-20 134l-91 -140q-5 -10 -8.5 -16.5t-4.5 -9.5q-1 -2 0 -3.5t5 -2.5v1zM391 756q3 9 8 16.5t14 13.5q7 4 12.5 6.5t11.5 4.5q3 0 6 0.5t6 0.5l40 1q8 -1 14.5 -4
t10.5 -8q5 -5 6 -13.5t-2 -19.5q-4 -13 -10 -23t-14 -17t-16.5 -10t-16.5 -3l-40 1q-9 -2 -15.5 1t-11.5 10q-6 7 -6.5 17.5t3.5 23.5v2v0zM572 756q3 9 8 16.5t14 13.5q7 4 12.5 6.5t11.5 4.5q3 0 6 0.5t6 0.5l40 1q8 -1 14.5 -4t10.5 -8q5 -5 6 -13.5t-2 -19.5
q-4 -13 -10 -23t-14 -17t-16.5 -10t-16.5 -3l-40 1q-9 -2 -15.5 1t-11.5 10q-6 7 -6.5 17.5t3.5 23.5v2v0z" />
    <glyph glyph-name="Aring" unicode="&#xc5;" horiz-adv-x="678" 
d="M309 220q-3 -1 -5.5 -1.5t-5.5 -1.5t-5.5 -1.5t-5.5 -1.5q-4 -1 -8 -4.5t-8 -9.5l-4 -6t-4 -7l-66 -100q-3 -5 -4.5 -9t-3.5 -7q-2 -4 -3 -7t-1 -5q-3 -10 -1 -17t9 -9q7 -3 15 -4.5t17 -1.5l3 1h3q8 -2 15 -2.5t14 -2.5q6 -1 8.5 -5t0.5 -12q-1 -4 -4 -5.5t-8 -2.5
q-5 -2 -11 -2.5t-14 -0.5h-40h-5.5h-5.5q-2 1 -5 1h-6q-5 1 -11 1h-12l-1 1h-1q-1 0 -2.5 0.5t-2.5 0.5h-1.5h-1.5q-2 0 -3.5 0.5t-3.5 0.5h-2t-1 -1h-2h-2q-5 0 -10.5 -0.5t-10.5 -1.5h-2h-2h-4.5t-5.5 -1h-5.5h-4.5h-4.5t-4.5 -1h-4h-4h-40q-7 0 -12 0.5t-9 2.5
q-2 1 -3.5 2.5t-0.5 5.5q2 6 4 9.5t5 4.5q2 1 7 1.5t10 1.5h7t8 1q5 0 10 1.5t10 3.5t11 5.5t13 9.5q5 5 12 13.5t14 19.5l346 529q11 16 18.5 24.5t13.5 7.5l40 1q5 -2 7.5 -8.5t2.5 -18.5l77 -533q0 -13 2.5 -21.5t6.5 -13.5q2 -6 6.5 -9.5t9.5 -5.5q1 -1 2.5 -1.5
t2.5 -1.5q2 -1 4.5 -1.5t5.5 -0.5q5 -1 8.5 -1h7.5q5 -1 8.5 -1.5t7.5 -1.5q3 -1 4 -4.5t-1 -9.5q-1 -4 -4 -5.5t-8 -2.5q-5 -2 -11.5 -2.5t-14.5 -0.5h-40h-5.5h-5.5q-3 1 -6 1h-6t-7.5 0.5t-8.5 0.5h-4h-4l-6 1h-6q-1 0 -2 0.5t-2 0.5h-1.5h-0.5q-2 0 -3.5 0.5t-2.5 0.5
h-2t-2 -1h-2h-2q-6 0 -12 -0.5t-12 -1.5h-5.5h-4.5h-5.5t-4.5 -1h-8.5h-9.5h-4t-4 -1h-4h-4h-40q-10 0 -18 0.5t-13 2.5q-5 1 -8 2.5t-2 5.5q2 7 6 11t11 5q6 2 13 2.5t14 0.5l2 1h3q8 -1 16.5 0t16.5 3q7 2 12 7.5t8 15.5q1 3 1.5 7.5t0.5 9.5v10.5t-2 12.5l-19 105l-1 4v5
q-1 4 -3.5 6.5t-5.5 3.5q-4 1 -12 1.5t-20 0.5l-103 2v0zM322 260h109q6 -2 9 -1t4 4q1 2 0 10.5t-3 23.5l-20 134l-91 -140q-5 -10 -8.5 -16.5t-4.5 -9.5q-1 -2 0 -3.5t5 -2.5v1zM452 780q6 14 15.5 25.5t22.5 20.5q14 8 27.5 12.5t26.5 5.5l40 1h1h2q14 -1 25 -5.5
t20 -13.5t11 -23t-3 -33q-4 -18 -13.5 -31.5t-23.5 -22.5q-15 -10 -28.5 -14.5t-27.5 -4.5l-40 1q-15 -2 -26.5 3t-20.5 15q-10 10 -11.5 25.5t3.5 36.5v2v0zM524 780q-3 -14 -2.5 -24.5t5.5 -17.5q1 -2 2.5 -3.5l3.5 -3.5q1 0 1.5 -0.5l1.5 -1.5q2 1 5 3l6 4q8 6 13 14.5
t8 19.5q4 13 3 22t-6 15q-1 2 -3 3.5t-4 2.5q-1 0 -2 -0.5t-2 -1.5q-1 0 -2 -0.5t-2 -1.5q-1 0 -2 -0.5t-2 -1.5q-9 -6 -14.5 -13t-7.5 -15v1z" />
    <glyph glyph-name="AE" unicode="&#xc6;" horiz-adv-x="977" 
d="M589 583q5 4 7.5 7t1.5 4t-3 1.5t-5 0.5l-2 1h-1h-2l-1 1q-3 -1 -5 0l-4 2q-3 2 -3 5t1 7q2 6 6.5 9.5t12.5 4.5t16 1.5t17 0.5l330 2h40q32 -2 51 -2.5t24 -2.5q5 -1 6.5 -6.5t-0.5 -14.5l-27 -100q-1 -5 -3 -9t-4 -6t-4.5 -3t-4.5 -1l-40 1h-3l-3 2q0 -1 -1 -0.5
l-1 0.5q-1 1 -2 2.5t-2 3.5q-1 3 -1.5 7t-0.5 9q-1 26 -10 43.5t-23 25.5t-32 12.5t-38 4.5l-59 2q-10 -2 -18 -4t-14 -5q-7 -4 -13.5 -16t-11.5 -32l-36 -132q-4 -19 -4.5 -29.5t4.5 -13.5q3 -2 7.5 -3.5t11.5 -2.5l85 2q14 -2 23 1t14 10t9 14.5t7 16.5l1 4l1 3q2 7 4 13
t6 12q2 5 8 8t14 3l40 1q4 -1 5 -3.5t2 -7.5q0 -4 -0.5 -10t-2.5 -13l-2 -6t-3 -6q-1 -3 -1.5 -6t-1.5 -6q0 -1 -0.5 -2l-0.5 -1q0 -1 -0.5 -1t-0.5 -1l-0.5 -0.5t-0.5 -1.5q0 -2 -0.5 -4t-1.5 -4t-2 -4.5t-1 -4.5q-1 -2 -2 -4.5t-2 -4.5q-1 -4 -2 -7.5t-2 -5.5
q-1 -6 -2.5 -12t-3.5 -11q-1 -6 -2 -11.5t-2 -10.5l-2 -10l-2 -10q-1 -4 -2 -8.5t-2 -8.5q-2 -8 -5 -14.5t-6 -11.5q-4 -5 -8.5 -7.5t-10.5 -2.5l-40 1q-4 -1 -6.5 1.5t-2.5 6.5q-1 5 0 10.5t3 12.5v4t1 4q0 1 0.5 2t0.5 2t0.5 2t0.5 2q1 8 0 16.5t-3 15.5q-3 8 -10 11.5
t-21 3.5l-81 2q-7 -2 -13 -3.5t-10 -4.5t-8.5 -13.5t-9.5 -27.5l-48 -180l-1 -3v-1q-3 -12 -1.5 -22.5t8.5 -19.5q5 -8 14.5 -12.5t23.5 -6.5l56 2q23 -2 43.5 1t37.5 9t32.5 20.5t31.5 38.5q8 14 16 23.5t14 15.5t11 9.5t9 3.5l40 1l4 -2t3 -4t1 -6.5t-2 -8.5l-57 -124
q-1 -5 -16 -7t-42 -2h-40h-65.5h-88.5h-17.5h-17.5q-9 1 -18 1h-18h-20h-21h-14.5h-13.5h-4h-4q-4 -1 -8 -1.5t-8 -0.5h-5.5t-5.5 -1h-4.5h-4.5h-3h-3h-2t-1 -1h-5h-4h-40q-7 0 -12.5 1t-8.5 3q-4 0 -4.5 4t1.5 10q1 5 3 7.5t5 3.5q4 2 8 2.5t9 1.5l40 1h3q4 0 8 1.5t8 3.5
q9 5 15.5 15.5t10.5 26.5l60 222q2 7 2 12.5t-2 6.5q-2 2 -10.5 2.5t-22.5 0.5l-89 2q-8 -2 -16 -3t-13 -3q-7 -2 -15.5 -9t-16.5 -19l-176 -187q-7 -10 -13 -17t-10 -13t-6.5 -10.5t-3.5 -8.5q-2 -7 0 -11t8 -6q7 -1 14.5 -2t15.5 -1l1 1h2q4 -1 7.5 -1t7.5 -1
q3 0 6.5 -0.5t7.5 -1.5q6 -1 9 -5t1 -11q-2 -6 -5 -10t-6 -4q-4 -2 -10 -3t-14 -1h-40h-4h-4q-3 1 -5 1h-4h-5.5h-5.5q-2 1 -5 1h-6q-6 1 -12 1.5t-13 0.5h-2.5h-3.5h-8t-8 -1h-4h-3h-8.5h-9.5h-4.5t-4.5 -1h-4h-4h-40q-8 0 -14.5 0.5t-9.5 1.5q-5 0 -7.5 1.5t-1.5 4.5
q1 5 3 8.5t3 6.5q2 3 3.5 4.5l2.5 2.5q4 2 8 3t9 1q8 0 17 2t20 5t24 12.5t29 25.5l482 506v0v0zM645 559v-1l1 1v0v0l-155 -165q-9 -14 -14 -21t-6 -9q-1 -1 2.5 -2t10.5 -2l84 2q9 -2 14.5 -1t7.5 3t5 9t6 19l44 167v0v0z" />
    <glyph glyph-name="Ccedilla" unicode="&#xc7;" horiz-adv-x="662" 
d="M663 150l-34 -95q0 -2 -1 -4t-2 -3q-1 -2 -2.5 -3.5l-3.5 -3.5q-4 -3 -9 -6l-10 -6q-15 -7 -34.5 -14t-43.5 -13q-24 -5 -48.5 -9t-49.5 -5h-2.5t-3.5 -1h-2.5h-3.5h-40h-2.5h-2.5h-3h-3h-11.5h-10.5l-39 -42h7.5h7.5h7.5t7.5 -1q18 -2 33 -6t28 -11q14 -7 17.5 -20.5
t-1.5 -32.5t-16.5 -32.5t-28.5 -22.5q-17 -8 -34.5 -13t-35.5 -6h-40h-4h-4q-17 0 -32 3t-27 8q-12 6 -17 13t-3 15l3 5l3 6q2 2 3 3.5t3 2.5q1 1 2.5 2t2.5 2q3 1 5.5 1.5t4.5 0.5h40q4 1 7 -0.5t6 -4.5t6 -6.5t5 -7.5t4.5 -7t5.5 -6q2 -2 5 -4t6 -3q6 2 11.5 5t10.5 7
q11 7 18 16t11 18l1 2v1q2 4 2 7.5t-1 6.5l-2 6t-3 6q-3 4 -6.5 6.5t-8.5 4.5q-1 1 -3 1.5t-3 1.5q-3 1 -6 1.5t-6 1.5h-0.5h-0.5l-1 1v0q-1 0 -2.5 -0.5t-2.5 -0.5q-2 0 -3 -0.5t-3 -0.5q-4 0 -7.5 -0.5t-6.5 -1.5h-2.5t-3.5 -1h-2.5h-2.5h-40l-7 1l-1 3l2 6l2 2l2 2
q0 1 1 2l2 2l67 71q-10 0 -20.5 1.5t-20.5 5.5t-20 9t-20 12q-25 17 -45.5 43.5t-35.5 62.5q-16 36 -17 79t12 93q3 11 7 22.5t8 23.5q5 11 10.5 23t12.5 25q27 51 62 90t78 64q21 13 42.5 23.5t43.5 19.5q22 8 43.5 14.5t42.5 10.5l24 4t24 3t23.5 1.5t22.5 0.5l40 1
q36 -1 66.5 -5t52.5 -13q23 -9 33.5 -19.5t7.5 -21.5l-15 -85q-1 -5 -3 -8.5t-4 -5.5t-4.5 -3t-4.5 -1l-40 1q-2 -1 -4 -0.5t-4 1.5q-1 0 -2 1l-1 1l-2 2l-2 2t-1.5 2t-0.5 2t-0.5 1.5t-0.5 1.5l-2 4t-2 5q-4 27 -15.5 47t-29.5 32q-15 10 -32 16t-36 9q-1 0 -3 -0.5
t-3 -0.5q-3 -1 -6 -1t-6 -1q-22 -4 -45.5 -12t-47.5 -20q-25 -12 -46.5 -27.5t-41.5 -33.5q-19 -18 -35 -38.5t-29 -43.5t-23 -47t-16 -49q-1 -4 -2 -7.5t-2 -6.5q-1 -2 -1.5 -4.5t-0.5 -5.5q0 -1 -0.5 -2t-0.5 -2q-9 -46 -6 -88.5t19 -81.5q14 -40 44 -66t75 -38
q5 -2 10.5 -3.5t11.5 -2.5h2h2q1 -1 2 -1h2q21 3 43 11.5t45 22.5q26 16 49.5 40.5t45.5 58.5q2 5 4.5 8t5.5 6q3 2 6 4.5t6 3.5l40 1q4 1 6.5 1t4.5 -2q3 -1 4 -4t-1 -8l-1 -4l-3 -5h-40l1 1h40v0z" />
    <glyph glyph-name="Egrave" unicode="&#xc8;" horiz-adv-x="599" 
d="M265 551q3 11 1.5 19t-8.5 11q-6 3 -13.5 5t-16.5 2h-5.5h-4.5h-5.5h-4.5q-6 0 -10 1l-8 2q-4 2 -4.5 5t0.5 8q2 6 7.5 10t15.5 6q9 2 22.5 3t29.5 1l40 1q4 -1 8 -1h8q5 -1 9.5 -1h9.5h9.5h9.5q5 -1 10 -1h11q11 -1 21.5 -1.5t21.5 -0.5h2h2h1h2h35h32h15t14 1h12.5
h12.5l40 1q36 -1 60 -1h37t19 -2t5 -7l-32 -116q-1 -7 -3.5 -11t-4.5 -6q-1 -1 -2.5 -2t-2.5 -2q-2 -1 -3 -1h-3l-40 1h-4l-4 2q-2 1 -3.5 3t-3.5 5t-3 7.5t0 9.5q-1 26 -9 43.5t-21 26.5q-13 8 -31 12.5t-41 4.5l-48 2q-17 -2 -28.5 -3.5t-16.5 -4.5q-7 -3 -12 -13.5
t-10 -28.5l-36 -132q-5 -22 -7 -34.5t2 -15.5q2 -3 7 -4.5t12 -2.5l57 2q20 -2 34.5 2t23.5 11q9 8 15.5 16t10.5 17q0 2 0.5 3.5t1.5 3.5q0 1 0.5 2.5t1.5 2.5q0 1 0.5 1.5t0.5 1.5q2 6 5 12t6 10q2 5 7.5 7.5t12.5 2.5l40 1q4 -1 5 -3.5t2 -7.5q0 -4 -0.5 -10t-2.5 -13
l-2 -6t-3 -6q-1 -3 -1.5 -6t-1.5 -6q0 -1 -0.5 -2l-0.5 -1q0 -1 -0.5 -1t-0.5 -1l-0.5 -0.5t-0.5 -1.5q0 -2 -0.5 -4t-1.5 -4t-2 -4.5t-1 -4.5q-1 -2 -2 -4.5t-2 -4.5q-1 -4 -2 -7.5t-2 -5.5q-1 -6 -2.5 -12t-3.5 -11q-1 -6 -2 -11.5t-2 -10.5l-2 -10l-2 -10q-1 -4 -2 -8.5
t-2 -8.5q-2 -8 -5 -14.5t-6 -11.5q-4 -5 -8.5 -7.5t-10.5 -2.5l-40 1l-4 4q-1 1 -1 4t1 7v7t1 8v5.5v5.5v3.5v2.5q-1 8 -2.5 16.5t-4.5 15.5q-4 8 -10 11.5t-17 3.5l-81 2q-7 -2 -13 -3.5t-10 -4.5t-8.5 -13.5t-9.5 -27.5l-48 -180l-1 -3v-1q-3 -12 -1.5 -22.5t8.5 -19.5
q5 -8 14.5 -12.5t23.5 -6.5l56 2q23 -2 43.5 1t37.5 9t32.5 20.5t31.5 38.5q8 14 16 23.5t14 15.5t11 9.5t9 3.5l40 1l4 -2t3 -4t1 -6.5t-2 -8.5l-57 -124q-1 -5 -16 -7t-42 -2h-40h-65.5h-88.5h-17.5h-17.5q-9 1 -18 1h-18h-20h-21h-14.5h-13.5h-4h-4q-4 -1 -8 -1.5
t-8 -0.5h-5.5t-5.5 -1h-4.5h-4.5h-3h-3h-2t-1 -1h-5h-4h-40q-7 0 -12.5 1t-8.5 3q-4 0 -4.5 4t1.5 10q1 5 3 7.5t5 3.5q4 2 8 2.5t9 1.5l40 1h3q4 0 8 1.5t8 3.5q9 5 15.5 15.5t10.5 26.5l127 474v0v0zM549 701l-163 94q-5 1 -8 3t-5 6q-1 4 -1 8t1 8q1 5 4 10.5t8 9.5
q5 5 11 7t13 2l40 1q2 -1 4 -1.5t4 -0.5q2 -1 4 -1.5t4 -1.5q4 -2 8.5 -5t9.5 -7l127 -116l2 -4l3 -2l1 -6l1 -4l-4 -6q-1 -2 -2 -2.5t-2 -0.5h-2h-2l-40 1q-1 -1 -3.5 -1t-4.5 1t-4 2.5t-4 3.5v2v0z" />
    <glyph glyph-name="Eacute" unicode="&#xc9;" horiz-adv-x="599" 
d="M265 551q3 11 1.5 19t-8.5 11q-6 3 -13.5 5t-16.5 2h-5.5h-4.5h-5.5h-4.5q-6 0 -10 1l-8 2q-4 2 -4.5 5t0.5 8q2 6 7.5 10t15.5 6q9 2 22.5 3t29.5 1l40 1q4 -1 8 -1h8q5 -1 9.5 -1h9.5h9.5h9.5q5 -1 10 -1h11q11 -1 21.5 -1.5t21.5 -0.5h2h2h1h2h35h32h15t14 1h12.5
h12.5l40 1q36 -1 60 -1h37t19 -2t5 -7l-32 -116q-1 -7 -3.5 -11t-4.5 -6q-1 -1 -2.5 -2t-2.5 -2q-2 -1 -3 -1h-3l-40 1h-4l-4 2q-2 1 -3.5 3t-3.5 5t-3 7.5t0 9.5q-1 26 -9 43.5t-21 26.5q-13 8 -31 12.5t-41 4.5l-48 2q-17 -2 -28.5 -3.5t-16.5 -4.5q-7 -3 -12 -13.5
t-10 -28.5l-36 -132q-5 -22 -7 -34.5t2 -15.5q2 -3 7 -4.5t12 -2.5l57 2q20 -2 34.5 2t23.5 11q9 8 15.5 16t10.5 17q0 2 0.5 3.5t1.5 3.5q0 1 0.5 2.5t1.5 2.5q0 1 0.5 1.5t0.5 1.5q2 6 5 12t6 10q2 5 7.5 7.5t12.5 2.5l40 1q4 -1 5 -3.5t2 -7.5q0 -4 -0.5 -10t-2.5 -13
l-2 -6t-3 -6q-1 -3 -1.5 -6t-1.5 -6q0 -1 -0.5 -2l-0.5 -1q0 -1 -0.5 -1t-0.5 -1l-0.5 -0.5t-0.5 -1.5q0 -2 -0.5 -4t-1.5 -4t-2 -4.5t-1 -4.5q-1 -2 -2 -4.5t-2 -4.5q-1 -4 -2 -7.5t-2 -5.5q-1 -6 -2.5 -12t-3.5 -11q-1 -6 -2 -11.5t-2 -10.5l-2 -10l-2 -10q-1 -4 -2 -8.5
t-2 -8.5q-2 -8 -5 -14.5t-6 -11.5q-4 -5 -8.5 -7.5t-10.5 -2.5l-40 1l-4 4q-1 1 -1 4t1 7v7t1 8v5.5v5.5v3.5v2.5q-1 8 -2.5 16.5t-4.5 15.5q-4 8 -10 11.5t-17 3.5l-81 2q-7 -2 -13 -3.5t-10 -4.5t-8.5 -13.5t-9.5 -27.5l-48 -180l-1 -3v-1q-3 -12 -1.5 -22.5t8.5 -19.5
q5 -8 14.5 -12.5t23.5 -6.5l56 2q23 -2 43.5 1t37.5 9t32.5 20.5t31.5 38.5q8 14 16 23.5t14 15.5t11 9.5t9 3.5l40 1l4 -2t3 -4t1 -6.5t-2 -8.5l-57 -124q-1 -5 -16 -7t-42 -2h-40h-65.5h-88.5h-17.5h-17.5q-9 1 -18 1h-18h-20h-21h-14.5h-13.5h-4h-4q-4 -1 -8 -1.5
t-8 -0.5h-5.5t-5.5 -1h-4.5h-4.5h-3h-3h-2t-1 -1h-5h-4h-40q-7 0 -12.5 1t-8.5 3q-4 0 -4.5 4t1.5 10q1 5 3 7.5t5 3.5q4 2 8 2.5t9 1.5l40 1h3q4 0 8 1.5t8 3.5q9 5 15.5 15.5t10.5 26.5l127 474v0v0zM365 717l189 118q6 2 12 5t12 5q5 2 10 3t9 1l40 1q8 -1 12.5 -3
t8.5 -7q2 -2 2.5 -4.5t1.5 -4.5q1 -3 1 -5.5v-4.5l-1 -1v-1q-1 -4 -2.5 -6.5t-3.5 -5.5q0 -1 -0.5 -1.5l-1.5 -1.5q-3 -4 -7 -6.5t-9 -4.5l-214 -92q-5 -4 -9 -5.5t-8 -3.5q-3 -1 -6 -1.5t-5 -0.5l-40 1l-7 1l-1 5q0 -1 0 -0.5t1 1.5q0 1 0.5 2.5t2.5 3.5l5 5t7 6l1 2v0z
" />
    <glyph glyph-name="Ecircumflex" unicode="&#xca;" horiz-adv-x="599" 
d="M265 551q3 11 1.5 19t-8.5 11q-6 3 -13.5 5t-16.5 2h-5.5h-4.5h-5.5h-4.5q-6 0 -10 1l-8 2q-4 2 -4.5 5t0.5 8q2 6 7.5 10t15.5 6q9 2 22.5 3t29.5 1l40 1q4 -1 8 -1h8q5 -1 9.5 -1h9.5h9.5h9.5q5 -1 10 -1h11q11 -1 21.5 -1.5t21.5 -0.5h2h2h1h2h35h32h15t14 1h12.5
h12.5l40 1q36 -1 60 -1h37t19 -2t5 -7l-32 -116q-1 -7 -3.5 -11t-4.5 -6q-1 -1 -2.5 -2t-2.5 -2q-2 -1 -3 -1h-3l-40 1h-4l-4 2q-2 1 -3.5 3t-3.5 5t-3 7.5t0 9.5q-1 26 -9 43.5t-21 26.5q-13 8 -31 12.5t-41 4.5l-48 2q-17 -2 -28.5 -3.5t-16.5 -4.5q-7 -3 -12 -13.5
t-10 -28.5l-36 -132q-5 -22 -7 -34.5t2 -15.5q2 -3 7 -4.5t12 -2.5l57 2q20 -2 34.5 2t23.5 11q9 8 15.5 16t10.5 17q0 2 0.5 3.5t1.5 3.5q0 1 0.5 2.5t1.5 2.5q0 1 0.5 1.5t0.5 1.5q2 6 5 12t6 10q2 5 7.5 7.5t12.5 2.5l40 1q4 -1 5 -3.5t2 -7.5q0 -4 -0.5 -10t-2.5 -13
l-2 -6t-3 -6q-1 -3 -1.5 -6t-1.5 -6q0 -1 -0.5 -2l-0.5 -1q0 -1 -0.5 -1t-0.5 -1l-0.5 -0.5t-0.5 -1.5q0 -2 -0.5 -4t-1.5 -4t-2 -4.5t-1 -4.5q-1 -2 -2 -4.5t-2 -4.5q-1 -4 -2 -7.5t-2 -5.5q-1 -6 -2.5 -12t-3.5 -11q-1 -6 -2 -11.5t-2 -10.5l-2 -10l-2 -10q-1 -4 -2 -8.5
t-2 -8.5q-2 -8 -5 -14.5t-6 -11.5q-4 -5 -8.5 -7.5t-10.5 -2.5l-40 1l-4 4q-1 1 -1 4t1 7v7t1 8v5.5v5.5v3.5v2.5q-1 8 -2.5 16.5t-4.5 15.5q-4 8 -10 11.5t-17 3.5l-81 2q-7 -2 -13 -3.5t-10 -4.5t-8.5 -13.5t-9.5 -27.5l-48 -180l-1 -3v-1q-3 -12 -1.5 -22.5t8.5 -19.5
q5 -8 14.5 -12.5t23.5 -6.5l56 2q23 -2 43.5 1t37.5 9t32.5 20.5t31.5 38.5q8 14 16 23.5t14 15.5t11 9.5t9 3.5l40 1l4 -2t3 -4t1 -6.5t-2 -8.5l-57 -124q-1 -5 -16 -7t-42 -2h-40h-65.5h-88.5h-17.5h-17.5q-9 1 -18 1h-18h-20h-21h-14.5h-13.5h-4h-4q-4 -1 -8 -1.5
t-8 -0.5h-5.5t-5.5 -1h-4.5h-4.5h-3h-3h-2t-1 -1h-5h-4h-40q-7 0 -12.5 1t-8.5 3q-4 0 -4.5 4t1.5 10q1 5 3 7.5t5 3.5q4 2 8 2.5t9 1.5l40 1h3q4 0 8 1.5t8 3.5q9 5 15.5 15.5t10.5 26.5l127 474v0v0zM473 858q5 1 10 3.5t9 3.5q3 2 6.5 2.5t7.5 0.5l40 1q2 -1 3.5 -1
t3.5 -1q1 0 3 -0.5t3 -1.5q2 -1 4.5 -3.5t4.5 -5.5l72 -116q5 -11 6 -18.5t-1 -12.5q-3 -4 -6 -7t-8 -3l-40 1h-3l-3 1l-5 3l-5 4l-73 78v-1v0l-113 -68q-7 -5 -12 -7t-8 -4q-4 -1 -7.5 -2t-5.5 -1l-40 1l-6 2q-1 0 -2 1.5t0 3.5l2 4l2 4q2 2 4 5t5 6l152 128v0v0z" />
    <glyph glyph-name="Edieresis" unicode="&#xcb;" horiz-adv-x="599" 
d="M265 551q3 11 1.5 19t-8.5 11q-6 3 -13.5 5t-16.5 2h-5.5h-4.5h-5.5h-4.5q-6 0 -10 1l-8 2q-4 2 -4.5 5t0.5 8q2 6 7.5 10t15.5 6q9 2 22.5 3t29.5 1l40 1q4 -1 8 -1h8q5 -1 9.5 -1h9.5h9.5h9.5q5 -1 10 -1h11q11 -1 21.5 -1.5t21.5 -0.5h2h2h1h2h35h32h15t14 1h12.5
h12.5l40 1q36 -1 60 -1h37t19 -2t5 -7l-32 -116q-1 -7 -3.5 -11t-4.5 -6q-1 -1 -2.5 -2t-2.5 -2q-2 -1 -3 -1h-3l-40 1h-4l-4 2q-2 1 -3.5 3t-3.5 5t-3 7.5t0 9.5q-1 26 -9 43.5t-21 26.5q-13 8 -31 12.5t-41 4.5l-48 2q-17 -2 -28.5 -3.5t-16.5 -4.5q-7 -3 -12 -13.5
t-10 -28.5l-36 -132q-5 -22 -7 -34.5t2 -15.5q2 -3 7 -4.5t12 -2.5l57 2q20 -2 34.5 2t23.5 11q9 8 15.5 16t10.5 17q0 2 0.5 3.5t1.5 3.5q0 1 0.5 2.5t1.5 2.5q0 1 0.5 1.5t0.5 1.5q2 6 5 12t6 10q2 5 7.5 7.5t12.5 2.5l40 1q4 -1 5 -3.5t2 -7.5q0 -4 -0.5 -10t-2.5 -13
l-2 -6t-3 -6q-1 -3 -1.5 -6t-1.5 -6q0 -1 -0.5 -2l-0.5 -1q0 -1 -0.5 -1t-0.5 -1l-0.5 -0.5t-0.5 -1.5q0 -2 -0.5 -4t-1.5 -4t-2 -4.5t-1 -4.5q-1 -2 -2 -4.5t-2 -4.5q-1 -4 -2 -7.5t-2 -5.5q-1 -6 -2.5 -12t-3.5 -11q-1 -6 -2 -11.5t-2 -10.5l-2 -10l-2 -10q-1 -4 -2 -8.5
t-2 -8.5q-2 -8 -5 -14.5t-6 -11.5q-4 -5 -8.5 -7.5t-10.5 -2.5l-40 1l-4 4q-1 1 -1 4t1 7v7t1 8v5.5v5.5v3.5v2.5q-1 8 -2.5 16.5t-4.5 15.5q-4 8 -10 11.5t-17 3.5l-81 2q-7 -2 -13 -3.5t-10 -4.5t-8.5 -13.5t-9.5 -27.5l-48 -180l-1 -3v-1q-3 -12 -1.5 -22.5t8.5 -19.5
q5 -8 14.5 -12.5t23.5 -6.5l56 2q23 -2 43.5 1t37.5 9t32.5 20.5t31.5 38.5q8 14 16 23.5t14 15.5t11 9.5t9 3.5l40 1l4 -2t3 -4t1 -6.5t-2 -8.5l-57 -124q-1 -5 -16 -7t-42 -2h-40h-65.5h-88.5h-17.5h-17.5q-9 1 -18 1h-18h-20h-21h-14.5h-13.5h-4h-4q-4 -1 -8 -1.5
t-8 -0.5h-5.5t-5.5 -1h-4.5h-4.5h-3h-3h-2t-1 -1h-5h-4h-40q-7 0 -12.5 1t-8.5 3q-4 0 -4.5 4t1.5 10q1 5 3 7.5t5 3.5q4 2 8 2.5t9 1.5l40 1h3q4 0 8 1.5t8 3.5q9 5 15.5 15.5t10.5 26.5l127 474v0v0zM352 756q2 8 7.5 15.5t13.5 13.5t16 9t17 4l40 1h1h2q8 -1 14.5 -4
t10.5 -8q5 -5 6 -13.5t-2 -19.5q-4 -13 -10 -23t-14 -17t-16 -10t-16 -3l-40 1q-9 -2 -15.5 1t-11.5 10q-6 7 -6.5 17.5t3.5 23.5v2v0zM533 756q2 8 7.5 15.5t13.5 13.5t16 9t17 4l40 1h1h2q8 -1 14.5 -4t10.5 -8q5 -5 6 -13.5t-2 -19.5q-4 -13 -10 -23t-14 -17t-16 -10
t-16 -3l-40 1q-9 -2 -15.5 1t-11.5 10q-6 7 -6.5 17.5t3.5 23.5v2v0z" />
    <glyph glyph-name="Igrave" unicode="&#xcc;" 
d="M257 551v1l1 2v1l2 2q2 10 0.5 16.5t-7.5 10.5q-6 3 -13 5t-15 3l-6 1h-6h-2h-2q-7 -1 -13.5 -1t-10.5 1q-5 1 -6.5 4t-0.5 7q2 6 6 10t12 6q7 2 16 3t19 1l40 1q2 -1 4 -1h4q2 -1 4 -1h4h4h5h4h4h5h6q5 -2 10.5 -2.5t10.5 -0.5h2h2h2h2h6.5t6.5 1h7h6h11.5h10.5h4.5
t5.5 1h4.5h4.5l40 1q9 -1 16 -1.5t12 -1.5q4 -1 6.5 -3t1.5 -5q-1 -5 -3.5 -9t-4.5 -6q-1 -2 -2 -2.5t-2 -1.5q-4 -2 -9 -3t-10 -1l-40 1h-6l-6 1h40h-6h-6q-7 -1 -14 -3t-14 -5q-7 -4 -11.5 -12t-8.5 -22l-131 -486q-3 -14 -2 -21.5t8 -10.5t14.5 -4.5t16.5 -1.5h4h5
q8 -1 14 -1.5t11 -2.5q6 -1 8 -5t0 -10q-1 -4 -3 -5.5t-7 -2.5q-5 -2 -10.5 -2.5t-12.5 -0.5h-40h-4.5h-5.5q-2 1 -5 1h-6t-7.5 0.5t-8.5 0.5h-4h-4q-7 1 -13.5 1.5t-14.5 0.5h-2.5h-2.5q-1 1 -2 1h-3h-2.5t-3.5 -1h-2.5h-3.5q-7 0 -14.5 -0.5t-13.5 -1.5h-6.5h-6.5
t-6.5 -0.5t-6.5 -0.5h-5.5t-5.5 -1h-4.5h-4.5h-40q-7 0 -12 0.5t-8 2.5q-3 1 -4.5 2.5t-0.5 5.5q2 6 5.5 10t8.5 5q6 2 12.5 2.5t13.5 0.5l4 1h4q4 -1 8 -0.5t8 1.5q3 1 7 2.5t8 2.5q8 3 13.5 10.5t8.5 19.5l131 490v0v0zM431 701l-163 94q-5 1 -8 3t-5 6q-1 4 -1 8t1 8
q1 5 4 10.5t8 9.5q5 5 11 7t13 2l40 1q2 -1 4 -1.5t4 -0.5q2 -1 4 -1.5t4 -1.5q4 -2 8.5 -5t9.5 -7l127 -116l2 -4l2 -2l2 -6v-4l-3 -6q-1 -2 -2 -2.5t-2 -0.5h-2h-2l-40 1q-2 -1 -4.5 -1t-4.5 1q-1 0 -2 1l-1 1l-2 2l-2 2v2v0z" />
    <glyph glyph-name="Iacute" unicode="&#xcd;" 
d="M257 551v1l1 2v1l2 2q2 10 0.5 16.5t-7.5 10.5q-6 3 -13 5t-15 3l-6 1h-6h-2h-2q-7 -1 -13.5 -1t-10.5 1q-5 1 -6.5 4t-0.5 7q2 6 6 10t12 6q7 2 16 3t19 1l40 1q2 -1 4 -1h4q2 -1 4 -1h4h4h5h4h4h5h6q5 -2 10.5 -2.5t10.5 -0.5h2h2h2h2h6.5t6.5 1h7h6h11.5h10.5h4.5
t5.5 1h4.5h4.5l40 1q9 -1 16 -1.5t12 -1.5q4 -1 6.5 -3t1.5 -5q-1 -5 -3.5 -9t-4.5 -6q-1 -2 -2 -2.5t-2 -1.5q-4 -2 -9 -3t-10 -1l-40 1h-6l-6 1h40h-6h-6q-7 -1 -14 -3t-14 -5q-7 -4 -11.5 -12t-8.5 -22l-131 -486q-3 -14 -2 -21.5t8 -10.5t14.5 -4.5t16.5 -1.5h4h5
q8 -1 14 -1.5t11 -2.5q6 -1 8 -5t0 -10q-1 -4 -3 -5.5t-7 -2.5q-5 -2 -10.5 -2.5t-12.5 -0.5h-40h-4.5h-5.5q-2 1 -5 1h-6t-7.5 0.5t-8.5 0.5h-4h-4q-7 1 -13.5 1.5t-14.5 0.5h-2.5h-2.5q-1 1 -2 1h-3h-2.5t-3.5 -1h-2.5h-3.5q-7 0 -14.5 -0.5t-13.5 -1.5h-6.5h-6.5
t-6.5 -0.5t-6.5 -0.5h-5.5t-5.5 -1h-4.5h-4.5h-40q-7 0 -12 0.5t-8 2.5q-3 1 -4.5 2.5t-0.5 5.5q2 6 5.5 10t8.5 5q6 2 12.5 2.5t13.5 0.5l4 1h4q4 -1 8 -0.5t8 1.5q3 1 7 2.5t8 2.5q8 3 13.5 10.5t8.5 19.5l131 490v0v0zM247 717l189 118q6 2 12 5t12 5q5 2 10 3t9 1l40 1
q8 -1 12.5 -3t8.5 -7q2 -2 2.5 -4.5t1.5 -4.5q1 -3 1 -5.5v-4.5l-1 -1v-1q-1 -4 -2.5 -6.5t-3.5 -5.5q0 -1 -0.5 -1.5l-1.5 -1.5q-3 -4 -7 -6.5t-9 -4.5l-214 -92q-5 -4 -9 -5.5t-8 -3.5q-3 -1 -6 -1.5t-5 -0.5l-40 1l-7 1l-2 5q1 1 2 2.5l3 4.5l5 5t7 6l1 2v0z" />
    <glyph glyph-name="Icircumflex" unicode="&#xce;" 
d="M257 551v1l1 2v1l2 2q2 10 0.5 16.5t-7.5 10.5q-6 3 -13 5t-15 3l-6 1h-6h-2h-2q-7 -1 -13.5 -1t-10.5 1q-5 1 -6.5 4t-0.5 7q2 6 6 10t12 6q7 2 16 3t19 1l40 1q2 -1 4 -1h4q2 -1 4 -1h4h4h5h4h4h5h6q5 -2 10.5 -2.5t10.5 -0.5h2h2h2h2h6.5t6.5 1h7h6h11.5h10.5h4.5
t5.5 1h4.5h4.5l40 1q9 -1 16 -1.5t12 -1.5q4 -1 6.5 -3t1.5 -5q-1 -5 -3.5 -9t-4.5 -6q-1 -2 -2 -2.5t-2 -1.5q-4 -2 -9 -3t-10 -1l-40 1h-6l-6 1h40h-6h-6q-7 -1 -14 -3t-14 -5q-7 -4 -11.5 -12t-8.5 -22l-131 -486q-3 -14 -2 -21.5t8 -10.5t14.5 -4.5t16.5 -1.5h4h5
q8 -1 14 -1.5t11 -2.5q6 -1 8 -5t0 -10q-1 -4 -3 -5.5t-7 -2.5q-5 -2 -10.5 -2.5t-12.5 -0.5h-40h-4.5h-5.5q-2 1 -5 1h-6t-7.5 0.5t-8.5 0.5h-4h-4q-7 1 -13.5 1.5t-14.5 0.5h-2.5h-2.5q-1 1 -2 1h-3h-2.5t-3.5 -1h-2.5h-3.5q-7 0 -14.5 -0.5t-13.5 -1.5h-6.5h-6.5
t-6.5 -0.5t-6.5 -0.5h-5.5t-5.5 -1h-4.5h-4.5h-40q-7 0 -12 0.5t-8 2.5q-3 1 -4.5 2.5t-0.5 5.5q2 6 5.5 10t8.5 5q6 2 12.5 2.5t13.5 0.5l4 1h4q4 -1 8 -0.5t8 1.5q3 1 7 2.5t8 2.5q8 3 13.5 10.5t8.5 19.5l131 490v0v0zM369 850q5 1 9 3.5t8 3.5q5 2 8.5 2.5t6.5 0.5l40 1
q4 -1 7.5 -1.5t5.5 -2.5q3 -1 5.5 -3.5t4.5 -5.5l71 -116q5 -11 6.5 -18.5t-0.5 -12.5q-3 -4 -6.5 -7t-8.5 -3l-40 1h-3l-3 1l-5 3l-5 4l-72 79v-1v0l-114 -69q-6 -5 -11 -7t-8 -4q-4 -1 -7.5 -2t-5.5 -1l-40 1l-6 2q-1 0 -2 1.5t0 3.5v0.5t1 1.5q0 1 0.5 2.5t2.5 3.5t4 5
t5 6l152 128v0v0z" />
    <glyph glyph-name="Idieresis" unicode="&#xcf;" 
d="M257 551v1l1 2v1l2 2q2 10 0.5 16.5t-7.5 10.5q-6 3 -13 5t-15 3l-6 1h-6h-2h-2q-7 -1 -13.5 -1t-10.5 1q-5 1 -6.5 4t-0.5 7q2 6 6 10t12 6q7 2 16 3t19 1l40 1q2 -1 4 -1h4q2 -1 4 -1h4h4h5h4h4h5h6q5 -2 10.5 -2.5t10.5 -0.5h2h2h2h2h6.5t6.5 1h7h6h11.5h10.5h4.5
t5.5 1h4.5h4.5l40 1q9 -1 16 -1.5t12 -1.5q4 -1 6.5 -3t1.5 -5q-1 -5 -3.5 -9t-4.5 -6q-1 -2 -2 -2.5t-2 -1.5q-4 -2 -9 -3t-10 -1l-40 1h-6l-6 1h40h-6h-6q-7 -1 -14 -3t-14 -5q-7 -4 -11.5 -12t-8.5 -22l-131 -486q-3 -14 -2 -21.5t8 -10.5t14.5 -4.5t16.5 -1.5h4h5
q8 -1 14 -1.5t11 -2.5q6 -1 8 -5t0 -10q-1 -4 -3 -5.5t-7 -2.5q-5 -2 -10.5 -2.5t-12.5 -0.5h-40h-4.5h-5.5q-2 1 -5 1h-6t-7.5 0.5t-8.5 0.5h-4h-4q-7 1 -13.5 1.5t-14.5 0.5h-2.5h-2.5q-1 1 -2 1h-3h-2.5t-3.5 -1h-2.5h-3.5q-7 0 -14.5 -0.5t-13.5 -1.5h-6.5h-6.5
t-6.5 -0.5t-6.5 -0.5h-5.5t-5.5 -1h-4.5h-4.5h-40q-7 0 -12 0.5t-8 2.5q-3 1 -4.5 2.5t-0.5 5.5q2 6 5.5 10t8.5 5q6 2 12.5 2.5t13.5 0.5l4 1h4q4 -1 8 -0.5t8 1.5q3 1 7 2.5t8 2.5q8 3 13.5 10.5t8.5 19.5l131 490v0v0zM230 772q3 8 8 15.5t13 13.5t16.5 9t16.5 4l40 1h1
h2q8 -1 14.5 -4t10.5 -8q5 -5 6 -13.5t-2 -19.5q-4 -13 -10 -23t-14 -17t-16 -10t-16 -3l-40 1q-8 -2 -15 1t-12 10t-6 17.5t3 23.5v2v0zM411 772q3 8 8 15.5t13 13.5t16.5 9t16.5 4l40 1h1h2q8 -1 14.5 -4t10.5 -8q5 -5 6 -13.5t-2 -19.5q-4 -13 -10 -23t-14 -17t-16 -10
t-16 -3l-40 1q-8 -2 -15 1t-12 10t-6 17.5t3 23.5v2v0z" />
    <glyph glyph-name="Eth" unicode="&#xd0;" horiz-adv-x="780" 
 />
    <glyph glyph-name="Ntilde" unicode="&#xd1;" horiz-adv-x="741" 
d="M618 194l98 365q4 12 2.5 20t-7.5 12q-7 4 -13.5 6t-14.5 3l-5 1h-4h-2h-2q-6 -1 -11 -1t-10 1q-4 1 -5 4t0 7q2 6 4.5 10t6.5 6q5 2 10 3t12 1l40 1q2 -1 3.5 -1h3.5q2 -1 4 -1h4h4h4q3 -1 5 -1h5q4 -1 8.5 -1.5t9.5 -0.5h4.5h4.5q6 0 12 0.5t12 1.5h5.5t4.5 1h4.5h4.5
h4t4 1h4h3l40 1q7 -1 12 -2t7 -3t3.5 -6t-0.5 -10q-1 -4 -4 -7t-8 -4q-4 -1 -9.5 -1h-11.5l-1 1h-1q-2 -1 -4 -1h-4h-2h-1h-2h-2q-10 -1 -19 -3t-17 -6t-14 -12t-10 -22l-143 -533q-4 -19 -8.5 -27t-7.5 -8h-40q-3 1 -8 5.5t-12 11.5l-245 493l-114 -428q-4 -15 -3 -24
t8 -13t14.5 -6t17.5 -2l4 1h5h2h2q6 -1 11.5 -1.5t9.5 -1.5q5 -1 7 -3t1 -7q-2 -6 -5 -10t-7 -4q-5 -2 -11 -3t-14 -1h-40h-4h-4q-3 1 -5 1h-4h-4.5h-5.5q-2 1 -4.5 1h-5.5t-5.5 0.5t-5.5 0.5q-3 1 -5.5 1h-5.5h-2.5h-3.5h-4.5t-4.5 -1q-3 0 -5.5 -0.5t-4.5 -0.5h-4.5
t-4.5 -1h-4.5h-4.5h-4.5t-4.5 -1h-3.5h-3.5h-40q-7 0 -12 1t-9 3q-4 0 -5 4t1 10q1 5 3.5 7t6.5 3q5 1 10.5 1.5t12.5 0.5v1h2q2 -1 4 -1h4h4h4q8 0 16.5 2.5t16.5 6.5t14 12.5t10 21.5l131 490q4 12 2.5 20t-8.5 12t-15 6t-16 3l-5 1h-4h-2h-2q-7 -1 -12.5 -1t-10.5 1
q-4 1 -5.5 4t-0.5 7q2 5 3.5 9t5.5 7q2 1 3.5 2t3.5 2t3.5 1.5t3.5 1.5h2t2 1h2h2l6 1l87 1h40q4 -2 7.5 -2.5t7.5 -0.5h3.5h3.5q1 -1 3 -1h4q3 -1 6.5 -3.5t7.5 -4.5q3 -2 6.5 -5.5t7.5 -8.5l209 -418v0zM405 748q11 13 21 24.5t20 20.5q10 8 19 14.5t18 10.5q2 1 4 1.5
t4 1.5q2 0 4.5 0.5t4.5 1.5q5 1 8.5 1.5t7.5 0.5l40 1q8 -1 15.5 -3t14.5 -5q7 -4 12.5 -8t9.5 -9q13 -12 24 -20.5t20 -13.5q4 -1 7 -2.5t6 -2.5q1 0 1.5 0.5l1.5 1.5q4 3 6.5 5.5l5.5 5.5l3.5 3.5l2.5 2.5l2 3l2 2q7 6 12.5 10.5t10.5 5.5l40 1q4 1 6 -0.5t0 -6.5l-1 -4
l-4 -6q-1 -4 -2.5 -6.5t-3.5 -4.5q-1 -1 -2 -2.5t-1 -2.5q-1 -2 -2 -3l-2 -2q-7 -9 -17 -16.5t-21 -14.5t-23.5 -11t-26.5 -4l-40 1q-7 -1 -14.5 0.5t-15.5 4.5t-15 8.5t-14 12.5q-10 11 -19.5 18t-17.5 11q-1 1 -2.5 1.5t-2.5 1.5t-2.5 1.5t-2.5 0.5q-2 -1 -4.5 -2t-4.5 -3
q-6 -4 -12 -10l-13 -13l-3 -2l-2 -3l-3 -3l-2 -2q-6 -8 -11 -12.5t-9 -6.5l-40 1q-4 -2 -4.5 0t0.5 8q0 1 0.5 2.5t1.5 3.5q0 2 1.5 4t2.5 4v2v0z" />
    <glyph glyph-name="Ograve" unicode="&#xd2;" 
 />
    <glyph glyph-name="Oacute" unicode="&#xd3;" horiz-adv-x="820" 
d="M131 346q27 71 71.5 125t106.5 90t124.5 54t124.5 18l40 1q62 -1 115 -19t96 -54t59 -90.5t4 -126.5q-1 -2 -1.5 -4t-0.5 -4q0 -3 -0.5 -5t-1.5 -4q0 -2 -0.5 -4t-1.5 -4t-1.5 -4t-0.5 -4q-21 -78 -64 -136.5t-108 -99.5q-33 -20 -66 -35.5t-65 -25.5q-33 -10 -66 -14.5
t-66 -4.5h-40q-67 0 -122 20.5t-99 63.5t-53 109t16 156v2v0zM258 345l-1 -5l-1 -4q-21 -79 -16.5 -137.5t34.5 -96.5q28 -35 62.5 -54t76.5 -22q44 3 88.5 22.5t90.5 53.5q51 38 86.5 94.5t54.5 130.5q1 2 1.5 4t1.5 4q0 2 0.5 4.5t1.5 4.5q15 62 7 110t-39 81
q-28 29 -62.5 45.5t-75.5 19.5q-42 -3 -84 -19t-85 -45q-46 -31 -81.5 -79t-59.5 -113v1zM468 717l188 118q6 2 12 5t12 5q5 2 10 3t9 1l40 1q8 -1 13 -3t9 -7q2 -2 2.5 -4.5t1.5 -4.5q1 -3 1 -5.5v-4.5l-1 -1v-1q-1 -5 -3.5 -8.5t-5.5 -6.5q-3 -4 -7 -6.5t-9 -4.5l-214 -92
q-4 -4 -8 -5.5t-8 -3.5q-3 -1 -6 -1.5t-5 -0.5l-40 1l-7 1l-2 5q1 1 2 2.5l3 4.5l5 5t7 6l1 2v0z" />
    <glyph glyph-name="Ocircumflex" unicode="&#xd4;" horiz-adv-x="820" 
d="M131 346q27 71 71.5 125t106.5 90t124.5 54t124.5 18l40 1q62 -1 115 -19t96 -54t59 -90.5t4 -126.5q-1 -2 -1.5 -4t-0.5 -4q0 -3 -0.5 -5t-1.5 -4q0 -2 -0.5 -4t-1.5 -4t-1.5 -4t-0.5 -4q-21 -78 -64 -136.5t-108 -99.5q-33 -20 -66 -35.5t-65 -25.5q-33 -10 -66 -14.5
t-66 -4.5h-40q-67 0 -122 20.5t-99 63.5t-53 109t16 156v2v0zM258 345l-1 -5l-1 -4q-21 -79 -16.5 -137.5t34.5 -96.5q28 -35 62.5 -54t76.5 -22q44 3 88.5 22.5t90.5 53.5q51 38 86.5 94.5t54.5 130.5q1 2 1.5 4t1.5 4q0 2 0.5 4.5t1.5 4.5q15 62 7 110t-39 81
q-28 29 -62.5 45.5t-75.5 19.5q-42 -3 -84 -19t-85 -45q-46 -31 -81.5 -79t-59.5 -113v1zM575 858q5 1 10 3.5t9 3.5q3 2 6.5 2.5t7.5 0.5l40 1q4 -1 7.5 -1.5t6.5 -2.5q2 -1 4.5 -3.5t4.5 -5.5l71 -116q5 -11 6 -18.5t-1 -12.5q-3 -4 -6 -7t-8 -3l-40 1h-3l-3 1l-5 3l-5 4
l-73 78v-1v0l-112 -68q-7 -5 -12 -7t-9 -4q-4 -1 -7.5 -2t-5.5 -1l-40 1l-6 2q-1 0 -1.5 1.5t0.5 3.5t1.5 4t1.5 4q2 2 4 5t5 6l152 128v0v0z" />
    <glyph glyph-name="Otilde" unicode="&#xd5;" horiz-adv-x="820" 
d="M131 346q27 71 71.5 125t106.5 90t124.5 54t124.5 18l40 1q62 -1 115 -19t96 -54t59 -90.5t4 -126.5q-1 -2 -1.5 -4t-0.5 -4q0 -3 -0.5 -5t-1.5 -4q0 -2 -0.5 -4t-1.5 -4t-1.5 -4t-0.5 -4q-21 -78 -64 -136.5t-108 -99.5q-33 -20 -66 -35.5t-65 -25.5q-33 -10 -66 -14.5
t-66 -4.5h-40q-67 0 -122 20.5t-99 63.5t-53 109t16 156v2v0zM258 345l-1 -5l-1 -4q-21 -79 -16.5 -137.5t34.5 -96.5q28 -35 62.5 -54t76.5 -22q44 3 88.5 22.5t90.5 53.5q51 38 86.5 94.5t54.5 130.5q1 2 1.5 4t1.5 4q0 2 0.5 4.5t1.5 4.5q15 62 7 110t-39 81
q-28 29 -62.5 45.5t-75.5 19.5q-42 -3 -84 -19t-85 -45q-46 -31 -81.5 -79t-59.5 -113v1zM440 764q11 14 22 26t21 21q11 8 20.5 14t19.5 10q3 2 6.5 2.5t7.5 1.5h3.5t3.5 1h3h3l40 1q8 -1 15.5 -2.5t14.5 -4.5q7 -4 13 -8t12 -9q12 -12 23 -20.5t21 -13.5l3 -1.5l3 -1.5
q1 -1 2.5 -1.5t2.5 -0.5t2 0.5t2 1.5q2 1 3.5 2.5l2.5 2.5q3 3 6.5 6t5.5 6v1l2 1l1 1l1 2q7 6 12.5 10.5t9.5 5.5l40 1q4 1 6 -0.5t1 -5.5l-2 -4q0 -2 -0.5 -3l-0.5 -1q-1 -1 -1.5 -2t-1.5 -2t-1.5 -2.5t-0.5 -2.5l-1.5 -3t-1.5 -2q-2 -3 -3.5 -5.5t-3.5 -4.5
q-7 -9 -16.5 -16.5t-20.5 -14.5q-12 -7 -24 -11t-26 -4l-40 1q-4 -1 -8 -0.5t-7 1.5q-4 0 -8 1.5t-8 2.5q-8 3 -15 8.5t-14 12.5q-10 11 -19.5 18t-17.5 11q-1 1 -2.5 1.5t-2.5 1.5l-3 1.5t-3 0.5q-1 0 -2.5 -1t-2.5 -2h-0.5t-1.5 -1q-1 0 -1.5 -0.5l-1.5 -1.5
q-7 -6 -14 -13t-14 -15q-8 -10 -14 -15.5t-10 -7.5l-40 1q-5 -3 -6 -1t0 8q0 2 0.5 3.5t1.5 3.5q0 2 1.5 4t2.5 4v2v0z" />
    <glyph glyph-name="Odieresis" unicode="&#xd6;" horiz-adv-x="820" 
d="M131 346q27 71 71.5 125t106.5 90t124.5 54t124.5 18l40 1q62 -1 115 -19t96 -54t59 -90.5t4 -126.5q-1 -2 -1.5 -4t-0.5 -4q0 -3 -0.5 -5t-1.5 -4q0 -2 -0.5 -4t-1.5 -4t-1.5 -4t-0.5 -4q-21 -78 -64 -136.5t-108 -99.5q-33 -20 -66 -35.5t-65 -25.5q-33 -10 -66 -14.5
t-66 -4.5h-40q-67 0 -122 20.5t-99 63.5t-53 109t16 156v2v0zM258 345l-1 -5l-1 -4q-21 -79 -16.5 -137.5t34.5 -96.5q28 -35 62.5 -54t76.5 -22q44 3 88.5 22.5t90.5 53.5q51 38 86.5 94.5t54.5 130.5q1 2 1.5 4t1.5 4q0 2 0.5 4.5t1.5 4.5q15 62 7 110t-39 81
q-28 29 -62.5 45.5t-75.5 19.5q-42 -3 -84 -19t-85 -45q-46 -31 -81.5 -79t-59.5 -113v1zM460 780q3 9 8.5 16.5t14.5 13.5q5 3 9 5.5t9 3.5q4 2 8.5 2.5t8.5 0.5l40 1q8 -1 14.5 -4t10.5 -8q5 -5 6 -13.5t-2 -19.5q-4 -13 -9.5 -23t-13.5 -17q-9 -7 -17.5 -10t-16.5 -3
l-40 1q-8 -2 -15 1t-12 10t-6 17.5t3 23.5v2v0zM641 780q3 9 8.5 16.5t14.5 13.5q5 3 9 5.5t9 3.5q4 2 8.5 2.5t8.5 0.5l40 1q8 -1 14.5 -4t10.5 -8q5 -5 6 -13.5t-2 -19.5q-4 -13 -9.5 -23t-13.5 -17q-9 -7 -17.5 -10t-16.5 -3l-40 1q-8 -2 -15 1t-12 10t-6 17.5t3 23.5v2
v0z" />
    <glyph glyph-name="multiply" unicode="&#xd7;" 
 />
    <glyph glyph-name="Oslash" unicode="&#xd8;" horiz-adv-x="820" 
d="M886 693l1 -1h-40l2 2q1 -1 3 -0.5t4 1.5q1 1 2.5 1t3.5 1h1.5h1.5l3 2h40h4q3 -1 5.5 -1.5t3.5 -1.5q2 -1 3 -2.5t1 -3.5q0 -1 -0.5 -2t-1.5 -1q-1 -1 -1.5 -2t-0.5 -2l-2 -2t-1 -2l-2 -2l-2 -2l-96 -92l-8 -8l-4 -5q-1 -4 0 -7t5 -7q2 -4 6.5 -9.5t11.5 -13.5
q9 -14 17 -28.5t13 -29.5t7.5 -30t3.5 -30q1 -12 0.5 -24t-2.5 -24q-1 -12 -3 -24t-5 -23q-7 -22 -15 -43t-18 -41q-10 -19 -19.5 -36t-19.5 -31q-4 -6 -8 -11l-8 -10q-1 -1 -2 -2.5t-2 -3.5q-2 -3 -4 -5.5t-4 -4.5q-30 -31 -65 -57t-75 -46q-40 -19 -79.5 -31t-77.5 -16
h-3.5h-3.5h-2t-2 -1h-5.5h-4.5h-4.5t-4.5 -1h-5.5h-4.5h-40q-9 0 -18 0.5t-18 1.5q-5 1 -9 1.5t-9 1.5q-13 2 -24 6t-22 9q-15 6 -25.5 11t-18.5 8l-113 -106q-1 -2 -3.5 -3.5t-4.5 -2.5t-3.5 -1.5t-2.5 -1.5h-1.5h-0.5q-1 -1 -2 -1.5t-2 -0.5h-4l-4 -1h-40q-3 0 -5 0.5
t-3 1.5t-1.5 3t-0.5 4t1.5 5t3.5 6q3 4 7 7.5t10 8.5l105 102l8 6l0.5 0.5l0.5 0.5q0 1 0.5 1t0.5 1l0.5 1t0.5 2q2 3 0.5 6.5t-4.5 7.5q-2 4 -7 9t-10 11q-16 16 -28 40t-20 57t-6.5 68.5t11.5 74.5q2 8 4.5 17t6.5 18q3 9 7.5 18t9.5 18q8 15 18 30.5t22 31.5
q12 15 26.5 30t32.5 30q20 18 41 33.5t42 27.5q20 12 40.5 21.5t40.5 16.5q18 6 36 10.5t35 7.5t33.5 4.5t32.5 1.5l40 1q21 -1 40.5 -3t35.5 -6q9 -2 16.5 -4t15.5 -4q7 -3 13 -5l12 -4q1 0 2 -0.5t2 -1.5q2 -1 4.5 -2t3.5 -2l3 -1.5t2 -1.5t2.5 -1.5t2.5 -1.5
q2 -2 4.5 -3.5t4.5 -3.5l2 2l2 2q0 1 1 1.5t1 1.5l86 89h40v0v0zM721 488l-414 -401q-4 -5 -6.5 -8t-2.5 -5q-1 -2 -0.5 -4.5t1.5 -4.5l4.5 -4.5t6.5 -4.5q2 -1 4 -2.5t4 -2.5q3 -2 5 -3t5 -3q4 -2 8.5 -4t8.5 -4t8.5 -3.5t9.5 -3.5q9 -3 18 -5l18 -4q2 0 4.5 -0.5t5.5 -0.5
q2 -1 4.5 -1h4.5q18 2 36.5 5.5t37.5 10.5q23 8 46 21t44 29q26 20 46.5 43t36.5 48q16 26 28.5 51.5t21.5 51.5q0 2 0.5 3.5t1.5 3.5q0 1 0.5 2t0.5 2l1.5 3t0.5 3v0.5v0.5q0 1 0.5 2t0.5 2q6 20 9.5 40.5t4.5 39.5q2 20 2.5 38.5t-1.5 35.5q-1 9 -2 16.5t-2 13.5
q-1 2 -1.5 4.5t-0.5 4.5q-1 -1 -2.5 -2t-2.5 -2l-0.5 -0.5l-0.5 -0.5l-1.5 -1.5l-1.5 -1.5l-40 1v1h40v0zM676 528l5 5l5 6v0v2v0l1 2q1 1 -0.5 3t-3.5 5q-2 2 -4.5 6t-7.5 8q-10 9 -22.5 16.5t-27.5 11.5q-10 3 -21 5t-23 3h-2.5h-2.5h-2.5h-2.5q-20 -1 -40 -5.5t-40 -10.5
q-21 -7 -39 -16t-33 -20q-28 -19 -50.5 -41.5t-41.5 -47.5t-33 -50t-24 -51l-4 -12l-4 -12q-3 -6 -4.5 -12t-3.5 -12q-6 -23 -9.5 -45.5t-4.5 -43.5q0 -21 2 -39.5t6 -34.5q1 -4 2.5 -8.5l2.5 -7.5q1 -4 2.5 -7t2.5 -6l422 409v0v0z" />
    <glyph glyph-name="Ugrave" unicode="&#xd9;" horiz-adv-x="741" 
d="M261 567q2 7 0 12.5t-8 7.5t-13 3t-15 2l-2 1h-1q-7 -1 -14 0t-13 2q-5 2 -7 6t0 11q1 4 4 6.5t7 3.5q5 2 11 2.5t13 0.5l40 1q2 -1 4.5 -1h4.5q3 -1 5.5 -1h5.5q6 -1 12 -1h12q2 -1 4 -1.5t5 -0.5h3h3h2.5h2.5h4.5t4.5 -1h3.5t2.5 1h3.5h2.5q8 0 15.5 0.5t15.5 1.5h13.5
t12.5 1h6t5 1h5.5h5.5l40 1q7 -1 12 -1.5t9 -2.5q5 -1 6.5 -3.5t0.5 -6.5q-2 -7 -6.5 -12t-9.5 -7q-3 -1 -6.5 -1.5t-6.5 -0.5q-3 -1 -6.5 -1h-6.5l-3 1h-3h-2h-1q-10 -1 -18.5 -2.5t-16.5 -3.5t-14 -9t-9 -19l-111 -415q-9 -34 -0.5 -59t33.5 -42q21 -15 47 -23t56 -10
q14 1 28.5 3.5t29.5 6.5t29.5 9.5t28.5 12.5q33 17 54.5 41.5t30.5 58.5l102 380q6 21 5.5 35t-7.5 21q-6 7 -14 10.5t-18 4.5l-4 1h-4q-3 -1 -5.5 -1h-4.5h-5.5h-4.5q-5 -1 -9 -0.5t-7 1.5q-2 2 -2.5 5t0.5 7q2 6 4.5 10t7.5 6t11.5 3t13.5 1l40 1q2 -1 4 -1h4q2 -1 4.5 -1
h4.5h4.5h4.5q3 -1 5.5 -1h5.5q5 -1 9.5 -1.5t9.5 -0.5h6t7 1q5 0 10.5 0.5t11.5 1.5h4.5h5.5q2 0 4.5 0.5t4.5 0.5h4t4 1h4h4l40 1q5 -1 9.5 -1.5t6.5 -2.5q3 -1 4 -3.5t0 -6.5q-2 -7 -5.5 -11t-8.5 -6q-4 -1 -10 -1.5t-12 -0.5h-7h-6q-9 -2 -17.5 -5.5t-16.5 -8.5
t-14.5 -17t-11.5 -30l-1 -3l-1 -3l-1 -4v-3l-99 -369q-12 -46 -40.5 -79t-72.5 -54q-43 -20 -88 -31t-90 -12h-40h-2h-1q-47 0 -87.5 10.5t-73.5 30.5q-34 21 -44.5 52t0.5 73l114 427v0v0zM620 701l-163 94q-5 1 -8 3t-5 6q-1 4 -1 8t1 8q1 5 4 10.5t8 9.5q5 5 11 7t13 2
l40 1q2 -1 4 -1.5t4 -0.5q2 -1 4 -1.5t4 -1.5q4 -2 8.5 -5t9.5 -7l127 -116l2 -4l2 -2l2 -6v-4l-3 -6q-1 -2 -2 -2.5t-2 -0.5h-2h-2l-40 1q-2 -1 -4.5 -1t-4.5 1q-1 0 -2 1l-1 1l-2 2l-2 2v2v0z" />
    <glyph glyph-name="Uacute" unicode="&#xda;" horiz-adv-x="741" 
d="M261 567q2 7 0 12.5t-8 7.5t-13 3t-15 2l-2 1h-1q-7 -1 -14 0t-13 2q-5 2 -7 6t0 11q1 4 4 6.5t7 3.5q5 2 11 2.5t13 0.5l40 1q2 -1 4.5 -1h4.5q3 -1 5.5 -1h5.5q6 -1 12 -1h12q2 -1 4 -1.5t5 -0.5h3h3h2.5h2.5h4.5t4.5 -1h3.5t2.5 1h3.5h2.5q8 0 15.5 0.5t15.5 1.5h13.5
t12.5 1h6t5 1h5.5h5.5l40 1q7 -1 12 -1.5t9 -2.5q5 -1 6.5 -3.5t0.5 -6.5q-2 -7 -6.5 -12t-9.5 -7q-3 -1 -6.5 -1.5t-6.5 -0.5q-3 -1 -6.5 -1h-6.5l-3 1h-3h-2h-1q-10 -1 -18.5 -2.5t-16.5 -3.5t-14 -9t-9 -19l-111 -415q-9 -34 -0.5 -59t33.5 -42q21 -15 47 -23t56 -10
q14 1 28.5 3.5t29.5 6.5t29.5 9.5t28.5 12.5q33 17 54.5 41.5t30.5 58.5l102 380q6 21 5.5 35t-7.5 21q-6 7 -14 10.5t-18 4.5l-4 1h-4q-3 -1 -5.5 -1h-4.5h-5.5h-4.5q-5 -1 -9 -0.5t-7 1.5q-2 2 -2.5 5t0.5 7q2 6 4.5 10t7.5 6t11.5 3t13.5 1l40 1q2 -1 4 -1h4q2 -1 4.5 -1
h4.5h4.5h4.5q3 -1 5.5 -1h5.5q5 -1 9.5 -1.5t9.5 -0.5h6t7 1q5 0 10.5 0.5t11.5 1.5h4.5h5.5q2 0 4.5 0.5t4.5 0.5h4t4 1h4h4l40 1q5 -1 9.5 -1.5t6.5 -2.5q3 -1 4 -3.5t0 -6.5q-2 -7 -5.5 -11t-8.5 -6q-4 -1 -10 -1.5t-12 -0.5h-7h-6q-9 -2 -17.5 -5.5t-16.5 -8.5
t-14.5 -17t-11.5 -30l-1 -3l-1 -3l-1 -4v-3l-99 -369q-12 -46 -40.5 -79t-72.5 -54q-43 -20 -88 -31t-90 -12h-40h-2h-1q-47 0 -87.5 10.5t-73.5 30.5q-34 21 -44.5 52t0.5 73l114 427v0v0zM444 717l188 118q6 2 12 5t12 5q5 2 10 3t9 1l40 1q8 -1 13 -3t9 -7q2 -2 2.5 -4.5
t1.5 -4.5q1 -3 1 -5.5v-4.5l-1 -1v-1q-1 -4 -2.5 -6.5t-3.5 -5.5q0 -1 -0.5 -1.5l-1.5 -1.5q-3 -4 -7 -6.5t-9 -4.5l-214 -92q-5 -4 -9 -5.5t-8 -3.5q-3 -1 -6 -1.5t-5 -0.5l-40 1l-7 1l-2 5q1 1 2 2.5l3 4.5l5 5t7 6l1 2v0z" />
    <glyph glyph-name="Ucircumflex" unicode="&#xdb;" horiz-adv-x="741" 
d="M261 567q2 7 0 12.5t-8 7.5t-13 3t-15 2l-2 1h-1q-7 -1 -14 0t-13 2q-5 2 -7 6t0 11q1 4 4 6.5t7 3.5q5 2 11 2.5t13 0.5l40 1q2 -1 4.5 -1h4.5q3 -1 5.5 -1h5.5q6 -1 12 -1h12q2 -1 4 -1.5t5 -0.5h3h3h2.5h2.5h4.5t4.5 -1h3.5t2.5 1h3.5h2.5q8 0 15.5 0.5t15.5 1.5h13.5
t12.5 1h6t5 1h5.5h5.5l40 1q7 -1 12 -1.5t9 -2.5q5 -1 6.5 -3.5t0.5 -6.5q-2 -7 -6.5 -12t-9.5 -7q-3 -1 -6.5 -1.5t-6.5 -0.5q-3 -1 -6.5 -1h-6.5l-3 1h-3h-2h-1q-10 -1 -18.5 -2.5t-16.5 -3.5t-14 -9t-9 -19l-111 -415q-9 -34 -0.5 -59t33.5 -42q21 -15 47 -23t56 -10
q14 1 28.5 3.5t29.5 6.5t29.5 9.5t28.5 12.5q33 17 54.5 41.5t30.5 58.5l102 380q6 21 5.5 35t-7.5 21q-6 7 -14 10.5t-18 4.5l-4 1h-4q-3 -1 -5.5 -1h-4.5h-5.5h-4.5q-5 -1 -9 -0.5t-7 1.5q-2 2 -2.5 5t0.5 7q2 6 4.5 10t7.5 6t11.5 3t13.5 1l40 1q2 -1 4 -1h4q2 -1 4.5 -1
h4.5h4.5h4.5q3 -1 5.5 -1h5.5q5 -1 9.5 -1.5t9.5 -0.5h6t7 1q5 0 10.5 0.5t11.5 1.5h4.5h5.5q2 0 4.5 0.5t4.5 0.5h4t4 1h4h4l40 1q5 -1 9.5 -1.5t6.5 -2.5q3 -1 4 -3.5t0 -6.5q-2 -7 -5.5 -11t-8.5 -6q-4 -1 -10 -1.5t-12 -0.5h-7h-6q-9 -2 -17.5 -5.5t-16.5 -8.5
t-14.5 -17t-11.5 -30l-1 -3l-1 -3l-1 -4v-3l-99 -369q-12 -46 -40.5 -79t-72.5 -54q-43 -20 -88 -31t-90 -12h-40h-2h-1q-47 0 -87.5 10.5t-73.5 30.5q-34 21 -44.5 52t0.5 73l114 427v0v0zM552 858q5 1 9.5 3.5t8.5 3.5q4 2 7.5 2.5t6.5 0.5l40 1q4 -1 7.5 -1.5t6.5 -2.5
q2 -1 4.5 -3.5t4.5 -5.5l71 -116q5 -11 6.5 -18.5t-0.5 -12.5q-3 -4 -6.5 -7t-8.5 -3l-40 1h-4l-3 2l-5 2l-3 4l-73 78v-1v0l-113 -68q-7 -5 -12 -7t-8 -4q-4 -1 -7.5 -2t-5.5 -1l-40 1l-6 2q-1 0 -2 1.5t0 3.5l2 4l2 4q2 2 4 5t5 6l152 128v0v0z" />
    <glyph glyph-name="Udieresis" unicode="&#xdc;" horiz-adv-x="741" 
d="M261 567q2 7 0 12.5t-8 7.5t-13 3t-15 2l-2 1h-1q-7 -1 -14 0t-13 2q-5 2 -7 6t0 11q1 4 4 6.5t7 3.5q5 2 11 2.5t13 0.5l40 1q2 -1 4.5 -1h4.5q3 -1 5.5 -1h5.5q6 -1 12 -1h12q2 -1 4 -1.5t5 -0.5h3h3h2.5h2.5h4.5t4.5 -1h3.5t2.5 1h3.5h2.5q8 0 15.5 0.5t15.5 1.5h13.5
t12.5 1h6t5 1h5.5h5.5l40 1q7 -1 12 -1.5t9 -2.5q5 -1 6.5 -3.5t0.5 -6.5q-2 -7 -6.5 -12t-9.5 -7q-3 -1 -6.5 -1.5t-6.5 -0.5q-3 -1 -6.5 -1h-6.5l-3 1h-3h-2h-1q-10 -1 -18.5 -2.5t-16.5 -3.5t-14 -9t-9 -19l-111 -415q-9 -34 -0.5 -59t33.5 -42q21 -15 47 -23t56 -10
q14 1 28.5 3.5t29.5 6.5t29.5 9.5t28.5 12.5q33 17 54.5 41.5t30.5 58.5l102 380q6 21 5.5 35t-7.5 21q-6 7 -14 10.5t-18 4.5l-4 1h-4q-3 -1 -5.5 -1h-4.5h-5.5h-4.5q-5 -1 -9 -0.5t-7 1.5q-2 2 -2.5 5t0.5 7q2 6 4.5 10t7.5 6t11.5 3t13.5 1l40 1q2 -1 4 -1h4q2 -1 4.5 -1
h4.5h4.5h4.5q3 -1 5.5 -1h5.5q5 -1 9.5 -1.5t9.5 -0.5h6t7 1q5 0 10.5 0.5t11.5 1.5h4.5h5.5q2 0 4.5 0.5t4.5 0.5h4t4 1h4h4l40 1q5 -1 9.5 -1.5t6.5 -2.5q3 -1 4 -3.5t0 -6.5q-2 -7 -5.5 -11t-8.5 -6q-4 -1 -10 -1.5t-12 -0.5h-7h-6q-9 -2 -17.5 -5.5t-16.5 -8.5
t-14.5 -17t-11.5 -30l-1 -3l-1 -3l-1 -4v-3l-99 -369q-12 -46 -40.5 -79t-72.5 -54q-43 -20 -88 -31t-90 -12h-40h-2h-1q-47 0 -87.5 10.5t-73.5 30.5q-34 21 -44.5 52t0.5 73l114 427v0v0zM446 756q3 9 8 16.5t14 13.5q7 4 12.5 6.5t11.5 4.5q3 0 6 0.5t6 0.5l40 1
q8 -1 14.5 -4t10.5 -8q5 -5 6 -13.5t-2 -19.5q-4 -13 -10 -23t-14 -17t-16.5 -10t-16.5 -3l-40 1q-9 -2 -15.5 1t-11.5 10q-6 7 -6.5 17.5t3.5 23.5v2v0zM627 756q3 9 8 16.5t14 13.5q7 4 12.5 6.5t11.5 4.5q3 0 6 0.5t6 0.5l40 1q8 -1 14.5 -4t10.5 -8q5 -5 6 -13.5
t-2 -19.5q-4 -13 -10 -23t-14 -17t-16.5 -10t-16.5 -3l-40 1q-9 -2 -15.5 1t-11.5 10q-6 7 -6.5 17.5t3.5 23.5v2v0z" />
    <glyph glyph-name="Yacute" unicode="&#xdd;" 
 />
    <glyph glyph-name="Thorn" unicode="&#xde;" horiz-adv-x="599" 
 />
    <glyph glyph-name="germandbls" unicode="&#xdf;" horiz-adv-x="599" 
d="M150 417q-4 -2 -6.5 -1t-4.5 4q-1 2 -1 5t1 7v2v2q0 1 1 2.5t3 3.5q1 1 2.5 3t3.5 3q4 3 9 5t11 2q2 0 4.5 0.5t4.5 1.5q2 0 4.5 0.5t4.5 1.5q6 1 10.5 2.5t7.5 3.5q1 1 2.5 1.5t2.5 1.5l4.5 4.5l5.5 5.5q1 2 2.5 4.5t4.5 5.5q2 3 4.5 6.5t4.5 7.5q17 26 41 49t53 42
q20 13 38.5 22.5t37.5 16.5q10 3 19.5 5.5t18.5 4.5h3.5t2.5 1h3.5h3.5h3.5t3.5 1h3h4l40 1q36 -1 64.5 -9t48.5 -23q20 -16 31 -33t14 -35v-5.5v-4.5v-2.5v-3.5v-1.5v-1.5q-1 -2 -1.5 -4.5t-0.5 -4.5q0 -1 -0.5 -2t-0.5 -2t-0.5 -2.5t-0.5 -3.5q0 -1 -0.5 -2.5t-0.5 -2.5
q-7 -25 -19 -43t-30 -29q-18 -10 -36 -17t-37 -12q-4 -1 -8.5 -2t-8.5 -2q-2 0 -4 -0.5t-4 -0.5q-3 -1 -5 -1.5t-4 -0.5q-14 -3 -26 -6.5t-22 -7.5q-11 -4 -17.5 -11t-9.5 -17t-0.5 -18.5t9.5 -14.5q8 -6 18 -11.5t22 -10.5q5 -3 10.5 -5.5t11.5 -4.5q5 -2 11 -4.5t13 -4.5
q19 -9 35 -21.5t30 -28.5t16.5 -40t-6.5 -56l-1 -2l-1 -4q-10 -38 -28.5 -64t-46.5 -41t-55.5 -23t-56.5 -10h-2.5t-2.5 -1h-3h-2h-40h-5.5h-4.5q-24 0 -44.5 3t-37.5 9q-17 4 -26 11t-11 14v3l1 3l23 88q2 4 3.5 8t5.5 7t7.5 4.5t7.5 1.5l40 1q4 -1 7 -3t6 -6
q2 -4 2.5 -9.5t-1.5 -13.5q-3 -19 -0.5 -37t12.5 -34q7 -13 17 -20t23 -10q2 1 5 1.5t6 1.5q10 3 20 7.5t21 11.5q8 5 16.5 13t15.5 18q8 11 12.5 21.5t7.5 21.5l2 6v6q1 4 1 9.5v10.5q-1 5 -2.5 10.5t-3.5 9.5q-4 9 -11.5 16.5t-17.5 13.5q-3 2 -6.5 4t-7.5 4q-1 1 -3 2
t-4 3l-10 6t-11 6l-5 3l-6 3q-18 8 -34.5 19t-30.5 24q-15 12 -18.5 30.5t3.5 42.5q1 4 2.5 8.5t2.5 8.5q2 5 4 9.5t5 9.5q5 9 12.5 15.5t17.5 10.5q11 5 23.5 8.5t26.5 7.5q2 1 4 1.5t5 1.5h2.5t2.5 1q1 0 2.5 0.5t2.5 1.5q18 5 34.5 11t32.5 15t27.5 24t16.5 36q1 2 1.5 4
t0.5 4q0 1 0.5 2t0.5 2t0.5 2t0.5 2q2 22 -3 39t-19 29q-11 9 -24 15t-28 9q-8 -1 -17 -3.5t-17 -6.5q-13 -5 -26 -12.5t-25 -16.5q-25 -19 -42 -48t-28 -68l-112 -416q-1 -4 -1.5 -7t-1.5 -5q-3 -10 -6 -16l-4 -8q-3 -2 -10 -2.5t-18 -0.5h-40h-87h-11.5h-10.5
q-4 0 -6.5 1.5t-1.5 4.5q2 6 4.5 9.5t6.5 4.5t9 1.5t10 0.5v1h1h5h6q6 -1 12 1.5t13 6.5q7 5 12 14t9 24l85 317q3 10 3 16.5t-2 8.5q-3 2 -13 3t-28 1v2v0z" />
    <glyph glyph-name="agrave" unicode="&#xe0;" horiz-adv-x="520" 
d="M385 323l10 39q5 19 4.5 33t-7.5 23q-4 5 -10 9t-13 6q-11 -2 -21.5 -6t-20.5 -10q-5 -2 -10.5 -5t-10.5 -7q-16 -10 -26.5 -21.5t-17.5 -23.5q-4 -10 -10.5 -18t-15.5 -15q-8 -7 -17 -12t-18 -8q-4 -1 -8 -2.5t-7 -2.5q-4 -1 -7.5 -1h-6.5l-40 1q-4 -1 -7.5 0t-6.5 3
q-2 2 -2.5 5t0.5 7v3l1 2q11 16 26.5 33.5t36.5 33.5q21 17 49 31.5t64 26.5q13 4 25 7t24 5t23 3.5t21 1.5l40 1q24 -1 42 -7t30 -17q12 -12 15 -28t-2 -37l-72 -266q-6 -22 -7.5 -35.5t-0.5 -20.5q0 -1 0.5 -1.5t0.5 -1.5t0.5 -1.5l0.5 -0.5l7 5q6 2 12 5t11 5l40 1
q5 1 7 0.5t3 -4.5q-1 -3 -2.5 -6.5t-4.5 -7.5q-2 -4 -5.5 -7.5t-8.5 -7.5q-7 -6 -15.5 -12t-19.5 -11q-10 -5 -20 -8t-20 -5h-2h-1h-2h-2l-6 -1h-40q-10 0 -18 2.5t-14 7.5q-7 5 -10.5 15t-2.5 25q-5 -4 -9.5 -7t-9.5 -6q-3 -2 -6.5 -4.5t-7.5 -4.5t-7.5 -4t-6.5 -4
q-9 -5 -18 -8.5t-18 -6.5q-5 -1 -9 -2t-9 -2q-13 -3 -24 -5t-22 -2h-40q-22 0 -38.5 5.5t-28.5 15.5q-11 11 -13.5 26.5t2.5 34.5q1 3 2 6.5t3 7.5q1 4 2.5 7.5t4.5 7.5q5 10 13 19t19 18q4 3 7.5 6t7.5 5q7 6 14.5 11t15.5 10q11 6 21.5 12t20.5 10q10 5 16.5 8t9.5 4
l134 57q9 1 15 5t9 10q3 5 7 16.5t9 29.5v2v0zM357 220q1 0 1 0.5v1.5l-97 -41q-5 -4 -10 -7l-10 -6q-6 -4 -11 -7.5t-10 -8.5q-10 -9 -18 -18.5t-14 -20.5q-1 -1 -2 -2.5t-2 -2.5q0 -2 -1 -3t-1 -3l-2 -6t-2 -5q-2 -7 -2 -14t3 -13t8.5 -11t14.5 -8q1 0 1.5 -0.5t1.5 -0.5
l0.5 -0.5l0.5 -0.5q1 -1 2.5 -1.5t2.5 -0.5t1.5 0.5t1.5 0.5l0.5 0.5t1.5 0.5q18 4 36 12t36 21q17 12 28.5 25.5t16.5 27.5l1 2v2l23 87v0v0zM478 520l-164 94q-4 1 -7.5 3t-4.5 6t-1.5 8t0.5 8q2 5 5 10.5t7 9.5q5 5 11 7t13 2l40 1l8 -2t9 -3q4 -2 8.5 -5t8.5 -7
l126 -117l2 -4l3 -2l2 -6l1 -4l-4 -5q-1 -2 -3 -2.5t-4 -0.5l-40 1q-2 -1 -4.5 -1t-4.5 1t-3.5 2.5l-3.5 3.5v2v0z" />
    <glyph glyph-name="aacute" unicode="&#xe1;" horiz-adv-x="520" 
d="M385 323l10 39q5 19 4.5 33t-7.5 23q-4 5 -10 9t-13 6q-11 -2 -21.5 -6t-20.5 -10q-5 -2 -10.5 -5t-10.5 -7q-16 -10 -26.5 -21.5t-17.5 -23.5q-4 -10 -10.5 -18t-15.5 -15q-8 -7 -17 -12t-18 -8q-4 -1 -8 -2.5t-7 -2.5q-4 -1 -7.5 -1h-6.5l-40 1q-4 -1 -7.5 0t-6.5 3
q-2 2 -2.5 5t0.5 7v3l1 2q11 16 26.5 33.5t36.5 33.5q21 17 49 31.5t64 26.5q13 4 25 7t24 5t23 3.5t21 1.5l40 1q24 -1 42 -7t30 -17q12 -12 15 -28t-2 -37l-72 -266q-6 -22 -7.5 -35.5t-0.5 -20.5q0 -1 0.5 -1.5t0.5 -1.5t0.5 -1.5l0.5 -0.5l7 5q6 2 12 5t11 5l40 1
q5 1 7 0.5t3 -4.5q-1 -3 -2.5 -6.5t-4.5 -7.5q-2 -4 -5.5 -7.5t-8.5 -7.5q-7 -6 -15.5 -12t-19.5 -11q-10 -5 -20 -8t-20 -5h-2h-1h-2h-2l-6 -1h-40q-10 0 -18 2.5t-14 7.5q-7 5 -10.5 15t-2.5 25q-5 -4 -9.5 -7t-9.5 -6q-3 -2 -6.5 -4.5t-7.5 -4.5t-7.5 -4t-6.5 -4
q-9 -5 -18 -8.5t-18 -6.5q-5 -1 -9 -2t-9 -2q-13 -3 -24 -5t-22 -2h-40q-22 0 -38.5 5.5t-28.5 15.5q-11 11 -13.5 26.5t2.5 34.5q1 3 2 6.5t3 7.5q1 4 2.5 7.5t4.5 7.5q5 10 13 19t19 18q4 3 7.5 6t7.5 5q7 6 14.5 11t15.5 10q11 6 21.5 12t20.5 10q10 5 16.5 8t9.5 4
l134 57q9 1 15 5t9 10q3 5 7 16.5t9 29.5v2v0zM357 220q1 0 1 0.5v1.5l-97 -41q-5 -4 -10 -7l-10 -6q-6 -4 -11 -7.5t-10 -8.5q-10 -9 -18 -18.5t-14 -20.5q-1 -1 -2 -2.5t-2 -2.5q0 -2 -1 -3t-1 -3l-2 -6t-2 -5q-2 -7 -2 -14t3 -13t8.5 -11t14.5 -8q1 0 1.5 -0.5t1.5 -0.5
l0.5 -0.5l0.5 -0.5q1 -1 2.5 -1.5t2.5 -0.5t1.5 0.5t1.5 0.5l0.5 0.5t1.5 0.5q18 4 36 12t36 21q17 12 28.5 25.5t16.5 27.5l1 2v2l23 87v0v0zM271 543l189 118q6 2 12 5t12 5q5 2 10.5 3t9.5 1l40 1q8 -1 13 -3.5t8 -7.5q3 -4 4 -9.5t0 -10.5q-1 -4 -3.5 -7.5t-4.5 -6.5
q-3 -4 -7 -6.5t-9 -4.5l-214 -92q-5 -4 -9.5 -5.5t-7.5 -3.5q-4 -1 -7 -1.5t-5 -0.5l-40 1l-6 1l-2 5q0 1 1.5 2.5l3.5 3.5l5 5t7 6v2v0z" />
    <glyph glyph-name="acircumflex" unicode="&#xe2;" horiz-adv-x="520" 
d="M385 323l10 39q5 19 4.5 33t-7.5 23q-4 5 -10 9t-13 6q-11 -2 -21.5 -6t-20.5 -10q-5 -2 -10.5 -5t-10.5 -7q-16 -10 -26.5 -21.5t-17.5 -23.5q-4 -10 -10.5 -18t-15.5 -15q-8 -7 -17 -12t-18 -8q-4 -1 -8 -2.5t-7 -2.5q-4 -1 -7.5 -1h-6.5l-40 1q-4 -1 -7.5 0t-6.5 3
q-2 2 -2.5 5t0.5 7v3l1 2q11 16 26.5 33.5t36.5 33.5q21 17 49 31.5t64 26.5q13 4 25 7t24 5t23 3.5t21 1.5l40 1q24 -1 42 -7t30 -17q12 -12 15 -28t-2 -37l-72 -266q-6 -22 -7.5 -35.5t-0.5 -20.5q0 -1 0.5 -1.5t0.5 -1.5t0.5 -1.5l0.5 -0.5l7 5q6 2 12 5t11 5l40 1
q5 1 7 0.5t3 -4.5q-1 -3 -2.5 -6.5t-4.5 -7.5q-2 -4 -5.5 -7.5t-8.5 -7.5q-7 -6 -15.5 -12t-19.5 -11q-10 -5 -20 -8t-20 -5h-2h-1h-2h-2l-6 -1h-40q-10 0 -18 2.5t-14 7.5q-7 5 -10.5 15t-2.5 25q-5 -4 -9.5 -7t-9.5 -6q-3 -2 -6.5 -4.5t-7.5 -4.5t-7.5 -4t-6.5 -4
q-9 -5 -18 -8.5t-18 -6.5q-5 -1 -9 -2t-9 -2q-13 -3 -24 -5t-22 -2h-40q-22 0 -38.5 5.5t-28.5 15.5q-11 11 -13.5 26.5t2.5 34.5q1 3 2 6.5t3 7.5q1 4 2.5 7.5t4.5 7.5q5 10 13 19t19 18q4 3 7.5 6t7.5 5q7 6 14.5 11t15.5 10q11 6 21.5 12t20.5 10q10 5 16.5 8t9.5 4
l134 57q9 1 15 5t9 10q3 5 7 16.5t9 29.5v2v0zM357 220q1 0 1 0.5v1.5l-97 -41q-5 -4 -10 -7l-10 -6q-6 -4 -11 -7.5t-10 -8.5q-10 -9 -18 -18.5t-14 -20.5q-1 -1 -2 -2.5t-2 -2.5q0 -2 -1 -3t-1 -3l-2 -6t-2 -5q-2 -7 -2 -14t3 -13t8.5 -11t14.5 -8q1 0 1.5 -0.5t1.5 -0.5
l0.5 -0.5l0.5 -0.5q1 -1 2.5 -1.5t2.5 -0.5t1.5 0.5t1.5 0.5l0.5 0.5t1.5 0.5q18 4 36 12t36 21q17 12 28.5 25.5t16.5 27.5l1 2v2l23 87v0v0zM378 677q5 1 9 3.5t8 3.5q5 2 8.5 2.5t6.5 0.5l40 1q4 -1 7.5 -1.5t5.5 -2.5q3 -1 5.5 -3.5t4.5 -5.5l70 -116q6 -11 7.5 -18.5
t-1.5 -12.5q-2 -4 -5.5 -7t-8.5 -3l-40 1h-4l-4 2l-4 2l-3 4l-73 78v-1v0l-114 -69q-11 -7 -19 -10t-13 -3l-40 1q-4 -1 -6.5 1t-1.5 6q0 2 1 4t3 4t4 5t5 6l152 128v0v0z" />
    <glyph glyph-name="atilde" unicode="&#xe3;" horiz-adv-x="520" 
d="M385 323l10 39q5 19 4.5 33t-7.5 23q-4 5 -10 9t-13 6q-11 -2 -21.5 -6t-20.5 -10q-5 -2 -10.5 -5t-10.5 -7q-16 -10 -26.5 -21.5t-17.5 -23.5q-4 -10 -10.5 -18t-15.5 -15q-8 -7 -17 -12t-18 -8q-4 -1 -8 -2.5t-7 -2.5q-4 -1 -7.5 -1h-6.5l-40 1q-4 -1 -7.5 0t-6.5 3
q-2 2 -2.5 5t0.5 7v3l1 2q11 16 26.5 33.5t36.5 33.5q21 17 49 31.5t64 26.5q13 4 25 7t24 5t23 3.5t21 1.5l40 1q24 -1 42 -7t30 -17q12 -12 15 -28t-2 -37l-72 -266q-6 -22 -7.5 -35.5t-0.5 -20.5q0 -1 0.5 -1.5t0.5 -1.5t0.5 -1.5l0.5 -0.5l7 5q6 2 12 5t11 5l40 1
q5 1 7 0.5t3 -4.5q-1 -3 -2.5 -6.5t-4.5 -7.5q-2 -4 -5.5 -7.5t-8.5 -7.5q-7 -6 -15.5 -12t-19.5 -11q-10 -5 -20 -8t-20 -5h-2h-1h-2h-2l-6 -1h-40q-10 0 -18 2.5t-14 7.5q-7 5 -10.5 15t-2.5 25q-5 -4 -9.5 -7t-9.5 -6q-3 -2 -6.5 -4.5t-7.5 -4.5t-7.5 -4t-6.5 -4
q-9 -5 -18 -8.5t-18 -6.5q-5 -1 -9 -2t-9 -2q-13 -3 -24 -5t-22 -2h-40q-22 0 -38.5 5.5t-28.5 15.5q-11 11 -13.5 26.5t2.5 34.5q1 3 2 6.5t3 7.5q1 4 2.5 7.5t4.5 7.5q5 10 13 19t19 18q4 3 7.5 6t7.5 5q7 6 14.5 11t15.5 10q11 6 21.5 12t20.5 10q10 5 16.5 8t9.5 4
l134 57q9 1 15 5t9 10q3 5 7 16.5t9 29.5v2v0zM357 220q1 0 1 0.5v1.5l-97 -41q-5 -4 -10 -7l-10 -6q-6 -4 -11 -7.5t-10 -8.5q-10 -9 -18 -18.5t-14 -20.5q-1 -1 -2 -2.5t-2 -2.5q0 -2 -1 -3t-1 -3l-2 -6t-2 -5q-2 -7 -2 -14t3 -13t8.5 -11t14.5 -8q1 0 1.5 -0.5t1.5 -0.5
l0.5 -0.5l0.5 -0.5q1 -1 2.5 -1.5t2.5 -0.5t1.5 0.5t1.5 0.5l0.5 0.5t1.5 0.5q18 4 36 12t36 21q17 12 28.5 25.5t16.5 27.5l1 2v2l23 87v0v0zM256 575q11 13 21 24.5t20 19.5t19 14.5t18 10.5q4 2 8 3t9 2q4 1 7.5 1.5t7.5 0.5l40 1q8 -1 16 -2.5t15 -4.5l12 -8t11 -9
q13 -12 24 -20.5t20 -13.5q3 -1 6 -2.5t6 -2.5q1 0 1.5 0.5l1.5 1.5q2 2 4.5 4t5.5 4l4.5 4.5l4.5 4.5v1l1 1l1 1l2 2q6 6 11.5 10.5t9.5 5.5l40 1q5 1 6.5 -0.5t1.5 -6.5l-3 -4l-2 -6q-1 -4 -2.5 -6.5t-3.5 -4.5q-1 -1 -2 -2.5t-2 -2.5q-1 -2 -2 -3l-2 -2
q-7 -9 -16.5 -16.5t-20.5 -14.5q-12 -7 -24 -11t-26 -4l-40 1q-7 -1 -14.5 0.5t-15.5 4.5q-5 2 -10 5t-10 7q-3 2 -5 4.5t-5 4.5q-10 11 -19 18t-17 11q-2 2 -5 3l-6 2q-1 -1 -3.5 -2t-4.5 -3q-7 -4 -13 -10t-12 -13l-3 -2l-3 -3q-7 -11 -13 -16.5t-11 -7.5l-40 1
q-5 -3 -6 -1t0 8q0 1 0.5 1.5t0.5 1.5t0.5 2t0.5 2l2 4l2 4l1 2v0z" />
    <glyph glyph-name="adieresis" unicode="&#xe4;" horiz-adv-x="520" 
d="M385 323l10 39q5 19 4.5 33t-7.5 23q-4 5 -10 9t-13 6q-11 -2 -21.5 -6t-20.5 -10q-5 -2 -10.5 -5t-10.5 -7q-16 -10 -26.5 -21.5t-17.5 -23.5q-4 -10 -10.5 -18t-15.5 -15q-8 -7 -17 -12t-18 -8q-4 -1 -8 -2.5t-7 -2.5q-4 -1 -7.5 -1h-6.5l-40 1q-4 -1 -7.5 0t-6.5 3
q-2 2 -2.5 5t0.5 7v3l1 2q11 16 26.5 33.5t36.5 33.5q21 17 49 31.5t64 26.5q13 4 25 7t24 5t23 3.5t21 1.5l40 1q24 -1 42 -7t30 -17q12 -12 15 -28t-2 -37l-72 -266q-6 -22 -7.5 -35.5t-0.5 -20.5q0 -1 0.5 -1.5t0.5 -1.5t0.5 -1.5l0.5 -0.5l7 5q6 2 12 5t11 5l40 1
q5 1 7 0.5t3 -4.5q-1 -3 -2.5 -6.5t-4.5 -7.5q-2 -4 -5.5 -7.5t-8.5 -7.5q-7 -6 -15.5 -12t-19.5 -11q-10 -5 -20 -8t-20 -5h-2h-1h-2h-2l-6 -1h-40q-10 0 -18 2.5t-14 7.5q-7 5 -10.5 15t-2.5 25q-5 -4 -9.5 -7t-9.5 -6q-3 -2 -6.5 -4.5t-7.5 -4.5t-7.5 -4t-6.5 -4
q-9 -5 -18 -8.5t-18 -6.5q-5 -1 -9 -2t-9 -2q-13 -3 -24 -5t-22 -2h-40q-22 0 -38.5 5.5t-28.5 15.5q-11 11 -13.5 26.5t2.5 34.5q1 3 2 6.5t3 7.5q1 4 2.5 7.5t4.5 7.5q5 10 13 19t19 18q4 3 7.5 6t7.5 5q7 6 14.5 11t15.5 10q11 6 21.5 12t20.5 10q10 5 16.5 8t9.5 4
l134 57q9 1 15 5t9 10q3 5 7 16.5t9 29.5v2v0zM357 220q1 0 1 0.5v1.5l-97 -41q-5 -4 -10 -7l-10 -6q-6 -4 -11 -7.5t-10 -8.5q-10 -9 -18 -18.5t-14 -20.5q-1 -1 -2 -2.5t-2 -2.5q0 -2 -1 -3t-1 -3l-2 -6t-2 -5q-2 -7 -2 -14t3 -13t8.5 -11t14.5 -8q1 0 1.5 -0.5t1.5 -0.5
l0.5 -0.5l0.5 -0.5q1 -1 2.5 -1.5t2.5 -0.5t1.5 0.5t1.5 0.5l0.5 0.5t1.5 0.5q18 4 36 12t36 21q17 12 28.5 25.5t16.5 27.5l1 2v2l23 87v0v0zM270 598q2 9 7.5 16.5t13.5 13.5q8 5 16 8.5t17 4.5l40 1h1h2q8 -1 14 -4t12 -8q4 -6 5 -14.5t-2 -19.5q-3 -13 -9 -23t-14 -16
q-8 -7 -16.5 -10t-16.5 -3l-40 1q-9 -2 -15.5 1t-11.5 10q-6 7 -6.5 17t2.5 23l1 2v0zM451 598q2 9 7.5 16.5t13.5 13.5q8 5 16 8.5t17 4.5l40 1h1h2q8 -1 14 -4t12 -8q4 -6 5 -14.5t-2 -19.5q-3 -13 -9 -23t-14 -16q-8 -7 -16.5 -10t-16.5 -3l-40 1q-9 -2 -15.5 1t-11.5 10
q-6 7 -6.5 17t2.5 23l1 2v0z" />
    <glyph glyph-name="aring" unicode="&#xe5;" horiz-adv-x="520" 
d="M385 323l10 39q5 19 4.5 33t-7.5 23q-4 5 -10 9t-13 6q-11 -2 -21.5 -6t-20.5 -10q-5 -2 -10.5 -5t-10.5 -7q-16 -10 -26.5 -21.5t-17.5 -23.5q-4 -10 -10.5 -18t-15.5 -15q-8 -7 -17 -12t-18 -8q-4 -1 -8 -2.5t-7 -2.5q-4 -1 -7.5 -1h-6.5l-40 1q-4 -1 -7.5 0t-6.5 3
q-2 2 -2.5 5t0.5 7v3l1 2q11 16 26.5 33.5t36.5 33.5q21 17 49 31.5t64 26.5q13 4 25 7t24 5t23 3.5t21 1.5l40 1q24 -1 42 -7t30 -17q12 -12 15 -28t-2 -37l-72 -266q-6 -22 -7.5 -35.5t-0.5 -20.5q0 -1 0.5 -1.5t0.5 -1.5t0.5 -1.5l0.5 -0.5l7 5q6 2 12 5t11 5l40 1
q5 1 7 0.5t3 -4.5q-1 -3 -2.5 -6.5t-4.5 -7.5q-2 -4 -5.5 -7.5t-8.5 -7.5q-7 -6 -15.5 -12t-19.5 -11q-10 -5 -20 -8t-20 -5h-2h-1h-2h-2l-6 -1h-40q-10 0 -18 2.5t-14 7.5q-7 5 -10.5 15t-2.5 25q-5 -4 -9.5 -7t-9.5 -6q-3 -2 -6.5 -4.5t-7.5 -4.5t-7.5 -4t-6.5 -4
q-9 -5 -18 -8.5t-18 -6.5q-5 -1 -9 -2t-9 -2q-13 -3 -24 -5t-22 -2h-40q-22 0 -38.5 5.5t-28.5 15.5q-11 11 -13.5 26.5t2.5 34.5q1 3 2 6.5t3 7.5q1 4 2.5 7.5t4.5 7.5q5 10 13 19t19 18q4 3 7.5 6t7.5 5q7 6 14.5 11t15.5 10q11 6 21.5 12t20.5 10q10 5 16.5 8t9.5 4
l134 57q9 1 15 5t9 10q3 5 7 16.5t9 29.5v2v0zM357 220q1 0 1 0.5v1.5l-97 -41q-5 -4 -10 -7l-10 -6q-6 -4 -11 -7.5t-10 -8.5q-10 -9 -18 -18.5t-14 -20.5q-1 -1 -2 -2.5t-2 -2.5q0 -2 -1 -3t-1 -3l-2 -6t-2 -5q-2 -7 -2 -14t3 -13t8.5 -11t14.5 -8q1 0 1.5 -0.5t1.5 -0.5
l0.5 -0.5l0.5 -0.5q1 -1 2.5 -1.5t2.5 -0.5t1.5 0.5t1.5 0.5l0.5 0.5t1.5 0.5q18 4 36 12t36 21q17 12 28.5 25.5t16.5 27.5l1 2v2l23 87v0v0zM329 614q5 14 14.5 25.5t23.5 20.5q5 3 9 5.5t9 4.5q9 4 18 6.5t18 2.5l40 1h1h2q14 -1 25 -5.5t20 -13.5t11 -23t-3 -34
q-5 -18 -14.5 -31.5t-23.5 -22.5t-28 -13.5t-28 -4.5l-40 1q-14 -2 -25.5 3t-21.5 15q-9 10 -11 25t4 36v2v0zM401 614q-4 -14 -3.5 -24.5t5.5 -17.5q2 -3 4.5 -5t5.5 -4q1 0 2.5 1t2.5 2t2.5 2t2.5 2q8 6 13.5 14.5t8.5 19.5q3 13 2 22t-5 15l-1.5 1.5t-1.5 0.5l-2 2t-3 2
q-1 0 -3 -1.5t-4 -2.5q-1 0 -2 -0.5t-2 -1.5q-10 -6 -15 -13t-7 -15v1z" />
    <glyph glyph-name="ae" unicode="&#xe6;" horiz-adv-x="780" 
d="M518 291q-9 -2 -14.5 -6t-9.5 -12q-2 -4 -3.5 -8t-3.5 -9t-3.5 -10.5t-3.5 -11.5q-1 -3 -1.5 -6t-1.5 -6q0 -1 -0.5 -2.5t-0.5 -3.5q0 -1 -0.5 -2.5t-0.5 -3.5q-4 -27 -0.5 -52.5t13.5 -49.5t29 -39.5t47 -23.5q6 -2 13 -3.5t14 -3.5h2h2q0 -1 1 -1h2q9 1 18.5 3t19.5 6
q7 3 14 6.5t14 8.5t14 11t14 13l7 7l7 5q5 1 8.5 1.5t6.5 -0.5l40 1q2 -2 3.5 -4.5t1.5 -5.5q-1 -2 -2 -4.5t-3 -4.5q-1 -1 -2 -2.5t-3 -2.5q-1 -2 -2 -3l-3 -3q-19 -17 -42.5 -32t-49.5 -27q-25 -10 -51.5 -16.5t-53.5 -6.5h-40q-15 0 -30 2t-31 7q-15 4 -28.5 12.5
t-26.5 21.5q-3 3 -6 5.5t-6 5.5q-2 2 -3 3.5t-3 2.5v0v1q-11 -9 -24 -16.5t-28 -14.5q-23 -10 -46.5 -17.5t-47.5 -11.5q-7 -1 -13.5 -1.5t-13.5 -1.5q-6 -1 -12 -1.5t-12 -0.5h-40q-22 0 -40 4.5t-32 12.5q-14 9 -18 24t2 37q6 23 21 42.5t40 35.5q24 15 50 28.5t54 23.5
q26 10 50.5 18t46.5 15q11 3 19 6t14 7q6 3 10 6t5 6v1l1 1l27 103q4 13 1.5 25.5t-11.5 24.5q-6 8 -13.5 13.5t-16.5 7.5h-2h-1q-1 -1 -2 -1h-2q-7 -1 -14 -4t-15 -7q-3 -2 -6.5 -4t-7.5 -5q-7 -4 -13.5 -9.5t-14.5 -11.5q-10 -9 -21 -20.5t-22 -25.5q-4 -6 -9.5 -11
t-10.5 -9q-6 -4 -12 -7.5t-11 -5.5q-1 0 -2 -0.5t-2 -1.5q-2 0 -4 -0.5t-4 -0.5q-3 -1 -5.5 -1h-4.5l-40 1q-5 -2 -9.5 -1t-7.5 4q-3 2 -3.5 6t0.5 8l1 6l4 6q17 24 40 45t51 38q29 17 57 28.5t56 15.5h3.5t3.5 1h3h4h3.5t3.5 1h1.5h1.5h2.5h2.5l40 1q20 -1 36.5 -5.5
t32.5 -13.5q10 -6 18 -14.5t14 -19.5q11 8 22.5 14.5t24.5 12.5q23 11 46 16t47 5l40 1h6h6q35 -1 61 -7t42 -20q16 -13 26.5 -27.5t14.5 -30.5q2 -7 3 -14.5t0 -14.5q0 -7 -0.5 -13.5t-2.5 -12.5q-1 -4 -2.5 -7.5t-3.5 -6.5q-1 -2 -1.5 -3.5t-1.5 -2.5q-2 -4 -5 -5.5
t-6 -1.5l-40 1l-244 1v0zM354 204q-9 -4 -20 -8t-24 -9q-4 -1 -7.5 -2.5t-7.5 -3.5q-1 -1 -3 -1.5t-3 -1.5q-2 -1 -3.5 -1.5t-3.5 -1.5q-16 -7 -30.5 -15t-27.5 -17t-21 -21.5t-13 -29.5q-5 -19 -2.5 -33.5t12.5 -23.5q7 -6 15 -10t18 -6q4 0 8 1l8 2q3 1 7 2.5t8 3.5
q14 5 24.5 13.5t18.5 19.5q5 6 10 13.5t9 16.5q1 3 2.5 6t2.5 6q3 6 5.5 12t4.5 12l1 5l1 4q2 4 3 9t2 11q1 5 1.5 10t1.5 10q0 2 0.5 4.5t0.5 4.5q1 5 1.5 9.5t0.5 8.5v1zM522 323h115q18 -2 32 1t24 9q9 6 15.5 13.5t9.5 15.5v2v2l0.5 1t0.5 2v4v4q-2 10 -8 19t-16 18
q-8 6 -18 10t-22 6q-13 -2 -25 -6t-24 -10q-17 -9 -30.5 -18t-24.5 -20q-7 -6 -12 -12t-10 -11q-4 -6 -6 -10.5t-4 -8.5q-1 -3 -0.5 -5.5t1.5 -4.5q0 -1 0.5 -1.5t1.5 -0.5v1z" />
    <glyph glyph-name="ccedilla" unicode="&#xe7;" horiz-adv-x="497" 
d="M574 408l-13 -46q-2 -9 -4.5 -15.5t-5.5 -11.5q-1 -2 -2.5 -4t-2.5 -3q-4 -4 -8 -5t-7 0l-40 1q-1 -1 -1.5 -0.5l-1.5 1.5q-2 1 -3.5 2.5t-2.5 3.5l-2 6t-2 7q-4 23 -11.5 40t-18.5 27q-8 7 -16.5 12t-18.5 7q-2 0 -4.5 -0.5t-4.5 -1.5q-3 -1 -5.5 -1.5t-4.5 -1.5
q-11 -4 -21 -8.5t-19 -9.5q-19 -12 -36 -25.5t-33 -29.5t-28 -31.5t-22 -32.5q-4 -7 -7.5 -13.5t-6.5 -13.5q-4 -7 -5.5 -13.5t-3.5 -12.5q-1 -2 -1.5 -4.5t-1.5 -4.5v-2v-2q-1 -1 -1 -2v-2q-4 -46 2 -80t22 -55q16 -22 36 -34.5t44 -17.5q1 0 2 -0.5t2 -0.5q1 -1 2 -1h2
q7 0 14 1t14 3q6 1 13 3.5t14 5.5q17 7 30.5 16t23.5 19l2 2l2 2q2 2 4.5 3.5t3.5 2.5q3 2 5.5 3t4.5 1l40 1l5 -3q1 -2 1 -4.5t-1 -4.5l-1 -4l-4 -6l-2 -3l-1 -2q-12 -17 -32 -31t-47 -27q-28 -11 -59 -17.5t-64 -6.5h-40h-2.5h-2.5h-3h-3h-2.5h-3.5q-1 1 -2.5 1h-3.5h40
l-41 -39h-40q2 1 4.5 1h4.5h40h4.5h5.5q21 0 39.5 -4t33.5 -12t21 -20t2 -27q-1 -6 -5 -12.5t-9 -13.5t-13 -14.5t-18 -15.5q-9 -7 -18.5 -12t-19.5 -9q-11 -3 -21 -5t-20 -3h-40h-5h-4q-16 0 -29 2.5t-24 8.5q-10 6 -14 13t-2 16l3 6l3 6q3 4 6 7t6 5q1 1 2 1.5t2 0.5
q0 1 1 1h2h40q3 0 6 -1.5t4 -5.5l5 -7.5t6 -8.5q2 -4 5 -7.5t7 -7.5l1.5 -1.5t1.5 -0.5q0 -1 0.5 -1.5t1.5 -0.5q8 2 16.5 5.5t16.5 8.5q10 6 16.5 13.5t9.5 15.5q1 3 1 6t-1 6t-1.5 6t-2.5 6q-3 7 -8 12t-11 8q-5 3 -11 5t-12 2h-0.5t-1.5 -1h-1.5h-0.5h-3.5t-3.5 -1h-2.5
h-3.5h-2.5t-3.5 -1h-2h-2h-40l-7 2l-2 4v0.5t1 1.5q0 1 0.5 2t2.5 3t4 4.5t5 5.5l54 55q-38 12 -64 34.5t-40 53.5q-14 32 -16 65.5t7 68.5l1 4v2q8 25 20 50t30 49q19 24 42 44.5t51 36.5q5 2 9.5 4.5t9.5 5.5q4 2 8.5 4.5t9.5 4.5q20 9 40 15t39 10t36.5 6t33.5 2l40 1
q21 -1 39 -3.5t33 -7.5q14 -5 24 -10.5t15 -11.5l3 -6l1 -6v0z" />
    <glyph glyph-name="egrave" unicode="&#xe8;" horiz-adv-x="544" 
d="M244 268q-9 -2 -14.5 -4t-7.5 -6q-1 -1 -2 -3l-2 -4q-2 -5 -3.5 -11t-4.5 -14v-1l-1 -2q-7 -30 -3.5 -57t16.5 -53q13 -25 31.5 -42t42.5 -26q7 -2 14 -3.5t14 -3.5q1 0 2 -0.5t2 -0.5h2h2q13 1 25.5 4t25.5 7q17 6 30.5 13t23.5 16q12 11 22 17t17 6l40 1q6 -1 9 -3
t1 -7q0 -1 -0.5 -2l-0.5 -1q-1 -1 -1.5 -2t-1.5 -2q0 -1 -0.5 -2t-1.5 -1q-1 -1 -1.5 -2t-1.5 -2q-21 -21 -46 -37t-54 -27q-9 -3 -19 -6t-19 -6q-19 -4 -38 -7t-38 -3h-40h-2h-1q-43 1 -79.5 15t-64.5 43t-33.5 75t10.5 110q13 47 43 87t77 71q47 32 97 47.5t103 15.5l40 1
q35 -1 60 -8.5t41 -22.5q14 -15 23.5 -31t11.5 -34q2 -8 2.5 -16.5t-0.5 -16.5t-1.5 -15.5t-2.5 -13.5q-2 -7 -4.5 -12.5t-5.5 -10.5q-2 -4 -4.5 -6.5t-4.5 -2.5l-40 1l-284 1v0zM253 299h103q29 -2 52 2t36 11q14 8 23 16.5t12 18.5v4t1 4v2v3q-1 1 -1 2v2q-1 11 -6 20.5
t-13 18.5t-18.5 15t-21.5 10h-1.5h-1.5h-0.5t-0.5 1h-2h-3q-17 -1 -33.5 -6t-30.5 -13q-21 -10 -38 -22t-30 -25q-7 -6 -12 -12t-9 -12q-5 -6 -7.5 -11.5t-3.5 -10.5q-1 -4 -1 -8t2 -7q0 -1 1.5 -2t3.5 -2v1zM476 512l-164 94q-5 1 -8 3t-4 6t-1.5 8t0.5 8q2 5 5 10.5t7 9.5
q5 5 11 7t13 2l40 1l8 -2t9 -3q4 -2 8.5 -5t8.5 -7l126 -116l2 -4l3 -2l2 -6l1 -4l-4 -6q-1 -2 -3 -2.5t-4 -0.5l-40 1q-2 -1 -4.5 -1t-4.5 1q-1 0 -2 1t-2 1l-2 2l-2 2l1 2v0z" />
    <glyph glyph-name="eacute" unicode="&#xe9;" horiz-adv-x="544" 
d="M244 268q-9 -2 -14.5 -4t-7.5 -6q-1 -1 -2 -3l-2 -4q-2 -5 -3.5 -11t-4.5 -14v-1l-1 -2q-7 -30 -3.5 -57t16.5 -53q13 -25 31.5 -42t42.5 -26q7 -2 14 -3.5t14 -3.5q1 0 2 -0.5t2 -0.5h2h2q13 1 25.5 4t25.5 7q17 6 30.5 13t23.5 16q12 11 22 17t17 6l40 1q6 -1 9 -3
t1 -7q0 -1 -0.5 -2l-0.5 -1q-1 -1 -1.5 -2t-1.5 -2q0 -1 -0.5 -2t-1.5 -1q-1 -1 -1.5 -2t-1.5 -2q-21 -21 -46 -37t-54 -27q-9 -3 -19 -6t-19 -6q-19 -4 -38 -7t-38 -3h-40h-2h-1q-43 1 -79.5 15t-64.5 43t-33.5 75t10.5 110q13 47 43 87t77 71q47 32 97 47.5t103 15.5l40 1
q35 -1 60 -8.5t41 -22.5q14 -15 23.5 -31t11.5 -34q2 -8 2.5 -16.5t-0.5 -16.5t-1.5 -15.5t-2.5 -13.5q-2 -7 -4.5 -12.5t-5.5 -10.5q-2 -4 -4.5 -6.5t-4.5 -2.5l-40 1l-284 1v0zM253 299h103q29 -2 52 2t36 11q14 8 23 16.5t12 18.5v4t1 4v2v3q-1 1 -1 2v2q-1 11 -6 20.5
t-13 18.5t-18.5 15t-21.5 10h-1.5h-1.5h-0.5t-0.5 1h-2h-3q-17 -1 -33.5 -6t-30.5 -13q-21 -10 -38 -22t-30 -25q-7 -6 -12 -12t-9 -12q-5 -6 -7.5 -11.5t-3.5 -10.5q-1 -4 -1 -8t2 -7q0 -1 1.5 -2t3.5 -2v1zM285 535l189 119q6 2 12 5t12 5q2 1 4.5 1.5t5.5 1.5
q2 0 4.5 0.5t4.5 0.5l40 1q8 -1 13 -3t8 -7q2 -2 3 -4.5t2 -4.5v-5.5v-4.5v-1l-1 -1q-1 -5 -3 -8.5t-5 -6.5q-4 -4 -7.5 -6.5t-8.5 -4.5l-214 -92q-4 -4 -8.5 -5.5t-7.5 -3.5q-4 -1 -7 -1.5t-5 -0.5l-40 1l-7 1l-1 5q0 1 1.5 2.5l3.5 3.5l5 5t7 6v2v0z" />
    <glyph glyph-name="ecircumflex" unicode="&#xea;" horiz-adv-x="544" 
d="M244 268q-9 -2 -14.5 -4t-7.5 -6q-1 -1 -2 -3l-2 -4q-2 -5 -3.5 -11t-4.5 -14v-1l-1 -2q-7 -30 -3.5 -57t16.5 -53q13 -25 31.5 -42t42.5 -26q7 -2 14 -3.5t14 -3.5q1 0 2 -0.5t2 -0.5h2h2q13 1 25.5 4t25.5 7q17 6 30.5 13t23.5 16q12 11 22 17t17 6l40 1q6 -1 9 -3
t1 -7q0 -1 -0.5 -2l-0.5 -1q-1 -1 -1.5 -2t-1.5 -2q0 -1 -0.5 -2t-1.5 -1q-1 -1 -1.5 -2t-1.5 -2q-21 -21 -46 -37t-54 -27q-9 -3 -19 -6t-19 -6q-19 -4 -38 -7t-38 -3h-40h-2h-1q-43 1 -79.5 15t-64.5 43t-33.5 75t10.5 110q13 47 43 87t77 71q47 32 97 47.5t103 15.5l40 1
q35 -1 60 -8.5t41 -22.5q14 -15 23.5 -31t11.5 -34q2 -8 2.5 -16.5t-0.5 -16.5t-1.5 -15.5t-2.5 -13.5q-2 -7 -4.5 -12.5t-5.5 -10.5q-2 -4 -4.5 -6.5t-4.5 -2.5l-40 1l-284 1v0zM253 299h103q29 -2 52 2t36 11q14 8 23 16.5t12 18.5v4t1 4v2v3q-1 1 -1 2v2q-1 11 -6 20.5
t-13 18.5t-18.5 15t-21.5 10h-1.5h-1.5h-0.5t-0.5 1h-2h-3q-17 -1 -33.5 -6t-30.5 -13q-21 -10 -38 -22t-30 -25q-7 -6 -12 -12t-9 -12q-5 -6 -7.5 -11.5t-3.5 -10.5q-1 -4 -1 -8t2 -7q0 -1 1.5 -2t3.5 -2v1zM407 669q4 1 6.5 2t5.5 3q2 0 3.5 1t2.5 1q2 1 4.5 1.5t5.5 1.5
h2.5h2.5l40 1q3 -1 6 -1.5t6 -2.5q1 0 1.5 -1t1.5 -1l3.5 -3.5t2.5 -3.5l72 -116q5 -11 6.5 -18.5t-1.5 -12.5q-3 -4 -6 -7t-8 -3l-40 1h-3l-2 1l-6 3l-4 4l-74 78v-1v0l-112 -68q-6 -5 -11 -7l-10 -4q-4 -1 -7.5 -2t-5.5 -1l-40 1l-6 2q-1 0 -1.5 1.5t0.5 3.5q0 2 1 4t3 4
t4 5t5 6l152 128v0v0z" />
    <glyph glyph-name="edieresis" unicode="&#xeb;" horiz-adv-x="544" 
d="M244 268q-9 -2 -14.5 -4t-7.5 -6q-1 -1 -2 -3l-2 -4q-2 -5 -3.5 -11t-4.5 -14v-1l-1 -2q-7 -30 -3.5 -57t16.5 -53q13 -25 31.5 -42t42.5 -26q7 -2 14 -3.5t14 -3.5q1 0 2 -0.5t2 -0.5h2h2q13 1 25.5 4t25.5 7q17 6 30.5 13t23.5 16q12 11 22 17t17 6l40 1q6 -1 9 -3
t1 -7q0 -1 -0.5 -2l-0.5 -1q-1 -1 -1.5 -2t-1.5 -2q0 -1 -0.5 -2t-1.5 -1q-1 -1 -1.5 -2t-1.5 -2q-21 -21 -46 -37t-54 -27q-9 -3 -19 -6t-19 -6q-19 -4 -38 -7t-38 -3h-40h-2h-1q-43 1 -79.5 15t-64.5 43t-33.5 75t10.5 110q13 47 43 87t77 71q47 32 97 47.5t103 15.5l40 1
q35 -1 60 -8.5t41 -22.5q14 -15 23.5 -31t11.5 -34q2 -8 2.5 -16.5t-0.5 -16.5t-1.5 -15.5t-2.5 -13.5q-2 -7 -4.5 -12.5t-5.5 -10.5q-2 -4 -4.5 -6.5t-4.5 -2.5l-40 1l-284 1v0zM253 299h103q29 -2 52 2t36 11q14 8 23 16.5t12 18.5v4t1 4v2v3q-1 1 -1 2v2q-1 11 -6 20.5
t-13 18.5t-18.5 15t-21.5 10h-1.5h-1.5h-0.5t-0.5 1h-2h-3q-17 -1 -33.5 -6t-30.5 -13q-21 -10 -38 -22t-30 -25q-7 -6 -12 -12t-9 -12q-5 -6 -7.5 -11.5t-3.5 -10.5q-1 -4 -1 -8t2 -7q0 -1 1.5 -2t3.5 -2v1zM290 583q2 8 7.5 15.5t13.5 13.5t16 9t16 4l40 1h1h2
q8 -1 14.5 -4t10.5 -8q5 -5 6 -13.5t-2 -19.5q-3 -13 -9 -23t-14 -17q-9 -7 -17 -10t-16 -3l-40 1q-8 -2 -15 1t-12 10t-5.5 17.5t2.5 23.5l1 2v0zM471 583q2 9 7.5 16.5t14.5 13.5q5 3 9 5.5t9 3.5q4 2 8.5 2.5t8.5 0.5l40 1q8 -1 14.5 -4t10.5 -8q5 -5 6 -13.5t-2 -19.5
q-3 -13 -9 -23t-14 -17q-9 -7 -17.5 -10t-16.5 -3l-40 1q-8 -2 -15 1t-12 10t-5.5 17.5t2.5 23.5l1 2v0z" />
    <glyph glyph-name="igrave" unicode="&#xec;" horiz-adv-x="300" 
d="M192 339q2 6 0.5 10.5t-5.5 6.5q-2 1 -4.5 2t-4.5 2q-3 1 -5.5 1.5t-4.5 0.5l-4 1l-3 1q-5 -1 -9.5 0t-7.5 2q-4 1 -4.5 3.5t0.5 6.5q1 3 2 5.5t5 4.5t8.5 4.5t9.5 4.5l4 2t5 2q2 0 4.5 1t5.5 2q6 2 12 4.5t12 5.5q2 1 4.5 2t4.5 2q4 2 8.5 4.5t9.5 5.5t9.5 6.5t8.5 6.5
q2 2 4.5 4t4.5 4l1 3l3 2q6 6 11.5 8t9.5 0l40 1q4 -3 4.5 -8.5t-1.5 -13.5l-101 -376q-3 -12 -1.5 -19t6.5 -10t12.5 -4t14.5 -1h3h4q6 -1 11.5 -1.5t9.5 -1.5t6 -4t1 -8q-2 -6 -6.5 -10t-10.5 -4q-7 -2 -15.5 -3t-17.5 -1h-40h-2.5h-2.5q-2 1 -3 1h-3h-6h-6h-2h-2
q-1 1 -2 1h-2h-2h-1h-2h-2h-2h-2q-2 1 -3 1h-2h-0.5h-0.5h-0.5h-0.5q-4 0 -8.5 -0.5t-9.5 -1.5h-5h-4h-4.5t-4.5 -1h-3.5h-3.5h-4t-3 -1h-3.5h-3.5h-40q-7 0 -12 0.5t-9 2.5q-4 1 -6 2.5t-1 5.5q2 8 5.5 12.5t7.5 5.5q3 1 5.5 1.5t4.5 1.5q2 0 4.5 0.5t5.5 0.5l2 1h2h2h3
q6 -1 12.5 0t13.5 4q5 2 10 9t8 19l74 278v0v0zM357 512l-164 94q-5 1 -8 3t-4 6t-1 8t1 8q2 5 5 10.5t7 9.5q5 5 11 7t13 2l40 1l8 -2t9 -3q4 -2 8.5 -5t8.5 -7l126 -116l2 -4l3 -2l2 -6l1 -4l-5 -6q-1 -2 -3 -2.5t-4 -0.5l-40 1q-1 -1 -3.5 -1t-4.5 1t-3.5 1.5t-2.5 1.5
l-1.5 1.5l-1.5 1.5l1 2v0z" />
    <glyph glyph-name="iacute" unicode="&#xed;" horiz-adv-x="300" 
d="M192 339q2 6 0.5 10.5t-5.5 6.5q-2 1 -4.5 2t-4.5 2q-3 1 -5.5 1.5t-4.5 0.5l-4 1l-3 1q-5 -1 -9.5 0t-7.5 2q-4 1 -4.5 3.5t0.5 6.5q1 3 2 5.5t5 4.5t8.5 4.5t9.5 4.5l4 2t5 2q2 0 4.5 1t5.5 2q6 2 12 4.5t12 5.5q2 1 4.5 2t4.5 2q4 2 8.5 4.5t9.5 5.5t9.5 6.5t8.5 6.5
q2 2 4.5 4t4.5 4l1 3l3 2q6 6 11.5 8t9.5 0l40 1q4 -3 4.5 -8.5t-1.5 -13.5l-101 -376q-3 -12 -1.5 -19t6.5 -10t12.5 -4t14.5 -1h3h4q6 -1 11.5 -1.5t9.5 -1.5t6 -4t1 -8q-2 -6 -6.5 -10t-10.5 -4q-7 -2 -15.5 -3t-17.5 -1h-40h-2.5h-2.5q-2 1 -3 1h-3h-6h-6h-2h-2
q-1 1 -2 1h-2h-2h-1h-2h-2h-2h-2q-2 1 -3 1h-2h-0.5h-0.5h-0.5h-0.5q-4 0 -8.5 -0.5t-9.5 -1.5h-5h-4h-4.5t-4.5 -1h-3.5h-3.5h-4t-3 -1h-3.5h-3.5h-40q-7 0 -12 0.5t-9 2.5q-4 1 -6 2.5t-1 5.5q2 8 5.5 12.5t7.5 5.5q3 1 5.5 1.5t4.5 1.5q2 0 4.5 0.5t5.5 0.5l2 1h2h2h3
q6 -1 12.5 0t13.5 4q5 2 10 9t8 19l74 278v0v0zM172 528l190 118q6 2 12 5t12 5q2 1 4.5 1.5t5.5 1.5q2 0 4.5 0.5t4.5 0.5l40 1q8 -1 12.5 -3t7.5 -7q2 -2 3 -4.5t2 -4.5v-5.5v-4.5v-1l-1 -1q-1 -5 -3 -8.5t-4 -6.5q-4 -4 -7.5 -6.5t-8.5 -4.5l-214 -92q-5 -4 -9.5 -5.5
l-7.5 -2.5q-4 -1 -7 -1.5t-5 -0.5l-40 1q-4 -2 -6 -0.5t-1 4.5t5 8t11 11v2v0z" />
    <glyph glyph-name="icircumflex" unicode="&#xee;" horiz-adv-x="300" 
d="M192 339q2 6 0.5 10.5t-5.5 6.5q-2 1 -4.5 2t-4.5 2q-3 1 -5.5 1.5t-4.5 0.5l-4 1l-3 1q-5 -1 -9.5 0t-7.5 2q-4 1 -4.5 3.5t0.5 6.5q1 3 2 5.5t5 4.5t8.5 4.5t9.5 4.5l4 2t5 2q2 0 4.5 1t5.5 2q6 2 12 4.5t12 5.5q2 1 4.5 2t4.5 2q4 2 8.5 4.5t9.5 5.5t9.5 6.5t8.5 6.5
q2 2 4.5 4t4.5 4l1 3l3 2q6 6 11.5 8t9.5 0l40 1q4 -3 4.5 -8.5t-1.5 -13.5l-101 -376q-3 -12 -1.5 -19t6.5 -10t12.5 -4t14.5 -1h3h4q6 -1 11.5 -1.5t9.5 -1.5t6 -4t1 -8q-2 -6 -6.5 -10t-10.5 -4q-7 -2 -15.5 -3t-17.5 -1h-40h-2.5h-2.5q-2 1 -3 1h-3h-6h-6h-2h-2
q-1 1 -2 1h-2h-2h-1h-2h-2h-2h-2q-2 1 -3 1h-2h-0.5h-0.5h-0.5h-0.5q-4 0 -8.5 -0.5t-9.5 -1.5h-5h-4h-4.5t-4.5 -1h-3.5h-3.5h-4t-3 -1h-3.5h-3.5h-40q-7 0 -12 0.5t-9 2.5q-4 1 -6 2.5t-1 5.5q2 8 5.5 12.5t7.5 5.5q3 1 5.5 1.5t4.5 1.5q2 0 4.5 0.5t5.5 0.5l2 1h2h2h3
q6 -1 12.5 0t13.5 4q5 2 10 9t8 19l74 278v0v0zM273 669q4 1 6.5 2t5.5 3q2 0 3.5 1t2.5 1q2 1 4.5 1.5t5.5 1.5h2.5h2.5l40 1q4 -1 7 -1.5t6 -2.5q1 0 1.5 -1t1.5 -1l3.5 -3.5t2.5 -3.5l71 -116q5 -11 6.5 -18.5t-1.5 -12.5q-3 -4 -6 -7t-8 -3l-40 1h-3l-2 1l-6 3l-4 4
l-74 78v-1v0l-112 -68q-4 -4 -7.5 -6.5t-7.5 -3.5q-1 -1 -2 -1.5t-2 -0.5q-4 -1 -7.5 -1.5t-6.5 -0.5l-40 1l-6 2q-1 0 -1 1.5t1 3.5q0 2 1.5 4t2.5 5q2 2 4 4.5t4 5.5l151 128v0v0z" />
    </font>
</defs>
</svg>
